<svg version="1.1" id="Layer_1" xmlns="http://www.w3.org/2000/svg" xmlns:xlink="http://www.w3.org/1999/xlink" x="0px" y="0px"
	 width="100%" viewBox="0 0 848 848" enable-background="new 0 0 848 848" xml:space="preserve">
<path fill="#000000" opacity="1.000000" stroke="none"
	d="
M288.998840,73.815140
	C303.164185,73.781883 316.834137,73.967209 330.493500,73.668282
	C354.180878,73.149879 377.856384,74.145767 401.542725,73.879814
	C425.371033,73.612267 449.204773,73.795677 473.036072,73.827797
	C496.699158,73.859688 520.362122,73.975006 544.025269,74.006332
	C567.856445,74.037880 591.697449,73.594193 615.515625,74.150658
	C632.510071,74.547714 649.495667,74.331444 666.482361,74.601929
	C675.735657,74.749275 679.647705,79.218353 680.380127,88.549110
	C682.248962,112.356194 680.616577,136.185837 681.285828,159.992142
	C681.552490,169.476990 682.366821,178.939987 682.274475,188.446564
	C682.224060,193.631592 681.531982,198.738205 681.150391,203.882263
	C680.679504,210.229980 682.573364,212.579407 688.975220,212.699890
	C698.967346,212.887970 708.992859,213.057297 718.957642,212.459106
	C729.008789,211.855743 738.901306,212.683044 748.831970,213.793900
	C752.056946,214.154663 753.534058,215.614227 753.399780,218.985199
	C753.220703,223.477509 753.309387,227.983459 753.377197,232.482117
	C753.625671,248.963898 753.979797,265.444366 754.161560,281.926788
	C754.275146,292.240906 751.703369,294.665985 741.566895,294.333893
	C733.868347,294.081665 731.567261,296.478455 732.821289,304.266998
	C737.922668,335.952057 741.942017,367.803497 747.609863,399.402527
	C750.099670,413.283539 749.944763,426.958710 742.505371,439.648438
	C739.246155,445.207764 735.029724,450.043732 729.593079,453.344055
	C723.849121,456.830933 722.145935,461.489105 722.161316,467.916046
	C722.312073,530.910583 722.265381,593.905518 722.268311,656.900391
	C722.270081,694.397217 722.279785,731.894104 722.236572,769.390930
	C722.229431,775.569214 722.745422,781.437805 728.364990,785.438477
	C729.901428,786.532288 729.992615,788.259033 729.995422,789.950134
	C730.009766,798.449158 729.906128,806.950073 730.060059,815.446411
	C730.132874,819.466125 728.304443,820.619568 724.569763,820.440735
	C708.426208,819.667908 692.263855,820.456299 676.127075,820.586365
	C654.652405,820.759338 633.168213,820.541626 611.701538,820.567932
	C582.550598,820.603638 553.388000,820.426331 524.231323,820.396973
	C444.905884,820.317139 365.580353,820.385010 286.254852,820.388733
	C250.770218,820.390442 215.285309,820.313843 179.801270,820.456543
	C175.468231,820.473938 173.838120,819.163269 173.925766,814.789246
	C174.162537,802.972473 174.942780,791.096069 174.590927,779.357056
	C173.991760,759.367126 174.050446,739.393311 174.030594,719.414185
	C173.946350,634.588440 173.933945,549.762512 174.070435,464.936859
	C174.079346,459.401215 172.686829,456.323792 167.573090,453.151733
	C151.114517,442.942627 144.386261,427.785126 146.038025,408.178650
	C147.693726,388.525848 153.544128,369.630646 155.271835,350.042816
	C156.618515,334.774841 159.705658,319.772583 162.393692,304.710907
	C163.862732,296.479584 161.189102,293.699677 152.740112,294.629486
	C145.743408,295.399475 141.847992,292.184479 141.757782,285.144531
	C141.616867,274.147797 141.389038,263.135193 141.821762,252.153885
	C142.128632,244.365921 139.852737,236.906281 140.477371,228.984131
	C141.444504,216.718033 145.757568,211.185928 158.089844,212.049377
	C173.589783,213.134583 189.060440,212.639923 204.545471,212.631775
	C212.806641,212.627426 214.982224,210.429245 214.628494,202.129715
	C213.536255,176.502396 213.853165,150.860855 213.687561,125.224083
	C213.670349,122.560471 213.783829,119.932983 212.352280,117.460945
	C211.816772,116.536224 211.441452,114.952240 211.870590,114.122871
	C216.267761,105.624588 212.897446,96.398514 214.510696,87.595192
	C216.243958,78.137032 218.988708,74.619606 228.593948,74.123146
	C233.724121,73.857979 238.899078,74.621040 244.050140,74.567360
	C258.867310,74.412979 273.682617,74.079102 288.998840,73.815140
M251.500610,494.787689
	C287.825165,494.797913 324.149689,494.808075 360.474243,494.818420
	C367.139618,494.820343 373.813934,495.034119 380.467316,494.752563
	C385.090973,494.556885 387.333069,496.020691 387.089905,500.925476
	C386.900665,504.742981 387.278748,508.584900 387.281464,512.416077
	C387.333649,585.734375 387.371582,659.052734 387.398499,732.371033
	C387.400940,739.033875 387.336212,745.697144 387.248352,752.359436
	C387.205231,755.627075 387.940918,758.808777 391.493500,759.335388
	C396.083008,760.015747 396.685883,762.678650 396.296906,766.374084
	C395.917267,769.980469 397.761627,771.471375 401.160431,771.840027
	C405.466583,772.307007 409.747498,772.837463 414.100555,772.838623
	C504.082123,772.863342 594.063721,772.929443 684.045288,772.985229
	C693.771606,772.991272 703.533325,772.259705 713.508240,775.202454
	C713.628479,772.638428 713.786621,770.839172 713.786682,769.039917
	C713.787842,673.892395 713.773804,578.744873 713.770447,483.597321
	C713.770325,479.103271 713.473145,474.565613 713.982666,470.124939
	C714.844727,462.610901 714.717102,462.174805 706.963379,462.329956
	C687.820557,462.712982 672.759094,455.144775 661.827759,439.390259
	C661.209778,438.499542 660.850708,437.198395 658.877686,437.276459
	C649.586365,452.661865 636.016541,461.909698 617.417847,462.100250
	C598.716064,462.291870 585.540222,452.247528 575.188171,436.736542
	C570.590637,442.073914 566.326538,446.472473 561.512024,450.269653
	C550.792725,458.723877 539.133606,464.140625 525.021912,461.237000
	C514.899536,459.154297 506.663361,453.656799 499.215881,446.749451
	C495.976288,443.744812 493.315063,440.083221 489.054443,437.370422
	C479.162140,452.655029 465.669617,461.840027 447.331482,462.037354
	C428.611115,462.238831 415.722260,451.530487 404.886536,437.079468
	C403.199493,438.891449 402.040314,440.047058 400.981812,441.288544
	C396.076416,447.042297 390.464661,451.992920 383.964142,455.846985
	C375.242737,461.017731 365.969452,463.477936 355.750183,461.376678
	C345.794250,459.329620 337.533966,454.232513 330.126160,447.560669
	C326.579163,444.366058 323.218842,440.964294 319.404510,437.301605
	C314.644653,443.074585 309.997498,448.283661 304.406952,452.515625
	C291.819885,462.043915 278.194580,465.227661 263.110016,459.183197
	C253.969864,455.520660 246.421997,449.573700 239.563736,442.630249
	C238.090988,441.139130 236.978333,439.097046 234.152802,438.570953
	C230.907211,442.059570 227.544983,445.721558 224.130661,449.334351
	C214.878601,459.124115 202.699203,461.322906 190.096252,462.369507
	C187.885864,462.553070 185.196198,461.613495 185.496140,465.610626
	C186.954681,485.047638 187.117279,504.532776 187.024857,524.004639
	C186.858017,559.152466 187.289001,594.297058 186.642014,629.451355
	C186.029236,662.746399 185.557678,696.070374 187.157578,729.375122
	C187.636871,739.352417 187.211700,749.369934 187.446472,759.363220
	C187.671890,768.957581 191.843094,772.844727 201.399063,772.986084
	C205.888123,773.052490 210.380417,772.779846 214.858444,773.585205
	C221.926956,774.856384 221.936630,774.771545 221.947403,767.670471
	C221.949677,766.171814 221.947861,764.668640 222.060471,763.176025
	C222.166397,761.772156 222.719925,760.299316 224.190887,760.119873
	C231.345062,759.247070 230.860794,754.037781 230.883835,748.917297
	C231.196411,679.446289 230.048904,609.970764 231.587601,540.502991
	C231.886444,527.011353 231.903473,513.510132 231.801178,500.015198
	C231.771515,496.101013 233.099304,494.565125 237.005692,494.741699
	C241.495575,494.944611 246.001801,494.786346 251.500610,494.787689
M670.813354,88.191910
	C670.470581,85.627380 668.441101,85.076477 666.444885,84.879028
	C662.643066,84.502975 658.815552,84.192436 654.998657,84.191032
	C535.019836,84.146797 415.041046,84.153374 295.062225,84.123375
	C274.734375,84.118294 254.406570,83.935349 234.078720,83.930237
	C225.977478,83.928200 223.669022,86.208351 223.604309,94.360397
	C223.552856,100.843536 223.985596,107.329201 224.012848,113.814537
	C224.101013,134.810287 224.122406,155.806412 224.125458,176.802383
	C224.126709,185.461655 224.693176,194.137146 223.814117,202.775864
	C223.115753,209.638794 225.156387,212.380798 232.156036,212.727142
	C237.308273,212.982056 242.482574,212.797775 247.647049,212.797455
	C384.622894,212.789139 521.598755,212.780853 658.574585,212.766693
	C669.423157,212.765564 671.847046,210.354538 671.679016,199.504471
	C671.588806,193.681534 671.083374,187.862869 671.064514,182.041321
	C670.964172,151.047470 670.958557,120.053322 670.813354,88.191910
M714.400391,266.020813
	C719.016479,265.918488 724.249817,266.923340 727.179565,262.265259
	C730.460510,257.048737 730.645447,251.158905 728.104858,245.498901
	C725.887878,240.559784 721.120544,240.979370 716.826843,240.988098
	C672.682983,241.077728 628.542419,240.838409 584.398560,240.584656
	C453.598663,239.832764 322.794769,240.376053 191.993210,240.971176
	C186.162003,240.997711 180.331116,241.089798 174.500015,241.144241
	C172.473984,241.163147 170.448364,241.267151 168.877060,242.752747
	C163.922638,247.436981 164.673294,253.391281 165.767548,259.111572
	C166.689224,263.929749 170.805099,265.224731 175.161636,265.959869
	C180.990204,266.943359 186.787201,265.942230 192.597488,265.988434
	C254.577789,266.481384 316.558533,265.948822 378.542725,266.419830
	C453.339905,266.988190 528.146790,266.263458 602.949524,266.126007
	C639.775085,266.058319 676.600769,266.052673 714.400391,266.020813
M400.490997,279.479431
	C399.011780,275.296936 395.514099,275.079102 391.891785,275.095306
	C377.080963,275.161652 362.278198,276.043182 347.462982,274.487701
	C340.323547,273.738129 336.307343,276.949127 335.190186,284.048279
	C334.081757,291.091858 333.770599,298.270691 333.297729,305.402649
	C331.910248,326.328430 330.743622,347.269379 328.455444,368.126312
	C327.367462,378.043457 326.048767,387.953094 325.466980,397.903107
	C324.842438,408.583923 328.596466,412.332550 339.233582,413.092865
	C341.093567,413.225830 343.349640,412.680542 344.311584,415.234955
	C343.174377,417.836304 340.888977,418.216400 338.523041,418.257721
	C336.194061,418.298401 333.859894,418.047546 331.531006,418.090210
	C326.038422,418.190796 324.303314,420.477692 325.610229,425.735260
	C329.591766,441.752869 345.837952,453.384247 363.714661,453.015991
	C381.293823,452.653839 394.992126,441.293060 398.443634,424.213135
	C399.397461,419.492920 398.458160,418.299347 393.393616,418.246399
	C388.230255,418.192383 383.062836,418.425995 377.901581,418.319366
	C374.613434,418.251434 371.293762,417.878632 369.144836,414.300812
	C372.502747,411.335022 376.423737,410.841980 380.422760,410.938873
	C383.744324,411.019379 387.051392,411.624451 390.374084,411.746826
	C398.786804,412.056702 400.879822,410.055939 400.880127,401.768951
	C400.881073,375.443665 400.855896,349.118347 400.815643,322.793091
	C400.793976,308.634369 400.720886,294.475739 400.490997,279.479431
M660.241821,366.461426
	C660.946716,376.753357 661.477173,387.061188 662.414917,397.331848
	C663.093323,404.762726 665.186951,411.534790 673.681396,413.769257
	C674.383606,413.953918 674.733215,414.516449 674.589050,415.501892
	C674.210205,415.810425 673.765747,416.356049 673.192078,416.612213
	C663.603943,420.893188 665.125977,427.439758 669.246033,433.634430
	C670.260620,435.159882 671.196167,436.747711 672.316895,438.191315
	C681.836670,450.453918 694.667725,454.888153 709.521851,452.353333
	C724.671875,449.768036 734.208008,440.107330 739.033325,425.644226
	C740.355591,421.681091 738.532166,419.528656 734.960938,418.587830
	C733.225098,418.130524 731.321899,418.136841 729.502991,418.195465
	C720.357178,418.490265 711.215454,419.090759 702.069824,419.140900
	C696.525452,419.171326 690.962646,418.446991 685.194702,414.766296
	C690.266113,411.644745 695.037903,411.067078 699.726013,411.057739
	C709.707642,411.037903 719.690796,411.682892 729.672119,411.650848
	C738.306885,411.623169 739.792725,409.406219 738.327759,400.834045
	C731.740417,362.288727 725.985107,323.615601 720.679382,284.875031
	C719.570435,276.777985 717.898804,275.227386 709.837219,275.237701
	C695.344238,275.256226 680.850220,275.367981 666.358521,275.236145
	C653.180603,275.116272 651.957947,276.402893 653.425903,289.456696
	C656.271240,314.758392 658.179565,340.145294 660.241821,366.461426
M504.048004,440.430145
	C520.472412,460.897766 557.823730,456.394531 568.184082,428.371918
	C571.178406,420.273010 569.788696,418.203888 561.109619,418.220306
	C547.785400,418.245483 534.461182,418.241028 521.136963,418.275543
	C518.167786,418.283234 514.957581,418.245880 514.967285,414.297058
	C514.977173,410.270782 518.371033,411.563934 520.639587,411.565582
	C534.286072,411.575439 547.932617,411.714844 561.579102,411.715576
	C568.170715,411.715912 569.914368,409.832245 569.696350,403.342834
	C569.646118,401.846283 569.523682,400.349792 569.374268,398.859314
	C566.585327,371.052368 564.439270,343.195526 562.564148,315.312103
	C561.907043,305.541779 561.613037,295.695129 559.409546,286.073608
	C558.175476,280.684723 555.123718,277.273895 549.495361,276.182251
	C546.362366,275.574585 543.250427,275.279480 540.080200,275.272369
	C528.254883,275.245850 516.429016,275.260132 504.604523,275.139008
	C495.407593,275.044800 494.177155,276.103271 494.223938,285.428680
	C494.437775,328.060516 494.685394,370.692169 494.956757,413.323700
	C495.018799,423.069794 497.439026,432.094666 504.048004,440.430145
M615.944580,424.503845
	C620.592712,425.630371 624.092773,428.954803 628.262939,431.013489
	C630.157959,431.949036 631.708801,433.697968 631.411377,436.260925
	C631.056641,439.316559 633.013000,439.877563 635.431030,440.006561
	C642.150146,440.365112 651.473450,430.897461 650.765320,424.222137
	C650.433350,421.093262 648.754211,419.111847 645.240906,418.935303
	C641.533264,418.748993 635.804932,418.946594 636.102295,414.632538
	C636.378723,410.623871 642.178223,411.123322 645.937500,411.218140
	C652.919006,411.394165 654.906982,409.045563 654.244202,401.846252
	C652.413635,381.962097 650.698669,362.066467 649.080933,342.163757
	C647.530029,323.081696 646.212585,303.980713 644.678894,284.897186
	C644.135803,278.139404 641.356201,275.418304 634.895508,275.380951
	C615.567993,275.269165 596.239441,275.267426 576.911560,275.316498
	C571.680481,275.329773 569.297668,277.433899 568.589294,282.652039
	C568.281067,284.922516 568.527100,287.300842 568.758545,289.606384
	C569.855530,300.532410 571.304688,311.429932 572.126526,322.375275
	C573.733887,343.781372 576.291321,365.122162 576.505920,386.632233
	C576.550415,391.087067 577.429260,395.577789 578.324280,399.970337
	C579.978943,408.091705 584.607605,412.321808 592.772034,413.760468
	C594.440186,414.054443 596.569153,413.592651 597.295898,416.198181
	C593.799561,420.103149 587.897583,417.622711 584.288147,420.747406
	C584.120056,422.534912 587.134827,424.868073 583.085449,425.387024
	C581.623352,425.574402 581.929077,426.898224 582.179688,427.758301
	C583.389221,431.910278 584.921265,435.887085 588.990662,438.159943
	C592.907898,435.103882 596.017273,432.243378 596.361023,426.784332
	C596.695007,421.479614 601.145325,419.422577 606.249878,421.154327
	C609.243530,422.169922 612.220886,423.233551 615.944580,424.503845
M484.987854,380.492401
	C485.009613,348.502869 485.048615,316.513306 485.040710,284.523773
	C485.038788,276.662628 483.515991,275.174164 475.667297,275.169769
	C457.174072,275.159393 438.680817,275.192841 420.187592,275.204437
	C410.668030,275.210419 408.402802,277.152069 408.370392,286.901123
	C408.309448,305.213226 408.691589,323.526367 408.751282,341.839508
	C408.813171,360.824371 409.436401,379.814087 408.375244,398.793396
	C408.131042,403.160797 408.136932,407.617584 411.279877,411.095306
	C413.752289,413.831085 413.854645,416.497070 412.668213,419.810333
	C410.406891,426.125336 411.696777,429.851410 417.388336,434.671051
	C418.639008,430.719452 419.908234,426.853699 421.077454,422.957916
	C421.721375,420.812378 423.142426,420.010468 425.230072,420.309479
	C427.328094,420.609955 428.530731,421.788574 428.401031,424.036163
	C428.325867,425.338348 428.235535,426.639648 428.148926,427.989441
	C427.516327,428.122284 427.050415,428.290649 426.579468,428.306274
	C424.903534,428.361969 422.746979,428.219971 422.924164,430.526459
	C423.079468,432.547882 425.066193,432.838135 426.847626,432.508911
	C428.437164,432.215179 429.806549,432.605255 431.102753,433.475891
	C434.246399,435.587402 436.845398,434.327240 439.093445,431.989807
	C440.927826,430.082489 442.632294,428.031799 444.232635,425.921967
	C446.985596,422.292572 446.236176,419.584442 442.142578,417.978851
	C440.253906,417.238098 437.942108,416.533112 438.292938,414.093353
	C438.682251,411.386261 441.300323,411.949341 443.187958,411.927643
	C453.349854,411.810791 463.512848,411.784851 473.675446,411.730347
	C483.120209,411.679657 485.500000,409.457611 485.559784,399.943451
	C485.598480,393.793060 485.194794,387.639893 484.987854,380.492401
M322.464020,332.018677
	C322.739929,328.201294 322.959198,324.378845 323.302155,320.567505
	C324.419891,308.146759 325.778473,295.743683 326.642731,283.305878
	C327.052490,277.408905 324.798309,275.266388 319.091339,275.254456
	C298.936493,275.212341 278.781128,275.244080 258.626587,275.358765
	C253.329788,275.388885 250.829971,277.614716 250.339828,282.709351
	C249.495514,291.485321 248.914612,300.286407 248.191513,309.074310
	C246.595810,328.467102 245.180374,347.877686 243.294418,367.242371
	C242.244568,378.022064 241.593643,388.818237 241.302155,399.617920
	C241.083420,407.721710 244.413849,410.656708 252.542557,410.980011
	C259.692902,411.264374 266.846588,411.463562 273.998535,411.708435
	C283.306152,412.027100 292.574432,410.702179 301.934692,411.667450
	C313.218842,412.831055 317.466034,408.726593 317.644073,397.140717
	C317.974335,375.642822 321.038818,354.353760 322.464020,332.018677
M202.500275,411.013702
	C208.991684,411.109283 215.492538,411.019806 221.971893,411.351044
	C228.807922,411.700562 231.226700,409.569794 231.731720,402.627411
	C233.264069,381.562500 234.835754,360.499664 236.554077,339.449219
	C238.096161,320.557526 239.861557,301.684113 241.508331,282.800873
	C241.927551,277.993805 240.105942,275.359985 235.731659,275.319092
	C218.249786,275.155609 200.765991,275.165009 183.282974,275.178772
	C178.880249,275.182220 176.127029,277.698181 174.842178,281.717072
	C174.088745,284.073792 173.692490,286.562744 173.319214,289.020111
	C170.421555,308.096191 167.461136,327.163696 164.732986,346.264252
	C162.147690,364.364807 158.555206,382.329865 157.050934,400.573395
	C156.379684,408.714233 158.477585,410.480469 166.570297,411.058319
	C178.227325,411.890747 189.858627,410.883301 202.500275,411.013702
M304.500000,808.697693
	C414.293610,808.408203 524.089355,809.446533 633.881592,808.136658
	C648.696777,807.959900 663.532898,807.647034 678.327637,808.218262
	C691.691040,808.734253 704.889893,806.690735 718.194885,806.764832
	C719.748291,806.773499 721.387573,806.484131 721.574036,804.551270
	C722.006531,800.068359 722.497925,795.499573 719.770691,791.483459
	C717.879028,788.697754 715.596130,787.314209 712.255737,789.724243
	C707.997864,792.796204 703.061279,793.669006 697.965210,792.901367
	C693.808777,792.275208 689.663940,792.300903 685.505920,792.329102
	C657.222534,792.521057 628.939697,792.830017 600.656067,792.935913
	C566.845276,793.062439 533.033936,793.053650 499.222839,793.051453
	C401.754272,793.045166 304.285736,793.009705 206.817184,793.002563
	C203.320328,793.002319 199.803207,792.978149 196.331909,793.326965
	C192.310806,793.731018 188.395660,794.735657 185.767181,798.221008
	C184.167511,800.342224 183.641617,802.815796 184.607193,805.309631
	C185.544098,807.729431 187.861252,807.863342 190.070465,807.979919
	C194.057938,808.190430 198.044449,808.591858 202.032028,808.600342
	C235.854599,808.672180 269.677307,808.673279 304.500000,808.697693
M239.076614,698.500000
	C239.073074,714.999756 239.048752,731.499634 239.073807,747.999329
	C239.088715,757.809021 240.977997,759.693420 250.747574,759.703796
	C289.413361,759.744812 328.079132,759.766052 366.744904,759.799683
	C377.136047,759.808777 379.855042,757.185486 379.852814,746.884033
	C379.842712,699.885376 379.678680,652.886414 379.820374,605.888245
	C379.915314,574.403137 379.063629,542.912292 380.281189,511.431000
	C380.419647,507.851532 378.986267,505.319580 374.825623,505.192657
	C368.670074,505.004852 362.521027,504.496368 356.365723,504.424286
	C319.209015,503.989105 282.055054,503.976471 244.905670,505.126587
	C240.636230,505.258820 239.040070,506.662933 239.045731,511.007050
	C239.126709,573.171265 239.088852,635.335632 239.076614,698.500000
M319.500122,221.420776
	C272.016815,221.389221 224.533493,221.356949 177.050186,221.327118
	C171.718964,221.323776 166.382080,221.180283 161.057877,221.375671
	C153.731445,221.644547 150.332855,224.840744 150.737320,231.913071
	C151.642120,247.734833 151.063232,263.552979 151.181244,279.371613
	C151.195038,281.220337 151.227829,283.050903 152.944336,284.321503
	C155.489471,286.205475 161.969727,286.385254 163.807968,284.321106
	C166.554947,281.236542 166.622269,277.637054 164.775665,274.099426
	C164.024521,272.660400 162.725296,271.499084 161.634491,270.247070
	C153.600143,261.025177 154.760986,250.895370 159.073563,240.712830
	C162.747437,232.038300 170.557571,231.618439 178.504852,231.895462
	C179.669693,231.936066 180.837158,231.902893 182.003403,231.902878
	C359.607361,231.900955 537.211304,231.898758 714.815247,231.898193
	C718.311157,231.898193 721.786621,231.900894 725.254089,232.644547
	C730.742188,233.821533 734.485413,236.895523 736.722595,242.034180
	C740.900818,251.630798 738.782471,264.802887 731.441772,272.152985
	C728.234924,275.364014 727.683960,278.499786 729.793884,282.449646
	C732.420837,287.367493 736.543945,285.604492 740.364502,285.004120
	C745.057434,284.266724 743.940430,280.404419 743.963257,277.467224
	C744.064331,264.474915 743.512512,251.459824 744.097473,238.493576
	C744.797729,222.971802 743.601807,221.284210 727.855530,221.289185
	C592.070374,221.332047 456.285278,221.377289 319.500122,221.420776
M222.134491,418.296234
	C218.806122,418.332123 215.475967,418.456482 212.149704,418.388763
	C196.522720,418.070526 180.881454,419.099365 165.260986,417.455902
	C158.347122,416.728455 154.831650,419.748077 155.404358,425.425964
	C156.154633,432.864227 161.641968,437.670624 166.181686,442.912048
	C166.574753,443.365875 167.740173,443.322418 168.519531,443.242737
	C174.548843,442.626526 178.672211,445.711456 181.956192,450.239716
	C182.879288,451.512604 183.663147,452.498108 185.356628,452.768616
	C206.340240,456.120453 223.536865,443.143677 228.650894,426.329590
	C230.397293,420.587708 229.188156,418.939667 222.134491,418.296234
M252.674362,438.764282
	C258.003693,442.256805 263.762512,444.809509 269.921326,446.397064
	C277.604767,448.377625 280.859100,445.773132 282.194366,438.226501
	C282.941925,434.001404 280.664612,429.207977 284.549866,425.464325
	C286.035583,424.032745 287.668304,422.063660 286.332123,419.718658
	C285.136932,417.621155 282.792175,418.393921 280.878815,418.142792
	C271.070648,416.855438 261.469116,420.916504 251.625290,419.243347
	C249.617004,418.902008 248.679077,420.381653 248.554459,422.327148
	C248.374237,425.140808 248.897018,428.274597 247.824158,430.698181
	C245.654205,435.600037 247.945801,437.310486 252.674362,438.764282
M331.498169,767.409241
	C311.033752,767.639038 290.569183,767.853516 270.105194,768.116821
	C267.375519,768.151917 264.349213,767.819519 262.717224,772.419067
	C303.197021,772.419067 343.101929,772.419067 383.964569,772.419067
	C381.053131,768.261780 377.654999,768.210999 374.417389,768.140137
	C360.445282,767.834534 346.470642,767.643311 331.498169,767.409241
M614.275024,445.661804
	C616.764648,445.813416 619.416748,446.528107 621.416443,443.789032
	C618.932434,441.158875 616.055481,441.575745 613.503723,442.292999
	C610.951233,443.010406 611.517456,444.442322 614.275024,445.661804
z"/>
<path fill="#000000" opacity="1.000000" stroke="none"
	d="
M684.701172,713.226685
	C686.517883,719.173889 688.954895,724.489014 689.678162,730.361206
	C690.544006,737.391052 687.587280,743.287720 681.120850,746.226074
	C676.675110,748.246216 671.955444,749.194763 667.055725,749.193542
	C594.750610,749.175598 522.445496,749.159851 450.140381,749.146912
	C445.592316,749.146057 441.167908,748.317810 436.925171,746.783752
	C429.398621,744.062500 425.732208,737.698975 427.092926,729.824158
	C427.544647,727.210022 427.923004,724.413696 429.143677,722.133667
	C432.846558,715.217590 432.926025,707.862061 433.059204,700.302307
	C433.866058,654.499939 433.819305,608.693237 433.445099,562.893066
	C433.306427,545.918762 433.351105,528.931091 432.877747,511.954895
	C432.813354,509.644562 433.016663,507.288025 433.421051,505.010559
	C434.691315,497.856628 437.937500,494.998413 445.321320,494.820709
	C452.814117,494.640320 460.314362,494.762451 467.811340,494.762482
	C536.617493,494.762604 605.423706,494.764313 674.229858,494.767517
	C682.234009,494.767883 682.231934,494.773407 682.238647,502.710022
	C682.266541,535.696716 681.961365,568.688171 682.434753,601.668457
	C682.786072,626.144348 683.105957,650.618103 683.272156,675.095764
	C683.338684,684.894287 681.219971,694.677429 683.114197,704.483704
	C683.650208,707.258667 684.096130,710.050964 684.701172,713.226685
M445.242584,525.479980
	C442.510681,524.208130 441.328339,524.903992 441.328949,528.087036
	C441.333832,554.245361 441.100189,580.404724 441.268921,606.561584
	C441.328461,615.792847 443.425659,617.293884 452.681122,617.792053
	C466.158356,618.517395 479.577576,616.397400 493.101471,617.576050
	C510.692017,619.109009 528.347351,616.705566 545.989319,617.623291
	C559.141724,618.307495 572.316956,616.834473 585.437500,617.141541
	C603.096497,617.554871 620.722778,618.171082 638.369812,617.035278
	C646.870422,616.488098 655.331360,617.119507 663.814575,617.821533
	C672.368164,618.529297 675.429016,615.152649 674.739746,606.607056
	C674.472961,603.299011 673.832275,600.049500 673.845886,596.684021
	C673.935791,574.521362 673.898010,552.358154 673.855347,530.195190
	C673.851990,528.448853 674.385742,526.533813 672.625671,524.622314
	C666.709412,527.751404 660.913940,531.480225 654.113342,532.638733
	C643.916504,534.375793 634.132263,533.139404 627.055237,525.070557
	C620.588867,517.698120 617.018005,516.949280 610.209839,524.362061
	C606.471130,528.432739 602.122620,531.284424 596.823303,532.642761
	C585.730835,535.485901 570.002625,531.252625 562.527039,520.754517
	C560.920227,518.498108 558.630066,515.189941 555.602783,519.406921
	C550.520569,526.486389 543.689575,530.518616 535.328552,532.809692
	C523.607605,536.021423 510.083038,531.683411 503.044342,521.840942
	C501.939117,520.295471 501.389343,518.115356 499.019806,517.656921
	C494.459442,521.004272 490.060699,524.574951 485.330261,527.632507
	C476.067352,533.619629 466.477936,536.805359 455.920807,530.281860
	C452.833649,528.374207 449.253632,527.264282 445.242584,525.479980
M606.500061,627.375122
	C594.671448,627.339233 582.842346,627.221741 571.014526,627.300476
	C564.723938,627.342346 563.088867,629.306641 563.175842,635.481873
	C563.302490,644.475952 563.328979,653.472046 563.321777,662.467224
	C563.310547,676.597290 562.348389,690.720825 563.264160,704.861206
	C563.539429,709.111633 565.170837,711.747498 569.569031,711.338928
	C577.085327,710.640747 584.538757,711.651367 592.019287,711.668762
	C616.343323,711.725220 640.667603,711.665283 664.991821,711.638916
	C672.719971,711.630554 674.695251,709.676392 674.707092,701.870789
	C674.738525,681.211975 674.683472,660.553101 674.748291,639.894470
	C674.782288,629.060547 673.004761,627.226440 661.978577,627.254578
	C643.819092,627.300903 625.659607,627.336304 606.500061,627.375122
M553.689331,695.715576
	C553.408264,690.901855 552.903503,686.088928 552.887817,681.274353
	C552.840088,666.620789 552.999939,651.966736 553.042175,637.312744
	C553.072693,626.739380 553.046936,626.749695 542.840393,627.176880
	C541.011353,627.253479 539.177002,627.213562 537.345093,627.211426
	C519.358704,627.190796 501.372009,627.217957 483.386017,627.122925
	C473.908936,627.072876 464.444824,627.570312 454.950165,626.514099
	C446.788971,625.606201 443.846619,628.072632 442.883209,635.791016
	C439.963440,659.183411 441.045563,682.624207 442.386780,706.058533
	C442.539917,708.734253 444.177460,709.875000 446.584869,710.131165
	C452.206024,710.729248 457.831512,711.701538 463.460510,711.739746
	C488.252441,711.908081 513.049683,711.547424 537.838074,711.884033
	C552.863892,712.088074 553.944824,711.467651 553.689331,695.715576
M437.160034,736.279419
	C440.415100,740.049927 444.880676,739.710388 449.180939,739.711365
	C514.655518,739.726807 580.130310,739.783569 645.604492,739.612610
	C653.922913,739.590942 662.239441,739.767334 670.555359,739.670105
	C676.674316,739.598633 679.473633,737.498596 680.472900,732.588379
	C681.957397,725.293518 678.425171,721.172119 670.108398,721.121582
	C647.617859,720.985046 625.126221,721.055420 602.635071,721.002930
	C582.810120,720.956665 562.985352,720.852112 543.160461,720.779236
	C511.177612,720.661743 479.194092,720.388916 447.212341,720.526550
	C436.843903,720.571167 433.793518,725.503540 437.160034,736.279419
M483.472076,521.023193
	C486.523621,518.898010 488.921600,516.148560 490.812927,512.989685
	C494.462860,506.893646 493.132324,504.609833 486.188385,504.292847
	C473.916931,503.732635 461.619781,505.010376 449.352173,503.552826
	C445.464142,503.090820 443.172852,505.811554 443.383026,509.766754
	C443.540802,512.735718 444.862793,515.244507 447.008148,517.203857
	C457.153137,526.469238 469.269623,529.984436 483.472076,521.023193
M526.627075,504.849854
	C520.642822,504.652832 514.656799,504.263611 508.674896,504.319183
	C503.827454,504.364197 502.107605,507.209259 503.969391,511.664032
	C505.349152,514.965515 507.764923,517.506775 510.608185,519.632019
	C518.816101,525.767090 528.473083,526.326050 538.158875,526.745728
	C539.189819,526.790466 540.357544,526.607117 540.746399,525.592773
	C542.703064,520.488220 547.234558,517.715942 550.836426,514.081055
	C552.753296,512.146667 554.119568,509.630585 552.967651,506.841003
	C551.798523,504.009705 548.998352,504.176880 546.493835,504.241730
	C540.175842,504.405273 533.859985,504.650574 526.627075,504.849854
M591.828430,504.479889
	C584.840637,505.711792 577.886475,503.857391 570.904358,504.256866
	C564.244934,504.637878 562.318115,508.187225 565.765015,513.833008
	C572.124207,524.248840 587.496155,529.179932 598.717773,524.313721
	C604.743835,521.700562 609.315430,517.400696 612.157898,511.482941
	C614.321777,506.977814 612.481934,503.943420 607.660950,504.428680
	C602.642456,504.933807 597.692993,504.364929 591.828430,504.479889
M664.369385,505.202240
	C650.848450,505.202240 637.327515,505.202240 623.680725,505.202240
	C625.453857,518.671204 636.274048,526.837708 650.617554,526.632019
	C661.339417,526.478149 671.620911,516.794312 672.621277,505.810028
	C670.277710,504.674561 667.749268,505.419098 664.369385,505.202240
z"/>
<path fill="#000000" opacity="1.000000" stroke="none"
	d="
M468.420410,128.738831
	C483.937714,153.283661 464.648529,180.646622 440.134094,180.261658
	C423.230774,179.996201 408.490173,166.182251 407.033295,148.910141
	C405.672791,132.780365 418.570648,116.416695 434.945953,113.850426
	C449.045837,111.640755 459.858643,117.339073 468.420410,128.738831
M430.585419,168.093048
	C434.975922,170.176498 439.647736,170.236206 444.299225,169.676758
	C456.532654,168.205521 464.887939,157.176895 463.700867,144.290009
	C462.593048,132.262924 451.579712,122.728935 439.691132,123.505226
	C428.617462,124.228310 420.503448,131.214310 417.929169,142.241806
	C415.540527,152.474075 420.135773,162.295029 430.585419,168.093048
z"/>
<path fill="#000000" opacity="1.000000" stroke="none"
	d="
M543.151550,179.856659
	C539.545532,179.284439 537.482727,177.317764 535.957947,174.523056
	C532.850037,168.826920 529.647339,163.182404 526.472290,157.522980
	C524.722168,154.403381 522.447449,152.342896 518.460571,152.917175
	C514.340393,153.510620 514.570312,156.732117 513.879150,159.608261
	C512.869507,163.809448 514.608032,167.859619 514.258362,172.018768
	C513.992554,175.179947 513.727295,178.224121 509.620209,178.417282
	C505.499725,178.611084 503.670288,176.072220 502.976166,172.394440
	C502.884552,171.909042 502.814209,171.384430 502.897339,170.906387
	C505.598358,155.373840 502.989624,139.741760 503.763000,124.165077
	C504.208099,115.199905 506.173859,112.848946 515.045959,113.016090
	C520.521362,113.119240 526.024780,112.411537 531.468079,113.664703
	C537.729553,115.106216 542.935913,118.109314 546.417725,123.633957
	C550.848572,130.664185 550.211853,136.523270 544.502014,142.542145
	C537.245972,150.190903 536.565979,155.965652 541.847595,164.999344
	C543.527161,167.872208 545.296204,170.699371 546.836548,173.645584
	C549.331177,178.417007 549.038879,178.877518 543.151550,179.856659
M533.590515,124.717293
	C529.115845,123.022758 524.442444,123.263252 519.792786,123.326118
	C517.716187,123.354195 515.580139,123.834312 514.612061,125.750099
	C512.288330,130.348755 512.833923,135.173599 514.670959,139.737152
	C516.180847,143.487946 519.800537,142.808868 522.913940,142.684906
	C525.392944,142.586197 527.866211,142.255798 530.332886,141.954254
	C533.938477,141.513489 536.838928,139.843399 537.556458,136.122711
	C538.347412,132.021072 538.861206,127.720482 533.590515,124.717293
z"/>
<path fill="#000000" opacity="1.000000" stroke="none"
	d="
M601.016418,112.846756
	C606.343994,112.856903 611.176086,112.786613 616.005554,112.871216
	C620.447388,112.949028 622.907104,115.364494 622.482117,119.223846
	C622.007324,123.536247 619.119568,124.616104 615.314880,124.169106
	C608.378723,123.354210 601.432739,124.668175 594.435303,123.715759
	C589.812317,123.086533 587.419312,126.774223 587.454285,132.612671
	C587.492981,139.075272 589.478394,141.749557 594.597168,141.894867
	C598.758118,142.012970 602.926025,141.858078 607.090088,141.900314
	C610.945557,141.939423 613.117249,143.969589 612.880432,147.811508
	C612.652344,151.512375 609.988647,153.161285 606.629700,152.692932
	C602.426514,152.106888 598.331055,152.589417 594.189575,152.878143
	C588.704041,153.260559 587.324585,155.037430 587.489929,161.572327
	C587.626831,166.985062 589.901855,169.751282 594.724365,169.838562
	C601.384399,169.959122 608.049194,169.790726 614.711670,169.821762
	C616.190735,169.828644 617.751709,169.907883 619.128906,170.379944
	C621.836060,171.307877 623.006592,173.546829 622.775574,176.270798
	C622.535461,179.101868 620.477600,180.199860 617.868286,180.208099
	C606.539368,180.243835 595.209656,180.284210 583.881409,180.188950
	C579.534668,180.152420 577.593506,177.333176 577.536621,173.347900
	C577.370789,161.719864 577.142517,150.082550 577.455200,138.462769
	C577.583923,133.676208 577.113037,128.819473 578.304749,124.041588
	C580.153809,116.628426 583.376892,113.625694 591.028198,113.010628
	C594.176453,112.757545 597.355042,112.881439 601.016418,112.846756
z"/>
<path fill="#000000" opacity="1.000000" stroke="none"
	d="
M280.666473,166.363861
	C286.113922,168.726013 291.349365,170.161514 296.993683,169.794937
	C301.357513,169.511490 304.188110,167.269379 305.388184,163.183411
	C306.580109,159.125229 304.370667,156.400146 301.093475,154.564713
	C296.451660,151.965012 291.653809,149.645370 286.946716,147.160431
	C281.765686,144.425293 277.623352,140.678391 275.941071,134.859055
	C272.473480,122.863930 283.303375,111.525208 296.632050,113.219704
	C300.955444,113.769348 305.077393,115.118538 308.815063,117.434837
	C310.942139,118.753029 313.620453,120.129128 312.049103,123.192169
	C310.683777,125.853554 308.146881,127.315590 304.948730,126.528000
	C301.885803,125.773712 298.894958,124.721062 295.824860,124.002975
	C291.703613,123.039024 288.737000,124.427414 287.060669,128.514191
	C285.284576,132.844116 287.127228,135.604797 290.771301,137.541718
	C295.470581,140.039505 300.348175,142.209320 304.994263,144.798019
	C314.184387,149.918503 317.792114,157.172012 315.645630,165.656433
	C313.237061,175.176605 306.444489,179.996292 295.699615,180.309006
	C289.693726,180.483810 284.168854,178.999985 278.829895,176.575287
	C276.394775,175.469376 274.790131,173.488434 275.277283,170.610306
	C275.735413,167.903168 277.063751,165.913071 280.666473,166.363861
z"/>
<path fill="#000000" opacity="1.000000" stroke="none"
	d="
M362.189453,180.072876
	C358.738922,179.103546 357.592529,176.859909 357.734436,173.908569
	C358.382324,160.433243 356.297699,146.981461 357.543640,133.489044
	C358.217499,126.191803 355.148285,123.369370 347.854370,123.978409
	C344.302917,124.274963 341.405304,123.523773 340.825012,119.474602
	C340.206940,115.162048 342.844879,113.146553 346.642517,113.084251
	C357.464752,112.906693 368.295715,112.899162 379.115845,113.147377
	C382.820251,113.232353 385.616394,115.328499 385.114624,119.552536
	C384.585632,124.005959 381.376465,124.397682 377.661072,123.869919
	C371.235840,122.957237 368.317566,125.400101 368.251038,132.072754
	C368.114899,145.730377 368.172455,159.390091 368.179077,173.048935
	C368.180939,176.914337 367.486267,180.152802 362.189453,180.072876
z"/>
<path fill="#000000" opacity="1.000000" stroke="none"
	d="
M610.286133,411.909393
	C612.409241,411.306793 614.204285,410.778717 616.019653,411.224579
	C618.503845,411.834717 622.162354,411.936768 622.077759,415.099823
	C621.999084,418.044464 618.457520,418.582916 615.908081,419.016479
	C612.101990,419.663727 608.823425,418.487366 606.409424,415.500946
	C606.779114,413.253296 608.519531,412.825653 610.286133,411.909393
z"/>
<path fill="#000000" opacity="1.000000" stroke="none"
	d="
M375.274780,649.975586
	C375.269409,652.802490 375.200043,655.136841 375.274048,657.466614
	C375.353729,659.974915 374.986877,662.000793 372.095978,662.875000
	C369.377411,663.697021 369.039642,666.108459 369.046509,668.560669
	C369.109589,691.048340 369.171112,713.536011 369.234161,736.023682
	C369.239288,737.855713 369.345795,739.692932 369.245270,741.518921
	C368.843872,748.807617 365.541229,752.142700 358.269257,752.309082
	C352.442627,752.442383 346.609131,752.248169 340.778748,752.253601
	C314.625183,752.278076 288.471619,752.340576 262.318054,752.349487
	C251.980118,752.353027 249.611984,749.960632 249.612228,739.768188
	C249.612946,708.948425 249.615967,678.128601 249.615585,647.308838
	C249.615463,636.941711 252.511642,633.601929 263.010681,634.082764
	C283.826538,635.036072 304.638275,634.451721 325.450195,634.640930
	C331.598450,634.696838 337.747375,634.676575 343.895996,634.692871
	C346.566925,634.699951 349.251740,634.748962 351.047058,632.106628
	C350.389801,629.589233 348.405823,629.339111 346.372467,629.339905
	C321.570099,629.349060 296.767761,629.394653 271.965393,629.398376
	C268.140564,629.398987 264.384460,630.429932 260.514130,629.877258
	C252.295975,628.703552 248.876266,625.245361 249.184418,616.966431
	C250.324860,586.325867 249.521133,555.681763 249.626282,525.040039
	C249.664688,513.847107 252.502319,510.640472 263.875977,511.113068
	C291.520325,512.261719 319.166901,511.548157 346.811401,511.707031
	C350.466614,511.728058 354.137024,511.185089 357.776947,511.368652
	C366.556824,511.811401 369.222382,514.768066 369.187897,523.587830
	C369.163147,529.917419 369.010559,536.246582 369.006042,542.576050
	C368.993683,559.900330 369.050842,577.224609 369.027100,594.548889
	C369.022583,597.844482 369.889130,600.508911 373.297974,601.635315
	C375.532776,602.373779 375.701843,604.068115 375.681152,606.014465
	C375.526978,620.503113 375.405609,634.992126 375.274780,649.975586
M359.652252,729.477783
	C359.421692,712.191895 358.591766,694.883850 359.228180,677.629944
	C359.520813,669.696899 358.125427,662.897644 354.230072,656.286987
	C352.962769,654.136353 352.207886,651.913086 352.392303,649.212952
	C352.581604,646.441101 350.929657,644.577698 347.844299,644.368042
	C343.697540,644.086182 339.563934,643.510376 335.414734,643.381958
	C312.161560,642.661804 288.929169,644.087708 265.681885,644.186401
	C259.875702,644.211060 257.585297,647.197327 258.500183,652.947876
	C259.047241,656.386292 260.139801,659.713806 260.118134,663.270203
	C260.031097,677.584900 260.155243,691.901550 259.986877,706.214905
	C259.885254,714.853271 260.682587,723.507507 259.393646,732.134583
	C258.136993,740.545715 259.908752,742.486816 268.538757,742.720276
	C269.370697,742.742737 270.204254,742.736694 271.034576,742.785645
	C284.690491,743.590576 298.302917,741.903687 311.941437,742.052429
	C325.081299,742.195679 338.216827,742.702271 351.356476,742.908325
	C357.413055,743.003418 359.473663,740.884399 359.686157,734.914734
	C359.739380,733.419067 359.672821,731.919128 359.652252,729.477783
M345.158600,519.988586
	C318.897644,518.665344 292.610962,520.732727 266.348694,519.388184
	C261.401215,519.134888 259.799072,520.908875 259.909698,525.854980
	C260.028900,531.181213 260.125671,536.513000 260.021576,541.838257
	C259.553406,565.794739 261.214783,589.780273 259.087799,613.711121
	C258.664429,618.474854 261.579193,619.647095 265.268494,619.344238
	C275.272064,618.522949 285.232086,619.704895 295.216736,619.659058
	C312.200500,619.581238 329.185608,619.795532 346.170135,619.893799
	C348.754974,619.908752 351.693878,619.872620 352.215668,616.770935
	C353.798035,607.365112 357.436951,598.556641 359.837708,589.390869
	C361.716919,582.216614 358.974335,575.548889 358.919281,568.636658
	C358.813141,555.315308 358.820526,541.992981 358.806702,528.671021
	C358.797699,520.003601 357.096802,518.469849 348.550262,519.549805
	C347.724884,519.654053 346.905151,519.803406 345.158600,519.988586
M361.227905,633.497925
	C361.235260,638.310425 361.218658,643.123230 361.261658,647.935364
	C361.279144,649.892212 361.687531,651.796814 364.208038,651.614563
	C366.373688,651.458008 366.645447,649.658142 366.647736,647.919495
	C366.662231,636.966614 366.663879,626.013733 366.638550,615.060852
	C366.634003,613.087891 366.197937,611.297058 363.644257,611.435547
	C361.289001,611.563171 361.274109,613.400024 361.261780,615.074097
	C361.218933,620.882141 361.234802,626.690674 361.227905,633.497925
z"/>
<path fill="#000000" opacity="1.000000" stroke="none"
	d="
M296.431915,542.628479 
	C301.806152,540.118225 306.253174,537.768860 303.963776,530.564880 
	C302.804901,526.918274 306.031738,525.164978 309.430786,525.254578 
	C312.981232,525.347961 314.974762,527.353760 314.533203,531.124756 
	C313.310638,541.564941 313.290771,541.579651 323.322510,543.481506 
	C327.575043,544.287842 331.834595,544.982788 336.198486,544.967590 
	C343.566864,544.941956 348.558533,549.380066 349.075592,556.928955 
	C349.414642,561.878845 349.126160,566.897522 348.769714,571.860352 
	C348.517120,575.377869 343.322083,579.063293 337.627960,579.172302 
	C319.485199,579.519836 301.339294,580.578064 283.193878,579.794617 
	C274.122009,579.402954 273.149780,578.227173 270.602264,569.369873 
	C269.107849,564.174255 268.028900,559.049866 270.330505,553.775269 
	C272.554413,548.678772 275.749634,545.123047 281.831757,545.028503 
	C286.660889,544.953430 291.486145,544.537537 296.431915,542.628479 
M299.500122,549.324524 
	C293.844513,549.329285 288.174103,549.584717 282.538391,549.252197 
	C278.663086,549.023621 277.002228,550.663025 275.659332,554.059204 
	C273.124237,560.470398 274.921631,566.735840 275.187744,572.947327 
	C276.690643,572.947327 277.863586,572.827454 279.005432,572.965332 
	C296.395935,575.065002 313.799042,575.417419 331.265564,573.863159 
	C342.112793,572.898010 343.884460,573.576721 343.411194,559.299622 
	C343.383850,558.475464 343.136536,557.660583 343.026337,556.836731 
	C342.170837,550.440674 340.911469,549.290527 334.433258,549.282471 
	C323.122253,549.268433 311.811157,549.307190 299.500122,549.324524 
z"/>
</svg>