<svg xmlns="http://www.w3.org/2000/svg" width="24" height="24" viewBox="0 0 24 24">
    <g fill="none" fill-rule="evenodd">
        <g>
            <g>
                <g transform="translate(-322 -513) translate(316 507) translate(6 6)">
                    <path d="M0 0H24V24H0z"/>
                    <path fill="#FF5921" fill-rule="nonzero" d="M8 3v.5C8 4.328 8.672 5 9.5 5h5c.828 0 1.5-.672 1.5-1.5V3h2c1.105 0 2 .895 2 2v16c0 1.105-.895 2-2 2H6c-1.105 0-2-.895-2-2V5c0-1.105.895-2 2-2h2z" opacity=".3"/>
                    <path fill="#FF5921" fill-rule="nonzero" d="M11 2c0-.552.448-1 1-1s1 .448 1 1h1.5c.276 0 .5.224.5.5v1c0 .276-.224.5-.5.5h-5c-.276 0-.5-.224-.5-.5v-1c0-.276.224-.5.5-.5H11z"/>
                    <rect width="5" height="2" x="7" y="10" fill="#FF5921" fill-rule="nonzero" opacity=".3" rx="1"/>
                    <rect width="9" height="2" x="7" y="14" fill="#FF5921" fill-rule="nonzero" opacity=".3" rx="1"/>
                </g>
            </g>
        </g>
    </g>
</svg>
