<svg xmlns="http://www.w3.org/2000/svg" width="92" height="64" viewBox="0 0 92 64">
    <defs>
        <linearGradient id="5nyhnrz2qa" x1="50.03%" x2="50.03%" y1="99.998%" y2="-.004%">
            <stop offset="0%" stop-color="gray" stop-opacity=".25"/>
            <stop offset="54%" stop-color="gray" stop-opacity=".12"/>
            <stop offset="100%" stop-color="gray" stop-opacity=".1"/>
        </linearGradient>
    </defs>
    <g fill="none" fill-rule="evenodd">
        <g fill-rule="nonzero">
            <g>
                <g transform="translate(-142 -390) translate(20 366) translate(122 24)">
                    <path fill="#FF5921" d="M53.255 10.19c-5.873-.203-11.467-2.1-16.808-4.174C31.105 3.942 25.814 1.643 20.08.544c-3.686-.707-7.903-.807-10.874 1.17-2.859 1.902-3.782 5.185-4.28 8.233-.373 2.293-.592 4.705.431 6.851.71 1.49 1.973 2.742 2.843 4.17 3.036 4.966.893 11.089-2.401 15.938-1.543 2.275-3.335 4.445-4.526 6.866-1.19 2.42-1.74 5.195-.692 7.67 1.033 2.447 3.492 4.286 6.162 5.58 5.412 2.622 11.795 3.374 18.019 3.8 13.778.942 27.63.534 41.444.126 5.112-.152 10.247-.305 15.276-1.096 2.793-.438 5.676-1.137 7.704-2.817 2.574-2.136 3.213-5.751 1.488-8.43-2.893-4.49-10.893-5.603-12.914-10.426-1.114-2.653.03-5.608 1.648-8.068 3.47-5.28 9.285-9.909 9.592-15.942.21-4.143-2.586-8.294-6.909-10.255C77.56 1.859 71.277 2.117 67.933 5.52c-3.442 3.503-9.492 4.85-14.678 4.67z" opacity=".1"/>
                    <path fill="#FF5921" d="M73.31 55.465c-.329-.107-.677-.144-1.022-.11-.42.046-.36.686.061.656.211-.017.42-.055.622-.115l.34-.431zM73.438 55.47c.152.312.237.652.25.999.014.422-.627.452-.657.03-.012-.21-.003-.422.028-.631l.38-.398zM74.394 54.103s-.206-.645-1.462-.395c-.569.113-.554.928.016 1.014h.024c.83.116 1.118-.213 1.422-.62zM74.524 54.065s.675.052.717 1.332c.02.575-.777.75-.99.216 0-.009-.006-.016-.01-.024-.297-.78-.043-1.136.283-1.524zM75.426 52.416c-.097-.477-.444-.864-.907-1.012-.85-.268-1.3 1.004-.468 1.327.344.126.71.179 1.075.156l.3-.471zM76.463 50.292s-.344-.812-1.235-.975c-.944-.173-1.23 1.246-.297 1.473.419.09.852.094 1.272.01l.26-.508zM77.09 48.2c-.295-.461-.764-.784-1.3-.893-.813-.152-1.086 1.063-.289 1.271.501.123 1.025.115 1.522-.02l.066-.357zM77.68 46.162c-.26-.427-.663-.748-1.137-.904-.813-.25-1.214.982-.407 1.25.479.159.996.157 1.474-.006l.07-.34zM77.928 44.305s-.325-.762-.987-1.165c-.737-.45-1.44.65-.73 1.144.436.306.996.518 1.65.376l.067-.355zM78.05 42.101s-.357-.769-1.045-1.137c-.768-.406-1.436.716-.713 1.2.474.316 1.065.521 1.693.274l.066-.337zM77.974 40.092c-.268-.416-.596-.79-.974-1.109-.538-.44-1.218.352-.71.821.471.432 1.057.794 1.662.765l.022-.477zM77.77 38.164c-.306-.518-.676-.996-1.1-1.423-.421-.406-1.044.213-.65.64.454.488 1.066.993 1.802 1.214l-.051-.431zM77.377 35.896c-.254-.394-.548-.759-.88-1.09-.424-.414-1.063.21-.656.642.432.459.99.888 1.646 1.034l-.11-.586zM77.032 33.78c-.26-.352-.542-.688-.845-1.004-.34-.35-.882.142-.562.51.376.434.858.818 1.413.88l-.006-.386zM76.675 31.818c-.237-.465-.509-.911-.812-1.336-.254-.348-.784.024-.544.382.313.468.748.932 1.32 1.155l.036-.2zM76.38 29.21s-.2-.34-.487-.736c-.265-.364-.824.012-.578.39.276.423.622.784 1.024.855l.041-.509zM76.24 27.482l-.255-1.271c-.067-.336-.568-.256-.528.081.091.679.325 1.362.835 1.81l-.052-.62zM76.39 23.87c-.048-.117-.177-.178-.298-.144-.121.035-.197.155-.177.28.056.353.142.7.256 1.04l.22-1.177zM75.483 52.39c.462-.152.97-.042 1.328.287.65.606-.229 1.624-.921 1.064-.28-.236-.507-.528-.669-.857l.262-.493zM76.52 50.215s.855-.206 1.516.412c.701.657-.268 1.731-1.006 1.116-.323-.282-.583-.628-.766-1.016l.257-.512zM77.145 48.344c.446-.32 1.004-.444 1.543-.343.813.162.61 1.391-.208 1.286-.51-.074-.993-.276-1.403-.589l.068-.354zM77.72 46.173c.4-.3.893-.446 1.39-.415.85.074.76 1.365-.091 1.311-.504-.031-.983-.227-1.365-.556l.066-.34z"/>
                    <path fill="#FF5921" d="M77.918 44.357s.45-.695 1.17-.98c.798-.315 1.31.881.535 1.25-.487.229-1.074.345-1.698.093l-.007-.363zM77.946 42.068s.456-.715 1.184-.988c.812-.304 1.331.898.55 1.283-.51.252-1.123.377-1.713.05l-.021-.345zM77.793 40.07c.173-.463.414-.898.715-1.29.43-.546 1.268.08.868.649-.367.522-.857 1-1.462 1.102l-.12-.46zM77.73 38.16c.15-.584.372-1.148.66-1.678.292-.505 1.061-.086.8.435-.3.597-.748 1.25-1.393 1.669l-.066-.426zM77.26 35.79c.175-.45.4-.88.67-1.28.335-.488 1.077-.01.77.493-.332.55-.802 1.102-1.431 1.381l-.01-.594zM76.884 33.769c.091-.429.209-.85.352-1.265.163-.46.862-.238.724.231-.163.55-.441 1.1-.92 1.387l-.156-.353zM76.624 31.78c.125-.507.288-1.004.487-1.487.169-.397.77-.155.617.248-.198.527-.516 1.078-1.021 1.426l-.083-.187zM76.233 29.389s.076-.388.215-.856c.129-.432.782-.263.675.175-.118.488-.325.946-.682 1.148l-.208-.467zM76.324 27.396l.442-1.219c.117-.324.604-.167.51.163-.192.658-.523 1.3-1.096 1.665l.144-.61zM76.875 23.997s.069-.055.174-.142c.216-.18.497.133.294.324-.354.322-.76.58-1.202.762l.734-.944zM76.845 23.291c.265-.54.559-1.063.882-1.57.038-.071.017-.16-.05-.208-.067-.047-.158-.037-.213.023-.26.356-.515.876-.709 1.641l.09.114z"/>
                    <path fill="#444053" d="M76.342 29.74l.094-.01c-.406-3.786-.235-6.12.475-6.572l-.05-.081c-.753.481-.932 2.785-.52 6.663z"/>
                    <path fill="#444053" d="M77.739 38.69l.14-.021c-.052-.35-.113-.706-.182-1.056-.59-3.072-1.05-5.913-1.28-8.07l-.103-.081c.23 2.161.65 5.1 1.245 8.176.066.348.127.703.18 1.052z"/>
                    <path fill="#444053" d="M71.16 57.823c.021-.017 2.185-1.672 4.085-4.847 1.113-1.858 1.925-3.88 2.404-5.993.6-2.64.617-5.715.184-8.595l-.127.101c.975 6.464-.884 11.482-2.619 14.383-1.88 3.146-4.02 4.784-4.041 4.8l.114.151z"/>
                    <ellipse cx="15.758" cy="56.769" fill="#FF5921" rx="5.405" ry="1.04"/>
                    <circle cx="15.667" cy="56.327" r="1" fill="#3F3D56"/>
                    <circle cx="15.667" cy="55.32" r="1" fill="#3F3D56"/>
                    <circle cx="15.667" cy="54.314" r="1" fill="#3F3D56"/>
                    <circle cx="15.667" cy="53.307" r="1" fill="#3F3D56"/>
                    <circle cx="15.667" cy="52.3" r="1" fill="#3F3D56"/>
                    <circle cx="15.667" cy="51.293" r="1" fill="#3F3D56"/>
                    <circle cx="15.667" cy="50.286" r="1" fill="#3F3D56"/>
                    <path fill="#FF5921" d="M18.022 43.396c.087-.11.165-.225.235-.345l-1.654-.272 1.787.013c.347-.754.368-1.618.058-2.388l-2.4 1.245 2.213-1.625c-.564-.978-1.627-1.56-2.756-1.506-1.128.054-2.131.734-2.6 1.761-.468 1.028-.322 2.232.377 3.118-.133.17-.248.355-.343.55l2.146 1.115-2.287-.768c-.326.965-.142 2.03.488 2.83-.973 1.236-.832 3.012.323 4.08 1.155 1.067 2.937 1.067 4.092 0 1.155-1.068 1.296-2.844.323-4.08.86-1.093.86-2.633 0-3.727l-.002-.001z"/>
                    <path fill="#000" d="M12.64 45.26c-.002.676.226 1.332.644 1.863-.973 1.236-.832 3.012.323 4.079 1.155 1.067 2.937 1.067 4.092 0 1.155-1.067 1.296-2.843.323-4.08.405-.512-5.383-2.201-5.383-1.862z" opacity=".1"/>
                    <path fill="#FFF" d="M18.84 21.299v35.875c0 .332.132.65.367.885s.553.367.886.367h51.481c.692 0 1.253-.56 1.253-1.252V21.299H18.84z"/>
                    <rect width="12.906" height="7.575" x="23.112" y="24.51" fill="#000" opacity=".1" rx="3.788"/>
                    <rect width="12.906" height="7.575" x="39.381" y="24.51" fill="#000" opacity=".1" rx="3.788"/>
                    <path fill="#FF5921" d="M23.293 24.616H35.836V31.978H23.293z"/>
                    <path fill="#444053" d="M55.831 24.616H68.374V31.978H55.831z" opacity=".1" transform="rotate(-180 62.102 28.297)"/>
                    <path fill="#FF5921" d="M39.562 24.616H52.105V31.978H39.562z" transform="rotate(-180 45.834 28.297)"/>
                    <path fill="#444053" d="M23.293 35.25H35.836V42.612H23.293z" opacity=".1"/>
                    <path fill="#444053" d="M55.831 35.25H68.374V42.612H55.831z" opacity=".1" transform="rotate(-180 62.102 38.931)"/>
                    <path fill="#444053" d="M39.562 35.25H52.105V42.612H39.562z" opacity=".1" transform="rotate(-180 45.834 38.931)"/>
                    <path fill="#444053" d="M23.293 45.884H35.836V53.246H23.293z" opacity=".1"/>
                    <path fill="#444053" d="M55.831 45.885H68.374V53.247H55.831z" opacity=".1" transform="rotate(-180 62.102 49.566)"/>
                    <path fill="#444053" d="M39.562 45.885H52.105V53.247H39.562z" opacity=".1" transform="rotate(-180 45.834 49.566)"/>
                    <path fill="#FF5921" d="M18.84 14.963v6.518h53.987v-6.518c0-.332-.132-.651-.367-.886s-.553-.367-.886-.367H20.093c-.333 0-.651.132-.886.367s-.367.554-.367.886zM32.2 16.89c-.552 0-1-.448-1-1s.448-1 1-1c.553 0 1 .448 1 1s-.447 1-1 1zm27.266 0c-.552 0-1-.448-1-1s.448-1 1-1c.553 0 1 .448 1 1 0 .266-.105.52-.293.708-.188.187-.443.292-.708.292h.001z"/>
                    <path fill="#000" d="M32.2 14.71c-.477 0-.909.287-1.092.728-.183.442-.082.95.256 1.288.338.339.846.44 1.288.257.442-.183.73-.614.73-1.092 0-.313-.125-.614-.346-.835-.222-.222-.522-.347-.835-.347zm0 2.181c-.552 0-1-.448-1-1s.448-1 1-1c.553 0 1 .448 1 1s-.447 1-1 1zM59.465 14.71c-.653 0-1.182.529-1.182 1.181 0 .653.53 1.182 1.182 1.182.652 0 1.181-.53 1.181-1.182 0-.652-.529-1.182-1.181-1.182zm0 2.181c-.552 0-1-.448-1-1s.448-1 1-1 1 .448 1 1-.448 1-1 1z" opacity=".1"/>
                    <circle cx="83.907" cy="34.188" r="1.24" fill="#FF5921" opacity=".1"/>
                    <circle cx="88.344" cy="28.657" r="2.079" fill="#FF5921" opacity=".1"/>
                    <circle cx="85.591" cy="38.746" r="2.079" fill="#FF5921" opacity=".1"/>
                    <circle cx="2.944" cy="28.147" r="2.944" fill="#FF5921" opacity=".1"/>
                    <path fill="url(#5nyhnrz2qa)" d="M75.18 60.213c-.185-.14-.388-.253-.603-.339-.016-.008-.034-.013-.053-.014-.445-.32-.86-.677-1.242-1.07l.235-.191c-.487-.232-.758-.764-1.02-1.244-.697-1.276-1.613-2.419-2.709-3.374-.026-.103-.183-.081-.267-.148-.055-.053-.078-.132-.06-.207.014-.075.048-.144.067-.217.044-.171.005-.352-.014-.528-.02-.176-.011-.373.105-.504.038-.043.086-.076.122-.12.078-.105.108-.237.082-.365-.01-.127-.037-.251-.082-.37.398-1.082.796-2.167 1.193-3.254.279-.759.56-1.533.588-2.342.023-.65-.144-1.325-.537-1.821.071-.017.143-.035.213-.055-.464-.616-.515-1.432-.527-2.207-.006-.387-.02-.774-.04-1.16.135.059.272.111.411.157l.13.04c.211.061.427.108.644.138.096.013.194.024.29.03l-.418-1.05c-.072-.156-.116-.323-.13-.493v-.033c0-.02 0-.039.004-.058.006-.047.016-.093.032-.137.007-.022.016-.043.025-.064.029-.064.064-.125.104-.183.03-.044.062-.087.094-.131.121-.142.22-.3.292-.472.028-.087.043-.178.045-.269.001-.093-.007-.185-.025-.276-.011-.06-.026-.121-.042-.18l-.033-.108-.01-.03-.028-.081-.01-.028c-.01-.029-.02-.057-.032-.086l-.006-.018c-.156-.398-.362-.778-.488-1.189-.033-.109-.06-.22-.081-.332-.006-.028-.01-.057-.015-.086-.005-.028-.007-.049-.01-.073-.003-.024-.008-.057-.01-.085l-.008-.081c0-.026-.004-.052-.006-.082 0-.05-.005-.099-.005-.148v-.053-.113-.06c0-.037.005-.075.009-.111 0-.018 0-.036.005-.053.006-.054.013-.108.022-.163l.027-.145c.03-.133.045-.27.045-.406 0-.026 0-.053-.005-.081-.006-.029-.007-.044-.01-.065v-.02c0-.014-.008-.029-.011-.044l-.007-.02-.014-.042-.006-.019-.018-.043-.006-.014-.026-.052c-.031-.06-.068-.116-.109-.17-.267-.35-.711-.617-.956-1.004-.142-.25-.235-.526-.273-.812l-.034-.194c-.012-.065-.021-.128-.033-.191-.007-.04-.014-.081-.023-.117l-.004-.025-.02-.094-.006-.022-.022-.097-.005-.017-.026-.103v-.012l-.031-.107V30.8c-.011-.038-.023-.074-.035-.11l-.039-.114c-.015-.038-.028-.076-.044-.113-.102-.262-.24-.508-.41-.731-.373-.478-.948-.82-1.544-.798-.32.012-.627.124-.928.236l-.782.288.218-.1c-.227.02-.46.04-.665.141-.206.101-.38.299-.386.53-.004.133.049.266.032.4-.029.22-.23.37-.336.564-.061.118-.09.25-.08.382v.052.039c-.326-.142-.65-.289-.975-.446-.537-.264-1.08-.574-1.415-1.075-.108-.162-.19-.338-.297-.498-.122-.173-.258-.336-.406-.488l-.996-1.078c-.077.144.022.313.099.456.082.15.144.31.184.476.02.054.018.114-.005.167-.036.043-.083.077-.136.096-.187.118-.272.347-.206.558.072.206.247.358.46.402.071.008.14.024.206.05.12.06.177.197.263.3.157.189.406.26.644.321.37.426.753.833 1.121 1.26.558.643 1.13 1.299 1.857 1.734.075.045.153.088.23.127 0 .013 0 .026-.003.039-.02.096-.009.196.034.284.065.103.2.134.319.155l.55.098c-.004.072-.013.143-.026.213l-.025.128-.01.056v.008c0 .002 0 .029-.005.044-.006.016 0 .01 0 .016v.108c.019.216.162.395.306.56l.077.093c-.122.154-.208.334-.25.526-.025.12-.037.243-.036.366-.074.07-.13.158-.163.254-.038.133-.053.272-.042.41v.162c-.01.194.023.388.094.569.007.015.015.028.023.041-.122.24-.325.425-.47.65-.302.512-.25 1.157.129 1.615.11.128.254.252.267.422-.002.077-.01.154-.023.23-.013.184.072.358.117.536.038.148.04.325-.045.443-.085.125-.124.276-.11.426.04.23-.054.46-.07.693-.008.1 0 .201-.01.301-.011.096-.031.19-.059.283 0 .01-.005.02-.008.03-.2.09-.4.18-.591.287-.104.046-.19.125-.244.224-.032.1-.037.207-.013.31l.173 1.203-.03-.013.042.593c.01.15.025.31.114.43.045.049.086.101.123.157.068.138-.013.299-.074.44-.06.141-.08.342.052.418.069.048.143.088.221.119-.162.677-.013 1.387.138 2.067l.347 1.558c.046.22.071.444.077.669v.097c.016.31.07.616.162.912.18.607.007 1.337.064 1.998.038.319.102.634.19.942.393 1.556.743 3.081.877 4.681.145.184.34.32.562.392-.016.197.006.422 0 .536 0 .095-.015.19-.043.28-.07.18-.244.298-.425.361-.057.02-.115.035-.173.049l.065-.055c-.372-.08-.76-.013-1.081.19-.102.052-.18.143-.214.252-.013.103.014.207.075.291.179.262.445.451.751.534.303.08.613.123.926.129l.573.033c-.04.068-.024.155.038.204.061.045.134.071.21.076.234.035.472.039.708.011.059-.002.115-.022.162-.058.022-.02.034-.048.034-.078s-.012-.058-.034-.078c.07-.002.132-.047.156-.113.022-.066.03-.137.021-.206-.015-.267-.039-.655-.178-.893-.05-.09-.152-.134-.25-.11-.09-.476-.145-.958-.163-1.441.143-.054.282-.117.417-.189-.399-.644-.406-1.462-.284-2.21.048-.237.084-.476.106-.716.027-.48-.045-1.022-.31-1.418.483.308.912.695 1.266 1.147.562.73.903 1.616 1.591 2.225.09-.088.182-.176.275-.263.145.246.282.497.412.753.101.188.181.387.238.593.064.316.071.64.022.958-.019.169-.042.337-.069.504-.01.072-.027.143-.05.211 0-.022-.005-.043-.015-.063-.043-.075-.162-.041-.227.01-.116.088-.211.198-.28.326-.038.062-.056.134-.05.207.02.088.08.163.162.203.301.176.68.048 1.003-.081.09-.033.174-.075.253-.128.163-.117.251-.31.413-.423.086-.047.17-.1.25-.158.15-.137.162-.368.271-.542.182-.3.59-.377.748-.695.185-.35-.03-.793-.308-1.022z"/>
                    <path fill="#A1616A" d="M68.178 61.642c0 .094-.016.187-.045.276-.068.178-.243.294-.424.357-.18.062-.372.081-.555.136-.08.018-.156.056-.217.112-.163.162-.065.454.125.575.19.121.432.117.658.102.479-.028.955-.096 1.423-.202.169-.04.366-.118.393-.29.005-.054 0-.109-.013-.162-.115-.581-.177-1.172-.183-1.765 0-.039-.942-.064-1.03-.007-.196.13-.122.668-.132.868zM72.378 59.574c.156.258.303.521.44.79.101.185.181.382.239.585.063.312.07.631.022.945-.02.166-.043.332-.07.498-.027.162-.07.347-.209.44.125.074.278.088.414.037.134-.052.258-.128.365-.224.696-.574 1.218-1.408 1.244-2.31.007-.07-.006-.142-.038-.205-.033-.044-.074-.081-.122-.109-.52-.354-1.002-.759-1.44-1.21-.026-.034-.063-.058-.105-.067-.034 0-.066.01-.095.027-.267.134-.714.325-.825.63.076.038.139.098.18.173z"/>
                    <path fill="#3F3D56" d="M69.13 62.585c-.585.244-1.219.332-1.851.415-.081.01-.168.016-.222-.04-.044-.055-.05-.13-.015-.19.035-.059.081-.11.136-.15l.42-.352c-.366-.077-.748-.012-1.067.184-.1.05-.177.138-.213.244-.014.102.013.205.075.288.18.259.445.446.75.526.302.079.613.121.925.128l.569.032c-.04.067-.024.154.038.202.062.045.135.071.211.077.234.034.472.037.707.01.059-.001.116-.022.162-.058.022-.02.034-.047.034-.076 0-.03-.012-.057-.034-.077.07-.002.132-.047.156-.113.022-.065.029-.134.021-.202-.015-.263-.039-.65-.178-.88-.139-.23-.428-.049-.624.032zM75.165 60.263c-.185-.137-.388-.25-.603-.334-.017-.013-.04-.018-.06-.012-.022.005-.04.02-.048.04-.384.52-.683 1.098-.888 1.711-.116.35-.208.721-.444 1.004-.03.037-.08.076-.123.054-.06-.031-.024-.13-.058-.189-.042-.074-.157-.04-.226.01-.116.087-.212.198-.28.326-.039.06-.056.132-.05.204.02.086.079.16.158.2.302.174.68.048 1.003-.082.089-.031.173-.074.252-.126.163-.114.251-.305.413-.416.086-.047.17-.1.25-.156.149-.136.162-.364.27-.536.182-.295.59-.372.748-.685.178-.35-.036-.787-.314-1.013zM70.632 44.04c.639.479.907 1.331.878 2.129-.028.797-.308 1.562-.586 2.31-.398 1.07-.796 2.14-1.192 3.21.044.118.071.241.08.366.026.126-.003.257-.08.36-.038.042-.082.076-.122.118-.117.13-.125.325-.106.498.019.173.059.351.014.52-.019.073-.053.14-.066.214-.018.074.004.152.06.205.08.065.243.043.267.146 1.092.94 2.008 2.068 2.704 3.33.263.473.529.998 1.02 1.227-.478.38-.937.783-1.375 1.21-.686-.602-1.028-1.477-1.588-2.194-.355-.446-.783-.828-1.266-1.131.266.39.338.927.311 1.399-.022.237-.058.472-.106.705-.126.74-.115 1.543.284 2.182-.425.22-.914.385-1.39.319-.298-.042-.568-.197-.756-.432-.135-1.579-.488-3.086-.877-4.619-.089-.306-.152-.618-.189-.935-.057-.65.116-1.372-.065-1.972-.091-.291-.146-.593-.162-.898v-.097c-.006-.221-.031-.442-.077-.66l-.346-1.536c-.15-.671-.302-1.372-.139-2.04-.077-.03-.152-.069-.22-.116-.133-.076-.112-.273-.052-.413.06-.14.14-.298.073-.434-.036-.056-.077-.108-.122-.155-.09-.119-.103-.276-.114-.424l-.042-.586c.245.097.45.276.578.506-.32-.495-.162-1.202.074-1.743.09-.34.394-.58.746-.59 1.302-.223 2.892-.774 3.95.02z"/>
                    <path fill="#000" d="M70.039 47.375s-.64.427-.64.747-.163 3.2-.163 3.2v2.03s.107 1.067 0 1.334c-.106.266 0 1.493 0 1.653 0 .16.163-1.653.163-1.653v-1.923l.162-4.375.478-1.013z" opacity=".1"/>
                    <path fill="#A1616A" d="M66.469 32.582l-.373-.146c-.762-.305-1.524-.611-2.262-.97-.536-.26-1.08-.568-1.413-1.06-.107-.162-.19-.332-.296-.492-.123-.172-.258-.333-.406-.482l-.996-1.064c-.077.142.021.31.099.45.082.148.143.306.184.47.02.053.017.111-.005.163-.036.043-.083.076-.136.095-.187.115-.271.342-.206.55.073.204.248.355.46.397.07.008.14.024.206.05.12.058.177.194.263.296.157.186.406.256.643.316.369.42.751.822 1.12 1.242.557.635 1.127 1.282 1.855 1.712.259.158.542.272.837.336.098-.63.24-1.253.426-1.863z"/>
                    <path fill="#000" d="M66.469 32.582l-.373-.146c-.762-.305-1.524-.611-2.262-.97-.536-.26-1.08-.568-1.413-1.06-.107-.162-.19-.332-.296-.492-.123-.172-.258-.333-.406-.482l-.996-1.064c-.077.142.021.31.099.45.082.148.143.306.184.47.02.053.017.111-.005.163-.036.043-.083.076-.136.095-.187.115-.271.342-.206.55.073.204.248.355.46.397.07.008.14.024.206.05.12.058.177.194.263.296.157.186.406.256.643.316.369.42.751.822 1.12 1.242.557.635 1.127 1.282 1.855 1.712.259.158.542.272.837.336.098-.63.24-1.253.426-1.863z" opacity=".15"/>
                    <path fill="#FF5921" d="M65.787 34.702c-.12-.021-.254-.05-.319-.153-.043-.086-.055-.185-.034-.28.064-.612.2-1.214.406-1.795.18.336.537.531.875.708.302.167.616.31.94.429-.08-.026-.28 1.223-.392 1.3-.141.098-.482-.036-.639-.063l-.837-.146z"/>
                    <circle cx="66.652" cy="32.626" r="1.707" fill="#A1616A"/>
                    <path fill="#FBBEBE" d="M66.305 34.04s1.12.96.64 1.6c-.48.64-.747 1.067-.107 1.12.64.054 2.773-1.067 2.773-1.067s-1.973-1.6-1.653-2.56c.32-.96-1.653.906-1.653.906z"/>
                    <path fill="#FF5921" d="M67.38 35.542c-.487.117-.867.498-.98.986-.127.575.14 1.218-.111 1.748-.119.252-.339.44-.488.676-.3.505-.248 1.143.129 1.593.111.127.254.25.267.417-.002.076-.01.152-.023.227-.013.181.072.353.117.529.038.145.04.32-.045.437-.085.122-.124.271-.11.42.04.227-.054.454-.07.683-.008.1 0 .199-.01.298-.011.094-.03.187-.058.278l-.143.527c.775.332 1.598.451 2.437.436.75-.015 1.49-.17 2.224-.325.223-.047.447-.094.667-.155-.465-.608-.514-1.413-.527-2.177-.02-1.274-.116-2.546-.285-3.809.225-.425.325-.898.417-1.37.042-.19.06-.385.052-.58-.023-.405-.21-.791-.392-1.16-.167-.335-.349-.69-.721-.835-.183-.077-.393-.054-.555.061-.282.213-.198.58-.27.894-.096.406-.47.697-.869.812-.297.078-.606.106-.913.085-.06-.004-.115-.041-.14-.098-.024-.056-.014-.121.025-.168.13-.145.262-.292.374-.43z"/>
                    <path fill="#A1616A" d="M68.702 42.14c-.632.517-1.271 1.039-2 1.404-.429.215-.884.373-1.3.604-.103.045-.189.123-.244.22-.033.099-.038.205-.013.305l.185 1.277c.052.346.384.569.65.79-.015-.117-.038-.207.017-.31.02-.032.04-.063.063-.093.113-.173.117-.396.09-.6-.028-.205-.081-.407-.07-.616-.005-.07.027-.139.085-.179.907-.436 1.885-.77 2.801-1.185.243-.098.472-.228.68-.386.21-.16.35-.395.395-.655.009-.034.003-.07-.016-.1-.019-.02-.043-.034-.07-.04-.41-.15-.844-.287-1.253-.435z"/>
                    <path fill="#000" d="M66.947 36.784c-.314.053-.644.215-.75.515-.038.132-.053.27-.042.407-.01.192.022.384.095.562.053.099.117.191.19.277.75.961 1.127 2.169 1.858 3.146.065.086.184.198.147.3-.013.026-.025.053-.035.08-.007.054.013.107.054.143.039.036.069.08.088.13.014.05-.02.117-.073.113.088.271.357.43.612.558.424.213.893.382 1.365.335.089-.355.212-.756.162-1.117-.051-.276-.143-.543-.272-.793l-.317-.694c-.27-.592-.544-1.188-.92-1.718-.136-.168-.25-.352-.34-.548-.097-.251-.363-.428-.524-.643-.239-.325-.487-.65-.807-.884-.128-.1-.335-.195-.491-.17z" opacity=".1"/>
                    <path fill="#FF5921" d="M66.947 36.624c-.314.053-.644.215-.75.515-.038.131-.052.269-.042.406-.01.192.022.384.095.563.053.098.117.19.19.276.75.961 1.127 2.17 1.858 3.146.065.086.184.198.147.3-.013.026-.025.053-.035.081-.007.053.013.107.054.142.039.036.069.08.088.13.014.05-.02.117-.073.113.088.271.357.43.612.558.424.214.893.382 1.365.335.089-.354.212-.756.162-1.117-.051-.276-.143-.543-.272-.793l-.317-.693c-.27-.592-.544-1.189-.92-1.719-.136-.168-.25-.353-.34-.549-.097-.25-.363-.426-.524-.642-.239-.325-.487-.65-.807-.884-.128-.098-.335-.194-.491-.168z"/>
                    <path fill="#3F3D56" d="M66.231 29.822c-.227.02-.46.04-.664.14-.205.099-.38.293-.386.52 0 .133.049.265.032.396-.029.217-.231.364-.335.557-.182.334-.04.76.195 1.056.235.295.555.523.797.817.386.475.547 1.095.44 1.699-.03.116-.045.235-.043.355.018.212.162.389.305.551.696.813 1.339 1.67 1.927 2.563.176.26.334.531.474.813.138.29.244.6.435.858.177.221.394.407.64.548.619.382 1.32.609 2.046.66l-.418-1.037c-.074-.184-.15-.378-.126-.575.046-.374.423-.62.546-.975.081-.23.045-.482-.022-.715-.148-.525-.444-.998-.603-1.52-.14-.458-.17-.942-.09-1.414.034-.208.091-.417.065-.626-.077-.635-.822-.938-1.166-1.477-.223-.346-.266-.772-.34-1.177-.109-.59-.301-1.18-.673-1.651-.372-.471-.945-.812-1.543-.787-.32.012-.626.123-.928.232l-.783.285"/>
                    <g fill="#000" opacity=".1">
                        <path d="M4.995.285c.067.365.11.747.28 1.073-.023-.127-.043-.254-.066-.38-.056-.318-.143-.63-.262-.93.02.079.034.157.048.237zM6.436 3.565c-.08.472-.048.956.09 1.414.039.125.082.244.134.366-.068-.359-.071-.727-.01-1.087.034-.208.091-.416.065-.625-.024-.179-.097-.348-.211-.487-.012.14-.045.28-.068.419zM7.343 7.193c-.045-.153-.1-.303-.162-.449.027.157.016.318-.031.47-.123.355-.5.6-.546.974-.025.198.051.392.126.576l.081.208c-.002-.03-.002-.06 0-.09.046-.374.423-.619.546-.975.087-.229.053-.481-.014-.714zM5.104 9.141c-.246-.141-.462-.328-.64-.549-.192-.257-.298-.568-.436-.858-.139-.282-.297-.553-.474-.813-.587-.894-1.23-1.75-1.926-2.564-.025-.028-.05-.057-.073-.087-.017.076-.024.153-.02.23.02.212.163.389.306.551.696.813 1.339 1.67 1.927 2.563.176.26.335.531.474.812.138.291.244.601.435.859.177.22.394.407.64.548.619.382 1.32.608 2.046.66l-.284-.698c-.7-.061-1.377-.285-1.975-.654zM.925 1.754C.681 1.46.364 1.237.128.938.108.91.087.882.067.852c-.005.284.093.56.275.779.235.3.555.523.797.817.094.114.176.238.243.37-.05-.39-.208-.759-.457-1.064z" transform="translate(64.731 30.863)"/>
                    </g>
                    <path fill="#3ACC6C" d="M33.952 24.28l-.588-.592c-.06-.06-.139-.092-.222-.092-.084 0-.164.033-.223.092l-3.697 3.664-1.565-1.576c-.122-.122-.319-.122-.44 0l-.596.59c-.122.122-.122.32 0 .443l2.376 2.394c.122.121.32.121.443 0l4.512-4.479c.06-.058.093-.138.093-.222 0-.083-.033-.163-.093-.222zM50.277 24.28l-.588-.592c-.06-.06-.14-.092-.223-.092-.083 0-.163.033-.222.092l-3.698 3.664-1.564-1.576c-.122-.122-.32-.122-.44 0l-.596.59c-.122.122-.122.32 0 .443l2.375 2.394c.123.121.321.121.444 0l4.512-4.479c.06-.058.093-.138.093-.222 0-.083-.033-.163-.093-.222z"/>
                </g>
            </g>
        </g>
    </g>
</svg>
