<svg width="24" height="24" viewBox="0 0 24 24" fill="none" xmlns="http://www.w3.org/2000/svg">
<path fill-rule="evenodd" clip-rule="evenodd" d="M13 21C13 21.5523 12.5523 22 12 22C11.4477 22 11 21.5523 11 21V3C11 2.44772 11.4477 2 12 2C12.5523 2 13 2.44772 13 3V21ZM7 21C7 21.5523 6.55228 22 6 22C5.44772 22 5 21.5523 5 21V13C5 12.4477 5.44772 12 6 12C6.55228 12 7 12.4477 7 13V21ZM18 22C18.5523 22 19 21.5523 19 21V9C19 8.44772 18.5523 8 18 8C17.4477 8 17 8.44772 17 9V21C17 21.5523 17.4477 22 18 22Z" fill="#211D1E"/>
</svg>
