<svg width="24" height="24" viewBox="0 0 24 24" fill="none" xmlns="http://www.w3.org/2000/svg">
<g id="27) Icon/barcode">
<g id="qr-code">
<path id="Shape" fill-rule="evenodd" clip-rule="evenodd" d="M2.58594 2H10.7891C11.1129 2 11.375 2.26207 11.375 2.58594V10.7891C11.375 11.1129 11.1129 11.375 10.7891 11.375H2.58594C2.26207 11.375 2 11.1129 2 10.7891V2.58594C2 2.26207 2.26207 2 2.58594 2ZM3.17188 10.2031H10.2031V3.17188H3.17188V10.2031Z" fill="black"/>
<path id="Shape_2" fill-rule="evenodd" clip-rule="evenodd" d="M13.2109 2H21.4141C21.7379 2 22 2.26207 22 2.58594V10.7891C22 11.1129 21.7379 11.375 21.4141 11.375H13.2109C12.8871 11.375 12.625 11.1129 12.625 10.7891V2.58594C12.625 2.26207 12.8871 2 13.2109 2ZM13.7969 10.2031H20.8281V3.17188H13.7969V10.2031Z" fill="black"/>
<path id="Path" d="M19.0703 4.34375H15.5547C15.2308 4.34375 14.9688 4.60582 14.9688 4.92969V8.44531C14.9688 8.76918 15.2308 9.03125 15.5547 9.03125H19.0703C19.3942 9.03125 19.6562 8.76918 19.6562 8.44531V4.92969C19.6562 4.60582 19.3942 4.34375 19.0703 4.34375Z" fill="black"/>
<path id="Path_2" d="M8.44531 4.34375H4.92969C4.60582 4.34375 4.34375 4.60582 4.34375 4.92969V8.44531C4.34375 8.76918 4.60582 9.03125 4.92969 9.03125H8.44531C8.76918 9.03125 9.03125 8.76918 9.03125 8.44531V4.92969C9.03125 4.60582 8.76918 4.34375 8.44531 4.34375Z" fill="black"/>
<path id="Path_3" d="M8.44531 14.9688H4.92969C4.60582 14.9688 4.34375 15.2308 4.34375 15.5547V19.0703C4.34375 19.3942 4.60582 19.6562 4.92969 19.6562H8.44531C8.76918 19.6562 9.03125 19.3942 9.03125 19.0703V15.5547C9.03125 15.2308 8.76918 14.9688 8.44531 14.9688Z" fill="black"/>
<path id="Shape_3" fill-rule="evenodd" clip-rule="evenodd" d="M2.58594 12.625H10.7891C11.1129 12.625 11.375 12.8871 11.375 13.2109V21.4141C11.375 21.7379 11.1129 22 10.7891 22H2.58594C2.26207 22 2 21.7379 2 21.4141V13.2109C2 12.8871 2.26207 12.625 2.58594 12.625ZM3.17188 20.8281H10.2031V13.7969H3.17188V20.8281Z" fill="black"/>
<path id="Path_4" d="M21.4141 16.1406C21.0902 16.1406 20.8281 16.4027 20.8281 16.7266V18.4844H17.8984C17.5746 18.4844 17.3125 18.7464 17.3125 19.0703V20.8281H13.7969V19.0703C13.7969 18.7464 13.5348 18.4844 13.2109 18.4844C12.8871 18.4844 12.625 18.7464 12.625 19.0703V21.4141C12.625 21.7379 12.8871 22 13.2109 22H17.8984C18.2223 22 18.4844 21.7379 18.4844 21.4141V19.6562H21.4141C21.7379 19.6562 22 19.3942 22 19.0703V16.7266C22 16.4027 21.7379 16.1406 21.4141 16.1406Z" fill="black"/>
<path id="Path_5" d="M16.7266 12.625H13.2109C12.8871 12.625 12.625 12.8871 12.625 13.2109V16.7266C12.625 17.0504 12.8871 17.3125 13.2109 17.3125C13.5348 17.3125 13.7969 17.0504 13.7969 16.7266V13.7969H16.1406V14.3828C16.1406 14.7067 16.4027 14.9688 16.7266 14.9688C17.0504 14.9688 17.3125 14.7067 17.3125 14.3828V13.2109C17.3125 12.8871 17.0504 12.625 16.7266 12.625Z" fill="black"/>
<path id="Path_6" d="M21.4141 12.625H19.0703C18.7464 12.625 18.4844 12.8871 18.4844 13.2109V16.1406H15.5547C15.2308 16.1406 14.9688 16.4027 14.9688 16.7266V19.0703C14.9688 19.3942 15.2308 19.6562 15.5547 19.6562C15.8786 19.6562 16.1406 19.3942 16.1406 19.0703V17.3125H19.0703C19.3942 17.3125 19.6562 17.0504 19.6562 16.7266V13.7969H21.4141C21.7379 13.7969 22 13.5348 22 13.2109C22 12.8871 21.7379 12.625 21.4141 12.625Z" fill="black"/>
<path id="Path_7" d="M21.4141 20.8281H20.2422C19.9183 20.8281 19.6562 21.0902 19.6562 21.4141C19.6562 21.7379 19.9183 22 20.2422 22H21.4141C21.7379 22 22 21.7379 22 21.4141C22 21.0902 21.7379 20.8281 21.4141 20.8281Z" fill="black"/>
</g>
</g>
</svg>
