<svg width="24" height="24" viewBox="0 0 24 24" xmlns="http://www.w3.org/2000/svg">
    <path d="M20.707 20.706a.997.997 0 0 1-1.414 0L16.586 18 16 17.413l-1.345-1.345-.069-.069-7.303-7.303-1.752-1.75-2.238-2.24a.999.999 0 1 1 1.414-1.414L6.42 5.005 7.886 6.47 17.414 16l1.993 1.992 1.3 1.3a.999.999 0 0 1 0 1.414zM7.035 4.206A6.723 6.723 0 0 1 12.9 2.06c3.32.44 5.821 3.396 5.821 6.876v4.468l1.8 1.803c.47.47.608 1.17.353 1.784a1.62 1.62 0 0 1-.453.6l-.306-.305-1.993-1.993-9.528-9.529-1.466-1.465-.092-.092zM14 18.34c0 .9-.916 1.66-2 1.66s-2-.76-2-1.66V18h4v.34zm1.88.366-.587-.586-1.345-1.344-.069-.07-7.303-7.302L5.311 8.14c-.016.195-.03.39-.03.587l-.002 4.677-1.8 1.804a1.633 1.633 0 0 0-.354 1.782c.255.613.848 1.01 1.512 1.01H8v.341C8 20.358 9.794 22 12 22c2.042 0 3.712-1.412 3.951-3.22l-.072-.074z" fill="#FFF" fill-rule="evenodd"/>
</svg>
