<svg width="21" height="20" viewBox="0 0 21 20" fill="none" xmlns="http://www.w3.org/2000/svg">
<path d="M9.77705 2.8778C9.96912 2.48869 10.0652 2.29413 10.1955 2.23197C10.309 2.17789 10.4407 2.17789 10.5542 2.23197C10.6845 2.29413 10.7806 2.48869 10.9727 2.8778L12.7949 6.56944C12.8516 6.68432 12.8799 6.74176 12.9214 6.78635C12.9581 6.82584 13.0021 6.85783 13.0509 6.88056C13.1061 6.90623 13.1695 6.91549 13.2963 6.93402L17.3723 7.5298C17.8016 7.59253 18.0162 7.6239 18.1155 7.72874C18.2019 7.81995 18.2425 7.94529 18.2261 8.06985C18.2072 8.21302 18.0518 8.36436 17.7411 8.66702L14.7927 11.5387C14.7008 11.6282 14.6548 11.673 14.6252 11.7263C14.5989 11.7734 14.5821 11.8252 14.5756 11.8788C14.5683 11.9393 14.5791 12.0025 14.6008 12.129L15.2965 16.1851C15.3698 16.6129 15.4065 16.8269 15.3376 16.9538C15.2776 17.0642 15.171 17.1417 15.0474 17.1646C14.9054 17.1909 14.7133 17.0899 14.3291 16.8879L10.6852 14.9716C10.5716 14.9119 10.5148 14.882 10.455 14.8703C10.4021 14.8599 10.3476 14.8599 10.2947 14.8703C10.2349 14.882 10.1781 14.9119 10.0646 14.9716L6.42061 16.8879C6.03643 17.0899 5.84435 17.1909 5.70231 17.1646C5.57874 17.1417 5.47211 17.0642 5.41212 16.9538C5.34317 16.8269 5.37986 16.6129 5.45323 16.1851L6.14891 12.129C6.1706 12.0025 6.18144 11.9393 6.1741 11.8788C6.16761 11.8252 6.15076 11.7734 6.12451 11.7263C6.09486 11.673 6.0489 11.6282 5.95699 11.5387L3.00864 8.66702C2.69789 8.36436 2.54252 8.21302 2.52361 8.06985C2.50716 7.94529 2.5478 7.81995 2.63421 7.72874C2.73353 7.6239 2.94815 7.59253 3.37737 7.5298L7.45343 6.93402C7.58019 6.91549 7.64357 6.90623 7.69877 6.88056C7.74764 6.85783 7.79164 6.82584 7.82833 6.78635C7.86976 6.74176 7.89811 6.68432 7.95482 6.56944L9.77705 2.8778Z" stroke="#101828" stroke-width="1.66667" stroke-linecap="round" stroke-linejoin="round"/>
</svg>
