<svg width="21" height="20" viewBox="0 0 21 20" fill="none" xmlns="http://www.w3.org/2000/svg">
<path d="M5.87484 5.00008H5.88317M5.87484 15.0001H5.88317M5.20817 8.33342H16.5415C17.4749 8.33342 17.9416 8.33341 18.2982 8.15176C18.6118 7.99197 18.8667 7.737 19.0265 7.4234C19.2082 7.06688 19.2082 6.60017 19.2082 5.66675V4.33341C19.2082 3.39999 19.2082 2.93328 19.0265 2.57676C18.8667 2.26316 18.6118 2.00819 18.2982 1.8484C17.9416 1.66675 17.4749 1.66675 16.5415 1.66675H5.20817C4.27475 1.66675 3.80804 1.66675 3.45152 1.8484C3.13792 2.00819 2.88295 2.26316 2.72316 2.57676C2.5415 2.93328 2.5415 3.39999 2.5415 4.33341V5.66675C2.5415 6.60017 2.5415 7.06688 2.72316 7.4234C2.88295 7.737 3.13792 7.99197 3.45152 8.15176C3.80804 8.33341 4.27475 8.33342 5.20817 8.33342ZM5.20817 18.3334H16.5415C17.4749 18.3334 17.9416 18.3334 18.2982 18.1518C18.6118 17.992 18.8667 17.737 19.0265 17.4234C19.2082 17.0669 19.2082 16.6002 19.2082 15.6667V14.3334C19.2082 13.4 19.2082 12.9333 19.0265 12.5768C18.8667 12.2632 18.6118 12.0082 18.2982 11.8484C17.9416 11.6667 17.4749 11.6667 16.5415 11.6667H5.20817C4.27475 11.6667 3.80804 11.6667 3.45152 11.8484C3.13792 12.0082 2.88295 12.2632 2.72316 12.5768C2.5415 12.9333 2.5415 13.4 2.5415 14.3334V15.6667C2.5415 16.6002 2.5415 17.0669 2.72316 17.4234C2.88295 17.737 3.13792 17.992 3.45152 18.1518C3.80804 18.3334 4.27475 18.3334 5.20817 18.3334Z" stroke="#FF5921" stroke-width="1.5" stroke-linecap="round" stroke-linejoin="round"/>
</svg>
