<svg xmlns="http://www.w3.org/2000/svg" width="18" height="16" viewBox="0 0 18 16">
    <defs>
        <filter id="lsflkiebva">
            <feColorMatrix in="SourceGraphic" values="0 0 0 0 1.000000 0 0 0 0 1.000000 0 0 0 0 1.000000 0 0 0 1.000000 0"/>
        </filter>
    </defs>
    <g fill="none" fill-rule="evenodd">
        <g>
            <g filter="url(#lsflkiebva)" transform="translate(-38.000000, -126.000000) translate(20.000000, 103.000000)">
                <g>
                    <path fill="#000" fill-rule="nonzero" d="M17.789 1c-.094-.088-.217-.126-.337-.101l-.963.194c-.053-.043-.114-.074-.182-.085-.078-.013-1.927-.307-3.544-.307-.056 0-.109 0-.163.002V.499c0-.143-.057-.277-.156-.366-.099-.089-.228-.122-.35-.09l-1.596.42c-.188.048-.32.237-.32.455v.342c-.555.315-.955.7-1.21.996-.367-.427-1.035-1.04-2.035-1.357C6.515.766 5.94.7 5.173.7c-1.616 0-3.465.295-3.543.307-.068.011-.13.042-.182.085L.485.899C.365.874.241.912.148 1 .054 1.09 0 1.22 0 1.359v12.068c0 .227.144.421.34.461l7.093 1.43v.205c0 .259.185.468.413.468H9.95c.228 0 .413-.21.413-.468v-.177l7.232-1.458c.197-.04.34-.234.34-.46V1.358c0-.138-.053-.27-.147-.358zm-7.611 1.336v5.195c0 .213.127.399.308.452.035.01.07.016.105.016.146 0 .286-.09.36-.24l.473-.957.442.618c.11.154.294.212.46.146.164-.066.274-.243.274-.44V1.637l.163-.002c1.149 0 2.458.161 3.073.246v10.454c-.67-.103-1.938-.27-3.135-.27-.668 0-1.23.053-1.67.159-.756.18-1.284.414-1.65.636V3.134c.115-.162.377-.49.797-.798zM6.71 1.799c1.048.334 1.652 1.068 1.846 1.337v9.725c-.366-.223-.894-.455-1.65-.636-.44-.106-1.002-.16-1.67-.16-1.198 0-2.465.168-3.135.271V1.882c.615-.085 1.923-.246 3.073-.246.68 0 1.196.055 1.536.163z" transform="translate(18.000000, 23.000000)"/>
                </g>
            </g>
        </g>
    </g>
</svg>
