<svg width="21" height="20" viewBox="0 0 21 20" fill="none" xmlns="http://www.w3.org/2000/svg">
<path d="M18.4711 12.7843C16.1185 14.458 13.0327 14.6439 10.5224 13.3334M2.77854 7.21582C5.13683 5.53813 8.23187 5.3554 10.7455 6.67632M13.4362 11.7704C15.8418 10.2543 17.2347 7.47852 16.959 4.5936M7.77637 8.25317C5.39343 9.77432 4.01616 12.5364 4.29048 15.4066M13.5639 8.44761C13.4531 5.60718 11.7456 3.01412 9.10992 1.81027M7.68785 11.6048C7.81744 14.4247 9.52008 16.9934 12.1396 18.1899M16.5174 4.10753C19.7717 7.3619 19.7717 12.6383 16.5174 15.8926C13.263 19.147 7.98663 19.147 4.73228 15.8926C1.47791 12.6382 1.47791 7.36188 4.73228 4.10753C7.98665 0.853155 13.263 0.853155 16.5174 4.10753ZM12.9819 7.64306C14.2836 8.9448 14.2836 11.0554 12.9819 12.3571C11.6801 13.6589 9.56956 13.6589 8.26781 12.3571C6.96607 11.0554 6.96607 8.9448 8.26781 7.64306C9.56956 6.34131 11.6801 6.34131 12.9819 7.64306Z" stroke="#101828" stroke-width="1.5" stroke-linecap="round" stroke-linejoin="round"/>
</svg>
