<svg width="24" height="24" viewBox="0 0 24 24" fill="none" xmlns="http://www.w3.org/2000/svg">
<g id="27) Icon/Box">
<g id="Box3">
<path id="Combined-Shape" opacity="0.3" d="M20.4061 6.73604C20.7673 6.89654 21 7.25467 21 7.64985V16.4116C21 16.7747 20.8031 17.1094 20.4856 17.2857L12.4856 21.7302C12.1836 21.898 11.8164 21.898 11.5144 21.7302L3.51436 17.2857C3.19689 17.1094 3 16.7747 3 16.4116V7.64985C3 7.25467 3.23273 6.89654 3.59386 6.73604L11.5939 3.18049C11.8524 3.06557 12.1476 3.06557 12.4061 3.18049L20.4061 6.73604Z" fill="#FF5921"/>
<path id="Combined-Shape-Copy" d="M14.9672 4.22443L7.6 8.31729V12.9057L9.6 13.9057V9.4941L17.2551 5.24128L14.9672 4.22443Z" fill="#FF5921"/>
</g>
</g>
</svg>
