<svg width="24" height="24" viewBox="0 0 24 24" fill="none" xmlns="http://www.w3.org/2000/svg">
<circle cx="12" cy="12" r="12" fill="#F7E1DB"/>
<circle cx="12" cy="12" r="9" fill="#FAEDE9"/>
<path d="M8.683 3.70437C8.83416 2.99381 9.39518 2.43872 10.1132 2.28928C10.8312 2.13985 11.5706 2.42428 11.9982 3.01439C12.4257 3.60449 12.4607 4.38884 12.0873 5.01391C12.6629 5.49092 12.8904 6.26487 12.663 6.97304C12.4356 7.6812 11.7984 8.18324 11.0501 8.24386C10.3018 8.30449 9.59064 7.91169 9.2499 7.24955C8.54676 7.51015 7.75421 7.32451 7.2437 6.77964C6.73318 6.23477 6.60587 5.43865 6.92144 4.76439C7.23701 4.09014 7.93291 3.67138 8.683 3.70437Z" fill="#FAC850"/>
<path d="M7.13859 6.81855C6.73206 6.21246 6.0035 5.90215 5.28128 6.02747C4.55905 6.15279 3.97953 6.69007 3.80392 7.39716C3.6283 8.10426 3.88976 8.84764 4.47043 9.29226C4.11491 9.94861 4.19382 10.7533 4.67018 11.3291C5.14655 11.905 5.92594 12.1379 6.64307 11.9186C7.36019 11.6994 7.8729 11.0715 7.94088 10.3292C8.691 10.313 9.35689 9.84812 9.62645 9.15257C9.89601 8.45702 9.71583 7.66861 9.17035 7.15687C8.62487 6.64513 7.82219 6.51148 7.13854 6.81855H7.13859Z" fill="#FA5D3F"/>
<path d="M21 9.99619C21 7.46745 19.2339 5.26511 16.7208 4.66012C14.2078 4.05514 11.5966 5.20369 10.3942 7.44294C9.19171 9.6822 9.7084 12.4341 11.646 14.1106C10.6525 15.3133 10.8214 17.0705 12.0266 18.0715C13.2319 19.0725 15.0342 18.9523 16.0891 17.8006C16.9725 18.1306 17.9727 17.8378 18.5248 17.0875C19.077 16.3372 19.0427 15.3176 18.4412 14.6044C20.0381 13.591 21.0011 11.8566 21 9.99619Z" fill="#FFF9F8"/>
<path d="M8.7795 10.0802L3.67793 13.8C2.92913 14.3486 2.77753 15.384 3.33904 16.1146C3.90055 16.8452 4.96327 16.9953 5.71468 16.4501L9.90188 21.75L15 17.6121L10.8163 12.7304C11.5676 12.1825 11.7208 11.1452 11.1583 10.4134C10.5959 9.68158 9.53086 9.53241 8.7795 10.0802Z" fill="#FAC850"/>
<path d="M18.6433 13.6626C16.8553 16.3249 14.2248 18.2656 11.2013 19.153C10.312 19.418 9.64756 20.2738 9.76307 21.2021C9.87637 22.127 10.9498 22.7449 12.1019 22.406C15.8575 21.3036 19.1249 18.8931 21.346 15.5862C22.0281 14.5719 21.8045 13.3267 20.9904 12.9191C20.1736 12.5081 19.1729 12.881 18.6433 13.6626Z" fill="#FA5D3F"/>
<path d="M18 8.73524C17.9995 7.92592 17.4692 7.1978 16.6593 6.89466C15.8495 6.59152 14.9221 6.77399 14.3151 7.35592C13.7081 7.93785 13.5429 8.80285 13.8974 9.54251C12.9774 9.64074 12.2297 10.2755 12.0438 11.1161C11.8578 11.9568 12.2758 12.8129 13.0799 13.2385C13.884 13.6642 14.8922 13.5629 15.5792 12.9875C16.2663 12.4122 16.4766 11.4929 16.1006 10.7087C17.1829 10.5936 17.9999 9.74468 18 8.73524Z" fill="#FAC850"/>
<path d="M6.75 13.5H7.56818V14.4H6.75V13.5Z" fill="#FFFDFA"/>
<path d="M9.20459 13.95H10.0228V14.85H9.20459V13.95Z" fill="#FFFDFA"/>
<path d="M10.4319 17.1H11.2501V18H10.4319V17.1Z" fill="#FFFDFA"/>
<path d="M8.38647 16.2H9.20466V17.1H8.38647V16.2Z" fill="#FFFDFA"/>
<path d="M13.5 19.6698V21.7344C13.7893 21.6232 14.075 21.5051 14.3571 21.3801V19.6698H13.5Z" fill="#994635"/>
<path d="M16.0715 18.4811V20.5086C16.3628 20.3402 16.6485 20.1642 16.9287 19.9807V18.4811H16.0715Z" fill="#994635"/>
<path d="M18.6428 16.5V18.7002C18.9377 18.4502 19.2234 18.1907 19.5 17.9219V16.5H18.6428Z" fill="#994635"/>
</svg>
