<svg width="15" height="20" viewBox="0 0 15 20" fill="none" xmlns="http://www.w3.org/2000/svg">
<path d="M7.49899 20C3.36405 20 0 16.4709 0 12.133C0 8.75928 1.46503 5.75107 3.61604 3.28052C5.38516 1.24857 7.13607 0.12966 7.20971 0.0830579C7.59782 -0.162646 8.1187 0.172121 8.1187 0.624856V6.01412L10.7533 3.44072C10.982 3.21732 11.3441 3.23279 11.5537 3.48088C12.5551 4.66545 13.3522 5.91635 13.9228 7.19889C17.1058 14.3522 12.7181 20 7.49899 20Z" fill="#FE4E33"/>
<path d="M13.9211 7.1987C13.3495 5.91613 12.5512 4.6652 11.5482 3.4806C11.3382 3.23247 10.9756 3.21703 10.7465 3.44044L8.1077 6.0139V0.624508C8.1077 0.28364 7.81202 0.00976587 7.5 0V20C12.7217 19.9907 17.1065 14.3462 13.9211 7.1987Z" fill="#FE1600"/>
<path d="M7.50002 20C5.84578 20 4.5 18.602 4.5 16.8836C4.5 14.1069 7.10151 12.4628 7.21224 12.3941C7.40635 12.2739 7.64937 12.2795 7.83814 12.4084C7.94682 12.4826 10.5 14.2573 10.5 16.8836C10.5 18.602 9.15425 20 7.50002 20Z" fill="#FEC356"/>
<path d="M10.5 16.8837C10.5 14.2572 7.93511 12.4824 7.82597 12.4081C7.7272 12.3409 7.61368 12.3076 7.5 12.3077V20C9.15544 19.9923 10.5 18.5974 10.5 16.8837Z" fill="#FEB020"/>
</svg>
