<svg width="30" height="29" viewBox="0 0 30 29" fill="none" xmlns="http://www.w3.org/2000/svg">
<path fill-rule="evenodd" clip-rule="evenodd" d="M7.5 3H6C2.68629 3 0 5.68629 0 9V22.5C0 25.8137 2.68629 28.5 6 28.5H24C27.3137 28.5 30 25.8137 30 22.5V9C30 5.68629 27.3137 3 24 3H22.5L20.818 1.31802C19.9741 0.474106 18.8295 0 17.636 0H12.364C11.1705 0 10.0259 0.474106 9.18198 1.31802L7.5 3ZM3 9C3 7.34315 4.34315 6 6 6H8.74264L11.3033 3.43934C11.5846 3.15804 11.9661 3 12.364 3H17.636C18.0339 3 18.4154 3.15804 18.6967 3.43934L21.2574 6H24C25.6569 6 27 7.34315 27 9V22.5C27 24.1569 25.6569 25.5 24 25.5H6C4.34315 25.5 3 24.1569 3 22.5V9ZM15 22.5C10.8579 22.5 7.5 19.1421 7.5 15C7.5 10.8579 10.8579 7.5 15 7.5C19.1421 7.5 22.5 10.8579 22.5 15C22.5 19.1421 19.1421 22.5 15 22.5ZM19.5 15C19.5 17.4853 17.4853 19.5 15 19.5C12.5147 19.5 10.5 17.4853 10.5 15C10.5 12.5147 12.5147 10.5 15 10.5C17.4853 10.5 19.5 12.5147 19.5 15Z" fill="#FF5921"/>
</svg>
