<svg width="26" height="24" viewBox="0 0 26 24" fill="none" xmlns="http://www.w3.org/2000/svg">
<path fill-rule="evenodd" clip-rule="evenodd" d="M7.85735 2.42853C7.85735 1.32396 8.75278 0.428528 9.85735 0.428528H16.1431C17.2476 0.428528 18.1431 1.32396 18.1431 2.42853V2.99996H23.8574C24.9619 2.99996 25.8574 3.89539 25.8574 4.99996V21.5714C25.8574 22.676 24.9619 23.5714 23.8574 23.5714H2.14307C1.0385 23.5714 0.143066 22.676 0.143066 21.5714V4.99996C0.143066 3.89539 1.0385 2.99996 2.14307 2.99996H7.85735V2.42853ZM18.1431 13.2857C18.1431 16.126 15.8405 18.4285 13.0002 18.4285C10.1599 18.4285 7.85735 16.126 7.85735 13.2857C7.85735 10.4453 10.1599 8.14281 13.0002 8.14281C15.8405 8.14281 18.1431 10.4453 18.1431 13.2857ZM20.4288 6.8571C19.8765 6.8571 19.4288 7.30482 19.4288 7.8571V8.42853C19.4288 8.98081 19.8765 9.42853 20.4288 9.42853H21.0002C21.5525 9.42853 22.0002 8.98081 22.0002 8.42853V7.8571C22.0002 7.30482 21.5525 6.8571 21.0002 6.8571H20.4288ZM13.0002 15.8571C14.4204 15.8571 15.5716 14.7058 15.5716 13.2857C15.5716 11.8655 14.4204 10.7142 13.0002 10.7142C11.58 10.7142 10.4288 11.8655 10.4288 13.2857C10.4288 14.7058 11.58 15.8571 13.0002 15.8571Z" fill="#42526E"/>
</svg>
