<svg width="24" height="24" viewBox="0 0 24 24" xmlns="http://www.w3.org/2000/svg">
    <defs>
        <filter id="feml8w9z8a">
            <feColorMatrix in="SourceGraphic" values="0 0 0 0 1.000000 0 0 0 0 1.000000 0 0 0 0 1.000000 0 0 0 1.000000 0"/>
        </filter>
    </defs>
    <g filter="url(#feml8w9z8a)" fill="none" fill-rule="evenodd">
        <path d="M0 0h24v24H0z"/>
        <path fill="#000" fill-rule="nonzero" d="m5 15-2 6.5 6.5-2z"/>
        <path d="M12.5 21a9.5 9.5 0 1 1 0-19 9.5 9.5 0 0 1 0 19zm-5-8a1.5 1.5 0 1 0 0-3 1.5 1.5 0 0 0 0 3zm5 0a1.5 1.5 0 1 0 0-3 1.5 1.5 0 0 0 0 3zm5 0a1.5 1.5 0 1 0 0-3 1.5 1.5 0 0 0 0 3z" fill="#000" fill-rule="nonzero"/>
    </g>
</svg>
