<svg width="24" height="24" viewBox="0 0 24 24" fill="none" xmlns="http://www.w3.org/2000/svg">
<path opacity="0.3" d="M12 22C7.02944 22 3 17.9706 3 13C3 8.02944 7.02944 4 12 4C16.9706 4 21 8.02944 21 13C21 17.9706 16.9706 22 12 22Z" fill="#FF5921"/>
<path d="M11.963 7.5H12.0475C12.3044 7.5 12.5195 7.69465 12.545 7.95025L13 12.5L16.2481 14.356C16.4039 14.4451 16.5 14.6107 16.5 14.7902V15C16.5 15.2109 16.329 15.3819 16.1181 15.3819C16.0842 15.3819 16.0504 15.3774 16.0176 15.3684L11.3987 14.1087C11.1673 14.0456 11.0133 13.8271 11.0317 13.588L11.4645 7.96165C11.4845 7.70115 11.7018 7.5 11.963 7.5Z" fill="#FF5921"/>
</svg>
