<svg width="33" height="32" viewBox="0 0 33 32" fill="none" xmlns="http://www.w3.org/2000/svg">
<ellipse cx="17.1045" cy="16" rx="15.3955" ry="16" fill="url(#paint0_linear_1_8779)"/>
<ellipse cx="15.8955" cy="16" rx="15.3955" ry="16" fill="url(#paint1_linear_1_8779)"/>
<ellipse cx="15.8955" cy="15.9999" rx="11.29" ry="11.7333" fill="url(#paint2_linear_1_8779)"/>
<path d="M20.0074 22.2934C20.1184 22.2934 20.2031 22.2512 20.2613 22.1667C20.3196 22.0823 20.3488 21.9789 20.3488 21.8565C20.3488 21.7808 20.346 21.7226 20.3404 21.6818L19.6243 17.313L22.647 14.2198C22.7913 14.0684 22.8635 13.9286 22.8635 13.8004C22.8635 13.5849 22.7081 13.4509 22.3972 13.3985L18.2171 12.7606L16.3435 8.785C16.2381 8.54617 16.1021 8.42676 15.9355 8.42676C15.769 8.42676 15.633 8.54617 15.5275 8.785L13.654 12.7606L9.47387 13.3985C9.163 13.4509 9.00757 13.5849 9.00757 13.8004C9.00757 13.9227 9.07696 14.0625 9.21574 14.2198L12.2467 17.313L11.5306 21.6818C11.5195 21.7633 11.514 21.8216 11.514 21.8565C11.514 21.9789 11.5431 22.0823 11.6014 22.1667C11.6597 22.2512 11.7471 22.2934 11.8637 22.2934C11.9636 22.2934 12.0746 22.2585 12.1968 22.1886L15.9355 20.1265L19.6743 22.1886C19.7909 22.2585 19.9019 22.2934 20.0074 22.2934Z" fill="url(#paint3_linear_1_8779)"/>
<path d="M5.68213 15.9999C5.68241 9.7373 10.4152 4.5788 16.4343 4.28047C16.2557 4.27193 16.0761 4.2666 15.8955 4.2666C9.66018 4.2666 4.60547 9.51979 4.60547 15.9999C4.60547 22.4801 9.66018 27.7333 15.8955 27.7333C16.0761 27.7333 16.2557 27.7279 16.4343 27.7194C10.4152 27.4211 5.68241 22.2626 5.68213 15.9999Z" fill="url(#paint4_linear_1_8779)"/>
<defs>
<linearGradient id="paint0_linear_1_8779" x1="-1.80118" y1="-2.72533" x2="1.19254" y2="0.515865" gradientUnits="userSpaceOnUse">
<stop stop-color="#FFCE47"/>
<stop offset="1" stop-color="#F47C27"/>
</linearGradient>
<linearGradient id="paint1_linear_1_8779" x1="-6.8267" y1="-6.5472" x2="-13.0966" y2="45.1807" gradientUnits="userSpaceOnUse">
<stop stop-color="#FFCE47"/>
<stop offset="1" stop-color="#F47C27"/>
</linearGradient>
<linearGradient id="paint2_linear_1_8779" x1="-32.1738" y1="-0.291798" x2="4.21513" y2="44.1275" gradientUnits="userSpaceOnUse">
<stop stop-color="#FFCE47"/>
<stop offset="1" stop-color="#F47C27"/>
</linearGradient>
<linearGradient id="paint3_linear_1_8779" x1="-7.87645" y1="7.14689" x2="-7.87645" y2="54.7993" gradientUnits="userSpaceOnUse">
<stop stop-color="#FFCE47"/>
<stop offset="1" stop-color="#F47C27"/>
</linearGradient>
<linearGradient id="paint4_linear_1_8779" x1="-13.5161" y1="8.56398" x2="-11.8357" y2="8.69901" gradientUnits="userSpaceOnUse">
<stop stop-color="#FFCE47"/>
<stop offset="1" stop-color="#F47C27"/>
</linearGradient>
</defs>
</svg>
