<svg width="129" height="128" viewBox="0 0 129 128" fill="none" xmlns="http://www.w3.org/2000/svg">
<g clip-path="url(#clip0_1000_31739)">
<path d="M64.5 0.184174V7.05995" stroke="white" stroke-width="4" stroke-linecap="round" stroke-linejoin="round"/>
<path d="M64.5 120.94V127.816" stroke="white" stroke-width="4" stroke-linecap="round" stroke-linejoin="round"/>
<g opacity="0.3">
<path d="M75.6181 1.15041L75.1703 3.68966" stroke="white" stroke-width="4" stroke-linecap="round" stroke-linejoin="round"/>
<path d="M53.9774 123.881L53.5297 126.42" stroke="white" stroke-width="4" stroke-linecap="round" stroke-linejoin="round"/>
</g>
<g opacity="0.3">
<path d="M86.3267 4.01977L85.4448 6.44269" stroke="white" stroke-width="4" stroke-linecap="round" stroke-linejoin="round"/>
<path d="M43.7029 121.128L42.821 123.55" stroke="white" stroke-width="4" stroke-linecap="round" stroke-linejoin="round"/>
</g>
<g opacity="0.3">
<path d="M96.3743 8.70508L95.0851 10.9381" stroke="white" stroke-width="4" stroke-linecap="round" stroke-linejoin="round"/>
<path d="M34.0626 116.632L32.7734 118.865" stroke="white" stroke-width="4" stroke-linecap="round" stroke-linejoin="round"/>
</g>
<path d="M105.423 15.0621L103.765 17.0373" stroke="white" stroke-opacity="0.3" stroke-width="4" stroke-linecap="round" stroke-linejoin="round"/>
<path opacity="0.3" d="M25.3164 110.529L23.659 112.504" stroke="white" stroke-width="4" stroke-linecap="round" stroke-linejoin="round"/>
<path opacity="0.3" d="M119.622 31.9821L117.389 33.2714" stroke="white" stroke-width="4" stroke-linecap="round" stroke-linejoin="round"/>
<path opacity="0.3" d="M11.6946 94.2939L9.46159 95.5831" stroke="white" stroke-width="4" stroke-linecap="round" stroke-linejoin="round"/>
<g opacity="0.3">
<path d="M124.339 42.0323L121.916 42.9142" stroke="white" stroke-width="4" stroke-linecap="round" stroke-linejoin="round"/>
<path d="M7.23137 84.6561L4.80845 85.5379" stroke="white" stroke-width="4" stroke-linecap="round" stroke-linejoin="round"/>
</g>
<g opacity="0.3">
<path d="M127.209 52.7409L124.669 53.1887" stroke="white" stroke-width="4" stroke-linecap="round" stroke-linejoin="round"/>
<path d="M4.47831 74.3816L1.93907 74.8293" stroke="white" stroke-width="4" stroke-linecap="round" stroke-linejoin="round"/>
</g>
<g opacity="0.3">
<path d="M127.209 74.8293L124.669 74.3816" stroke="white" stroke-width="4" stroke-linecap="round" stroke-linejoin="round"/>
<path d="M4.47832 53.1887L1.93908 52.7409" stroke="white" stroke-width="4" stroke-linecap="round" stroke-linejoin="round"/>
</g>
<g opacity="0.3">
<path d="M124.339 85.5379L121.916 84.6561" stroke="white" stroke-width="4" stroke-linecap="round" stroke-linejoin="round"/>
<path d="M7.23137 42.9142L4.80845 42.0323" stroke="white" stroke-width="4" stroke-linecap="round" stroke-linejoin="round"/>
</g>
<path d="M119.625 95.5831L117.392 94.2939" stroke="#F6F6F6" stroke-width="4" stroke-linecap="round" stroke-linejoin="round"/>
<path opacity="0.3" d="M11.6975 33.2713L9.46449 31.9821" stroke="white" stroke-width="4" stroke-linecap="round" stroke-linejoin="round"/>
<g opacity="0.3">
<path d="M105.456 112.506L103.798 110.531" stroke="white" stroke-width="4" stroke-linecap="round" stroke-linejoin="round"/>
<path d="M25.3493 17.0391L23.6919 15.064" stroke="white" stroke-width="4" stroke-linecap="round" stroke-linejoin="round"/>
</g>
<g opacity="0.3">
<path d="M96.3461 118.864L95.0569 116.631" stroke="white" stroke-width="4" stroke-linecap="round" stroke-linejoin="round"/>
<path d="M34.0344 10.9366L32.7452 8.70363" stroke="white" stroke-width="4" stroke-linecap="round" stroke-linejoin="round"/>
</g>
<g opacity="0.3">
<path d="M86.3267 123.55L85.4448 121.128" stroke="white" stroke-width="4" stroke-linecap="round" stroke-linejoin="round"/>
<path d="M43.7029 6.4427L42.8211 4.01978" stroke="white" stroke-width="4" stroke-linecap="round" stroke-linejoin="round"/>
</g>
<g opacity="0.3">
<path d="M75.6181 126.42L75.1703 123.881" stroke="white" stroke-width="4" stroke-linecap="round" stroke-linejoin="round"/>
<path d="M53.9774 3.68966L53.5297 1.15041" stroke="white" stroke-width="4" stroke-linecap="round" stroke-linejoin="round"/>
</g>
<path d="M113.295 22.9032L110.003 25.6655" stroke="white" stroke-width="4" stroke-linecap="round" stroke-linejoin="round"/>
<path d="M19.1446 101.905L15.8527 104.667" stroke="white" stroke-width="4" stroke-linecap="round" stroke-linejoin="round"/>
<path d="M113.266 104.665L109.974 101.903" stroke="white" stroke-width="4" stroke-linecap="round" stroke-linejoin="round"/>
<path d="M19.1158 25.6633L15.8238 22.901" stroke="white" stroke-width="4" stroke-linecap="round" stroke-linejoin="round"/>
<path d="M128.39 64H121.514" stroke="white" stroke-width="4" stroke-linecap="round" stroke-linejoin="round"/>
<path d="M7.63387 64H0.758086" stroke="white" stroke-width="4" stroke-linecap="round" stroke-linejoin="round"/>
<path d="M68.932 21.592V31H64.942L63.43 23.818V31H60.938V21.592H65.026L66.412 28.55V21.592H68.932Z" fill="white"/>
<path d="M15.168 64.8376H17.8L18.654 72.1316H18.738L20.264 64.7816H23.162L24.688 72.1316H24.772L25.626 64.8376H28.272L26.55 74.2456H22.994L21.72 67.6936L20.446 74.2456H16.876L15.168 64.8376Z" fill="white"/>
<path d="M112.43 66.762V68.232H115.426V70.36H112.43V71.83H116.266V74H109.938V64.592H116.266V66.762H112.43Z" fill="white"/>
<path d="M63.794 116.196C62.9913 116.196 62.0767 116.061 61.05 115.79L60.546 115.678L60.798 113.774C62.03 113.942 62.982 114.026 63.654 114.026C64.382 114.026 64.746 113.774 64.746 113.27C64.746 113.093 64.662 112.953 64.494 112.85C64.3353 112.747 64.0973 112.635 63.78 112.514C63.5747 112.439 63.4253 112.379 63.332 112.332C62.2773 111.977 61.526 111.571 61.078 111.114C60.6393 110.657 60.42 110.083 60.42 109.392C60.42 108.412 60.7187 107.67 61.316 107.166C61.9133 106.662 62.7253 106.41 63.752 106.41C64.172 106.41 64.5687 106.438 64.942 106.494C65.3247 106.55 66.02 106.671 67.028 106.858L66.832 108.79C65.6187 108.65 64.6853 108.58 64.032 108.58C63.2667 108.58 62.884 108.79 62.884 109.21C62.884 109.35 62.9773 109.471 63.164 109.574C63.3507 109.667 63.6447 109.789 64.046 109.938C64.4567 110.087 64.7227 110.19 64.844 110.246C65.46 110.498 65.936 110.745 66.272 110.988C66.608 111.221 66.8507 111.506 67 111.842C67.1493 112.178 67.224 112.603 67.224 113.116C67.224 113.769 67.07 114.329 66.762 114.796C66.4633 115.253 66.0527 115.603 65.53 115.846C65.0167 116.079 64.438 116.196 63.794 116.196Z" fill="white"/>
</g>
<defs>
<clipPath id="clip0_1000_31739">
<rect width="129" height="128" fill="white"/>
</clipPath>
</defs>
</svg>
