<svg width="24" height="24" viewBox="0 0 24 24" fill="none" xmlns="http://www.w3.org/2000/svg">
<g id="27) Icon/contact-us">
<g id="Chat4">
<path id="Combined-Shape" fill-rule="evenodd" clip-rule="evenodd" d="M22.0249 15L22 15.0098L22 15V6C22 4.34315 20.6569 3 19 3H5C3.34315 3 2 4.34315 2 6V15C2 16.6569 3.34315 18 5 18H18.0249L20.3178 20.2929C20.5054 20.4804 20.7597 20.5858 21.0249 20.5858C21.5772 20.5858 22.0249 20.1381 22.0249 19.5858V15ZM12 14C9.64567 14 7.67758 12.8191 6.16795 10.5547C5.8616 10.0952 5.98577 9.4743 6.4453 9.16795C6.90483 8.8616 7.5257 8.98577 7.83205 9.4453C8.98909 11.1809 10.3543 12 12 12C13.6457 12 15.0109 11.1809 16.1679 9.4453C16.4743 8.98577 17.0952 8.8616 17.5547 9.16795C18.0142 9.4743 18.1384 10.0952 17.8321 10.5547C16.3224 12.8191 14.3543 14 12 14Z" fill="black"/>
</g>
</g>
</svg>
