<svg xmlns="http://www.w3.org/2000/svg" width="36" height="36" viewBox="0 0 36 36">
    <g fill="none" fill-rule="evenodd">
        <g>
            <g transform="translate(-20 -659) translate(20 659)">
                <circle cx="18" cy="18" r="18" fill="#42BE65"/>
                <g fill-rule="nonzero" transform="translate(7 8)">
                    <path fill="#FFF" d="M22.92 19.081l-2.87-7.983c-.098-.27-.372-.453-.681-.453H18.05c-1.839 3.438-4.972 6.008-5.16 6.162-.386.316-.893.49-1.418.49-.524 0-1.026-.178-1.42-.498-.185-.146-3.319-2.72-5.152-6.154H3.587c-.31 0-.583.183-.681.453l-2.87 7.983c-.072.204-.036.425.099.6.134.174.35.278.583.278h21.52c.233 0 .449-.104.583-.279.135-.17.17-.395.099-.599z"/>
                    <path fill="#FFF" d="M11.478 0c-3.56 0-6.456 2.686-6.456 5.988 0 4.902 5.739 9.617 5.985 9.813.135.112.305.166.47.166.167 0 .337-.054.472-.166.246-.196 5.985-4.91 5.985-9.813C17.934 2.686 15.038 0 11.478 0z"/>
                    <ellipse cx="11.478" cy="5.988" fill="#42BE65" rx="2.869" ry="2.661"/>
                </g>
            </g>
        </g>
    </g>
</svg>
