<svg width="24" height="20" viewBox="0 0 24 20" fill="none" xmlns="http://www.w3.org/2000/svg">
<ellipse cx="11.8432" cy="5.07982" rx="1.77998" ry="1.90819" fill="#F8C7A5"/>
<path d="M22.9171 19.9991H0.769219C0.344391 19.9991 0 19.6299 0 19.1745V18.344C0 17.4346 0.687703 16.6974 1.536 16.6974H22.1503C22.9986 16.6974 23.6863 17.4346 23.6863 18.344V19.1745C23.6863 19.6299 23.3419 19.9991 22.9171 19.9991Z" fill="#D1C4E9"/>
<path d="M10.0938 16.6974H1.536C0.687703 16.6974 0 17.4346 0 18.344V19.1745C0 19.6299 0.344391 19.9991 0.769219 19.9991H11.1672C10.3537 19.4305 9.88964 17.9197 10.0938 16.6974V16.6974Z" fill="#B0ADE2"/>
<path d="M21.6429 16.6974C21.6429 10.8953 17.2553 6.19171 11.843 6.19171C6.43076 6.19171 2.04321 10.8952 2.04321 16.6974H21.6429Z" fill="#A2DDFD"/>
<path d="M21.6429 16.6974C21.6429 10.8953 17.2553 6.19171 11.843 6.19171C6.43076 6.19171 2.04321 10.8952 2.04321 16.6974H21.6429Z" fill="#A2DDFD"/>
<path d="M11.8433 6.19171C11.5576 6.19171 11.275 6.20558 10.9956 6.23126C10.9005 6.9093 10.9172 7.60101 11.0469 8.27111L7.32877 11.4865C5.82995 12.7827 5.55188 15.0471 6.55009 16.6973H14.1707L16.2856 13.8869C17.8495 14.2334 19.56 13.8356 20.881 12.6292C19.398 8.84744 15.91 6.19171 11.8433 6.19171V6.19171Z" fill="#7ACEFA"/>
<path d="M17.0244 10.4314L14.2702 7.47888L8.23821 12.6953C7.20701 13.5871 7.12474 15.2405 8.06159 16.2449L8.84735 17.0872C9.7842 18.0915 11.3266 18.0034 12.1584 16.8979L17.0244 10.4314Z" fill="#F6EE86"/>
<path d="M11.5657 9.81778C11.8144 10.3175 12.1336 10.7804 12.5177 11.1922L13.5605 12.3101C13.9447 12.722 14.3765 13.0641 14.8427 13.3308L17.0244 10.4314L14.2702 7.47888L11.5657 9.81778Z" fill="#EED076"/>
<path d="M22.3361 5.94524L19.9218 8.53343C19.5762 8.90388 19.016 8.90388 18.6704 8.53343C18.3248 8.16298 18.3248 7.56237 18.6704 7.19192L21.0847 4.60373C21.4653 4.19569 21.4653 3.53413 21.0847 3.12609C20.7041 2.71805 20.087 2.71805 19.7063 3.12609L17.292 5.71428C16.9465 6.08473 16.3862 6.08473 16.0407 5.71428C15.6951 5.34383 15.6951 4.74323 16.0407 4.37277L18.455 1.78458C18.8356 1.37654 18.8356 0.714986 18.455 0.306946C18.0743 -0.101095 17.4572 -0.101095 17.0766 0.306946L13.5421 4.09604C11.997 5.75237 11.997 8.4378 13.5421 10.0941L14.5848 11.212C16.1299 12.8683 18.6349 12.8683 20.1799 11.212L23.7144 7.42288C24.0951 7.01484 24.0951 6.35328 23.7144 5.94524C23.3338 5.5372 22.7167 5.5372 22.3361 5.94524Z" fill="#F6EE86"/>
</svg>
