<svg width="250" height="160" viewBox="0 0 250 160" xmlns="http://www.w3.org/2000/svg">
    <g fill="none" fill-rule="evenodd">
        <path d="M136 41a7 7 0 0 1 0 14h64a7 7 0 0 1 0 14h22a7 7 0 0 1 0 14h-19a7 7 0 0 0 0 14h6a7 7 0 0 1 0 14H63a7 7 0 0 1 0-14H24a7 7 0 0 1 0-14h40a7 7 0 0 0 0-14H39a7 7 0 0 1 0-14h40a7 7 0 0 1 0-14h57zm90 56a7 7 0 1 1 0 14 7 7 0 0 1 0-14z" fill="#FF5921" opacity=".2"/>
        <path d="M156.873 119.12c3.038-1.956 5.74-4.395 7.497-6.364m2.836-3.273h0a47.66 47.66 0 0 0 9.431-19.056 48.303 48.303 0 0 0-1.327-27.01 47.94 47.94 0 0 0-5.843-11.546 48.664 48.664 0 0 0-5.06-6.18 48.44 48.44 0 0 0-9.022-7.343 47.947 47.947 0 0 0-10.95-5.102 48.327 48.327 0 0 0-26.156-.926 47.613 47.613 0 0 0-12.256 4.868 47.933 47.933 0 0 0-9.605 7.198 47.811 47.811 0 0 0-9.027 11.963 47.76 47.76 0 0 0-4.72 13.37 48.348 48.348 0 0 0-.582 14.457A48.067 48.067 0 0 0 95.35 112.38a48.147 48.147 0 0 0 16.346 11.122 48.308 48.308 0 0 0 22.85 3.412 47.783 47.783 0 0 0 18.705-5.76" stroke="#FF5921" stroke-width="2.5" fill="#FFF" stroke-linecap="round"/>
        <g opacity=".5" stroke="#FF5921" stroke-linecap="round" stroke-linejoin="round" stroke-width="2.5">
            <path d="M176.5 22v6M176.5 36v6M166.5 32h6M180.5 32h6"/>
        </g>
        <g opacity=".5" stroke="#FF5921" stroke-linecap="round" stroke-linejoin="round" stroke-width="2.5">
            <path d="M93.5 125v4M93.5 137v4M85.5 133h4M97.5 133h4"/>
        </g>
        <path d="M115.182 39.701a41.582 41.582 0 0 0-5.954 2.789c-2.99 1.7-5.816 3.8-8.404 6.298a42.34 42.34 0 0 0-2.984 3.195m-2.875 3.844a41.568 41.568 0 0 0-3.319 6.053" stroke="#FF5921" stroke-width="2.5" opacity=".5" stroke-linecap="round"/>
        <path d="M110.98 78.369a3.607 3.607 0 0 0-5.045.224 3.488 3.488 0 0 0 .228 4.976l16.808 15.14c2.039 1.837 5.201 1.696 7.064-.314.078-.086.078-.086.153-.173l23.987-28.449a3.488 3.488 0 0 0-.463-4.96 3.606 3.606 0 0 0-5.03.457l-22.551 26.746-15.15-13.647z" stroke="#FF5921" stroke-width="2.5" fill="#FFDED3" fill-rule="nonzero"/>
    </g>
</svg>
