<svg xmlns="http://www.w3.org/2000/svg" width="24" height="24" viewBox="0 0 24 24">
    <g fill="none" fill-rule="evenodd">
        <g>
            <g>
                <g>
                    <g>
                        <path d="M0 0L24 0 24 24 0 24z" transform="translate(-321 -402) translate(20 392) translate(291) translate(10 10)"/>
                        <path fill="#FF5921" d="M19.716 13.2c.398 0 .72.322.72.72v2.88c0 1.98-1.458 3.6-3.28 3.6H6.916c-1.823 0-3.28-1.62-3.28-3.6v-2.88c0-.398.322-.72.72-.72.398 0 .72.322.72.72v2.88c0 1.202.837 2.16 1.84 2.16h10.24c1.003 0 1.84-.958 1.84-2.16v-2.88c0-.398.322-.72.72-.72zm-7.68-9.6c.398 0 .72.322.72.72v8.818l1.651-1.648c.282-.28.738-.28 1.019.001.28.282.28.738-.002 1.019l-2.88 2.873c-.28.28-.736.28-1.017 0l-2.88-2.873c-.281-.281-.282-.737 0-1.019.28-.281.736-.282 1.017 0l1.652 1.647V4.32c0-.398.322-.72.72-.72z" transform="translate(-321 -402) translate(20 392) translate(291) translate(10 10)"/>
                    </g>
                </g>
            </g>
        </g>
    </g>
</svg>
