<svg xmlns="http://www.w3.org/2000/svg" width="24" height="24" viewBox="0 0 24 24">
    <g fill="none" fill-rule="evenodd">
        <g>
            <g>
                <g>
                    <g fill="#FF5921" fill-rule="nonzero" transform="translate(-322 -562) translate(316 556) translate(6 6) translate(.75)">
                        <path d="M11.25 2.13c.243 0 .44-.19.44-.425V.426c0-.235-.197-.426-.44-.426s-.44.19-.44.426v1.279c0 .235.197.426.44.426zM20.479 11.335h1.582c.242 0 .439-.19.439-.426 0-.235-.197-.426-.44-.426H20.48c-.243 0-.44.19-.44.426 0 .235.197.426.44.426zM.44 11.335H2.02c.243 0 .44-.19.44-.426 0-.235-.197-.426-.44-.426H.44c-.242 0-.439.19-.439.426 0 .235.197.426.44.426zM18.086 4.627l.933-.904c.171-.167.171-.436 0-.603-.172-.166-.45-.166-.622 0l-.932.904c-.172.167-.172.437 0 .603.171.166.45.166.621 0zM4.414 4.627c.171.166.45.166.621 0 .172-.166.172-.436 0-.603l-.932-.904c-.172-.166-.45-.166-.622 0-.171.166-.171.436 0 .603l.933.904z"/>
                        <circle cx="11.25" cy="21.392" r="1"/>
                        <path d="M5.25 10.071v3.196c0 2.336 1.939 3.677 2.637 4.084v3.842c0 .236.197.426.44.426h1.318c.242 0 .439-.19.439-.426 0-.235-.197-.426-.44-.426h-.878v-3.665c0-.16-.095-.308-.243-.38-.023-.012-2.394-1.2-2.394-3.455v-3.196c0-.47.394-.852.879-.853h4.79c-.204.972-1.092 1.705-2.153 1.705H8.326c-.242 0-.44.191-.44.426 0 .236.198.427.44.427 1.939 0 3.516 1.529 3.516 3.409 0 .235.197.426.44.426.242 0 .439-.191.439-.426 0-1.175.985-2.131 2.197-2.131.243 0 .44-.19.44-.426s-.197-.426-.44-.426c-1.06 0-1.995.522-2.549 1.314-.348-.79-.936-1.46-1.674-1.92.764-.27 1.388-.826 1.733-1.534.311.27.722.433 1.172.433l.333.002c.208 0 .408-.005.592-.04.18.754.879 1.319 1.711 1.319.32 0 .62-.084.88-.23v1.721c0 2.255-2.371 3.443-2.395 3.454-.148.072-.242.22-.242.381v3.665h-.88c-.242 0-.439.19-.439.426s.197.426.44.426h1.318c.243 0 .44-.19.44-.426v-3.842c.698-.407 2.636-1.748 2.636-4.084v-5.37c0-.94-.788-1.704-1.758-1.704-.324 0-.629.086-.89.236-.098-.85-.844-1.514-1.746-1.514-.325 0-.63.086-.89.235-.099-.85-.844-1.514-1.747-1.514-.903 0-1.649.664-1.747 1.514-.26-.15-.565-.235-.89-.235-.97 0-1.758.764-1.758 1.704V8.42c-.757.19-1.318.858-1.318 1.651zm10.986-3.026c.485 0 .88.383.88.853v2.173c0 .47-.395.852-.88.852-.484 0-.879-.382-.879-.852V7.898c0-.47.395-.853.88-.853zM13.6 5.767c.484 0 .879.382.879.852v2.813c0 .12-.026.155-.026.155-.066.063-.447.06-.675.059l-.178-.001c-.485 0-.88-.382-.88-.852V6.619c0-.47.395-.852.88-.852zm-3.516-.426c0-.47.394-.852.879-.852s.879.382.879.852v3.025h-1.758V5.341zm-1.758.426c.485 0 .88.382.88.852v1.747H7.446V6.62c0-.47.395-.852.88-.852z"/>
                        <path fill-opacity=".3" d="M5.25 13.267c0 2.336 1.939 3.677 2.637 4.084v3.842c0 .236.197.426.44.426H14.917c.243 0 .44-.19.44-.426v-3.842c.698-.407 2.636-1.748 2.636-4.084v-5.37c0-.94-.788-1.704-1.758-1.704-.324 0-.629.086-.89.236-.098-.85-.844-1.514-1.746-1.514-.325 0-.63.086-.89.235-.099-.85-.844-1.514-1.747-1.514-.903 0-1.649.664-1.747 1.514-.26-.15-.565-.235-.89-.235-.97 0-1.758.764-1.758 1.704V8.42c-.757.19-1.318.858-1.318 1.651"/>
                    </g>
                    <path d="M0 0.727H24V24H0z" transform="translate(-322 -562) translate(316 556) translate(6 6)"/>
                </g>
            </g>
        </g>
    </g>
</svg>
