<svg xmlns="http://www.w3.org/2000/svg" width="40" height="40" viewBox="0 0 40 40">
    <g fill="none" fill-rule="evenodd">
        <g>
            <g>
                <g transform="translate(-32 -1275) translate(20 1263) translate(12 12)">
                    <circle cx="20" cy="20" r="20" fill="#5D7BFF" fill-opacity=".05"/>
                    <g>
                        <path d="M0 0H24V24H0z" transform="translate(8 8)"/>
                        <path fill="#5D7BFF" fill-rule="nonzero" d="M13 17.048V18h1c1.105 0 2 .895 2 2H8c0-1.105.895-2 2-2h1v-.952c-4.102-.455-7.413-3.679-7.924-7.828-.068-.548.322-1.047.87-1.114.548-.068 1.047.322 1.115.87.429 3.482 3.4 6.128 6.94 6.128 3.577 0 6.567-2.7 6.951-6.226.06-.55.554-.946 1.103-.886.549.06.946.553.886 1.102-.459 4.206-3.794 7.495-7.941 7.954z" transform="translate(8 8)"/>
                        <path fill="#5D7BFF" fill-rule="nonzero" d="M12 14c-3.314 0-6-2.686-6-6s2.686-6 6-6 6 2.686 6 6-2.686 6-6 6zM8.816 7.8c-.025-.36-.339-.633-.7-.608-.362.025-.635.339-.61.7.117 1.661.89 2.972 2.289 3.875.304.197.71.11.907-.195.197-.304.11-.71-.195-.907-1.051-.68-1.604-1.616-1.691-2.864z" opacity=".3" transform="translate(8 8)"/>
                    </g>
                </g>
            </g>
        </g>
    </g>
</svg>
