<svg xmlns="http://www.w3.org/2000/svg" width="40" height="40" viewBox="0 0 40 40">
    <g fill="none" fill-rule="evenodd">
        <g>
            <g>
                <g transform="translate(-32 -1175) translate(20 1163) translate(12 12)">
                    <circle cx="20" cy="20" r="20" fill="#FC05FF" fill-opacity=".05"/>
                    <g>
                        <path d="M0 0H24V24H0z" transform="translate(8 8)"/>
                        <path fill="#FC05FF" fill-rule="nonzero" d="M12 4.562L7.768 9.64c-.353.424-.984.482-1.408.128-.424-.353-.482-.984-.128-1.408l5-6c.4-.48 1.136-.48 1.536 0l5 6c.354.424.296 1.055-.128 1.408-.424.354-1.055.296-1.408-.128L12 4.562z" opacity=".3" transform="translate(8 8)"/>
                        <path fill="#FC05FF" fill-rule="nonzero" d="M3.28 9h17.44c.552 0 1 .448 1 1 0 .082-.01.163-.03.243l-2.122 8.485C19.234 20.063 18.034 21 16.658 21H7.342c-1.376 0-2.576-.937-2.91-2.272L2.31 10.243c-.134-.536.191-1.08.727-1.213.08-.02.161-.03.243-.03zM12 12c-.552 0-1 .448-1 1v4c0 .552.448 1 1 1s1-.448 1-1v-4c0-.552-.448-1-1-1zm-5.035.136c-.534.143-.85.692-.707 1.225l1.035 3.864c.143.533.691.85 1.225.707.533-.143.85-.691.707-1.225l-1.036-3.864c-.142-.533-.69-.85-1.224-.707zm10.07 0c-.533-.143-1.082.174-1.224.707l-1.036 3.864c-.143.534.174 1.082.707 1.225.534.143 1.082-.174 1.225-.707l1.035-3.864c.143-.533-.173-1.082-.707-1.225z" transform="translate(8 8)"/>
                    </g>
                </g>
            </g>
        </g>
    </g>
</svg>
