<svg width="24" height="24" viewBox="0 0 24 24" fill="none" xmlns="http://www.w3.org/2000/svg">
<path d="M23.5192 7.98627C23.9987 8.46576 23.9987 9.24358 23.5192 9.72307L21.7139 11.5284C21.2344 12.0079 20.4565 12.0079 19.9771 11.5284L17.5934 9.14482L9.14482 17.5934L11.5284 19.9771C12.0079 20.4565 12.0079 21.2344 11.5284 21.7139L9.72307 23.5192C9.24358 23.9987 8.46576 23.9987 7.98627 23.5192L6.58977 22.1227L5.12111 23.5914C4.64162 24.0714 3.8638 24.0714 3.38431 23.5914L0.36 20.5671C-0.12 20.0876 -0.12 19.3098 0.36 18.8303L1.82866 17.3616L0.432154 15.9651C-0.0473348 15.4856 -0.0473348 14.7078 0.432154 14.2283L2.23753 12.4229C2.71702 11.9435 3.49484 11.9435 3.97433 12.4229L6.35795 14.8066L14.8066 6.35795L12.4229 3.97433C11.9435 3.49484 11.9435 2.71702 12.4229 2.23753L14.2283 0.432154C14.7078 -0.0473348 15.4856 -0.0473348 15.9651 0.432154L17.3616 1.82866L18.8303 0.36C19.3098 -0.12 20.0876 -0.12 20.5671 0.36L23.5914 3.38431C24.0714 3.8638 24.0714 4.64162 23.5914 5.12111L22.1227 6.58977L23.5192 7.98627Z" fill="#F2F2F2"/>
<path d="M12.423 3.97433C11.9435 3.49484 11.9435 2.71702 12.423 2.23753L14.2283 0.432154C14.7078 -0.0473348 15.4856 -0.0473348 15.9651 0.432154L17.3616 1.82866L18.8303 0.36C19.3098 -0.12 20.0876 -0.12 20.5671 0.36L23.5914 3.38431C24.0714 3.8638 24.0714 4.64162 23.5914 5.12111L22.1227 6.58977L23.5193 7.98627C23.9987 8.46576 23.9987 9.24358 23.5193 9.72307L21.7139 11.5284C21.2344 12.0079 20.4566 12.0079 19.9771 11.5284L17.5935 9.14482L15.9314 10.8069L9.41309 11.7515L14.8066 6.35795L12.423 3.97433Z" fill="#F7F7F7"/>
<path d="M23.5916 3.38431C24.0716 3.8638 24.0716 4.64162 23.5916 5.12111L22.1229 6.58977L17.3618 1.82866L18.8305 0.36C19.31 -0.12 20.0878 -0.12 20.5673 0.36L23.5916 3.38431Z" fill="#999999"/>
<path d="M23.5194 7.98624C23.9989 8.46573 23.9989 9.24355 23.5194 9.72304L21.714 11.5284C21.2345 12.0079 20.4567 12.0079 19.9772 11.5284C19.6022 11.1534 12.7925 4.34367 12.4231 3.9743C11.9436 3.49481 11.9436 2.71699 12.4231 2.2375L14.2285 0.432126C14.708 -0.0473623 15.4858 -0.0473623 15.9653 0.432126C16.1111 0.577968 23.3452 7.81205 23.5194 7.98624Z" fill="#AAAAAA"/>
<path d="M11.5287 19.977C12.0081 20.4565 12.0081 21.2343 11.5287 21.7138L9.72329 23.5192C9.2438 23.9987 8.46597 23.9987 7.98649 23.5192C7.84064 23.3734 0.606562 16.1393 0.43237 15.9651C-0.0471182 15.4856 -0.0471182 14.7078 0.43237 14.2283L2.23774 12.4229C2.71723 11.9434 3.49506 11.9434 3.97455 12.4229C4.14311 12.5915 11.1793 19.6277 11.5287 19.977Z" fill="#AAAAAA"/>
<path d="M6.58977 22.1227L5.12111 23.5913C4.64162 24.0713 3.8638 24.0713 3.38431 23.5913L0.36 20.567C-0.12 20.0875 -0.12 19.3097 0.36 18.8302L1.82866 17.3616L6.58977 22.1227Z" fill="#AAAAAA"/>
<path d="M21.8691 11.3734L21.714 11.5284C21.2345 12.0079 20.4567 12.0079 19.9772 11.5284C19.7195 11.2707 12.6799 4.23114 12.4231 3.9743C11.9436 3.49481 11.9436 2.71699 12.4231 2.2375L14.2285 0.432126C14.708 -0.0473623 15.4858 -0.0473623 15.9653 0.432126L16.1203 0.587179L14.47 2.2375C13.9905 2.71699 13.9905 3.49481 14.47 3.9743C14.8383 4.34264 21.5011 11.0054 21.8691 11.3734Z" fill="#B2B2B2"/>
<path d="M4.76443 23.8396C4.31156 24.0479 3.75736 23.965 3.38431 23.5914L0.36 20.5671C-0.12 20.0876 -0.12 19.3098 0.36 18.8303L1.82866 17.3616L2.34038 17.8734L1.38345 18.8303C0.903454 19.3098 0.903454 20.0876 1.38345 20.5671C4.67688 23.8605 4.49025 23.715 4.76443 23.8396Z" fill="#B2B2B2"/>
<path d="M9.62248 23.6098C9.14043 23.9967 8.43373 23.9665 7.98649 23.5193L0.43237 15.9651C-0.0471182 15.4856 -0.0471182 14.7078 0.43237 14.2283L2.23774 12.423C2.68499 11.9757 3.39169 11.9455 3.87373 12.3323C3.79795 12.3937 3.93632 12.2596 1.96755 14.2283C1.48806 14.7078 1.48806 15.4856 1.96755 15.9651C10.0619 24.0595 9.5427 23.5452 9.62248 23.6098Z" fill="#B2B2B2"/>
</svg>
