<?xml version="1.0" encoding="UTF-8"?>
<svg width="24px" height="24px" viewBox="0 0 24 24" version="1.1" xmlns="http://www.w3.org/2000/svg" xmlns:xlink="http://www.w3.org/1999/xlink">
    <title>84203C8B-8039-48CD-9FAF-BE1A05C528F9</title>
    <defs>
        <filter id="filter-1">
            <feColorMatrix in="SourceGraphic" type="matrix" values="0 0 0 0 0.560784 0 0 0 0 0.607843 0 0 0 0 0.701961 0 0 0 1.000000 0"></feColorMatrix>
        </filter>
        <filter id="filter-2">
            <feColorMatrix in="SourceGraphic" type="matrix" values="0 0 0 0 0.560784 0 0 0 0 0.607843 0 0 0 0 0.701961 0 0 0 1.000000 0"></feColorMatrix>
        </filter>
    </defs>
    <g id="06---Health" stroke="none" stroke-width="1" fill="none" fill-rule="evenodd">
        <g id="Icon-/-Heart" transform="translate(-92.000000, -747.000000)" filter="url(#filter-1)">
            <g transform="translate(92.000000, 747.000000)" id="Icon-/-Exrecise">
                <g id="Icon"></g>
                <rect id="Path" fill-rule="nonzero" x="0" y="0" width="24" height="24"></rect>
                <g filter="url(#filter-2)" id="dumbbell">
                    <g transform="translate(2.000000, 2.000000)">
                        <path d="M18.4133043,7.29805613 C19.3669841,7.19215177 20.054219,6.33319127 19.9483147,5.37951143 C19.9046556,4.9864553 19.7282315,4.62009356 19.4481484,4.34088358 L18.765903,3.65897089 L19.8612876,2.56358628 C19.9911421,2.43369023 19.9911421,2.2231289 19.8612876,2.09323285 L17.8654456,0.0973908524 C17.7355496,-0.0324636175 17.5249883,-0.0324636175 17.3950922,0.0973908524 L16.2997076,1.19277547 L15.6177949,0.510862786 C14.9403729,-0.168679834 13.8403313,-0.170426195 13.1607887,0.506995842 C12.8807887,0.786122661 12.7043646,1.15240125 12.6606224,1.54537422 L11.6261109,0.510862786 C10.9398323,-0.16497921 9.83559118,-0.156538462 9.15974918,0.529740125 C8.49126685,1.2085343 8.49118369,2.29813929 9.15958286,2.97705821 L11.8376702,5.65481289 L5.65521696,11.8372661 L2.97746228,9.15951143 C2.29118369,8.48366944 1.18694253,8.49211019 0.511100534,9.17838877 C-0.157381795,9.85718295 -0.157464955,10.9468295 0.510934214,11.6257069 L1.54577829,12.6602183 C0.592098455,12.7661227 -0.0951364725,13.6250832 0.0107678934,14.578763 C0.054426937,14.9718191 0.230851053,15.3381809 0.510934214,15.6173909 L1.19317954,16.2993035 L0.0977949204,17.3946881 C-0.0320595494,17.5245842 -0.0320595494,17.7351455 0.0977949204,17.8650416 L2.09363692,19.8608836 C2.22353297,19.990738 2.4340943,19.990738 2.56399035,19.8608836 L3.65937496,18.765499 L4.34128764,19.4474116 C5.01870968,20.1269543 6.11875126,20.1287006 6.79829388,19.4512786 C7.07829388,19.1721518 7.254718,18.8058732 7.2984602,18.4129002 L8.33297164,19.4474116 C9.01925022,20.1232536 10.1234914,20.1148129 10.7993334,19.4284927 C11.4678157,18.7496985 11.4678573,17.6600936 10.7994997,16.9812162 L8.12141238,14.3034615 L14.3038656,8.12100832 L16.9816203,10.798763 C17.6678989,11.474605 18.77214,11.4661642 19.447982,10.7798441 C20.1164644,10.1010499 20.1165059,9.01144491 19.4481484,8.33256757 L18.4133043,7.29805613 Z M17.6302689,0.802920998 L19.1557575,2.32840956 L18.2955496,3.18861746 L16.770061,1.6631289 L17.6302689,0.802920998 Z M13.6219529,0.981216216 C14.0431172,0.560051975 14.7259446,0.560051975 15.1471088,0.981216216 L18.9774623,4.81123701 C19.1804145,5.01310811 19.2941775,5.28774428 19.2934739,5.57398129 C19.2936785,6.1695738 18.8110174,6.65256757 18.2154249,6.65277551 C17.9291879,6.65285863 17.6546764,6.53917879 17.4523064,6.33672557 L15.537296,4.42171518 L13.6219529,2.50637214 C13.2007887,2.0852079 13.2007887,1.40233888 13.6219529,0.981216216 Z M2.32881363,19.1553534 L0.803325066,17.6298649 L1.66353297,16.769657 L3.18902153,18.2951455 L2.32881363,19.1553534 Z M5.57509222,19.2930666 C5.28885521,19.2931497 5.01434378,19.1794699 4.81197371,18.9770166 L0.981620284,15.1469958 C0.560372883,14.7258316 0.560289723,14.042921 0.981453964,13.6216736 C1.40261821,13.2004262 2.08552881,13.200343 2.50677621,13.6215073 L4.4217866,15.5365177 L6.33712964,17.4518607 C6.54008182,17.6535655 6.6538864,17.9281185 6.65314162,18.2142723 C6.65334586,18.8099064 6.17068473,19.2929002 5.57509222,19.2930666 Z M10.3288136,17.4515696 C10.5317658,17.6534407 10.6455288,17.9280769 10.6448252,18.2143139 C10.6450298,18.8099064 10.1623687,19.2929002 9.56677621,19.2931082 C9.2805392,19.2931082 9.00602777,19.1795114 8.80365771,18.9770582 L6.80781571,16.9812162 L4.89280532,15.0662058 L0.981620284,11.1553534 C0.560372883,10.7341892 0.560289723,10.0512786 0.981453964,9.63003119 C1.40261821,9.20878378 2.08552881,9.20870062 2.50677621,9.62986486 L10.3288136,17.4515696 Z M7.65105895,13.8331081 L6.12557039,12.3076195 L12.3080236,6.12516632 L13.8335122,7.65065489 L7.65105895,13.8331081 Z M18.2154249,10.6444179 C17.9291879,10.6444179 17.6546764,10.5308212 17.4523064,10.328368 L9.63026893,2.50670478 C9.20902153,2.08554054 9.20893837,1.40262994 9.63010261,0.981382536 C10.0512669,0.560135135 10.7341775,0.560051975 11.1554249,0.981216216 L13.1512669,2.97705821 L15.0662772,4.89206861 L18.9774623,8.802921 C19.1804145,9.0047921 19.2941775,9.27942827 19.2934739,9.56566528 C19.2936785,10.1612578 18.8110174,10.6442516 18.2154249,10.6444179 Z" id="Shape" stroke="#211D1E" stroke-width="0.25" fill="#FF5921" fill-rule="nonzero"></path>
                    </g>
                </g>
            </g>
        </g>
    </g>
</svg>