<svg width="24" height="24" viewBox="0 0 24 24" fill="none" xmlns="http://www.w3.org/2000/svg">
<path d="M17.5791 8.77654L8.77666 17.579L7.37791 16.7427L6.42114 15.2234L15.2236 6.42102L16.7191 7.44777L17.5791 8.77654Z" fill="#BBC6D4"/>
<path d="M17.5791 8.77686L16.6103 9.74569L14.2547 7.39009L15.2235 6.42125L17.5791 8.77686Z" fill="#A7B7C6"/>
<path d="M10.8298 20.8766L7.96412 23.7423C7.62048 24.0859 7.06337 24.0859 6.71973 23.7423L0.25773 17.2803C-0.0859102 16.9367 -0.0859102 16.3795 0.25773 16.0359L3.12343 13.1702C3.46707 12.8266 4.02418 12.8266 4.36782 13.1702L10.8298 19.6322C11.1734 19.9758 11.1734 20.533 10.8298 20.8766Z" fill="#555E6B"/>
<path d="M23.7422 7.96412L20.8765 10.8298C20.5328 11.1735 19.9757 11.1735 19.6321 10.8298L13.1701 4.36782C12.8264 4.02418 12.8264 3.46707 13.1701 3.12343L16.0358 0.25773C16.3794 -0.0859102 16.9365 -0.0859102 17.2802 0.25773L23.7422 6.71973C24.0858 7.06337 24.0858 7.62048 23.7422 7.96412Z" fill="#555E6B"/>
<path d="M9.14014 17.9424L5.03015 22.0524L1.94767 18.9699L6.05766 14.8599L9.14014 17.9424Z" fill="#363C44"/>
<path d="M10.8298 19.6322L9.14012 17.9425L5.03003 22.0526L6.71973 23.7423C7.06337 24.0859 7.62048 24.0859 7.96412 23.7423L10.8298 20.8766C11.1734 20.533 11.1734 19.9758 10.8298 19.6322Z" fill="#2D3238"/>
<path d="M22.0525 5.03015L17.9425 9.14014L14.86 6.05766L18.97 1.94767L22.0525 5.03015Z" fill="#363C44"/>
<path d="M23.7422 6.71973L22.0525 5.03003L17.9424 9.14012L19.6321 10.8298C19.9757 11.1735 20.5328 11.1735 20.8765 10.8298L23.7421 7.96417C24.0858 7.62048 24.0858 7.06337 23.7422 6.71973Z" fill="#2D3238"/>
</svg>
