<svg width="32" height="32" viewBox="0 0 32 32" fill="none" xmlns="http://www.w3.org/2000/svg">
<path d="M17.0417 4.63293L20.1038 1.57089L30.1379 11.605L27.0759 14.667L17.0417 4.63293Z" fill="#224370"/>
<path d="M1.50195 20.1728L4.56399 17.1108L14.5981 27.1449L11.5361 30.2069L1.50195 20.1728Z" fill="#39689E"/>
<path d="M10.012 19.1882L19.1192 10.081L21.6277 12.5896L12.5205 21.6968L10.012 19.1882Z" fill="#E2E0F3"/>
<path d="M14.5657 14.6346L19.1193 10.081L21.6278 12.5895L17.0742 17.1431L14.5657 14.6346Z" fill="#BEBDDC"/>
<path d="M13.3118 5.85474L16.3411 2.82539L28.8836 15.3678L25.8542 18.3972L13.3118 5.85474Z" fill="#39689E"/>
<path d="M2.75659 16.4099L5.78593 13.3805L18.3284 25.923L15.299 28.9523L2.75659 16.4099Z" fill="#224370"/>
</svg>
