<svg width="21" height="17" viewBox="0 0 21 17" fill="none" xmlns="http://www.w3.org/2000/svg">
<path d="M6.754 11.4526L5.62083 10.3902C5.44378 10.2242 5.1357 10.3404 5.1357 10.5795V15.4065C5.1357 16.2862 5.89704 17 6.83545 17H19.3003C20.2387 17 21 16.2862 21 15.4065V3.72069C21 2.84094 20.2387 2.12718 19.3003 2.12718H9.61524C9.36382 2.12718 9.23634 2.41268 9.41339 2.58199L10.5466 3.64434C10.5997 3.69414 10.6705 3.72069 10.7484 3.72069H19.3003V15.4065H6.83545V11.6385C6.83545 11.5688 6.80712 11.5024 6.754 11.4526ZM1.20857 4.75316L10.5076 13.471L13.7088 13.803C14.6366 13.8993 15.4262 13.1656 15.3236 12.2892L14.9694 9.28804L5.67041 0.57018C4.85949 -0.19006 3.54927 -0.19006 2.74189 0.57018L1.21212 2.00434C0.401196 2.76459 0.401196 3.99624 1.20857 4.75316ZM4.70722 5.77899L6.76462 3.85017L13.3441 10.0217L13.6026 12.1896L11.2902 11.9472L4.70722 5.77899ZM2.41256 3.13309L3.94233 1.69892C4.08752 1.56281 4.32478 1.56281 4.46642 1.69892L5.56063 2.72475L3.50323 4.65357L2.40902 3.62774C2.26738 3.48831 2.26738 3.2692 2.41256 3.13309Z" fill="#211D1E"/>
</svg>
