<svg width="25" height="24" viewBox="0 0 25 24" xmlns="http://www.w3.org/2000/svg">
    <path d="M11.889 15c1.302 0 2.4.84 2.815 2h7.185a1 1 0 1 1 0 2h-7.185a2.995 2.995 0 0 1-2.815 2 2.995 2.995 0 0 1-2.815-2H3.889a1 1 0 1 1 0-2h5.185a2.995 2.995 0 0 1 2.815-2zm8-6c1.654 0 3 1.346 3 3s-1.346 3-3 3a2.995 2.995 0 0 1-2.815-2H3.889a1 1 0 1 1 0-2h13.185a2.995 2.995 0 0 1 2.815-2zm-12-6c1.302 0 2.4.84 2.815 2h11.185a1 1 0 1 1 0 2H10.704a2.995 2.995 0 0 1-2.815 2 2.995 2.995 0 0 1-2.815-2H3.889a1 1 0 1 1 0-2h1.185a2.995 2.995 0 0 1 2.815-2z" fill="#FF5921" fill-rule="evenodd"/>
</svg>
