<svg width="16" height="16" viewBox="0 0 16 16" xmlns="http://www.w3.org/2000/svg">
    <g fill-rule="nonzero" fill="none">
        <path d="M14.393 5.283a.5.5 0 0 0-.558.072L11.38 7.527 8.437 2.256c-.177-.317-.697-.317-.874 0l-2.942 5.27-2.456-2.171a.502.502 0 0 0-.83.42l.65 7.104a.5.5 0 0 0 .498.454h11.035a.5.5 0 0 0 .498-.454l.65-7.104a.501.501 0 0 0-.273-.492z" fill="#FFC107"/>
        <g fill="#F44336">
            <path d="M8 0c-.735 0-1.333.598-1.333 1.333 0 .736.598 1.334 1.333 1.334s1.333-.598 1.333-1.334C9.333.598 8.735 0 8 0zM1.333 3.333a1.335 1.335 0 0 0 0 2.667c.736 0 1.334-.598 1.334-1.333 0-.736-.598-1.334-1.334-1.334zM9.24 9.043l-.833-1.167c-.188-.263-.626-.263-.814 0l-.834 1.167a.5.5 0 0 0 0 .581l.834 1.167a.501.501 0 0 0 .814 0l.833-1.167a.5.5 0 0 0 0-.581z"/>
        </g>
        <path d="M14.333 12.667H1.667c-.919 0-1.667.748-1.667 1.666C0 15.252.748 16 1.667 16h12.666c.919 0 1.667-.748 1.667-1.667 0-.918-.748-1.666-1.667-1.666z" fill="#F9A825"/>
        <path d="M7.41 2.53 4.62 7.526 2.356 5.523c-.24.286-.598.47-.999.477l.61 6.667H8V11a.5.5 0 0 1-.407-.21L6.76 9.625a.5.5 0 0 1 0-.581l.833-1.167A.495.495 0 0 1 8 7.679V2.667c-.211 0-.411-.05-.59-.138z" fill="#DEA806"/>
        <path d="M8 0a1.335 1.335 0 0 0-.59 2.53c.179.087.379.137.59.137V0zM8 7.68a.494.494 0 0 0-.407.196L6.76 9.043a.5.5 0 0 0 0 .581l.833 1.167A.5.5 0 0 0 8 11V7.68z" fill="#D43A2F"/>
        <path d="M8 12.667H1.667c-.919 0-1.667.748-1.667 1.666C0 15.252.748 16 1.667 16H8v-3.333z" fill="#D99220"/>
        <circle fill="#F44336" cx="14.667" cy="4.667" r="1.333"/>
        <path d="M1.333 3.333a1.335 1.335 0 0 0-.589 2.53c.178.088.378.137.59.137V3.333zM14.667 3.333a1.335 1.335 0 0 0-.59 2.53c.178.088.378.137.59.137V3.333z" fill="#D43A2F"/>
    </g>
</svg>
