<svg width="24" height="24" viewBox="0 0 24 24" fill="none" xmlns="http://www.w3.org/2000/svg">
<g id="27) Icon/Food Menu">
<g id="food (1)">
<path id="Path" d="M8.46002 12.2767C8.47445 12.0393 8.48889 11.8015 8.51972 11.5613C8.57672 10.9919 8.69919 10.4201 8.82432 9.8639C8.90048 9.58647 8.983 9.31241 9.06955 9.04448C9.18024 8.78297 9.28857 8.52285 9.39661 8.2688C9.64115 7.77288 9.91456 7.3095 10.2409 6.92163C10.3184 6.82168 10.3952 6.72483 10.4704 6.62763C10.5563 6.54093 10.6422 6.4569 10.725 6.37288C10.8998 6.21335 11.0513 6.04058 11.2258 5.91387C11.5736 5.65375 11.8813 5.40647 12.1946 5.25335C12.4965 5.08326 12.7554 4.93562 12.9889 4.8523C13.4465 4.66635 13.7061 4.57288 13.7061 4.57288C13.7061 4.57288 13.4847 4.75037 13.0976 5.0383C12.8977 5.17008 12.6857 5.37807 12.4334 5.59113C12.1704 5.79434 11.9323 6.08565 11.6492 6.36483C11.5076 6.50746 11.3976 6.68664 11.2637 6.8516C11.1986 6.93562 11.1319 7.02029 11.0631 7.10635C11.0074 7.20122 10.9497 7.29638 10.8913 7.39358C10.6414 7.76757 10.4546 8.20658 10.26 8.65201C10.1801 8.88507 10.0993 9.12151 10.0168 9.36029C9.96041 9.60857 9.89805 9.85953 9.82997 10.1096C9.72765 10.6234 9.62735 11.1475 9.58404 11.6863C9.5539 11.8818 9.53946 12.0789 9.52133 12.2774C13.7617 12.2781 17.0437 12.2808 21.6361 12.2808C21.6515 12.0775 21.6602 11.8716 21.6602 11.6647C21.6602 7.75906 18.8417 4.54238 15.2149 4.11626C15.449 3.8951 15.5973 3.58139 15.5973 3.23247C15.5986 2.5618 15.0606 2.01912 14.3978 2.01912C13.7342 2.01912 13.1956 2.5618 13.1956 3.23247C13.1956 3.58209 13.3432 3.89504 13.5779 4.11626C9.9514 4.54238 7.13367 7.75906 7.13367 11.6647C7.13367 11.871 7.141 12.0742 7.15613 12.2768C7.60398 12.2767 8.03636 12.2767 8.46002 12.2767Z" fill="black"/>
<rect id="Rectangle" x="5.81165" y="12.7286" width="17.1722" height="1.5298" fill="black"/>
<path id="Path_2" d="M15.934 15.3443C15.0613 15.7725 12.018 16.8808 12.018 16.8808L8.42072 16.6532C8.42072 16.6532 10.4784 16.0753 11.276 15.8945C12.0751 15.7142 11.7275 14.8044 11.2857 14.8044C10.844 14.8044 6.99407 14.965 6.99407 14.965L4.43762 15.8945L5.11419 20.2188C5.11419 20.2188 5.64052 19.3089 6.16552 19.3089C6.69248 19.3089 11.2569 19.4315 11.8765 19.3089C12.4964 19.1849 16.2722 16.5766 16.7244 16.2724C17.1746 15.9696 16.8102 14.9155 15.934 15.3443Z" fill="black"/>
<path id="Path_3" d="M1 16.3592V21.9647L4.91669 21.2241L3.93686 15.8375L1 16.3592Z" fill="black"/>
</g>
</g>
</svg>
