<?xml version="1.0" encoding="UTF-8"?>
<svg width="24px" height="24px" viewBox="0 0 24 24" version="1.1" xmlns="http://www.w3.org/2000/svg" xmlns:xlink="http://www.w3.org/1999/xlink">
    <title>FC8102D5-206B-4621-8080-C3B52E513AAC</title>
    <defs>
        <filter id="filter-1">
            <feColorMatrix in="SourceGraphic" type="matrix" values="0 0 0 0 0.560784 0 0 0 0 0.607843 0 0 0 0 0.701961 0 0 0 1.000000 0"></feColorMatrix>
        </filter>
        <filter id="filter-2">
            <feColorMatrix in="SourceGraphic" type="matrix" values="0 0 0 0 1.000000 0 0 0 0 0.266667 0 0 0 0 0.262745 0 0 0 1.000000 0"></feColorMatrix>
        </filter>
        <rect id="path-3" x="0" y="0" width="24" height="24"></rect>
    </defs>
    <g id="06---Health" stroke="none" stroke-width="1" fill="none" fill-rule="evenodd">
        <g id="Icon-/-Food" transform="translate(-257.000000, -747.000000)" filter="url(#filter-1)">
            <g transform="translate(257.000000, 747.000000)" filter="url(#filter-2)">
                <g>
                    <mask id="mask-4" fill="white">
                        <use xlink:href="#path-3"></use>
                    </mask>
                    <g id="Rectangle"></g>
                    <path d="M7.44680851,11.5319149 C7.44680851,11.2810213 7.24378723,11.078 6.99289362,11.078 C6.742,11.078 6.53897872,11.2810213 6.53897872,11.5319149 C6.53897872,12.7238298 7.85370213,14.360383 8.00353191,14.5434468 C8.09353191,14.6525106 8.22382979,14.709234 8.35502128,14.709234 C8.45608511,14.709234 8.55804255,14.6755319 8.64268085,14.606383 C8.83638298,14.447234 8.86429787,14.1613617 8.70561702,13.9671915 C8.21897872,13.3741277 7.44680851,12.1888085 7.44680851,11.5319149 Z" id="Path" fill="#000000" fill-rule="nonzero" mask="url(#mask-4)"></path>
                    <path d="M16.9787234,11.078 C16.7278298,11.078 16.5248085,11.2810213 16.5248085,11.5319149 C16.5248085,12.1865957 15.7526383,13.373234 15.2659574,13.9676596 C15.1072766,14.1613617 15.135617,14.4472766 15.3293617,14.606383 C15.4135745,14.6755319 15.5155319,14.709234 15.6170213,14.709234 C15.7482128,14.709234 15.8780851,14.6525106 15.9680851,14.5434468 C16.1179149,14.360383 17.4326383,12.7238723 17.4326383,11.5319149 C17.4326383,11.2810213 17.229617,11.078 16.9787234,11.078 Z" id="Path" fill="#000000" fill-rule="nonzero" mask="url(#mask-4)"></path>
                    <path d="M11.9858298,11.078 C11.7349362,11.078 11.5319149,11.2810213 11.5319149,11.5319149 L11.5319149,14.2553191 C11.5319149,14.5062128 11.7349362,14.709234 11.9858298,14.709234 C12.2367234,14.709234 12.4397447,14.5062128 12.4397447,14.2553191 L12.4397447,11.5319149 C12.4397021,11.2810213 12.2366809,11.078 11.9858298,11.078 Z" id="Path" fill="#000000" fill-rule="nonzero" mask="url(#mask-4)"></path>
                    <path d="M16.9787234,3.81561702 C16.7036596,3.81561702 16.4162128,3.852 16.1177021,3.90744681 C15.118,2.74208511 13.6381277,2 11.9858298,2 C10.3335319,2 8.85361702,2.74208511 7.85395745,3.90740426 C7.55540426,3.852 7.26795745,3.81557447 6.99293617,3.81557447 C4.23978723,3.81561702 2,6.05540426 2,8.80851064 C2,10.6950213 3.06382979,12.41 4.73404255,13.2579574 L4.72519149,20.1174468 C4.72476596,20.6125532 4.91710638,21.078 5.26685106,21.4281702 C5.61702128,21.7788085 6.082,21.971617 6.57714894,21.971617 L17.3962979,21.971617 C18.4175745,21.971617 19.2482553,21.1409362 19.2482553,20.1196596 L19.2482553,13.2513191 C20.9122553,12.4011489 21.9716596,10.6888085 21.9716596,8.80851064 C21.9716596,6.05540426 19.7318298,3.81561702 16.9787234,3.81561702 Z M18.3404255,20.1197021 C18.3404255,20.6400851 17.9166809,21.0638723 17.3962553,21.0638723 L6.57710638,21.0638723 C6.32489362,21.0638723 6.08774468,20.9654468 5.90910638,20.7868511 C5.73089362,20.6082128 5.63251064,20.3710638 5.6329348,20.1184255 L5.63531915,18.3404255 L18.3404255,18.3404255 L18.3404255,20.1197021 Z M18.6214468,12.544766 C18.5974894,12.5545106 18.5748936,12.5660426 18.553617,12.5797872 C18.4964255,12.615234 18.4494468,12.6622553 18.4144255,12.7162979 C18.3789787,12.7699149 18.3550213,12.832 18.3452766,12.8984681 C18.3412766,12.9237447 18.3399574,12.9490213 18.340383,12.9747234 L18.340383,17.4325957 L5.63646809,17.4325957 L5.64229787,12.9808936 C5.6427234,12.9560851 5.64140426,12.9308085 5.63787234,12.9064255 C5.62812766,12.8377021 5.60285106,12.7738723 5.56604255,12.7184681 C5.53144681,12.6665957 5.48625532,12.6214043 5.4312766,12.5868085 C5.40868085,12.5726383 5.3847234,12.5602128 5.35991489,12.55 C3.87012766,11.8985106 2.90778723,10.4312766 2.90778723,8.80851064 C2.90778723,6.55582979 4.74025532,4.72340426 6.99289362,4.72340426 C7.08093617,4.72340426 7.17387234,4.73404255 7.26506383,4.74123404 C6.80582979,5.5393617 6.53897872,6.46165957 6.53897872,7.44680851 C6.53897872,7.69770213 6.742,7.9007234 6.99289362,7.9007234 C7.24378723,7.9007234 7.44680851,7.69770213 7.44680851,7.44680851 C7.44680851,4.94412766 9.48314894,2.90778723 11.9858298,2.90778723 C14.4885106,2.90778723 16.5248085,4.94412766 16.5248085,7.44680851 C16.5248085,7.69770213 16.7278298,7.9007234 16.9787234,7.9007234 C17.229617,7.9007234 17.4326383,7.69770213 17.4326383,7.44680851 C17.4326383,6.46165957 17.1657872,5.53940426 16.7065532,4.74123404 C16.7977447,4.73404255 16.8906809,4.72340426 16.9787234,4.72340426 C19.2314043,4.72340426 21.0638298,6.55587234 21.0638298,8.80851064 C21.0638298,10.4255319 20.1054894,11.8909362 18.6214468,12.544766 Z" id="Shape" fill="#000000" fill-rule="nonzero" mask="url(#mask-4)"></path>
                </g>
            </g>
        </g>
    </g>
</svg>