<svg width="20" height="20" viewBox="0 0 20 20" fill="none" xmlns="http://www.w3.org/2000/svg">
<path d="M14.3429 2.76996L14.191 0.665354C14.1801 0.513791 14.3322 0.396916 14.4903 0.435549L15.9595 0.79469C16.1205 0.834065 16.1901 1.01059 16.0944 1.13727L14.7771 2.88274C14.6476 3.05434 14.358 2.97914 14.3429 2.76996Z" fill="#FE7D43"/>
<path d="M16.0942 1.13717L14.777 2.88272C14.6477 3.05436 14.3581 2.97916 14.3429 2.76979L14.3044 2.23362L15.4791 0.677368L15.9594 0.794712C16.1206 0.834126 16.1902 1.01057 16.0942 1.13717Z" fill="#FD6930"/>
<path d="M16.2017 3.72318L18.62 1.27271C18.7354 1.1558 18.9416 1.18572 19.0132 1.32978L19.9358 3.18697C20.001 3.31814 19.9163 3.47135 19.7636 3.49846L16.4227 4.09174C16.1966 4.13189 16.0461 3.88088 16.2017 3.72318Z" fill="#FE7D43"/>
<path d="M19.7638 3.49849L16.4228 4.09173C16.1967 4.13192 16.0462 3.8811 16.2019 3.72317L16.7068 3.21153L19.6293 2.69267C19.6483 2.68946 19.6661 2.68384 19.6825 2.677L19.9358 3.18704C20.0011 3.31845 19.9164 3.47157 19.7638 3.49849Z" fill="#FD6930"/>
<path d="M2.66654 12.2427L6.51217 11.368C6.64599 11.3376 6.77977 11.4181 6.80461 11.5441L7.15914 13.7458C7.35192 14.7236 6.70389 15.675 5.67061 15.9311C4.64868 16.1843 3.58725 15.6732 3.22011 14.7511L2.49889 12.5363C2.44918 12.4115 2.52755 12.2743 2.66654 12.2427Z" fill="#7ACAA6"/>
<path d="M6.1366 9.80891C5.40698 9.97477 2.93445 10.6087 2.19962 10.7976C2.08185 10.8279 1.95845 10.7707 1.91349 10.6651C0.806976 8.06602 -0.11315 6.76626 0.0457573 4.60384C0.183026 2.73548 1.1371 0.851726 3.13488 0.160476C4.74357 -0.396164 6.0858 0.566804 6.64366 1.94743C7.36198 3.72528 6.72567 5.55387 6.43525 7.34364C6.35382 7.84536 6.30202 8.32106 6.29475 8.82661C6.29361 8.9068 6.30908 9.33423 6.31853 9.58536C6.32252 9.69067 6.24677 9.78387 6.1366 9.80891Z" fill="#7ACAA6"/>
<path d="M10.0784 13.7445C10.7932 13.9591 13.2099 14.7579 13.928 14.9957C14.0431 15.0339 14.1706 14.9852 14.2237 14.8829C15.5298 12.3652 16.5488 11.1308 16.5588 8.96335C16.5673 7.12015 15.7122 5.12613 13.824 4.32359C12.2629 3.66007 10.8491 4.53011 10.1852 5.86953C9.33027 7.59433 9.82242 9.46097 9.97263 11.2656C10.0147 11.7715 10.0294 12.2494 9.99721 12.7541C9.99212 12.8342 9.94338 13.2594 9.91439 13.5093C9.90225 13.6141 9.97053 13.7121 10.0784 13.7445Z" fill="#7ACAA6"/>
<path d="M13.3499 16.4056L9.58255 15.2742C9.45146 15.2348 9.31175 15.3061 9.27713 15.4301L8.75196 17.6021C8.48347 18.5644 9.0557 19.557 10.0663 19.8819C11.0659 20.2033 12.1643 19.765 12.6023 18.87L13.4942 16.7096C13.5535 16.5885 13.4861 16.4465 13.3499 16.4056Z" fill="#7ACAA6"/>
<path d="M6.2949 8.82674C6.29359 8.90674 6.30918 9.33436 6.31868 9.58557C6.32259 9.69088 6.24691 9.78412 6.13666 9.80905C5.96935 9.84682 5.71082 9.90951 5.40258 9.98549C5.45964 9.94287 5.4938 9.87655 5.4912 9.80502C5.4817 9.55381 5.46611 9.12659 5.46742 9.04619C5.47435 8.54057 5.5262 8.0651 5.6075 7.5635C5.89801 5.77373 6.53439 3.94498 5.81632 2.16729C5.33212 0.969553 4.25779 0.0861161 2.93103 0.236858C2.99763 0.209944 3.0659 0.184593 3.13506 0.160491C4.74372 -0.396189 6.08607 0.566819 6.64376 1.94744C7.36183 3.72514 6.7259 5.55389 6.4354 7.34366C6.35372 7.84526 6.30225 8.32116 6.2949 8.82674Z" fill="#57BE92"/>
<path d="M5.6707 15.9311C5.51032 15.9709 5.34948 15.9918 5.18994 15.9954C6.01696 15.6337 6.50204 14.7913 6.33171 13.9279L5.97721 11.7266C5.95561 11.6177 5.85313 11.5429 5.73986 11.5437L6.51242 11.368C6.64599 11.3375 6.78003 11.4183 6.80469 11.5441L7.15919 13.7458C7.35196 14.7237 6.70393 15.6751 5.6707 15.9311Z" fill="#57BE92"/>
<path d="M16.5591 8.96345C16.5487 11.131 15.5297 12.3653 14.2237 14.8829C14.1705 14.9854 14.043 15.0341 13.928 14.9959C13.768 14.9428 13.5242 14.862 13.2333 14.766C13.302 14.7515 13.3634 14.7089 13.3962 14.6458C14.7023 12.1282 15.7212 10.8935 15.7312 8.72634C15.7399 6.90481 14.9046 4.93622 13.0625 4.11548C13.3102 4.14563 13.5653 4.21356 13.8243 4.32368C15.7122 5.12626 16.5673 7.1202 16.5591 8.96345Z" fill="#57BE92"/>
<path d="M13.4944 16.7097L12.6025 18.8701C12.261 19.567 11.5195 19.987 10.7357 19.987C10.5135 19.987 10.2874 19.9533 10.0661 19.8821C9.94891 19.8443 9.83778 19.7977 9.73315 19.7426C9.79152 19.7474 9.84988 19.7499 9.90824 19.7499C10.692 19.7499 11.4334 19.3299 11.7745 18.6329L12.6664 16.4726C12.7257 16.3516 12.6582 16.2094 12.522 16.1683L13.3499 16.4059C13.4862 16.4464 13.5536 16.5887 13.4944 16.7097Z" fill="#57BE92"/>
</svg>
