<svg width="14" height="20" viewBox="0 0 14 20" fill="none" xmlns="http://www.w3.org/2000/svg">
<path d="M0.398579 0C0.172964 0 -0.00790246 0.18963 0.000266215 0.417905C0.215401 6.41516 0.678187 11.9189 1.81746 18.5185H4.89653H8.4368H11.5159C12.6591 11.8963 13.119 6.38761 13.3331 0.417905C13.3412 0.18963 13.1604 0 12.9348 0L0.398579 0Z" fill="#E5EEF9"/>
<path d="M2.22217 18.5186V19.414C2.22217 19.7377 2.48673 20 2.81305 20H11.2609C11.5872 20 11.8518 19.7377 11.8518 19.414V18.5186H2.22217Z" fill="#D5E3F4"/>
<path d="M1.48145 5.9259C1.7614 9.76964 2.19128 13.3085 2.82214 17.037H10.5111C11.142 13.308 11.5719 9.76952 11.8518 5.9259L1.48145 5.9259Z" fill="#98BCE5"/>
<path d="M12.899 0H11.1758C11.4217 0 11.6188 0.189631 11.6099 0.417866C11.3765 6.38763 10.8754 11.8963 9.62964 18.5185H11.3528C12.5986 11.8963 13.0997 6.38759 13.3331 0.417866C13.342 0.189631 13.1449 0 12.899 0Z" fill="#D5E3F4"/>
<path d="M10.2392 18.5186V19.414C10.2392 19.7377 9.96627 20 9.62964 20H11.2423C11.5789 20 11.8519 19.7377 11.8519 19.414V18.5186H10.2392Z" fill="#B3CEEC"/>
<path d="M10.2477 5.9259C9.96403 9.76956 9.52836 13.3081 8.88892 17.037H10.4931C11.1325 13.308 11.5682 9.76952 11.8519 5.9259L10.2477 5.9259Z" fill="#7BACDF"/>
</svg>
