<svg width="113" height="64" viewBox="0 0 113 64" fill="none" xmlns="http://www.w3.org/2000/svg">
<path opacity="0.1" d="M67.5009 46.0947C69.6669 45.9712 72.3543 44.5021 74.4439 43.8523C76.917 43.0852 79.3999 42.3472 81.8926 41.6382C90.5703 39.1691 99.3411 37.0651 108.205 35.3264C109.032 35.1637 109.861 35.005 110.691 34.8501C109.398 32.057 107.395 29.6519 104.883 27.8748C104.947 27.2634 104.98 26.649 104.981 26.0342C104.981 16.3176 97.2153 8.44056 87.633 8.44056C84.6828 8.43742 81.7822 9.19888 79.214 10.6507C72.4317 6.18929 63.5796 3.48914 53.8943 3.48914C40.1318 3.48914 28.0502 8.94139 21.2043 17.1516L53.3788 22.5872L73.1119 25.9195C50.6159 26.5909 28.0502 27.2583 5.61888 25.6823C-0.487667 31.591 -1.56024 40.9944 3.05888 48.1264C3.05888 48.4783 3.07358 48.8272 3.10004 49.1732C3.67144 49.3369 4.22323 49.4956 4.71817 49.5995C12.6641 51.2781 20.661 52.6829 28.7089 53.8139C22.7783 57.4706 15.556 57.9881 8.71499 59.5367C12.0277 62.2711 16.5263 63.9471 21.4836 63.9471H95.2963C103.289 63.9471 109.767 58.3831 109.767 51.5185C110.967 49.5407 111.766 47.3466 112.12 45.0607C97.33 46.4887 82.3562 45.2489 67.5009 46.0947Z" fill="#FF5921"/>
<path opacity="0.1" d="M112.221 42.1371C112.237 36.3958 109.458 31.0058 104.772 27.6886C104.836 27.0774 104.868 26.4634 104.87 25.849C104.87 16.1323 97.1006 8.25826 87.5222 8.25826C84.5719 8.25511 81.671 9.0162 79.1022 10.4674C72.32 6.00405 63.4668 3.30292 53.7816 3.30292C38.0276 3.30292 24.467 10.4527 18.4532 20.7054C18.119 20.6858 17.7828 20.675 17.4437 20.675C7.86425 20.675 0.0960422 28.552 0.0960422 38.2687C0.0893278 41.7008 1.08094 45.0607 2.95007 47.9392C2.95007 56.6817 11.2015 63.7687 21.3758 63.7687H95.1904C103.182 63.7687 109.661 58.2037 109.661 51.3392C111.341 48.5645 112.227 45.3811 112.221 42.1371Z" fill="#FF5921"/>
<path fill-rule="evenodd" clip-rule="evenodd" d="M91.1878 31.1483C91.3618 31.1785 91.5259 31.2505 91.666 31.358C91.9473 31.6011 91.9708 32.0225 91.9571 32.3979C91.9512 32.5498 91.9326 32.7174 91.815 32.8154C91.7126 32.881 91.5909 32.9096 91.47 32.8968H91.4475C91.4088 32.8966 91.3701 32.8962 91.3313 32.8958C91.0187 32.8925 90.7053 32.8892 90.4105 32.986C90.3192 33.0166 90.2306 33.0561 90.1423 33.0955C90.0155 33.1521 89.8893 33.2084 89.7558 33.2379C89.6506 33.5896 89.6715 33.9701 89.6926 34.3526C89.7058 34.5937 89.7191 34.8356 89.701 35.0716C89.6565 35.4581 89.5691 35.8385 89.4402 36.2056L89.4373 36.2151C89.3246 36.5775 89.2116 36.9408 89.0678 37.2925C89.0152 37.4232 88.9583 37.5509 88.9016 37.6781C88.8274 37.8447 88.7534 38.0107 88.6895 38.1824C88.6501 38.2871 88.6141 38.3949 88.5779 38.503C88.4492 38.8878 88.3188 39.2776 88.0319 39.5545C87.8652 40.3582 87.6535 41.2344 86.9939 41.7245C86.4225 42.1488 85.6179 42.1596 84.9524 41.9068C84.2869 41.6539 83.7391 41.1609 83.2598 40.6326C83.0827 40.4374 82.9126 40.235 82.7425 40.0326C82.4522 39.6873 82.1621 39.3421 81.8377 39.0331C81.5432 38.7564 81.2305 38.4997 80.9017 38.2647C80.5698 38.0197 80.2284 37.791 79.8775 37.5787C79.663 37.431 79.4221 37.3259 79.1679 37.269C78.9593 37.229 78.7434 37.2711 78.5651 37.3866C78.5247 37.4142 78.4881 37.4472 78.4564 37.4846C78.3693 37.6072 78.3031 37.7433 78.2603 37.8874C77.9529 38.6943 77.2552 39.2064 76.5534 39.7215C76.32 39.8929 76.0861 40.0645 75.866 40.2475L75.0603 40.9169C74.9506 41.008 74.829 41.1413 74.8829 41.2746C74.92 41.3415 74.9798 41.393 75.0515 41.4197C75.2132 41.4998 75.3845 41.5634 75.5555 41.6268C75.88 41.7472 76.2031 41.8671 76.456 42.0989C76.4813 42.1221 76.5065 42.1467 76.5318 42.1714C76.6475 42.2843 76.7667 42.4007 76.9235 42.4096C77.0245 42.4033 77.1237 42.3808 77.2175 42.3429C77.5166 42.2618 77.8364 42.3261 78.081 42.5164C78.1496 42.5833 78.2291 42.638 78.3162 42.6781C78.3891 42.6974 78.465 42.702 78.5397 42.6918C78.5547 42.6908 78.5698 42.6896 78.5849 42.6885C78.779 42.6742 78.9753 42.6598 79.1571 42.7516C79.2312 42.789 79.2979 42.8429 79.3641 42.8963C79.4732 42.9844 79.5808 43.0712 79.7168 43.0809C79.7695 43.0848 79.8283 43.0781 79.8861 43.0716C79.9452 43.0649 80.0033 43.0583 80.0529 43.0633C80.1099 43.0651 80.1624 43.0943 80.1941 43.1417C80.2169 43.1959 80.2324 43.2529 80.2401 43.3112C80.2893 43.421 80.3635 43.5176 80.4567 43.5935C80.4989 43.6004 80.541 43.6072 80.5822 43.616C80.7483 43.6523 80.912 43.6992 81.0722 43.7562H81.081C81.2761 43.8268 81.4848 43.9385 81.5466 44.1345C81.5735 44.2452 81.5694 44.3612 81.5348 44.4697C81.4498 44.7976 81.2666 45.0821 81.0828 45.3675C80.9469 45.5786 80.8106 45.7902 80.7135 46.0202C80.5637 46.3731 80.5093 46.7603 80.4551 47.1456C80.3848 47.6453 80.3149 48.1418 80.0382 48.5557C79.8804 48.7774 79.6897 48.9737 79.4727 49.1379C79.3524 49.2405 79.2209 49.3293 79.0807 49.4025C78.9354 49.4827 78.7648 49.5037 78.6044 49.4613C78.3976 49.3907 78.2731 49.1673 78.2525 48.9507C78.2451 48.8797 78.2451 48.8081 78.2525 48.737C78.2731 48.5908 78.3059 48.4465 78.3505 48.3058C78.4675 47.9072 78.5848 47.509 78.7024 47.1111C78.7757 46.8946 78.823 46.6702 78.8435 46.4426C78.8453 46.3865 78.8413 46.3304 78.8317 46.275C78.791 46.2409 78.7577 46.1989 78.7337 46.1515C78.7119 46.0749 78.6788 46.0019 78.6357 45.9349C78.558 45.849 78.4327 45.8504 78.3082 45.8517C78.18 45.8531 78.0526 45.8545 77.9791 45.7605C77.9345 45.7029 77.9299 45.6313 77.9252 45.5579C77.9204 45.4827 77.9154 45.4055 77.8673 45.3391C77.7919 45.2348 77.6517 45.2349 77.5167 45.235C77.4815 45.235 77.4467 45.235 77.4135 45.2332C77.2905 45.2268 77.1735 45.1869 77.0562 45.147C76.995 45.1261 76.9337 45.1053 76.8716 45.0891C76.6718 45.037 76.4648 45.0336 76.258 45.0302C76.1613 45.0287 76.0647 45.0271 75.9689 45.0205C75.7188 44.9985 75.4706 44.9592 75.226 44.9029L73.9793 44.6471L73.953 44.6418C73.1678 44.4818 72.3803 44.3214 71.633 44.0306C71.3389 43.9209 71.0449 43.7856 70.8489 43.5494C70.6844 43.3424 70.5788 43.0949 70.5431 42.833C70.4426 42.2358 70.7045 41.6882 70.9703 41.1323C71.1713 40.712 71.3745 40.2868 71.4252 39.8319C71.4722 39.4467 71.6173 39.0831 71.7663 38.7254C72.0355 38.0857 72.3007 37.4464 72.5621 36.8074C72.6064 36.6886 72.6639 36.5751 72.7336 36.4692C72.8464 36.3325 72.9735 36.2083 73.1129 36.0987C73.4844 35.7606 73.7508 35.3227 73.8803 34.8374C73.8899 34.7835 73.9125 34.7327 73.946 34.6894C73.9804 34.6597 74.0187 34.6346 74.0597 34.6149C74.2042 34.521 74.2654 34.3402 74.2077 34.1778C74.3334 34.1674 74.4326 34.0665 74.4409 33.9406C74.4338 33.8872 74.4371 33.8329 74.4507 33.7808C74.4617 33.7509 74.4882 33.7297 74.5152 33.7082C74.5341 33.6931 74.5532 33.6779 74.5674 33.6593C74.6166 33.5945 74.6072 33.5069 74.5982 33.4232C74.597 33.412 74.5958 33.4008 74.5948 33.3898C74.5889 33.3314 74.5889 33.2727 74.5948 33.2143C74.6028 33.1389 74.6202 33.0648 74.6467 32.9938C74.505 33.0639 74.3693 33.1455 74.241 33.2379C74.1632 32.7674 74.0845 32.297 74.0048 31.8265V31.7942C73.9082 31.7679 73.81 31.7479 73.7108 31.7344C73.5097 31.7196 73.3081 31.7532 73.1227 31.8324C73.0465 31.8611 72.9719 31.8938 72.8992 31.9304C72.8176 31.9721 72.7359 32.0171 72.6542 32.0622C72.6379 32.0712 72.6215 32.0802 72.6052 32.0892C72.4597 32.1745 72.3084 32.2495 72.1524 32.3136C72.1073 32.3313 72.0613 32.346 72.0152 32.3597L71.9946 32.3656C71.9564 32.3773 71.9182 32.3861 71.88 32.395L71.8799 32.395L71.8486 32.4018C71.8074 32.4107 71.7663 32.4175 71.7251 32.4234H71.7104C71.7046 32.4241 71.6989 32.4249 71.6931 32.4256C71.6528 32.4309 71.6125 32.4361 71.5722 32.4361H71.5369H71.4389H71.3928C71.3786 32.4357 71.3644 32.4345 71.35 32.4333C71.3318 32.4318 71.3135 32.4303 71.2948 32.4303H71.2556C71.2105 32.4257 71.1664 32.4198 71.1233 32.4126L71.087 32.4058L70.989 32.3852L70.9665 32.3803L70.942 32.3724C70.9057 32.3636 70.8695 32.3528 70.8342 32.3411L70.8028 32.3313C70.7577 32.3156 70.7127 32.2979 70.6685 32.2783L70.6431 32.2676C70.6048 32.2499 70.5676 32.2313 70.5304 32.2117L70.5049 32.198C70.4604 32.1745 70.4173 32.149 70.3755 32.1215C70.3345 32.0948 70.2961 32.0643 70.2608 32.0304C70.203 31.9802 70.1619 31.9135 70.1432 31.8393C70.1383 31.8181 70.1363 31.7963 70.1373 31.7746C70.1503 31.7081 70.168 31.6426 70.1903 31.5786V31.5737C70.2023 31.5108 70.1961 31.4458 70.1898 31.3807C70.1833 31.3138 70.1769 31.2467 70.1903 31.1816C70.2115 31.0809 70.2762 30.9997 70.3414 30.9178C70.3848 30.8633 70.4285 30.8085 70.4598 30.7474C70.4641 30.7405 70.468 30.7333 70.4716 30.7259C70.5113 30.6381 70.5217 30.5419 70.5322 30.4455C70.5414 30.3612 70.5505 30.2767 70.5794 30.1976C70.6558 29.9879 70.8548 29.8536 71.041 29.7321C71.0802 29.7066 71.1233 29.6821 71.1664 29.6576L71.3134 29.5743C71.3076 29.5517 71.3076 29.5282 71.3076 29.5057C71.3076 29.3368 71.392 29.1843 71.4742 29.0356C71.4841 29.0178 71.4939 29 71.5036 28.9823C71.7541 28.5155 71.8703 28.0031 71.9874 27.4871C72.021 27.3389 72.0547 27.1905 72.0916 27.0427L72.0984 27.015C72.206 26.5713 72.3145 26.1237 72.2877 25.6706C72.2805 25.5451 72.2624 25.4181 72.2442 25.2906C72.2275 25.174 72.2108 25.057 72.2024 24.9404C72.1927 24.8032 72.1944 24.6653 72.1961 24.5278C72.1976 24.4 72.1992 24.2726 72.1916 24.1465C72.182 23.9861 72.1256 23.8363 72.0687 23.6853C72.0328 23.59 71.9967 23.4941 71.9721 23.3948C71.968 23.3779 71.9649 23.3614 71.9617 23.3448C71.9603 23.3373 71.9589 23.3298 71.9574 23.3223C71.9209 23.3272 71.884 23.3272 71.8476 23.3223C71.736 23.2939 71.6308 23.2443 71.5379 23.1762L70.7185 22.6568C70.5658 22.5649 70.4189 22.4638 70.2785 22.3539C70.0635 22.1721 69.8686 21.9677 69.6973 21.7443C69.5388 21.5474 69.3864 21.3454 69.234 21.1435C68.9285 20.7386 68.6231 20.334 68.2693 19.9704C68.2077 19.9045 68.1429 19.8405 68.0778 19.7762C67.9957 19.6952 67.9132 19.6137 67.8361 19.5273C67.6459 19.3046 67.471 19.0691 67.3127 18.8227C67.1598 18.5953 67.001 18.3434 67.0275 18.0729C67.0343 17.9911 67.0594 17.9127 67.0845 17.834C67.1063 17.7656 67.1282 17.6971 67.1383 17.626C67.1598 17.4731 67.102 17.2878 66.955 17.2467C66.9376 17.2423 66.9199 17.2394 66.9021 17.2379C66.873 17.2348 66.8444 17.2285 66.8168 17.2192C66.6806 17.1624 66.7011 16.9536 66.7991 16.8399C66.8453 16.7864 66.902 16.7441 66.9583 16.7021C67.0215 16.6549 67.0842 16.6081 67.1314 16.5459C67.1729 16.4738 67.2194 16.4047 67.2706 16.3391C67.2908 16.3199 67.3131 16.3031 67.3372 16.2891C67.3847 16.1115 67.454 15.9208 67.4984 15.7988C67.5135 15.7572 67.5258 15.7235 67.5332 15.7011C67.6154 15.4574 67.7088 15.2189 67.8021 14.9807C67.8435 14.8749 67.8849 14.7692 67.9253 14.6632C67.9513 14.5951 67.9822 14.5218 68.0144 14.4451C68.1275 14.1762 68.2575 13.8669 68.2575 13.6076C68.297 13.4241 68.3244 13.2371 68.352 13.0498C68.3894 12.795 68.4269 12.5397 68.4947 12.2923C68.5777 12.0116 68.6806 11.7371 68.8025 11.471L69.2229 10.4488C69.2624 10.3294 69.3328 10.2225 69.4268 10.139C69.5274 10.0762 69.6444 10.0448 69.7629 10.0489C70.1854 10.0332 70.6293 10.1616 70.9175 10.4762C71.2056 10.7908 71.2968 11.2956 71.0674 11.6523C70.9136 11.8924 70.6579 12.0253 70.3999 12.1594C70.1975 12.2646 69.9937 12.3705 69.8365 12.5295C69.6081 12.7598 69.4973 13.0813 69.4297 13.3988C69.3093 13.9559 69.2974 14.5273 69.2855 15.0991C69.2798 15.3743 69.2741 15.6497 69.2562 15.9236C69.2513 15.9971 69.2425 16.0745 69.2298 16.15C69.3268 16.1715 69.4395 16.2078 69.4689 16.3058C69.4805 16.3524 69.4805 16.4012 69.4689 16.4479C69.4258 16.6412 69.4008 16.838 69.3944 17.036C69.3943 17.0775 69.3966 17.1191 69.4013 17.1604C69.4474 17.577 69.7169 17.9288 69.9795 18.2542C70.2912 18.6413 70.6078 19.0255 70.9253 19.4088C71.097 19.6309 71.289 19.8366 71.4987 20.0233C71.5624 20.0765 71.6326 20.1267 71.7036 20.1774C71.8377 20.2733 71.9743 20.371 72.075 20.4947C72.1409 20.4963 72.2056 20.4763 72.2592 20.4379C72.3271 20.3826 72.4027 20.3377 72.4837 20.3046C72.577 20.2792 72.6712 20.3044 72.7662 20.3298C72.8178 20.3436 72.8697 20.3575 72.9218 20.3634C73.1349 20.3883 73.3297 20.2712 73.518 20.1578C73.5514 20.1377 73.5846 20.1178 73.6176 20.0987C73.9481 19.9103 74.3164 19.7978 74.6957 19.7694C74.8918 19.7557 75.1103 19.7734 75.2485 19.9125C75.1936 19.9802 75.1397 20.0478 75.0868 20.1164C75.1388 20.0798 75.1865 20.0374 75.2289 19.99C75.322 19.8694 75.3142 19.7018 75.3005 19.5499C75.2506 19.1669 75.2335 18.7803 75.2495 18.3944C75.2506 18.3844 75.2522 18.3744 75.2537 18.3644C75.2565 18.347 75.2593 18.3295 75.2593 18.312C75.0086 17.7594 75.0289 17.1217 75.3142 16.5861L75.273 16.5763L75.1564 16.5498C75.1178 16.5401 75.0798 16.528 75.0427 16.5136C74.952 16.4755 74.8712 16.4171 74.8065 16.343C74.7382 16.2656 74.6883 16.1738 74.6605 16.0745C74.6528 16.0485 74.6473 16.022 74.6438 15.9951V15.9833C74.6379 15.9598 74.6379 15.9353 74.6379 15.9108C74.6371 15.8558 74.6427 15.8009 74.6546 15.7471C74.6735 15.6511 74.716 15.5612 74.7781 15.4855C74.8226 15.4322 74.8757 15.3898 74.9285 15.3476C74.9944 15.2951 75.06 15.2427 75.1084 15.1699C75.1827 15.0587 75.2037 14.9199 75.2249 14.7804C75.2358 14.7082 75.2468 14.6359 75.2652 14.5671C75.3302 14.3077 75.5158 14.0952 75.764 13.9957C76.0061 13.9138 76.2735 13.9702 76.4619 14.1427C76.5133 14.1886 76.5584 14.2415 76.6036 14.2947C76.6454 14.3438 76.6873 14.393 76.7343 14.4368C76.8313 14.5297 76.9498 14.5971 77.0793 14.6328C77.1428 14.5282 77.2252 14.4365 77.3224 14.3623L77.3361 14.3515C77.5106 14.22 77.7286 14.1601 77.9457 14.1839C78.3136 14.2492 78.6124 14.5179 78.7161 14.8768C78.7309 14.9232 78.7428 14.971 78.7547 15.0187C78.7805 15.1222 78.8061 15.2251 78.8611 15.311C78.9384 15.4281 79.0547 15.4945 79.1722 15.5617C79.2426 15.6019 79.3135 15.6424 79.3767 15.6942C79.5801 15.8835 79.6988 16.1466 79.706 16.4244V16.5302C79.7023 16.7409 79.6693 16.95 79.608 17.1516C79.6032 17.167 79.5977 17.184 79.5922 17.2007C79.5866 17.2181 79.5811 17.2351 79.5766 17.2496C79.5678 17.278 79.558 17.3064 79.5482 17.3348L79.5482 17.3349C79.5188 17.4199 79.4949 17.5066 79.4766 17.5946C79.4663 17.6547 79.4608 17.7157 79.4554 17.7766C79.4506 17.8309 79.4457 17.8851 79.4374 17.9386C79.4211 18.0523 79.3881 18.1629 79.3394 18.267C79.3077 18.3361 79.2689 18.4018 79.2238 18.463C79.2016 18.4924 79.178 18.5208 79.1532 18.5482C79.1042 18.601 79.0496 18.6483 78.9905 18.6894C78.9562 18.7174 78.9133 18.7329 78.869 18.7335C78.8023 18.7256 78.7572 18.657 78.7288 18.5855L78.7171 18.5551V18.5492C78.4738 18.9462 78.0972 19.2436 77.6546 19.3882C77.6537 19.3984 77.6522 19.409 77.6508 19.4199C77.6479 19.4415 77.6448 19.464 77.6448 19.4862C77.6257 19.6202 77.6327 19.7567 77.6654 19.888C77.6881 19.8538 77.713 19.821 77.7399 19.79C77.9193 19.5793 78.2466 19.4685 78.4779 19.6185C78.6215 19.7112 78.6899 19.8713 78.759 20.0333C78.8163 20.1675 78.8741 20.3031 78.9758 20.4026C79.1551 20.5791 79.4249 20.6028 79.6784 20.6251C79.6965 20.6267 79.7145 20.6283 79.7324 20.63C80.2117 20.6744 80.6825 20.7856 81.131 20.9602C81.2186 20.9877 81.2982 21.0358 81.3633 21.1004C81.4394 21.1844 81.4573 21.3002 81.4754 21.4177C81.4864 21.4893 81.4976 21.5616 81.5221 21.6277C81.5646 21.7421 81.6452 21.8351 81.726 21.9282C81.8036 22.0177 81.8812 22.1072 81.9249 22.2157C81.963 22.3187 81.9751 22.4294 81.9602 22.5382C81.9688 22.5682 81.9766 22.5989 81.9843 22.6295C81.989 22.6479 81.9936 22.6662 81.9984 22.6842C82.0437 22.8572 82.1286 23.0172 82.2464 23.1517C82.3452 23.2385 82.4327 23.3373 82.5071 23.4458C82.5599 23.5508 82.5682 23.6673 82.5765 23.7845C82.5819 23.8608 82.5873 23.9374 82.6051 24.0113C82.6264 24.0997 82.6655 24.183 82.7044 24.2662C82.7548 24.374 82.8052 24.4815 82.8168 24.5993C82.8174 24.6591 82.823 24.7188 82.8335 24.7777C82.8654 24.8992 82.9719 24.9742 83.0789 25.0497C83.1817 25.1222 83.2851 25.1951 83.3235 25.3099C83.3381 25.3574 83.3431 25.4074 83.3382 25.4569C83.3783 25.4387 83.42 25.4239 83.4627 25.4128C83.462 25.4175 83.4613 25.4222 83.4607 25.4269C83.4553 25.4645 83.4499 25.5028 83.4499 25.5402C83.491 25.5025 83.5336 25.4677 83.5759 25.4331C83.5941 25.4182 83.6123 25.4033 83.6303 25.3883C84.1494 24.954 84.5797 24.4236 84.8975 23.826C85.0437 23.5755 85.1433 23.3006 85.1916 23.0145C85.2065 22.8912 85.2077 22.767 85.2089 22.6429C85.2098 22.547 85.2108 22.4512 85.218 22.3559C85.234 22.1628 85.2756 21.9732 85.3171 21.7838C85.3569 21.602 85.3968 21.4204 85.414 21.2357C85.423 21.1399 85.4258 21.0435 85.4286 20.9471C85.4334 20.7809 85.4382 20.6147 85.4748 20.4516C85.5326 20.1938 85.6904 19.937 85.9413 19.8635C86.12 19.8204 86.3086 19.8507 86.4647 19.9478C86.6186 20.0441 86.759 20.1604 86.8822 20.2938C87.0047 20.4143 87.1331 20.5476 87.1606 20.7172C87.1716 20.8224 87.1613 20.9287 87.1302 21.0298C86.9547 21.7709 86.699 22.4906 86.3677 23.1762C86.3243 23.2652 86.2798 23.3535 86.2353 23.4417C86.1478 23.615 86.0604 23.7882 85.9825 23.9662C85.8717 24.2079 85.7832 24.4579 85.6953 24.7064L85.6885 24.7258C85.4983 25.2648 85.3088 25.8035 85.12 26.3419C85.0725 26.4956 85.0067 26.6431 84.924 26.781C84.8474 26.8928 84.7601 26.9969 84.6633 27.0917C84.6244 27.1294 84.5915 27.1645 84.5612 27.1969C84.5395 27.22 84.519 27.2418 84.4986 27.2622C84.5537 27.2857 84.61 27.3063 84.6672 27.324C84.632 27.4952 84.4932 27.6099 84.3549 27.7243C84.3047 27.7658 84.2546 27.8072 84.2095 27.8513C84.1107 27.9476 84.0317 28.0637 83.953 28.1792C83.8412 28.3433 83.7303 28.5063 83.5646 28.6099C83.2519 28.8069 82.8472 28.7304 82.4865 28.6471C82.454 28.6438 82.4239 28.6284 82.4022 28.604C82.395 28.5918 82.3897 28.5786 82.3865 28.5648L82.3806 28.5413C82.2991 28.4323 82.2171 28.3238 82.1349 28.2152C82.0996 28.1684 82.0642 28.1216 82.0288 28.0747C81.9882 28.0133 81.9363 27.96 81.8759 27.9179C81.8498 27.9017 81.8214 27.89 81.793 27.8782C81.7682 27.868 81.7434 27.8577 81.7201 27.8444C81.5815 27.7648 81.5234 27.6011 81.4698 27.4499C81.4673 27.4428 81.4648 27.4358 81.4623 27.4289C81.3071 26.9939 81.0747 26.5905 80.7762 26.238C80.6655 26.1202 80.567 25.9915 80.4822 25.8538C80.395 25.8901 80.2969 25.8901 80.2097 25.8538C80.1849 26.0348 80.1598 26.2165 80.1343 26.3988C80.1122 26.514 80.1122 26.6324 80.1343 26.7477C80.1575 26.865 80.2459 26.9587 80.3617 26.9888C80.3741 27.0603 80.4402 27.1 80.5042 27.1386C80.5157 27.1455 80.5271 27.1523 80.5381 27.1593C80.7605 27.3153 80.816 27.6212 80.6625 27.8454C80.6423 27.8727 80.6188 27.8984 80.5955 27.924C80.5476 27.9764 80.5 28.0285 80.4802 28.0943C80.4361 28.2384 80.542 28.3884 80.6684 28.4677C80.7348 28.5094 80.8079 28.5389 80.8811 28.5685C80.9473 28.5952 81.0137 28.622 81.0752 28.6579C81.3437 28.8137 81.4878 29.1224 81.5799 29.4165C81.5883 29.4433 81.5965 29.4705 81.6047 29.4977C81.6648 29.697 81.7265 29.9017 81.8739 30.0457C81.9027 30.0731 81.9339 30.0976 81.9652 30.1222C82.0043 30.1529 82.0435 30.1836 82.0778 30.2202C82.1848 30.3463 82.2466 30.5047 82.2532 30.67C82.2796 30.8748 82.2346 31.0825 82.1258 31.2581C82.0391 31.3758 81.9242 31.4698 81.7916 31.5315C81.9131 31.6129 82.0376 31.6913 82.165 31.7638C82.264 31.8206 82.3777 31.8961 82.3777 32.0108C82.3776 32.055 82.3587 32.097 82.3258 32.1264C82.3413 32.1364 82.3564 32.1472 82.3708 32.1588C82.4463 32.2173 82.5082 32.2916 82.5522 32.3764C82.5885 32.4804 82.6331 32.5813 82.6855 32.6782C82.7387 32.7509 82.8142 32.7952 82.8915 32.8407C82.9665 32.8847 83.0432 32.9298 83.103 33.0026C83.1708 33.0852 83.2008 33.1892 83.2311 33.2943C83.255 33.3775 83.2792 33.4613 83.3225 33.5358C83.3847 33.6449 83.4834 33.7275 83.5816 33.8097C83.6987 33.9077 83.8151 34.0052 83.8684 34.1464C83.8858 34.1951 83.8943 34.2469 83.9028 34.2987C83.9086 34.3345 83.9145 34.3703 83.9233 34.4051C83.976 34.5999 84.1086 34.758 84.2378 34.9122C84.2503 34.9271 84.2628 34.942 84.2752 34.9569C84.7881 35.572 85.1169 36.3194 85.2239 37.1131C85.2572 36.6143 85.5914 36.1732 86.008 35.8988C86.0164 35.8928 86.025 35.8868 86.0337 35.8808C86.1397 35.8069 86.2527 35.728 86.2736 35.6048C86.2884 35.5162 86.2509 35.433 86.2131 35.3494C86.1786 35.2729 86.144 35.1962 86.1491 35.1147C86.1608 35.0306 86.1946 34.9511 86.2471 34.8844C86.4339 34.6131 86.6389 34.3547 86.8606 34.1111C86.9812 33.9788 87.1165 33.8132 87.0665 33.6417C87.0433 33.5626 86.9851 33.503 86.9265 33.443C86.8885 33.404 86.8504 33.3649 86.8214 33.3202C86.7338 33.1812 86.7377 33.0034 86.8312 32.8684C86.8556 32.8354 86.8849 32.8056 86.9142 32.7759C86.9675 32.7218 87.0205 32.668 87.042 32.5959C87.062 32.5277 87.0482 32.4565 87.0342 32.3848C87.0215 32.3194 87.0088 32.2536 87.0214 32.1892C87.0218 32.1836 87.0218 32.178 87.0214 32.1725C87.0047 32.1529 86.9909 32.1312 86.9802 32.1078C86.9458 31.9999 86.9171 31.8903 86.894 31.7795C86.8775 31.7301 86.8575 31.6819 86.8342 31.6354C86.7752 31.5358 86.7378 31.425 86.7244 31.31C86.7248 31.1958 86.7642 31.0851 86.8361 30.9964C86.9972 30.8037 87.2288 30.6837 87.4791 30.6632C87.7261 30.644 87.9745 30.6571 88.2181 30.7024L90.6311 31.0503C90.6608 31.055 90.6905 31.0596 90.7203 31.0642C90.8769 31.0885 91.0337 31.1129 91.1878 31.1483ZM77.4655 14.6404C77.3845 14.6609 77.3006 14.667 77.2175 14.6584L77.4655 14.6404Z" fill="url(#paint0_linear_0_45076)"/>
<path d="M77.8517 20.8397C77.733 20.9405 77.5939 21.0144 77.4439 21.0563L76.749 21.3052C76.3717 21.4405 75.9777 21.5767 75.5798 21.5277C75.3573 21.5003 74.4037 21.3601 74.2596 21.1867C74.0401 20.9181 74.8094 20.5231 75.0721 20.2967C75.1316 20.2539 75.1868 20.2053 75.2368 20.1517C75.3348 20.0321 75.322 19.8645 75.3083 19.7136C75.2585 19.3312 75.2414 18.9453 75.2573 18.56C75.265 18.4682 75.2781 18.3769 75.2966 18.2866C75.3946 17.8357 75.814 18.0004 76.1453 18.1199C76.5441 18.2495 76.9297 18.4165 77.2969 18.6188C77.4088 18.6765 77.506 18.7589 77.5811 18.8599C77.7262 19.0795 77.6684 19.3676 77.6449 19.644C77.6243 19.8586 77.6252 20.0644 77.7595 20.2203C77.8271 20.2799 77.8891 20.3455 77.9448 20.4163C78.0091 20.5627 77.9715 20.7338 77.8517 20.8397Z" fill="#BE6F72"/>
<path d="M68.2526 13.7762C68.3506 13.342 68.3722 12.8941 68.4898 12.4638C68.5728 12.1841 68.6757 11.9106 68.7976 11.6454L69.2298 10.6369C69.2693 10.5178 69.3396 10.4113 69.4336 10.3282C69.5344 10.2658 69.6513 10.2344 69.7698 10.238C70.1922 10.2224 70.6362 10.3537 70.9244 10.6644C71.2125 10.9751 71.3036 11.4779 71.0743 11.8336C70.7999 12.2619 70.201 12.3482 69.8433 12.7088C69.6149 12.9392 69.5042 13.2597 69.4366 13.5762C69.2582 14.3995 69.318 15.2532 69.2631 16.0941C69.2455 16.3558 69.1945 16.6547 68.9691 16.7899C68.8328 16.8567 68.6813 16.8861 68.53 16.8752L67.887 16.886C67.7792 16.886 67.3882 16.9536 67.3166 16.8723C67.1912 16.7302 67.4774 16.0225 67.5293 15.8647C67.645 15.5149 67.7871 15.1738 67.9214 14.8298C68.038 14.523 68.2526 14.1084 68.2526 13.7762Z" fill="#BE6F72"/>
<path d="M81.528 44.5667C81.38 45.1332 80.935 45.5743 80.7066 46.1143C80.3626 46.9229 80.5175 47.9118 80.0314 48.6429C79.8737 48.865 79.683 49.0617 79.4658 49.2261C79.3455 49.3284 79.214 49.4169 79.0738 49.4897C78.9285 49.5699 78.7579 49.591 78.5975 49.5486C78.3907 49.478 78.2662 49.2545 78.2456 49.0389C78.2383 48.9682 78.2383 48.8969 78.2456 48.8262C78.2662 48.6803 78.299 48.5364 78.3436 48.396C78.4612 47.9994 78.5785 47.6021 78.6955 47.2042C78.7687 46.9884 78.8161 46.7647 78.8366 46.5377C78.8494 46.2907 78.6925 45.9693 78.7592 45.7389C78.7896 45.635 78.9033 45.5429 78.9552 45.4557C79.029 45.3301 79.0856 45.1953 79.1238 45.0548C79.2042 44.7814 79.259 44.4893 79.4276 44.259C79.5376 44.1224 79.6663 44.002 79.8099 43.9013C79.9158 43.8084 80.04 43.7386 80.1744 43.6964C80.3049 43.6735 80.4388 43.6798 80.5665 43.715C80.7327 43.7506 80.8964 43.7971 81.0565 43.8542H81.0654C81.2614 43.9248 81.4691 44.0336 81.5309 44.2316C81.5609 44.3414 81.5599 44.4574 81.528 44.5667Z" fill="#3F3D56"/>
<path d="M91.9561 32.5175C91.9503 32.6694 91.9316 32.839 91.814 32.934C91.7116 32.9995 91.5899 33.0282 91.469 33.0154H91.4426C91.0927 33.0154 90.7369 32.9958 90.4056 33.1046C90.1537 33.1879 89.9224 33.3408 89.6598 33.3711C89.2981 33.4123 88.958 33.2143 88.6375 33.0418C88.3358 32.8793 88.026 32.7321 87.7094 32.6008C87.5016 32.5155 87.0772 32.4606 86.9773 32.2333C86.943 32.1257 86.9142 32.0164 86.891 31.9059C86.8746 31.8565 86.8546 31.8084 86.8312 31.7618C86.7724 31.6625 86.7351 31.552 86.7215 31.4374C86.7219 31.3232 86.7613 31.2125 86.8332 31.1238C86.9947 30.9326 87.2257 30.8137 87.4752 30.7935C87.7221 30.7743 87.9706 30.7875 88.2141 30.8327L90.6271 31.1797C90.8133 31.2061 91.0005 31.2326 91.1838 31.2777C91.3579 31.3079 91.522 31.3798 91.6621 31.4874C91.9473 31.7265 91.9708 32.147 91.9561 32.5175Z" fill="#3F3D56"/>
<path d="M89.8352 33.1447C89.5412 33.7651 89.7529 34.4992 89.7 35.1853C89.6555 35.5708 89.5681 35.9502 89.4393 36.3163C89.3256 36.6809 89.2119 37.0465 89.0668 37.4003C88.9453 37.6943 88.8012 37.9884 88.6885 38.2883C88.5091 38.7665 88.3945 39.3046 88.0309 39.6604C87.8642 40.4621 87.6525 41.3383 86.9929 41.8244C86.4196 42.2478 85.6208 42.2625 84.9514 42.0067C84.282 41.7509 83.7381 41.2609 83.2588 40.7326C82.7795 40.2043 82.3512 39.629 81.8367 39.137C81.5418 38.8602 81.2284 38.6039 80.8987 38.3696C80.5668 38.1285 80.2254 37.9018 79.8745 37.6894C79.6597 37.5424 79.4189 37.4377 79.165 37.3807C78.9564 37.3407 78.7404 37.3828 78.5622 37.4983C78.5217 37.526 78.4851 37.5589 78.4534 37.5963C78.3662 37.7184 78.2999 37.8542 78.2574 37.9982C77.8458 39.0704 76.7412 39.6212 75.8591 40.3523L75.0535 41.0198C74.9437 41.1109 74.8222 41.2442 74.8761 41.3765C74.9131 41.4435 74.9729 41.4949 75.0446 41.5216C75.5131 41.7529 76.063 41.846 76.4491 42.1988C76.5903 42.3282 76.7255 42.4987 76.9166 42.5085C77.0175 42.5026 77.1168 42.4804 77.2107 42.4429C77.5096 42.362 77.8292 42.4258 78.0741 42.6154C78.1427 42.6823 78.2223 42.737 78.3093 42.7771C78.3822 42.7963 78.4581 42.801 78.5328 42.7908C78.7416 42.7761 78.9631 42.7575 79.1503 42.8506C79.3375 42.9437 79.4913 43.1632 79.7099 43.1789C79.8167 43.1868 79.9441 43.1515 80.0461 43.1613C80.103 43.1631 80.1556 43.1923 80.1872 43.2397C80.2101 43.2936 80.2256 43.3503 80.2333 43.4083C80.2734 43.5465 80.4087 43.6307 80.4969 43.7444C80.6322 43.9189 80.6518 44.1561 80.638 44.3766C80.5936 45.0661 80.2863 45.7123 79.7795 46.1819C79.6356 46.329 79.4521 46.4312 79.2512 46.476C79.0449 46.5191 78.8342 46.4256 78.7278 46.2437C78.706 46.1674 78.6729 46.0947 78.6298 46.0281C78.472 45.8546 78.1182 46.0388 77.9732 45.8536C77.883 45.7379 77.9477 45.5527 77.8614 45.4331C77.7752 45.3136 77.5674 45.3351 77.4076 45.3283C77.2205 45.3185 77.047 45.2303 76.8657 45.1842C76.5716 45.1077 76.2639 45.1362 75.963 45.1156C75.7129 45.0935 75.4647 45.0542 75.2201 44.998L73.9734 44.7431C73.1795 44.5814 72.3827 44.4178 71.6271 44.1286C71.3379 44.0189 71.0469 43.8836 70.843 43.6484C70.6787 43.4417 70.573 43.1945 70.5372 42.9329C70.3598 41.8872 71.3007 40.9933 71.4193 39.9397C71.4614 39.5555 71.6153 39.1929 71.7604 38.8361C72.0263 38.1984 72.2916 37.5604 72.5562 36.922C72.599 36.8032 72.6549 36.6894 72.7228 36.5829C72.8356 36.4465 72.9628 36.3226 73.1021 36.2134C73.4735 35.8764 73.7399 35.4395 73.8695 34.955C73.8791 34.9011 73.9017 34.8503 73.9352 34.807C73.9699 34.7779 74.0081 34.7532 74.0489 34.7335C74.193 34.6397 74.2541 34.4594 74.1969 34.2973C74.3226 34.2869 74.4218 34.1861 74.4301 34.0601C74.423 34.0071 74.4263 33.9531 74.4399 33.9014C74.4635 33.8504 74.5223 33.8249 74.5566 33.7798C74.6124 33.7063 74.5928 33.6034 74.584 33.5113C74.5781 33.453 74.5781 33.3942 74.584 33.3359C74.6055 33.1283 74.6983 32.9347 74.8467 32.788C75.0809 32.5577 75.4141 32.6175 75.7376 32.5626C76.0602 32.4929 76.3753 32.3922 76.6785 32.2617C77.5289 31.9266 78.4243 31.7195 79.3355 31.6472C80.2512 31.5751 81.1709 31.7216 82.019 32.0745C82.1424 32.1245 82.2587 32.1904 82.365 32.2705C82.4404 32.3287 82.5023 32.4026 82.5463 32.4871C82.5824 32.5909 82.627 32.6915 82.6796 32.788C82.7844 32.9311 82.9824 32.9771 83.0971 33.1124C83.2118 33.2477 83.2216 33.476 83.3166 33.6436C83.4529 33.8828 83.7684 33.9935 83.8625 34.2532C83.8919 34.3356 83.8959 34.4257 83.9174 34.511C83.9703 34.7247 84.1291 34.8932 84.2693 35.0618C84.7831 35.6763 85.112 36.424 85.218 37.218C85.2494 36.7211 85.5836 36.281 86.0021 36.0066C86.1148 35.9331 86.2451 35.8518 86.2677 35.7185C86.2961 35.5499 86.1324 35.3999 86.1432 35.2284C86.1551 35.1447 86.1889 35.0656 86.2412 34.9991C86.428 34.7284 86.633 34.4706 86.8548 34.2277C86.9753 34.0954 87.1106 33.9337 87.0606 33.7593C87.0224 33.6289 86.8891 33.5525 86.8156 33.4388C86.7278 33.3002 86.7317 33.1226 86.8254 32.9879C86.894 32.8948 87.0027 32.8272 87.0361 32.7164C87.0743 32.5861 86.989 32.445 87.0155 32.3107C87.0513 32.2032 87.1225 32.1109 87.2174 32.049C87.3474 31.9306 87.4953 31.8334 87.6555 31.7609C87.9142 31.6628 88.2024 31.6991 88.4768 31.7373C88.9355 31.801 89.45 31.899 89.7088 32.2832C89.8744 32.5234 89.9587 32.888 89.8352 33.1447Z" fill="#65617D"/>
<path opacity="0.1" d="M91.9561 32.5175C91.9503 32.6694 91.9316 32.839 91.814 32.934C91.7116 32.9995 91.5899 33.0282 91.469 33.0154H91.4426C91.4828 32.8115 91.7307 32.6949 91.7739 32.4881C91.7888 32.3597 91.7497 32.2308 91.666 32.1323C91.4563 31.8491 91.1191 31.6922 90.784 31.5776C89.837 31.2529 88.8225 31.177 87.8378 31.3571C87.57 31.4007 87.3095 31.4808 87.0635 31.5952C86.982 31.6462 86.9035 31.7019 86.8283 31.7618C86.7695 31.6625 86.7321 31.552 86.7185 31.4374C86.7189 31.3232 86.7583 31.2125 86.8303 31.1238C86.9918 30.9326 87.2228 30.8137 87.4722 30.7935C87.7192 30.7743 87.9676 30.7875 88.2112 30.8327L90.6242 31.1797C90.8104 31.2061 90.9976 31.2326 91.1809 31.2777C91.3549 31.3079 91.5191 31.3798 91.6592 31.4874C91.9473 31.7265 91.9708 32.147 91.9561 32.5175Z" fill="black"/>
<path opacity="0.1" d="M81.528 44.5667C81.38 45.1332 80.935 45.5743 80.7066 46.1143C80.3626 46.9229 80.5175 47.9118 80.0314 48.6429C79.8737 48.865 79.683 49.0617 79.4658 49.2261C79.3455 49.3284 79.214 49.4169 79.0738 49.4897C78.9285 49.5699 78.7579 49.591 78.5975 49.5485C78.3907 49.478 78.2662 49.2545 78.2456 49.0389C78.2383 48.9682 78.2383 48.8969 78.2456 48.8262L78.2515 48.8419C78.3368 49.0477 78.4759 49.2633 78.6955 49.2996C78.8621 49.3116 79.0261 49.2537 79.1483 49.1398C79.4717 48.8801 79.6599 48.493 79.8393 48.1196C79.9796 47.8503 80.0907 47.5667 80.1705 47.2737C80.2097 47.1071 80.2284 46.9366 80.2685 46.77C80.4548 45.9604 81.0889 45.2998 81.229 44.4795C81.2404 44.4231 81.2431 44.3652 81.2369 44.308C81.2184 44.2333 81.19 44.1615 81.1526 44.0943C81.1185 44.0185 81.0935 43.9389 81.0781 43.8571C81.2741 43.9277 81.4819 44.0365 81.5436 44.2345C81.5689 44.3446 81.5635 44.4595 81.528 44.5667Z" fill="black"/>
<path opacity="0.1" d="M80.048 43.1613C79.9573 43.3984 79.8047 43.6069 79.606 43.765C79.327 43.9776 79.0003 44.1189 78.6543 44.1767C78.4933 44.2177 78.3243 44.2157 78.1643 44.1708C77.9467 44.0953 77.7899 43.8915 77.5674 43.8326C77.4086 43.7895 77.2381 43.8277 77.0774 43.8042C76.7882 43.764 76.5638 43.5435 76.3305 43.3671C75.6161 42.83 74.6781 42.6565 73.9636 42.1194C73.9318 42.0999 73.9055 42.0726 73.8872 42.0401C73.8735 42.0048 73.8684 41.9669 73.8725 41.9293C73.8751 41.6035 73.9483 41.2822 74.0871 40.9874C74.2008 40.7818 74.3361 40.5889 74.4909 40.4121C75.1309 39.6281 75.7738 38.8381 76.5403 38.1765C76.8618 37.8992 77.2126 37.6404 77.6184 37.515C77.8438 37.4454 78.2888 37.3797 78.5632 37.4973C78.5227 37.525 78.4861 37.5579 78.4544 37.5953C78.3672 37.7174 78.3009 37.8533 78.2584 37.9972C77.8458 39.0704 76.7412 39.6212 75.8591 40.3523L75.0535 41.0198C74.9437 41.1109 74.8222 41.2442 74.8761 41.3765C74.9132 41.4435 74.973 41.4949 75.0447 41.5216C75.5131 41.7529 76.063 41.846 76.4491 42.1988C76.5903 42.3282 76.7255 42.4987 76.9166 42.5085C77.0175 42.5026 77.1168 42.4804 77.2107 42.4429C77.5096 42.362 77.8292 42.4258 78.0741 42.6154C78.1427 42.6823 78.2223 42.737 78.3093 42.7771C78.3822 42.7964 78.4581 42.801 78.5328 42.7908C78.7416 42.7761 78.9631 42.7575 79.1503 42.8506C79.3375 42.9437 79.4913 43.1632 79.7099 43.1789C79.8187 43.1868 79.9461 43.1495 80.048 43.1613Z" fill="black"/>
<path d="M71.0341 29.8595C70.8479 29.979 70.6499 30.1143 70.5735 30.3221C70.5108 30.4916 70.5402 30.6857 70.4647 30.8503C70.3892 31.015 70.2197 31.1297 70.1824 31.3061C70.156 31.4345 70.2079 31.5697 70.1824 31.6981C70.1602 31.7649 70.1422 31.833 70.1285 31.902C70.1187 32.048 70.2442 32.1666 70.3667 32.248C70.8956 32.592 71.5564 32.6647 72.1475 32.444C72.4092 32.346 72.6454 32.1862 72.8963 32.0608C73.141 31.9199 73.4209 31.8519 73.7029 31.8647C73.8646 31.8824 74.0195 31.9412 74.1812 31.9628C74.3434 31.9948 74.5109 31.9449 74.6291 31.8295C74.6791 31.7605 74.7126 31.6811 74.7271 31.5972C74.8634 31.0591 74.8016 30.4887 74.6722 29.9477C74.5429 29.4067 74.3468 28.8862 74.2087 28.3482C74.1106 27.9493 74.0352 27.5406 73.8715 27.1632C73.7078 26.7859 73.4324 26.435 73.0472 26.291C73.0169 26.2761 72.9824 26.2716 72.9492 26.2782C72.9245 26.2886 72.9027 26.3047 72.8855 26.3253C72.5808 26.6482 72.3513 27.0344 72.2132 27.4563C72.0593 27.9258 72.0172 28.4236 71.876 28.8951C71.8153 29.0911 71.7369 29.3537 71.582 29.5037C71.4272 29.6537 71.2096 29.7468 71.0341 29.8595Z" fill="#3F3D56"/>
<path opacity="0.1" d="M74.7301 31.5942C74.7136 31.6784 74.6784 31.7578 74.6271 31.8265C74.5092 31.9424 74.3413 31.992 74.1792 31.9588C74.0185 31.9392 73.8637 31.8795 73.7019 31.8608C73.4199 31.8478 73.14 31.9158 72.8953 32.0569C72.6444 32.1823 72.4053 32.3381 72.1456 32.4391C71.7656 32.5832 71.3505 32.6068 70.9567 32.5067C70.7475 32.4541 70.5487 32.3667 70.3686 32.248C70.2452 32.1676 70.1207 32.052 70.1305 31.902C70.1442 31.8333 70.1622 31.7656 70.1844 31.6991C70.2099 31.5707 70.1589 31.4355 70.1844 31.3071C70.2216 31.1307 70.3922 31.0131 70.4667 30.8504C70.5411 30.6877 70.5127 30.4926 70.5745 30.3231C70.6509 30.1143 70.8499 29.98 71.0361 29.8595C71.2223 29.7389 71.4438 29.6468 71.5928 29.5008C71.612 29.478 71.6294 29.4538 71.6447 29.4282C71.7522 29.2626 71.831 29.08 71.878 28.8882C72.0221 28.4158 72.0613 27.9189 72.2142 27.4485C72.3528 27.0269 72.5827 26.641 72.8875 26.3184C72.9038 26.2974 72.9255 26.2811 72.9502 26.2714C72.9833 26.2646 73.0177 26.2688 73.0482 26.2831C73.4324 26.4282 73.7078 26.7791 73.8725 27.1564C74.0371 27.5337 74.1067 27.9405 74.2096 28.3403C74.3468 28.8784 74.5438 29.4008 74.6732 29.9408C74.8026 30.4809 74.8663 31.0552 74.7301 31.5942Z" fill="black"/>
<path opacity="0.1" d="M77.6448 19.641C76.6904 19.9443 75.6609 19.4794 75.2573 18.5629C75.265 18.4711 75.2781 18.3798 75.2965 18.2895C75.3945 17.8387 75.814 18.0033 76.1453 18.1229C76.5441 18.2524 76.9296 18.4194 77.2969 18.6217C77.4088 18.6794 77.506 18.7619 77.5811 18.8628C77.7262 19.0794 77.6684 19.3676 77.6448 19.641Z" fill="black"/>
<circle cx="77.0529" cy="17.675" r="1.96018" fill="#BE6F72"/>
<path opacity="0.1" d="M82.3718 32.3234C82.3718 32.4861 82.1513 32.5381 81.9876 32.5292C81.3996 32.4949 80.8243 32.3332 80.2421 32.3822C79.506 32.4489 78.8298 32.8556 78.0918 32.8929C77.8075 32.9076 77.5184 32.8654 77.2381 32.9174C76.8755 32.985 76.552 33.2055 76.1825 33.2369C75.8621 33.2643 75.5455 33.1438 75.225 33.1565C75.0009 33.1699 74.7825 33.2321 74.585 33.3388C74.6064 33.1313 74.6993 32.9376 74.8477 32.7909C75.0819 32.5606 75.4151 32.6204 75.7386 32.5655C76.0612 32.4959 76.3763 32.3951 76.6794 32.2646C77.5299 31.9295 78.4253 31.7224 79.3365 31.6501C80.2516 31.5773 81.171 31.7228 82.019 32.0745C82.1424 32.1244 82.2587 32.1903 82.365 32.2705C82.3703 32.2876 82.3726 32.3055 82.3718 32.3234Z" fill="black"/>
<path d="M76.1463 21.2543L75.3524 20.9602L75.0172 20.8367C74.8806 20.7795 74.7369 20.7413 74.5899 20.7231C74.2057 20.6936 73.844 20.9495 73.6392 21.2758C73.4344 21.6022 73.3569 21.9913 73.2913 22.3706C73.2011 22.8894 73.1247 23.4101 73.0619 23.9329C72.9944 24.4049 72.96 24.8811 72.959 25.3579C72.9816 26.5713 73.2383 27.768 73.5206 28.949C73.6589 29.4726 73.7633 30.0046 73.8333 30.5416C73.8568 30.7631 73.8676 30.9856 73.8911 31.2081C73.9166 31.458 73.9577 31.705 73.9989 31.9529L74.2351 33.3613C74.5291 33.1526 74.8633 32.9693 75.225 32.9585C75.5455 32.9468 75.863 33.0663 76.1825 33.0389C76.5501 33.0085 76.8755 32.788 77.2381 32.7204C77.5184 32.6684 77.8075 32.7096 78.0927 32.6959C78.8298 32.6586 79.507 32.2509 80.2421 32.1852C80.8252 32.1323 81.4045 32.297 81.9886 32.3313C82.1513 32.3411 82.3718 32.2891 82.3718 32.1254C82.3718 32.0117 82.2581 31.9363 82.1591 31.8794C81.6925 31.5985 81.2485 31.2816 80.8311 30.9317C80.445 30.6259 80.0529 30.3123 79.7873 29.8987C79.1473 28.9039 79.3669 27.5582 78.8209 26.5085C78.377 25.6559 78.8209 24.5385 78.8209 23.5771C78.8209 23.0978 78.8209 22.6127 78.7082 22.1471C78.6378 21.8867 78.55 21.6314 78.4456 21.3827L78.0643 20.4173C78.0564 20.389 78.0408 20.3636 78.0192 20.3438C77.9936 20.3261 77.9631 20.3168 77.932 20.3173C77.703 20.3036 77.4772 20.3759 77.2989 20.5202C77.1195 20.6662 77.0048 20.8759 76.8284 21.0279C76.6353 21.1955 76.3864 21.3425 76.1463 21.2543Z" fill="#E3E8F4"/>
<path d="M77.4273 20.6976C77.49 20.429 77.5576 20.1497 77.737 19.94C77.9163 19.7302 78.2437 19.6195 78.475 19.7694C78.7376 19.94 78.7484 20.334 78.9729 20.5535C79.1689 20.7417 79.4629 20.7564 79.7295 20.7809C80.2088 20.8245 80.6797 20.9354 81.1281 21.1102C81.2156 21.1373 81.2952 21.185 81.3604 21.2494C81.4829 21.3885 81.4584 21.6022 81.5192 21.7757C81.6025 21.9991 81.8328 22.1412 81.922 22.3637C82.02 22.6107 81.922 22.8871 81.8396 23.1409C81.6916 23.5967 81.5985 24.0701 81.4545 24.5278C81.3104 24.9855 81.1056 25.4363 80.7684 25.7813C80.6194 25.9342 80.3979 26.0753 80.2019 25.9842L80.1264 26.5281C80.1044 26.6431 80.1044 26.7611 80.1264 26.8761C80.1497 26.9934 80.238 27.0871 80.3538 27.1172C80.3685 27.2015 80.4577 27.2416 80.5302 27.2877C80.6384 27.3617 80.7124 27.4758 80.7358 27.6047C80.7592 27.7336 80.73 27.8665 80.6547 27.9738C80.593 28.0571 80.5018 28.1227 80.4724 28.2217C80.4283 28.3648 80.5332 28.5158 80.6606 28.5942C80.788 28.6726 80.938 28.7088 81.0673 28.7843C81.3359 28.9392 81.4799 29.244 81.5721 29.54C81.6407 29.7634 81.6975 30.0055 81.8661 30.1682C81.9308 30.2299 82.0082 30.277 82.07 30.3417C82.1768 30.4679 82.2386 30.6262 82.2454 30.7915C82.2722 30.9964 82.2272 31.2042 82.118 31.3796C81.922 31.6599 81.5564 31.7432 81.2359 31.8696C80.7155 32.0833 80.2872 32.4655 79.8285 32.7909C79.6417 32.9414 79.4216 33.0449 79.1865 33.0928C78.869 33.1349 78.5563 32.9948 78.2368 32.982C78.0457 32.9838 77.8554 33.0088 77.6703 33.0565L77.0823 33.1839C77.1136 32.7282 76.8627 32.2715 76.7226 31.8373C76.458 31.0199 76.409 30.1457 76.4717 29.2891C76.5344 28.4325 76.7089 27.5876 76.8814 26.7467C77.0019 26.1586 76.9901 25.5441 77.1754 24.9727C77.3489 24.4229 77.5968 23.8946 77.688 23.3223C77.8369 22.3961 77.2175 21.611 77.4273 20.6976Z" fill="#3F3D56"/>
<path d="M81.8857 22.5098C81.9398 22.6094 81.9778 22.7169 81.9984 22.8283C82.0437 23.0009 82.1286 23.1607 82.2464 23.2948C82.345 23.3818 82.4325 23.4805 82.5071 23.5888C82.5972 23.7594 82.5629 23.9672 82.6051 24.1534C82.6541 24.3563 82.7962 24.5327 82.8168 24.7414C82.8174 24.8013 82.823 24.8609 82.8334 24.9198C82.8972 25.157 83.2461 25.2138 83.3235 25.451C83.3754 25.6049 83.2862 25.7725 83.3029 25.9342C83.3151 25.9842 83.3181 26.036 83.3117 26.0871C83.2896 26.1449 83.2507 26.1947 83.2 26.2302C82.8756 26.5401 82.6511 26.9397 82.5551 27.3779C82.4607 27.8137 82.4111 28.258 82.4071 28.7039L82.0239 28.1972C81.9833 28.1358 81.9314 28.0826 81.871 28.0404C81.822 28.011 81.7651 27.9963 81.7152 27.9669C81.5701 27.8846 81.5133 27.7101 81.4574 27.5533C81.3022 27.1192 81.0698 26.7168 80.7713 26.3654C80.6155 26.1822 80.4342 25.9979 80.3999 25.7598C80.3896 25.6504 80.3955 25.5401 80.4175 25.4324C80.5155 24.7904 80.6204 24.1328 80.933 23.5634C81.0791 23.2968 81.2682 23.0557 81.4084 22.7852C81.5025 22.6058 81.6348 22.1393 81.8857 22.5098Z" fill="#3F3D56"/>
<path d="M72.2171 23.1263C72.2189 23.2088 72.1979 23.2902 72.1563 23.3615C72.0799 23.45 71.9601 23.4879 71.8466 23.4595C71.735 23.4315 71.6299 23.3822 71.5369 23.3144C71.2638 23.1419 70.9907 22.9691 70.7176 22.796C70.5651 22.7041 70.4181 22.6033 70.2775 22.4941C70.0625 22.3126 69.8677 22.1086 69.6963 21.8855C69.22 21.2974 68.7985 20.6594 68.2683 20.1213C68.1242 19.9743 67.9743 19.8331 67.8351 19.6793C67.6449 19.4568 67.47 19.2217 67.3117 18.9756C67.1588 18.7492 67.0001 18.4983 67.0265 18.2278C67.0422 18.0749 67.1157 17.9337 67.1373 17.7818C67.1588 17.6299 67.101 17.4447 66.954 17.4035C66.9366 17.3991 66.9189 17.3962 66.9011 17.3947C66.8721 17.3916 66.8435 17.3854 66.8158 17.3761C66.6796 17.3192 66.7002 17.1085 66.7982 16.9977C66.8962 16.887 67.0412 16.8252 67.1304 16.7037C67.1719 16.6316 67.2184 16.5625 67.2696 16.4969C67.3352 16.4406 67.4136 16.4013 67.498 16.3822C68.0633 16.2156 68.6613 16.1931 69.2376 16.3166C69.3356 16.3381 69.4474 16.3773 69.4768 16.4724C69.4885 16.5187 69.4885 16.5672 69.4768 16.6135C69.4335 16.8068 69.4086 17.0037 69.4023 17.2016C69.4021 17.2429 69.4044 17.2841 69.4091 17.3251C69.4552 17.7406 69.7247 18.0925 69.9874 18.4169C70.2991 18.8031 70.6156 19.1863 70.9332 19.5685C71.1049 19.79 71.2969 19.9951 71.5065 20.1811C71.7025 20.3438 71.9564 20.4751 72.1093 20.6839C72.2338 20.8524 72.1936 21.0828 72.2073 21.2856C72.2529 21.8982 72.2562 22.5132 72.2171 23.1263Z" fill="#3F3D56"/>
<path d="M84.6643 27.2152C84.7611 27.1211 84.8484 27.0177 84.925 26.9065C85.0073 26.7687 85.0731 26.6216 85.121 26.4684L85.6894 24.8561C85.7796 24.6013 85.8698 24.3455 85.9835 24.0975C86.1011 23.83 86.2402 23.5722 86.3686 23.3135C86.6989 22.6325 86.9542 21.9178 87.1302 21.1818C87.1611 21.0806 87.1714 20.9743 87.1605 20.8691C87.1331 20.6996 87.0047 20.5672 86.8822 20.4467C86.759 20.3136 86.6186 20.1976 86.4647 20.1017C86.3086 20.0046 86.12 19.9742 85.9413 20.0174C85.6904 20.0909 85.5326 20.3477 85.4748 20.6055C85.417 20.8632 85.4385 21.1269 85.414 21.3895C85.3787 21.7659 85.2494 22.1295 85.218 22.5068C85.2013 22.7254 85.218 22.9459 85.1915 23.1635C85.1433 23.4492 85.0437 23.7238 84.8975 23.974C84.5791 24.57 84.1488 25.0991 83.6303 25.5324C83.4882 25.6373 83.3604 25.7601 83.25 25.898C83.1578 26.0358 83.0954 26.1914 83.0667 26.3547C83.0016 26.6034 83.0298 26.8673 83.1461 27.0966C83.3058 27.3691 83.6126 27.4886 83.9057 27.5494C84.3016 27.6317 84.3928 27.4965 84.6643 27.2152Z" fill="#BE6F72"/>
<path d="M77.0646 14.8347C77.2371 14.5105 77.5868 14.321 77.9526 14.3534C78.3202 14.4186 78.6189 14.6869 78.7229 15.0454C78.769 15.1914 78.7876 15.3531 78.868 15.4786C78.9895 15.6678 79.2149 15.7226 79.3835 15.8599C79.5869 16.0487 79.7056 16.3116 79.7128 16.589C79.7222 16.8696 79.678 17.1493 79.5825 17.4133C79.542 17.5259 79.5092 17.6412 79.4845 17.7583C79.4649 17.872 79.4629 17.9876 79.4453 18.1013C79.4014 18.3991 79.2392 18.6666 78.9954 18.8432C78.9611 18.8713 78.9182 18.8868 78.8739 18.8874C78.7974 18.8785 78.7504 18.7893 78.722 18.709C78.5661 18.2591 78.6034 17.7093 78.3162 17.3506C78.1856 17.2059 78.0277 17.0883 77.8516 17.0046C77.7798 16.9583 77.699 16.9279 77.6145 16.9154C77.4902 16.9221 77.3707 16.9658 77.2714 17.0409C77.0646 17.1796 76.835 17.2811 76.5932 17.3408C76.3488 17.3987 76.0913 17.3432 75.8924 17.1898C75.7572 17.0781 75.6582 16.9105 75.5082 16.8233C75.3583 16.7361 75.2015 16.741 75.0535 16.6812C74.8624 16.5999 74.7194 16.4349 74.6662 16.2342C74.6129 16.0334 74.6553 15.8194 74.781 15.654C74.879 15.5364 75.0241 15.4698 75.1113 15.3394C75.224 15.1708 75.2142 14.9395 75.2681 14.7376C75.3328 14.4785 75.5186 14.2665 75.767 14.1682C76.0088 14.0861 76.2762 14.142 76.4648 14.3142C76.5628 14.4025 76.6412 14.5161 76.7373 14.6083C76.93 14.7927 77.2032 14.8666 77.4625 14.8043" fill="#3F3D56"/>
<path opacity="0.1" d="M78.6759 29.2606C78.5591 29.3646 78.5179 29.5295 78.572 29.6762C78.5936 29.7223 79.605 29.5272 79.7119 29.5125C79.9785 29.4743 80.446 29.4929 80.6253 29.2489C80.9448 28.8167 79.9549 28.9127 79.7736 28.9284C79.4286 28.9578 78.9386 29.0048 78.6759 29.2606Z" fill="black"/>
<path d="M69.4748 16.6175C69.4316 16.8107 69.4066 17.0076 69.4003 17.2055C69.1063 17.2653 68.8005 17.1673 68.5182 17.0693L67.7077 16.7929C67.6054 16.7275 67.4698 16.7528 67.398 16.8507C67.2676 16.986 67.0883 17.2428 66.9079 17.3947C66.8789 17.3916 66.8503 17.3854 66.8227 17.3761C66.6864 17.3192 66.707 17.1085 66.805 16.9977C66.903 16.887 67.0481 16.8252 67.1373 16.7037C67.1788 16.6316 67.2253 16.5625 67.2765 16.4969C67.3421 16.4406 67.4205 16.4013 67.5048 16.3822C68.0702 16.2156 68.6682 16.1931 69.2445 16.3166C69.3425 16.3381 69.4542 16.3773 69.4836 16.4724C69.4932 16.5207 69.4901 16.5707 69.4748 16.6175Z" fill="#3F3D56"/>
<path opacity="0.1" d="M69.4748 16.6175C69.4316 16.8107 69.4066 17.0076 69.4003 17.2055C69.1063 17.2653 68.8005 17.1673 68.5182 17.0693L67.7077 16.7929C67.6054 16.7275 67.4698 16.7528 67.398 16.8507C67.2676 16.986 67.0883 17.2428 66.9079 17.3947C66.8789 17.3916 66.8503 17.3854 66.8227 17.3761C66.6864 17.3192 66.707 17.1085 66.805 16.9977C66.903 16.887 67.0481 16.8252 67.1373 16.7037C67.1788 16.6316 67.2253 16.5625 67.2765 16.4969C67.3421 16.4406 67.4205 16.4013 67.5048 16.3822C68.0702 16.2156 68.6682 16.1931 69.2445 16.3166C69.3425 16.3381 69.4542 16.3773 69.4836 16.4724C69.4932 16.5207 69.4901 16.5707 69.4748 16.6175Z" fill="black"/>
<path opacity="0.1" d="M76.8892 35.2245C77.0303 35.2716 77.1832 35.3402 77.2312 35.4813L76.0963 35.1931L75.5082 35.0432C75.4043 35.0167 75.0319 34.9863 74.9633 34.905C74.8653 34.7854 75.2132 34.8678 75.276 34.8766C75.4661 34.905 75.6562 34.9344 75.8454 34.9687C76.2021 35.0324 76.5452 35.1373 76.8892 35.2245Z" fill="black"/>
<path opacity="0.1" d="M77.3292 36.2291C77.2312 36.1634 76.9499 36.1713 76.8294 36.1428C76.653 36.1007 76.4795 36.0448 76.306 35.9909C75.9542 35.8763 75.6053 35.7459 75.2436 35.6616C75.177 35.6469 74.9496 35.643 74.9604 35.5587C74.9711 35.4744 75.1877 35.445 75.2416 35.4411C75.5621 35.4176 75.962 35.5675 76.26 35.6744C76.6397 35.8104 76.9994 35.997 77.3292 36.2291Z" fill="black"/>
<path opacity="0.1" d="M76.6099 34.3287C76.2502 34.2307 75.9238 34.0072 75.5533 33.9641C75.4568 33.9678 75.3618 33.9388 75.2838 33.8818C75.2402 33.839 75.21 33.7845 75.1966 33.725C75.4445 33.7122 75.7327 33.8171 75.9581 33.9161C76.0822 33.9693 76.2015 34.0329 76.3148 34.1062C76.3972 34.1562 76.5207 34.3003 76.6099 34.3287Z" fill="black"/>
<path d="M83.4666 25.5529C83.3409 26.3953 83.8526 27.2021 84.6682 27.4475C84.6201 27.6797 84.38 27.8081 84.2105 27.9738C83.9713 28.2061 83.8478 28.554 83.5656 28.7304C83.251 28.9264 82.8462 28.85 82.4875 28.7676C82.4548 28.764 82.4248 28.7483 82.4032 28.7235C82.3958 28.7118 82.3905 28.6989 82.3875 28.6853C82.2689 28.2511 82.1915 27.7876 82.313 27.3524C82.411 26.9819 82.6462 26.6663 82.8344 26.339C83.0226 26.0116 83.0402 25.6608 83.4666 25.5529Z" fill="#3F3D56"/>
<path d="M74.7036 19.9331C74.3242 19.9607 73.9558 20.0729 73.6255 20.2614C73.4059 20.3869 73.1805 20.5555 72.9296 20.5251C72.7816 20.5084 72.6356 20.4271 72.4915 20.4663C72.4103 20.499 72.3347 20.544 72.2671 20.5996C72.1973 20.6551 72.1036 20.67 72.0201 20.6388L71.9221 21.9952C71.8848 22.5108 71.8486 23.0371 71.9721 23.5399C72.0358 23.7966 72.1759 24.0299 72.1916 24.2906C72.2073 24.5513 72.1838 24.8189 72.2024 25.0825C72.22 25.3266 72.2739 25.5667 72.2877 25.8107C72.3151 26.2714 72.2014 26.7281 72.0916 27.176C71.926 27.8366 71.826 28.5119 71.5036 29.1097C71.4134 29.2754 71.3076 29.4439 71.3076 29.6321C71.3076 29.6556 71.3076 29.6782 71.3134 29.7007C71.2154 29.7546 71.1243 29.8056 71.041 29.8585C70.8548 29.9791 70.6558 30.1133 70.5794 30.3221C70.5176 30.4916 70.546 30.6857 70.4715 30.8494C70.3971 31.0131 70.2265 31.1297 70.1893 31.3061C70.1628 31.4345 70.2138 31.5697 70.1893 31.6981C70.1671 31.7646 70.1491 31.8323 70.1354 31.901C70.1256 32.048 70.25 32.1666 70.3735 32.247C70.5536 32.3657 70.7524 32.4532 70.9616 32.5057L71.5467 30.1829C72.0802 29.1966 72.524 28.1643 72.8728 27.0986C72.9725 26.7502 73.1007 26.4106 73.256 26.0832C73.3669 25.898 73.4652 25.7054 73.55 25.5069C73.6392 25.2599 73.648 24.9924 73.6911 24.7316C73.7423 24.4274 73.8194 24.128 73.9215 23.8368C74.0273 23.5222 74.1498 23.2086 74.1714 22.8783C74.2037 22.4059 74.0322 21.907 74.2145 21.4699C74.2919 21.3063 74.3926 21.1548 74.5134 21.02C74.7663 20.7103 74.9966 20.3859 75.2495 20.0762C75.1182 19.9361 74.8996 19.9214 74.7036 19.9331Z" fill="#3F3D56"/>
<g opacity="0.1">
<path d="M77.4655 14.513L77.343 14.522L77.3293 14.532C77.3752 14.5301 77.4208 14.5238 77.4655 14.513Z" fill="black"/>
<path d="M79.7079 16.5469C79.6875 16.7418 79.6454 16.9337 79.5825 17.1193C79.542 17.2319 79.5092 17.3472 79.4845 17.4643C79.4649 17.578 79.4629 17.6936 79.4453 17.8073C79.4014 18.1051 79.2392 18.3726 78.9954 18.5492C78.961 18.5773 78.9182 18.5928 78.8739 18.5933C78.7974 18.5845 78.7504 18.4953 78.722 18.415C78.5661 17.9651 78.6034 17.4153 78.3162 17.0565C78.1856 16.9118 78.0277 16.7943 77.8516 16.7106C77.7798 16.6643 77.699 16.6339 77.6144 16.6214C77.4902 16.6281 77.3707 16.6718 77.2714 16.7468C77.0646 16.8856 76.835 16.9871 76.5932 17.0467C76.3488 17.1046 76.0913 17.0492 75.8924 16.8958C75.7572 16.7841 75.6582 16.6165 75.5082 16.5293C75.3583 16.442 75.2015 16.4469 75.0535 16.3871C74.8662 16.3072 74.7255 16.1463 74.6712 15.95C74.6678 15.9378 74.6652 15.9254 74.6634 15.9128C74.6389 16.0222 74.6416 16.1359 74.6712 16.2441C74.7255 16.4403 74.8662 16.6012 75.0535 16.6812C75.2015 16.741 75.3681 16.7419 75.5082 16.8233C75.6484 16.9046 75.7572 17.0781 75.8924 17.1898C76.0913 17.3432 76.3488 17.3987 76.5932 17.3408C76.835 17.2811 77.0646 17.1796 77.2714 17.0409C77.3707 16.9658 77.4902 16.9221 77.6144 16.9154C77.699 16.9279 77.7798 16.9583 77.8516 17.0046C78.0255 17.0899 78.181 17.2085 78.3093 17.3535C78.5965 17.7122 78.5593 18.2621 78.7151 18.7119C78.7435 18.7933 78.7906 18.8815 78.867 18.8903C78.9141 18.8905 78.9596 18.8738 78.9954 18.8433C79.2402 18.6661 79.4029 18.3974 79.4462 18.0984C79.4639 17.9847 79.4658 17.869 79.4854 17.7554C79.5102 17.6383 79.5429 17.523 79.5835 17.4104C79.6789 17.1464 79.7232 16.8666 79.7138 16.5861C79.7118 16.5743 79.7099 16.5606 79.7079 16.5469Z" fill="black"/>
</g>
<path d="M73.5069 24.4111L73.4402 25.306C73.4304 25.4275 73.1982 28.3207 71.485 31.7021C70.0148 34.6021 67.1539 38.3794 61.7526 40.5023C61.3312 40.6689 60.8938 40.8244 60.4403 40.9688L59.9346 39.3811C61.2042 38.9815 62.4272 38.4466 63.5825 37.7855C66.3356 36.1958 68.4761 33.9269 69.9688 31.0072C70.7607 29.4527 71.3251 27.7924 71.6447 26.0773H65.4995V24.4111L73.5069 24.4111Z" fill="#FF5921"/>
<path opacity="0.1" d="M61.0911 40.5033C66.4914 38.3804 69.3533 34.6041 70.8224 31.704C72.5356 28.3227 72.7689 25.4314 72.7777 25.3079L72.8444 24.4131H73.5304L73.4638 25.3079C73.455 25.4295 73.2217 28.3227 71.5085 31.704C70.0384 34.6041 67.1775 38.3804 61.7772 40.5033C61.3557 40.6699 60.9179 40.8257 60.4638 40.9708L60.3972 40.762C60.6337 40.6777 60.865 40.5915 61.0911 40.5033Z" fill="white"/>
<path d="M50.2787 39.3811L49.773 40.9688C49.3189 40.8238 48.8811 40.6679 48.4597 40.5013C43.0593 38.3784 40.1975 34.6021 38.7283 31.7021C37.0151 28.3207 36.7819 25.4295 36.773 25.306L36.7064 24.4111H44.7098V26.0773H38.5637C38.8849 27.7926 39.451 29.4529 40.2445 31.0072C41.7372 33.9269 43.8767 36.1958 46.6298 37.7845C47.7852 38.4463 49.0086 38.9816 50.2787 39.3811Z" fill="#FF5921"/>
<path opacity="0.1" d="M49.1202 40.5033C43.7199 38.3804 40.8581 34.6041 39.3889 31.704C37.6757 28.3227 37.4424 25.4314 37.4336 25.3079L37.367 24.4131H36.6809L36.7476 25.3079C36.7564 25.4295 36.9896 28.3227 38.7028 31.704C40.173 34.6041 43.0339 38.3804 48.4342 40.5033C48.8556 40.6699 49.2934 40.8257 49.7475 40.9708L49.8141 40.762C49.5783 40.6777 49.347 40.5915 49.1202 40.5033Z" fill="white"/>
<path d="M64.3519 54.7293V63.7138H45.8605V54.7293L46.4485 53.9452C52.4408 51.8184 53.6551 46.2721 53.8972 44.0777C53.9333 43.7744 53.9539 43.4696 53.959 43.1642H56.2455C56.2506 43.4696 56.2712 43.7744 56.3073 44.0777C56.5533 46.2721 57.7676 51.8204 63.756 53.9452L64.3519 54.7293Z" fill="#FF5921"/>
<rect opacity="0.1" x="45.8605" y="54.7293" width="18.4914" height="1.12711" fill="black"/>
<path opacity="0.1" d="M47.4286 53.9452C53.4209 51.8184 54.6352 46.2721 54.8773 44.0777C54.9133 43.7744 54.934 43.4696 54.9391 43.1642H53.959C53.9539 43.4696 53.9333 43.7744 53.8972 44.0777C53.6512 46.2721 52.4369 51.8204 46.4485 53.9452L45.8605 54.7293V63.7138H46.8406V54.7293L47.4286 53.9452Z" fill="white"/>
<path opacity="0.1" d="M43.0515 24.4111H44.7098V26.0773H43.1985C43.1391 25.5285 43.0901 24.9731 43.0515 24.4111Z" fill="black"/>
<path opacity="0.1" d="M50.2787 39.3811L49.773 40.9688C49.3189 40.8238 48.8811 40.6679 48.4597 40.5013C47.7664 39.6547 47.1538 38.7451 46.6298 37.7845C47.7852 38.4463 49.0086 38.9816 50.2787 39.3811Z" fill="black"/>
<path opacity="0.1" d="M59.9336 39.3811C61.2032 38.9815 62.4262 38.4466 63.5815 37.7855C63.0572 38.7462 62.4447 39.6561 61.7517 40.5033C61.3302 40.6699 60.8928 40.8254 60.4393 40.9698L59.9336 39.3811Z" fill="black"/>
<path opacity="0.1" d="M67.1598 24.4111C67.1213 24.9731 67.0723 25.5285 67.0128 26.0773H65.5025V24.4111H67.1598Z" fill="black"/>
<path opacity="0.1" d="M56.3112 44.0777C55.5152 44.2319 54.6971 44.2319 53.9011 44.0777C53.9372 43.7744 53.9578 43.4696 53.9629 43.1642H56.2494C56.2545 43.4696 56.2751 43.7744 56.3112 44.0777Z" fill="black"/>
<path d="M43.2475 21.6512C43.2897 34.0063 48.5822 43.9973 55.1066 43.9973C61.6311 43.9973 66.9226 34.0063 66.9658 21.6512H43.2475Z" fill="#FF5921"/>
<path opacity="0.1" d="M45.3547 21.6512H43.2475C43.2897 34.0063 48.5822 43.9973 55.1066 43.9973C55.4597 43.9967 55.8121 43.9668 56.1602 43.9081C50.1288 42.9006 45.3949 33.3339 45.3547 21.6512Z" fill="white"/>
<rect x="48.8174" y="58.1685" width="12.5775" height="3.2343" fill="#3F3D56"/>
<path opacity="0.1" d="M49.4054 58.6095H61.3949V58.1685H48.8174V61.4028H49.4054V58.6095Z" fill="white"/>
<path fill-rule="evenodd" clip-rule="evenodd" d="M36.5398 33.5799C36.3134 33.5044 34.9805 32.4499 34.8795 31.9726C34.7786 31.4953 35.5842 27.0486 35.5842 27.0486C35.5842 27.0486 35.5097 27.0486 35.3882 27.0339V26.9623L35.5538 21.121C35.5538 21.121 36.233 17.2006 34.9501 17.429C33.6671 17.6573 34.4718 21.121 34.4718 21.121C34.4718 21.121 34.3258 22.8793 34.2228 23.4066C34.2152 23.4464 34.2053 23.4959 34.1939 23.5535C34.0591 24.2312 33.6999 26.0376 33.9817 26.6311C33.9929 26.6539 34.0054 26.6762 34.019 26.6977C34.019 26.6977 34.0699 28.9078 33.5162 29.2097C32.9879 29.4968 32.7684 30.9425 32.7498 31.0719L32.7213 31.0601C32.5636 30.9614 32.4251 30.8349 32.3126 30.6867C32.305 30.6772 32.2987 30.6673 32.2922 30.6572C32.2887 30.6517 32.2851 30.6462 32.2813 30.6406C33.0291 29.7993 33.004 28.5242 32.2235 27.7131C32.0485 27.5313 31.8432 27.3814 31.6168 27.2701C31.6102 27.0828 31.5659 26.8988 31.4864 26.7291C31.2316 26.1841 29.8203 25.4716 28.8176 25.4549C28.355 25.4412 27.9757 25.5726 27.8375 25.9342C27.7922 26.052 27.7849 26.1803 27.7777 26.3075C27.7736 26.3781 27.7696 26.4485 27.7591 26.5164C27.7003 26.9084 27.4484 27.2152 27.125 27.4592C26.9944 27.3134 26.8532 27.1775 26.7026 27.0525C26.3752 26.8016 25.7225 25.9744 25.7225 25.9744C25.7225 25.9744 23.6849 23.8643 23.534 23.286C23.383 22.7078 21.3474 19.2353 20.8946 19.84C20.4418 20.4447 22.4539 23.0802 22.4539 23.0802C22.4539 23.0802 22.8361 24.0377 23.1302 24.3612C23.4242 24.6846 25.6784 27.9581 25.6784 27.9581L25.7862 28.1816C25.3099 28.4325 24.8747 28.752 24.7209 29.2499C24.529 29.8739 24.8576 30.5008 25.17 31.0967C25.2246 31.2008 25.2787 31.304 25.3295 31.4061C25.994 32.7449 26.0891 34.4522 25.2315 35.6753C24.4631 36.7554 23.1302 37.269 21.8825 37.7179C22.4851 38.191 23.2336 38.4395 23.9995 38.4206C23.7114 39.2556 22.6901 39.532 21.8198 39.6869C22.2765 40.1259 22.9302 40.2857 23.5575 40.3827C23.8647 40.435 24.176 40.4596 24.4876 40.4562H24.564L24.6405 40.4504C24.7467 40.4433 24.8524 40.4299 24.9571 40.4102C25.4099 40.318 25.8499 40.0711 26.0812 39.6712C26.1408 39.5671 26.1887 39.4516 26.2364 39.3363C26.3455 39.0726 26.4541 38.8104 26.7016 38.6911C26.7943 38.6493 26.8941 38.6256 26.9956 38.6215H27.1868L28.6696 38.6362H28.8588C29.2773 38.6264 29.7242 38.5539 29.9369 38.2079C30.0244 38.0399 30.0704 37.8534 30.0712 37.664C30.0896 37.3883 30.0864 37.1079 30.0832 36.8276V36.8276C30.0809 36.6304 30.0787 36.4333 30.0839 36.2379C30.2103 37.0994 30.3427 38.4421 30.028 38.9381C29.7725 39.3139 29.4627 39.6497 29.1087 39.9348C29.0197 40.0096 28.9383 40.093 28.8657 40.1838C28.8176 40.2181 28.7892 40.2367 28.7892 40.2367L28.7588 40.3278C28.6471 40.4973 28.5662 40.685 28.5197 40.8826C28.5026 40.9333 28.4962 40.987 28.5011 41.0404C28.5152 41.0691 28.4759 41.1349 28.4306 41.2108C28.3662 41.3187 28.2896 41.4469 28.3374 41.5177C27.6396 42.3361 27.5073 43.5759 27.5073 43.5759L26.2331 45.5106C25.5784 47.2306 24.5983 47.407 24.5983 47.407C24.5983 47.407 22.2961 45.8624 22.2334 45.787C22.1707 45.7115 21.2905 45.3342 21.2905 45.3342C21.1868 45.1522 21.0283 45.0075 20.8377 44.9206C20.5359 44.7951 20.5104 44.3325 20.5104 44.3325C20.4731 43.2397 19.8312 43.1564 19.8312 43.1564C19.3137 43.1123 18.9187 43.2044 18.6149 43.373L18.5227 43.3798C18.0778 43.4161 17.5427 43.4563 16.9546 43.4955C15.3188 43.6033 14.9297 44.6628 14.9297 44.6628C14.9297 44.6628 14.7288 44.8892 14.9925 45.1342C15.2305 45.3554 16.629 45.1772 16.9514 45.1362L16.9515 45.1362C16.9776 45.1328 16.9967 45.1304 17.0075 45.1292C16.8814 45.1419 16.7541 45.1327 16.6312 45.1019C16.8968 45.0921 17.2624 45.0823 17.574 45.0823H17.6495C17.6299 45.2475 17.6204 45.4138 17.6211 45.5802C17.6211 45.8938 18.4884 46.0947 18.4884 46.0947L21.1298 48.4469C21.1298 48.4469 22.7901 49.1889 23.8466 50.2562C24.9031 51.3235 25.8372 50.4022 25.8372 50.4022C26.9555 50.1258 30.1731 46.2358 30.176 46.2319C30.176 46.3456 30.2437 50.1288 30.3721 50.8883C30.3772 50.9269 30.3867 50.9647 30.4005 51.001C30.5514 51.3274 30.3495 52.2193 30.2623 52.5957C30.2067 52.9106 30.1853 53.2307 30.1986 53.5503C30.1986 53.5503 28.9921 58.1567 29.0921 58.5615C29.192 58.9662 28.4383 60.847 28.4383 60.847V62.4152L28.5697 62.4083C28.5526 62.4336 28.5369 62.4598 28.5226 62.4867L28.5138 62.5034C28.5138 62.5034 29.3185 62.6788 29.8595 62.6289C30.4005 62.5789 31.3296 63.0454 31.3296 63.0454C31.3296 63.0454 31.6442 63.1944 32.6126 63.2571C33.5809 63.3198 33.5809 62.8298 33.5809 62.8298C33.4701 62.1623 31.9402 61.9389 31.8932 61.932C31.7697 61.8546 31.654 61.7703 31.559 61.6978L31.5394 61.6821C31.5458 61.6674 31.5513 61.6523 31.556 61.637C31.7197 60.9705 30.8141 60.6814 30.8141 60.6814V60.5187C31.4021 60.2168 31.5188 58.1449 31.5188 58.1449C31.5188 58.1449 32.4009 55.583 32.5243 55.1557C32.6478 54.7283 32.5243 54.0883 32.5243 54.0883L32.6126 53.5356C32.6126 53.5356 32.8017 53.1592 32.8017 53.0837C32.8262 52.8925 32.8998 52.7108 33.0154 52.5564C33.1536 52.3928 32.8644 52.0037 32.8644 52.0037L33.1163 51.3509V50.6345L33.7044 48.0353C33.7044 48.0353 34.3209 45.0078 34.1072 44.0169C33.8935 43.026 34.3591 42.5223 34.3591 42.5223C34.3171 42.5443 34.2739 42.564 34.2297 42.5811C34.2886 42.445 34.3393 42.3056 34.3816 42.1636L35.7047 42.3272V42.3468H36.182C36.182 42.3468 36.0311 40.4847 36.0311 39.7339C36.0311 38.9832 36.5398 36.2889 36.5398 36.2889C36.5398 36.2889 36.7662 33.6554 36.5398 33.5799ZM30.6581 31.5785L30.6581 31.5785L30.6543 31.6344L30.6279 31.6746L30.5789 31.6334L30.5191 31.7266L30.5014 31.7354C30.4416 31.7045 30.3952 31.6064 30.3533 31.5179C30.3047 31.4152 30.2623 31.3256 30.2123 31.3698L30.1996 31.3806C30.179 31.3571 30.1584 31.3502 30.1368 31.3698L30.1172 31.3865V31.2992C30.2965 31.3454 30.4809 31.3688 30.6661 31.3688C30.6667 31.3774 30.6665 31.386 30.6663 31.3942L30.6661 31.4061C30.6661 31.462 30.6621 31.5196 30.6581 31.5785ZM35.0966 40.0779H35.0676C35.0606 40.1201 35.0546 40.1602 35.0486 40.2014L35.0966 40.0779ZM30.2358 62.305L30.0555 62.259L30.1535 62.242L30.2446 62.303L30.2554 62.311L30.2358 62.305ZM31.899 61.9349C31.9578 61.9722 32.0186 62.0085 32.0784 62.0398C32.0071 61.9931 31.9395 61.9568 31.9099 61.9408C31.9053 61.9384 31.9017 61.9364 31.899 61.9349Z" fill="url(#paint1_linear_0_45076)"/>
<path d="M35.7175 38.2265L34.5306 41.3197H34.8187L33.7024 42.2096L35.7175 42.4605V38.2265Z" fill="#F86D70"/>
<path opacity="0.1" d="M35.7175 38.2265L34.5306 41.3197L34.2317 41.2393L33.7024 42.2096L35.7175 42.4605V38.2265Z" fill="black"/>
<path d="M33.8563 40.2053H35.7175L36.4006 34.5845H33.8563V40.2053Z" fill="#F86D70"/>
<path opacity="0.1" d="M33.8563 40.2053H35.7175L36.4006 34.5845H33.8563V40.2053Z" fill="black"/>
<path d="M30.2211 35.9155L30.623 35.8478L31.5462 35.691C31.5462 35.691 34.3189 35.0657 34.8913 35.0148C35.238 34.969 35.5761 34.8726 35.8949 34.7286C36.0448 34.6639 36.1399 34.6149 36.1399 34.6149L35.1412 32.7909L33.5917 31.6423C33.5917 31.6423 32.6116 31.4335 32.197 30.8631C32.009 30.6137 31.9606 30.2858 32.0686 29.9928C32.3215 29.2087 30.5583 30.7425 30.5583 30.7425C30.5583 30.7425 30.5749 31.1101 30.5583 31.5786C30.5583 31.6707 30.5495 31.7667 30.5426 31.8647C30.5426 31.9294 30.5338 31.9941 30.5269 32.0608C30.4838 32.5263 30.3956 33.0056 30.2211 33.2918C29.7948 33.9915 30.2211 35.9155 30.2211 35.9155Z" fill="#FBBEBE"/>
<path opacity="0.1" d="M30.5583 31.6178H30.5975C30.6681 31.6178 30.7249 31.4678 30.7935 31.4609C31.3453 31.408 31.8491 31.2924 32.199 30.9013C32.0115 30.6521 31.9631 30.3248 32.0706 30.032C32.3234 29.2479 30.5602 30.7808 30.5602 30.7808C30.5602 30.7808 30.5789 31.1493 30.5583 31.6178Z" fill="black"/>
<path d="M28.4119 29.3949C28.4116 29.9648 28.6379 30.5114 29.0408 30.9143C29.4438 31.3173 29.9904 31.5435 30.5603 31.5433C30.6308 31.5433 30.7004 31.5433 30.77 31.5335C31.9237 31.4203 32.7795 30.4123 32.7041 29.2556C32.6286 28.0988 31.6491 27.2105 30.4906 27.2481C29.332 27.2858 28.4121 28.2357 28.4119 29.3949Z" fill="#FBBEBE"/>
<path d="M27.7523 26.1341C27.6817 26.3164 27.7033 26.5203 27.6749 26.7134C27.57 27.4102 26.8614 27.8277 26.2204 28.1198C25.5794 28.4119 24.8561 28.7578 24.6523 29.4312C24.4288 30.1594 24.9169 30.8895 25.256 31.5727C25.9166 32.9036 26.0107 34.6012 25.158 35.8184C24.4004 36.8965 23.0802 37.4081 21.8374 37.857C22.4356 38.3276 23.1789 38.575 23.9397 38.5568C23.6545 39.3869 22.6401 39.6624 21.7757 39.8152C22.2295 40.2524 22.8793 40.4111 23.5016 40.5072C23.9554 40.5778 24.421 40.6238 24.8738 40.5327C25.3266 40.4415 25.7558 40.1955 25.9891 39.7976C26.1851 39.4575 26.2518 38.9939 26.6056 38.8224C26.7653 38.7596 26.9374 38.7344 27.1084 38.7489L28.5785 38.7646C29.0362 38.7646 29.5782 38.7293 29.8144 38.3382C29.9015 38.1712 29.9472 37.9856 29.9477 37.7972C30.0114 36.8328 29.8262 35.8135 30.2231 34.9334C30.3427 34.6678 29.5753 34.2473 29.6556 33.9661C29.932 32.9987 30.0016 32.2372 29.9987 31.2306C29.9987 30.4514 30.5054 29.7801 30.9239 29.1224C31.3424 28.4648 31.6923 27.6347 31.362 26.929C30.9895 26.142 28.1924 24.9982 27.7523 26.1341Z" fill="#3F3D56"/>
<path d="M29.7095 62.0212L30.0839 62.2692L30.1418 62.3074L30.1525 62.3142L30.5965 62.6083L31.6335 62.7827L32.5449 62.72C32.5449 62.72 32.8076 62.1712 32.395 62.1839C32.2628 62.1771 32.134 62.1399 32.0186 62.0751L31.9618 62.0467C31.902 62.0153 31.8422 61.98 31.7834 61.9428C31.6609 61.8654 31.5452 61.7811 31.4521 61.7095C31.3149 61.6037 31.2238 61.5233 31.2238 61.5233L29.7095 62.0212Z" fill="#FBBEBE"/>
<path opacity="0.1" d="M30.0888 62.2692L30.1466 62.3074L30.1574 62.3142L30.6014 62.6083L31.6383 62.7827L32.5498 62.72C32.5498 62.72 32.8125 62.1712 32.3999 62.1839C32.2677 62.1771 32.1389 62.1399 32.0235 62.0751C32.096 62.1319 32.1568 62.1937 32.1627 62.2456C32.1793 62.3858 31.4884 62.6377 31.4884 62.6377L30.5142 62.3799C30.5142 62.3799 30.3485 62.3329 30.1221 62.2741L30.1006 62.2682L30.0888 62.2692Z" fill="black"/>
<path d="M28.4227 62.5083C28.4227 62.5083 29.2214 62.6828 29.7585 62.6328C30.2956 62.5828 31.2208 63.0454 31.2208 63.0454C31.2208 63.0454 31.5335 63.1924 32.495 63.2551C33.4564 63.3179 33.4564 62.8298 33.4564 62.8298C33.3467 62.1662 31.8275 61.9477 31.7805 61.9379C31.7991 61.9477 31.8785 61.9879 31.9588 62.0418C32.0666 62.1123 32.1833 62.2045 32.1921 62.279C32.2088 62.4181 31.5178 62.671 31.5178 62.671L30.5436 62.4142C30.5436 62.4142 30.378 62.3662 30.1516 62.3074H30.13C29.7943 62.2159 29.4532 62.1456 29.1087 62.0967C28.6893 62.0516 28.4746 62.4083 28.4305 62.4887C28.4273 62.495 28.4247 62.5015 28.4227 62.5083H28.4227Z" fill="#3F3D56"/>
<path d="M15.8324 44.8833L16.2568 45.2087C16.2568 45.2087 16.3803 45.2028 16.5645 45.1969H16.6233C16.887 45.1871 17.2506 45.1773 17.5593 45.1773C17.7589 45.1684 17.9589 45.1795 18.1562 45.2107C18.3679 45.2851 18.7443 43.9993 18.7443 43.9993L18.3189 43.9013L18.1778 43.8679L18.0797 43.8444L17.7338 43.7631L16.6851 43.8826L15.948 44.357L15.8324 44.8833Z" fill="#FBBEBE"/>
<path opacity="0.1" d="M15.8324 44.8833L16.2568 45.2087C16.2568 45.2087 16.3803 45.2028 16.5645 45.1969C16.48 45.1643 16.4103 45.1019 16.3685 45.0215C16.0941 44.26 17.4554 43.9346 17.4554 43.9346L18.0895 43.9071L18.213 43.9013H18.311L18.1699 43.8679L18.0719 43.8444L17.7259 43.7631L16.6772 43.8826L15.9402 44.357L15.8324 44.8833Z" fill="black"/>
<path d="M14.9954 45.2273C15.2522 45.4645 16.934 45.2273 17.0046 45.2214C16.877 45.2358 16.7478 45.2269 16.6233 45.195C16.4986 45.1726 16.3906 45.0952 16.3293 44.9843C16.0549 44.2217 17.4162 43.8973 17.4162 43.8973L18.0504 43.8699L18.1729 43.864L19.7145 43.7974L19.789 43.373C19.789 43.373 19.2882 43.42 18.5022 43.4828C18.0602 43.519 17.5221 43.5592 16.9409 43.5974C15.3169 43.7052 14.9307 44.7588 14.9307 44.7588C14.9307 44.7588 14.7337 44.9843 14.9954 45.2273Z" fill="#3F3D56"/>
<path d="M33.8573 26.831C33.8677 26.8543 33.8802 26.8766 33.8945 26.8976L34.2689 27.4465L35.2431 27.5445L35.2539 27.1584L35.4176 21.3484C35.4176 21.3484 36.0919 17.4515 34.8178 17.676C33.5436 17.9004 34.3434 21.3484 34.3434 21.3484C34.3434 21.3484 34.1983 23.0968 34.0964 23.6222C33.9974 24.1299 33.5534 26.1939 33.8573 26.831Z" fill="#FBBEBE"/>
<path d="M31.6707 41.2619L31.9481 41.7362L32.5684 42.7977C32.5684 42.7977 33.6936 43.2103 33.9817 42.8957C34.1395 42.7242 34.3101 42.1253 34.4296 41.6216C34.5277 41.2138 34.5933 40.8698 34.5933 40.8698L31.6707 41.2619Z" fill="#FBBEBE"/>
<path opacity="0.1" d="M31.6707 41.2619L31.9481 41.7362C31.9654 41.7213 31.9812 41.7045 31.9951 41.6862C32.3087 41.2864 33.6897 41.601 34.4296 41.6265C34.5277 41.2187 34.5933 40.8747 34.5933 40.8747L31.6707 41.2619Z" fill="black"/>
<path opacity="0.1" d="M17.5593 45.1754C17.7589 45.1664 17.9589 45.1776 18.1562 45.2087C18.3679 45.2832 18.7443 43.9973 18.7443 43.9973L18.1778 43.864L19.7194 43.7974L19.7939 43.373C19.7939 43.373 19.2931 43.42 18.5071 43.4828C18.3447 43.5763 18.1997 43.6973 18.0788 43.8405L18.0553 43.8699C17.7269 44.2727 17.6054 44.7922 17.5593 45.1754Z" fill="black"/>
<path opacity="0.1" d="M29.7095 62.0212L30.1418 62.3074C30.7867 62.1907 31.3757 62.0075 31.4453 61.7193C31.4456 61.7147 31.4456 61.7102 31.4453 61.7056C31.3081 61.5997 31.2169 61.5194 31.2169 61.5194L29.7095 62.0212Z" fill="black"/>
<path opacity="0.1" d="M28.4315 62.4916C29.001 62.4633 29.5684 62.4025 30.131 62.3093C29.795 62.2172 29.4536 62.1462 29.1087 62.0967C28.6902 62.0516 28.4756 62.4083 28.4315 62.4916Z" fill="black"/>
<path d="M17.6064 45.6703C17.6064 45.983 18.4679 46.1829 18.4679 46.1829L21.0916 48.5185C21.0916 48.5185 22.7401 49.2555 23.7888 50.3169C24.8375 51.3784 25.7627 50.4669 25.7627 50.4669C26.8741 50.1925 30.0751 46.3201 30.0751 46.3201C30.0751 46.3201 30.1496 50.7423 30.2996 51.0667C30.4495 51.3911 30.2496 52.2781 30.1623 52.6535C30.1073 52.9665 30.0863 53.2846 30.0996 53.6022C30.0996 53.6022 28.901 58.1861 29.0009 58.586C29.1009 58.9859 28.3511 60.8598 28.3511 60.8598V62.4211C28.3511 62.4211 31.2865 62.3084 31.4482 61.6468C31.6099 60.9852 30.7122 60.6971 30.7122 60.6971V60.5344C31.3002 60.2345 31.411 58.1743 31.411 58.1743C31.411 58.1743 32.2862 55.6261 32.4107 55.2017C32.5351 54.7773 32.4107 54.1393 32.4107 54.1393L32.4979 53.5904C32.4979 53.5904 32.6851 53.2151 32.6851 53.1406C32.7096 52.9504 32.7828 52.7697 32.8978 52.6162C33.035 52.4535 32.7478 52.0664 32.7478 52.0664L32.9977 51.4166V50.7051L33.5858 48.1196C33.5858 48.1196 34.1984 45.1087 33.9857 44.1218C33.773 43.1348 34.2356 42.636 34.2356 42.636C33.233 43.1613 32.7272 41.992 32.5616 41.4893C32.5195 41.3599 32.4989 41.2736 32.4989 41.2736C32.4989 41.2736 31.1219 40.7659 29.8399 40.8875C29.5795 40.9086 29.323 40.9629 29.0764 41.0492C27.6523 41.5618 27.4279 43.6847 27.4279 43.6847L26.1665 45.6086C25.5167 47.3198 24.5425 47.4943 24.5425 47.4943C24.5425 47.4943 22.2569 45.9585 22.1903 45.883C22.1236 45.8075 21.2533 45.4331 21.2533 45.4331C21.1504 45.252 20.993 45.108 20.8034 45.0215C20.5035 44.8961 20.479 44.4334 20.479 44.4334C20.4418 43.3465 19.8047 43.2573 19.8047 43.2573C17.5936 43.0731 17.6064 45.3587 17.6064 45.6703Z" fill="#3F3D56"/>
<rect x="31.6707" y="39.5634" width="1.34861" height="4.18401" transform="rotate(-180 31.6707 39.5634)" fill="#F86D70"/>
<rect opacity="0.1" x="31.6707" y="39.5634" width="1.34861" height="4.18401" transform="rotate(-180 31.6707 39.5634)" fill="black"/>
<path opacity="0.1" d="M33.8563 26.8222C33.8561 26.8251 33.8561 26.8281 33.8563 26.831C33.8667 26.8543 33.8792 26.8766 33.8935 26.8976L34.2679 27.4465L35.2422 27.5445L35.2529 27.1583C34.9491 27.1348 34.2572 27.0515 33.8563 26.8222Z" fill="black"/>
<path d="M33.8945 26.8976C33.8945 26.8976 33.9445 29.095 33.3947 29.3949C32.8448 29.6948 32.6312 31.2571 32.6312 31.2571C32.6312 31.2571 34.2973 32.3528 34.6688 32.835C35.0402 33.3172 35.8929 34.4659 35.7175 34.7403C35.542 35.0148 36.1428 36.2644 36.1428 36.2644C36.1428 36.2644 35.0432 38.5127 35.2931 39.3625C35.543 40.2122 35.5675 42.4595 35.5675 42.4595H36.0429C36.0429 42.4595 35.8929 40.6111 35.8929 39.8613C35.8929 39.1115 36.3918 36.4388 36.3918 36.4388C36.3918 36.4388 36.6172 33.8161 36.3918 33.7416C36.1664 33.6671 34.8432 32.6175 34.7433 32.1421C34.6433 31.6668 35.443 27.2417 35.443 27.2417C35.443 27.2417 34.4189 27.1976 33.8945 26.8976Z" fill="#F86D70"/>
<path opacity="0.1" d="M30.2966 34.9912C30.3422 35.297 30.4535 35.5892 30.623 35.8478L31.5462 35.691C31.5462 35.691 34.3189 35.0657 34.8913 35.0148C35.238 34.969 35.5761 34.8726 35.8949 34.7286C35.6752 33.9501 35.2464 33.2468 34.6551 32.6949L34.3032 32.3685C33.7847 31.8871 33.1838 31.503 32.5292 31.2345C32.5704 31.2688 35.4793 33.7524 34.8423 34.2395C34.2052 34.7266 32.49 33.5407 32.49 33.5407L30.5397 31.8647L30.4691 31.804L30.3564 31.9794C30.4137 32.003 30.4697 32.0298 30.524 32.0598C31.1887 32.4246 31.682 33.0377 31.8961 33.7651C32.297 35.1128 30.2966 34.9912 30.2966 34.9912Z" fill="black"/>
<path d="M29.6968 41.2364C29.6968 41.2364 31.5452 42.2606 31.9941 41.6862C32.0921 41.5598 32.2989 41.5049 32.5567 41.4902C32.5145 41.3609 32.494 41.2746 32.494 41.2746C32.494 41.2746 31.1169 40.7669 29.835 40.8885C29.7507 41.1002 29.6968 41.2364 29.6968 41.2364Z" fill="#444053"/>
<path d="M30.5475 31.8059L32.5684 33.5446C32.5684 33.5446 34.2767 34.7345 34.9207 34.2434C35.5646 33.7524 32.6067 31.2375 32.6067 31.2375C33.2599 31.5068 33.8601 31.8897 34.3797 32.3685L34.7315 32.6949C35.6567 33.5525 35.8655 33.5525 35.8968 34.8129C35.9047 35.1236 35.7988 35.5695 35.7175 35.6499C35.4176 35.9439 35.2078 38.0795 35.2539 38.3294C35.3 38.5794 34.6952 40.7365 34.8913 41.3364C35.0873 41.9362 32.441 41.0364 31.9931 41.6118C31.5452 42.1871 29.6968 41.1619 29.6968 41.1619C29.6968 41.1619 30.721 38.5382 30.9709 38.3637C31.2208 38.1893 31.5207 36.8397 30.9709 36.2154C30.4211 35.5911 30.3721 34.9912 30.3721 34.9912C30.3721 34.9912 32.3714 35.1147 31.9706 33.7671C31.7424 32.9767 31.1814 32.3248 30.4338 31.9814L30.5475 31.8059Z" fill="#E8E8F0"/>
<path opacity="0.1" d="M33.2447 36.2281C33.2447 36.2281 32.4695 37.6894 31.4668 38.0687C31.4345 38.0805 31.4031 38.0913 31.3688 38.1011C30.3221 38.4196 33.3231 36.6809 33.2447 36.2281Z" fill="black"/>
<path d="M22.4029 23.2997C22.4029 23.2997 22.7773 24.2494 23.0773 24.5738C23.3772 24.8982 25.6 28.1463 25.6 28.1463L25.7882 28.5383L25.9499 28.8725L27.374 28.7226L27.472 28.1482L27.4171 28.0816C27.274 27.9101 26.8839 27.4494 26.6222 27.2485C26.2978 26.9996 25.648 26.1753 25.648 26.1753C25.648 26.1753 23.6251 24.0759 23.4752 23.5016C23.3252 22.9273 21.3013 19.4832 20.8524 20.0791C20.4036 20.675 22.4029 23.2997 22.4029 23.2997Z" fill="#FBBEBE"/>
<g opacity="0.1">
<path d="M26.535 38.7489C26.364 38.7341 26.192 38.759 26.0322 38.8214C25.6794 38.993 25.6127 39.4565 25.4167 39.7966C25.1874 40.1946 24.7502 40.4406 24.3004 40.5317C24.211 40.5491 24.1207 40.5615 24.0299 40.5689C24.3164 40.5968 24.6054 40.5843 24.8884 40.5317C25.3383 40.4406 25.7754 40.1946 26.0048 39.7966C26.2008 39.4565 26.2674 38.993 26.6203 38.8214C26.7129 38.7797 26.8128 38.7564 26.9143 38.7528L26.535 38.7489Z" fill="black"/>
<path d="M30.0163 31.2306C30.0163 30.4515 30.523 29.7801 30.9405 29.1225C31.358 28.4648 31.7089 27.6347 31.3786 26.929C31.0964 26.3263 29.3949 25.5177 28.4129 25.6774C29.3743 25.8019 30.5593 26.435 30.7906 26.929C31.1209 27.6347 30.77 28.4648 30.3525 29.1225C29.9349 29.7801 29.4263 30.4515 29.4282 31.2306C29.4282 32.2362 29.3606 32.9948 29.0842 33.9661C29.0048 34.2454 29.7703 34.6678 29.6527 34.9324C29.2548 35.8145 29.441 36.8319 29.3773 37.7963C29.376 37.9847 29.3299 38.1701 29.243 38.3373C29.047 38.6597 28.6451 38.743 28.2541 38.7607H28.5961C29.0529 38.7607 29.5949 38.7254 29.8311 38.3343C29.918 38.1672 29.964 37.9817 29.9653 37.7933C30.029 36.8289 29.8428 35.8106 30.2407 34.9295C30.3603 34.6649 29.5929 34.2434 29.6723 33.9631C29.9487 32.9987 30.0183 32.2362 30.0163 31.2306Z" fill="black"/>
</g>
<path opacity="0.1" d="M25.7882 28.5364L25.9499 28.8706L27.374 28.7206L27.472 28.1463L27.4171 28.0796C27.2652 28.1541 26.1273 28.702 25.7882 28.5364Z" fill="black"/>
<path opacity="0.1" d="M31.0464 32.293C31.0464 32.293 30.6965 31.7442 30.4966 31.8932C30.2966 32.0421 30.2192 31.4433 30.1045 31.5433C29.9898 31.6432 29.6556 31.9216 29.5165 31.5325C29.4077 31.2228 28.2237 29.2636 27.7435 28.4756C27.62 28.2717 27.5426 28.1463 27.5426 28.1463C27.5426 28.1463 26.1939 28.8206 25.8695 28.5961V29.0705L26.144 29.096L27.6141 31.8402C27.6141 31.8402 28.0767 32.5763 28.0453 32.8331C28.014 33.0899 28.6383 34.214 28.7383 34.2885C28.8382 34.363 29.9144 35.6126 29.9144 35.6126C29.9144 35.6126 30.4642 38.3108 29.9889 39.0606C29.5135 39.8103 28.6902 40.3592 28.6902 40.3592C28.6902 40.3592 28.4423 41.0835 28.4785 41.159C28.5148 41.2344 28.1904 41.5588 28.3403 41.6588C28.4903 41.7588 28.6902 42.4576 28.6902 42.4576C28.6902 42.4576 29.39 41.3334 29.7683 41.159C30.1467 40.9845 30.6308 38.6852 30.6308 38.6852C30.6308 38.6852 30.769 37.3307 30.7798 36.4565C30.7906 35.5822 30.7465 32.293 31.0464 32.293Z" fill="black"/>
<path d="M30.9709 32.293C30.9709 32.293 30.622 31.7442 30.4221 31.8932C30.2221 32.0421 30.1437 31.4433 30.03 31.5433C29.9163 31.6432 29.5821 31.9216 29.442 31.5325C29.3322 31.2228 28.1482 29.2636 27.669 28.4756L27.4681 28.1463C27.4681 28.1463 26.1195 28.8206 25.7941 28.5961V29.0705L26.0695 29.096L27.5396 31.8402C27.5396 31.8402 28.0032 32.5763 27.9709 32.8331C27.9385 33.0899 28.5589 34.214 28.6638 34.2885C28.7686 34.363 29.8399 35.6126 29.8399 35.6126C29.8399 35.6126 30.3897 38.3108 29.9154 39.0606C29.6648 39.4372 29.3599 39.7747 29.0107 40.0622C28.7174 40.3042 28.511 40.6352 28.4227 41.0051C28.4057 41.0555 28.3996 41.109 28.405 41.1619C28.4413 41.2364 28.1169 41.5618 28.2668 41.6617C28.4168 41.7617 28.6187 42.4635 28.6187 42.4635C28.6187 42.4635 29.3185 41.3393 29.6968 41.1648C30.0751 40.9904 30.5603 38.6911 30.5603 38.6911C30.5603 38.6911 30.6975 37.3366 30.7092 36.4624C30.721 35.5881 30.6769 32.293 30.9709 32.293Z" fill="#F86D70"/>
<path opacity="0.1" d="M27.5484 43.6602C27.5484 43.6602 28.5981 43.8562 29.0186 44.159C29.439 44.4619 27.42 43.6847 27.42 43.6847L27.5484 43.6602Z" fill="black"/>
<path opacity="0.1" d="M30.0721 46.3201C30.0721 46.3201 31.1669 47.2326 30.9709 48.0569C30.7749 48.8811 30.2691 50.955 30.2691 50.955L30.0721 46.3201Z" fill="black"/>
<path opacity="0.1" d="M20.4976 44.5658C20.4976 44.5658 18.955 44.7343 19.0549 44.9343C19.1549 45.1342 20.4976 44.75 20.4976 44.75V44.5658Z" fill="black"/>
<path opacity="0.1" d="M32.343 52.1536C32.343 52.1536 32.441 52.2781 31.8687 52.1536C31.2963 52.0292 31.7187 51.645 31.7187 51.645L32.343 52.1536Z" fill="black"/>
<path opacity="0.1" d="M32.147 53.8776C32.147 53.8776 31.3629 54.0021 30.9425 53.8776C30.522 53.7531 32.147 53.8776 32.147 53.8776Z" fill="black"/>
<path opacity="0.1" d="M30.5338 60.6226C30.5338 60.6226 30.3966 60.4726 29.7095 60.7471C29.0225 61.0215 28.7481 61.0342 28.5481 60.9431C28.3482 60.8519 30.5338 60.6226 30.5338 60.6226Z" fill="black"/>
<path opacity="0.1" d="M31.2963 44.3531L30.3221 45.7085C30.3221 45.7085 30.8464 44.5216 31.2963 44.3531Z" fill="black"/>
<path opacity="0.1" d="M29.4028 31.8932C29.4028 31.8932 29.3606 32.343 28.7324 32.5185C28.1041 32.6939 27.9846 32.836 27.9846 32.836" fill="black"/>
<path opacity="0.1" d="M27.7699 28.6324C27.7699 28.6324 26.9408 29.2205 26.0753 29.096L27.7699 28.6324Z" fill="black"/>
<path opacity="0.1" d="M28.4011 41.2236C28.4011 41.2236 28.6432 41.3756 29.2244 40.7111L28.4011 41.2236Z" fill="black"/>
<path opacity="0.1" d="M34.4375 34.1778C34.461 34.0562 34.3767 33.9435 34.2973 33.8485L34.1346 33.6524C34.1028 33.6123 34.0671 33.5755 34.0278 33.5427C33.9298 33.4672 33.8044 33.4447 33.7024 33.377" fill="black"/>
<path opacity="0.1" d="M87.0606 0.0107756C87.0606 0.0107756 78.8092 -0.487111 79.7795 5.29543C79.7795 5.29543 79.5835 6.31767 80.5126 6.78125C80.5126 6.78125 80.5273 6.35295 81.3594 6.49898C81.6556 6.54809 81.9566 6.56256 82.2562 6.54211C82.6609 6.51416 83.0455 6.35522 83.3519 6.08931C83.3519 6.08931 85.6718 5.13078 86.5735 1.33978C86.5735 1.33978 87.2409 0.512583 87.2145 0.299903L85.8218 0.894818C85.8218 0.894818 86.2981 1.89941 85.9198 2.73445C85.9198 2.73445 85.8747 0.931082 85.6071 0.970286C85.5532 0.979106 84.8838 1.31822 84.8838 1.31822C84.8838 1.31822 85.7022 3.06768 85.0847 4.33984C85.0847 4.33984 85.319 2.18364 84.628 1.44465L83.6479 2.01702C83.6479 2.01702 84.6045 3.82431 83.9557 5.29935C83.9557 5.29935 84.1223 3.0373 83.4411 2.1562L82.5532 2.84912C82.5532 2.84912 83.4519 4.63093 82.904 5.85408C82.904 5.85408 82.8325 3.22058 82.3611 3.02162C82.3611 3.02162 81.5838 3.70768 81.4652 3.98799C81.4652 3.98799 82.0807 5.28171 81.6985 5.96385C81.6985 5.96385 81.4643 4.20949 81.2722 4.19969C81.2722 4.19969 80.4979 5.36208 80.4175 6.15987C80.4175 6.15987 80.4509 4.97494 81.085 4.08992C81.085 4.08992 80.3362 4.21831 79.8991 4.70346C79.8991 4.70346 80.0196 3.88214 81.2761 3.81059C81.2761 3.81059 81.9161 2.92851 82.0866 2.8746C82.0866 2.8746 80.838 2.77071 80.0804 3.10591C80.0804 3.10591 80.7468 2.33065 82.316 2.68349L83.1932 1.96704C83.1932 1.96704 81.5486 1.7426 80.8507 1.99056C80.8507 1.99056 81.6534 1.3045 83.4294 1.80434L84.384 1.23393C84.384 1.23393 82.9815 0.932062 82.1464 1.03791C82.1464 1.03791 83.0285 0.562567 84.6643 1.0781L85.3503 0.771327C85.3503 0.771327 84.3232 0.569428 84.0223 0.537085C83.7214 0.504742 83.7057 0.422414 83.7057 0.422414C84.3565 0.313904 85.0246 0.38821 85.6355 0.637054C85.6355 0.637054 87.0861 0.101924 87.0606 0.0107756Z" fill="#FF5921"/>
<path opacity="0.1" d="M76.8833 1.4819C76.8833 1.4819 73.1589 1.25648 73.5951 3.86941C73.5951 3.86941 73.5079 4.33201 73.9254 4.54175C73.9254 4.54175 73.9322 4.34573 74.3086 4.41336C74.4423 4.43585 74.5781 4.44243 74.7134 4.43296C74.8963 4.42053 75.0701 4.34859 75.2083 4.22812C75.2083 4.22812 76.257 3.7959 76.6647 2.0827C76.6647 2.0827 76.9656 1.7083 76.9539 1.61225L76.3246 1.8808C76.3246 1.8808 76.5403 2.33556 76.3707 2.7129C76.3707 2.7129 76.3501 1.89746 76.2296 1.91706C76.2051 1.91706 75.9022 2.07388 75.9022 2.07388C75.9022 2.07388 76.2727 2.86481 75.9934 3.44013C75.9934 3.44013 76.0992 2.46591 75.7866 2.1317L75.3436 2.39045C75.3436 2.39045 75.7768 3.20686 75.4827 3.87333C75.4827 3.87333 75.5582 2.85109 75.2505 2.45317L74.8496 2.76974C74.8496 2.76974 75.2554 3.57538 75.0084 4.12717C75.0084 4.12717 74.976 2.93734 74.7624 2.84815C74.7624 2.84815 74.4115 3.15786 74.3576 3.28527C74.3576 3.28527 74.6359 3.87333 74.4635 4.17715C74.4635 4.17715 74.3576 3.38426 74.2674 3.38132C74.2674 3.38132 73.9185 3.90665 73.8813 4.2634C73.8988 3.93046 74.0028 3.60783 74.1831 3.32741C73.9812 3.36566 73.7949 3.46207 73.647 3.60478C73.647 3.60478 73.7019 3.23431 74.2694 3.20098C74.2694 3.20098 74.5634 2.80307 74.6359 2.77856C74.6359 2.77856 74.0714 2.73152 73.7294 2.88343C73.7294 2.88343 74.0303 2.53256 74.7398 2.68741L75.1319 2.36398C75.1319 2.36398 74.389 2.26597 74.0734 2.37477C74.0734 2.37477 74.436 2.06506 75.2387 2.29048L75.6699 2.03271C75.6699 2.03271 75.0368 1.8955 74.6585 1.94548C74.6585 1.94548 75.0574 1.72986 75.7964 1.96313L76.1051 1.82493C76.1051 1.82493 75.6405 1.73281 75.5043 1.71908C75.3681 1.70536 75.3612 1.66714 75.3612 1.66714C75.6554 1.61819 75.9575 1.65213 76.2335 1.76515C76.2335 1.76515 76.8951 1.52307 76.8833 1.4819Z" fill="#FF5921"/>
<ellipse cx="89.893" cy="63.114" rx="3.94095" ry="0.666462" fill="#FF5921"/>
<path d="M91.5229 62.0241C91.7029 61.8776 91.8338 61.6796 91.8983 61.4567C91.9473 61.2322 91.8513 60.9666 91.6356 60.8794C91.3945 60.7873 91.1368 60.9549 90.9417 61.1234C90.7467 61.292 90.5223 61.4851 90.2674 61.4488C90.5345 61.2062 90.655 60.8414 90.585 60.4874C90.5738 60.4152 90.5434 60.3475 90.4968 60.2913C90.3625 60.1482 90.1204 60.209 89.9597 60.3217C89.45 60.6804 89.3079 61.3734 89.305 61.9957C89.254 61.7713 89.2971 61.537 89.2962 61.3097C89.2952 61.0823 89.2315 60.8196 89.0364 60.6991C88.9162 60.6343 88.7809 60.6026 88.6444 60.6069C88.416 60.5981 88.1602 60.6216 88.0044 60.7892C87.8084 60.997 87.8603 61.3459 88.0289 61.5733C88.1975 61.8007 88.4552 61.9467 88.6924 62.1045C88.8822 62.2176 89.044 62.3721 89.1658 62.5563C89.1805 62.5821 89.1923 62.6094 89.2011 62.6377H90.6379C90.9593 62.474 91.257 62.2677 91.5229 62.0241Z" fill="#FF5921"/>
<defs>
<linearGradient id="paint0_linear_0_45076" x1="91.9575" y1="49.4878" x2="91.9575" y2="10.0587" gradientUnits="userSpaceOnUse">
<stop stop-color="#808080" stop-opacity="0.25"/>
<stop offset="0.54" stop-color="#808080" stop-opacity="0.12"/>
<stop offset="1" stop-color="#808080" stop-opacity="0.1"/>
</linearGradient>
<linearGradient id="paint1_linear_0_45076" x1="14.8601" y1="63.2586" x2="36.6397" y2="63.2586" gradientUnits="userSpaceOnUse">
<stop stop-color="#808080" stop-opacity="0.25"/>
<stop offset="0.54" stop-color="#808080" stop-opacity="0.12"/>
<stop offset="1" stop-color="#808080" stop-opacity="0.1"/>
</linearGradient>
</defs>
</svg>
