<svg width="12" height="15" viewBox="0 0 12 15" fill="none" xmlns="http://www.w3.org/2000/svg">
<path d="M10.8 1.4771C10.1373 1.4771 9.60003 1.99357 9.60003 2.63071V1.92381C9.60003 1.28668 9.06279 0.770202 8.40004 0.770202C7.7373 0.770202 7.20006 1.28668 7.20006 1.92381V1.93701V1.36186C7.20006 0.724728 6.66278 0.208217 6.00004 0.208217C5.33729 0.208217 4.80001 0.724728 4.80001 1.36186V1.15364C4.80001 0.516476 4.26278 0 3.60003 0C2.93728 0 2.40004 0.516476 2.40004 1.15361L2.40001 2.66092L0.882265 2.66106C0.394999 2.66109 0 3.04086 0 3.5093V5.77571C-7.41991e-05 7.72802 0.944926 9.40274 2.3999 10.4578V15H9.60007V10.4577C11.0551 9.40264 12 7.72788 11.9999 5.85125L12 2.63074C12 1.99361 11.4628 1.4771 10.8 1.4771Z" fill="black"/>
</svg>
