<svg width="24" height="24" viewBox="0 0 24 24" xmlns="http://www.w3.org/2000/svg">
    <path d="m5.618 11 2.724-5.447A.994.994 0 0 1 9.236 5h5.528c.381 0 .724.212.894.553L18.382 11H5.618zM16 17h-4c-.55 0-1-.45-1-1s.45-1 1-1h4c.55 0 1 .45 1 1s-.45 1-1 1zm-8 0c-.55 0-1-.45-1-1s.45-1 1-1 1 .45 1 1-.45 1-1 1zm12.79-5.658-3.343-6.684A2.985 2.985 0 0 0 14.764 3H9.236a2.984 2.984 0 0 0-2.683 1.658l-3.342 6.684a2.012 2.012 0 0 0-.21.894V18c0 1.654 1.345 3 3 3h12c1.653 0 3-1.346 3-3v-5.764c0-.308-.074-.618-.212-.894z" fill="#FFF" fill-rule="evenodd"/>
</svg>
