<svg width="24" height="24" viewBox="0 0 24 24" fill="none" xmlns="http://www.w3.org/2000/svg">
<g id="27) Icon/home">
<path id="Shape" fill-rule="evenodd" clip-rule="evenodd" d="M8.4 20.1818V12C8.4 11.4979 8.80294 11.0909 9.3 11.0909H14.7C15.1971 11.0909 15.6 11.4979 15.6 12V20.1818H18.3C18.7971 20.1818 19.2 19.7748 19.2 19.2727V9.71735L12 4.06078L4.8 9.71735V19.2727C4.8 19.7748 5.20294 20.1818 5.7 20.1818H8.4ZM10.2 20.1818H13.8V12.9091H10.2V20.1818ZM3.34745 8.55513L11.4475 2.1915C11.7725 1.93617 12.2275 1.93617 12.5525 2.1915L20.6525 8.55513C20.8718 8.72737 21 8.99219 21 9.27273V19.2727C21 20.779 19.7912 22 18.3 22H5.7C4.20883 22 3 20.779 3 19.2727V9.27273C3 8.99219 3.12823 8.72737 3.34745 8.55513Z" fill="#FF5921"/>
</g>
</svg>
