<svg width="18" height="18" viewBox="0 0 18 18" fill="none" xmlns="http://www.w3.org/2000/svg">
<path fill-rule="evenodd" clip-rule="evenodd" d="M2.25 4.25C2.25 3.14543 3.14543 2.25 4.25 2.25H13.75C14.8546 2.25 15.75 3.14543 15.75 4.25V13.75C15.75 14.8546 14.8546 15.75 13.75 15.75H4.25C3.14543 15.75 2.25 14.8546 2.25 13.75V4.25ZM7.875 12.375L6.75 11.25L4.5 13.5H7.875H13.5V11.475L11.25 9L7.875 12.375ZM6 7.5C6.82843 7.5 7.5 6.82843 7.5 6C7.5 5.17157 6.82843 4.5 6 4.5C5.17157 4.5 4.5 5.17157 4.5 6C4.5 6.82843 5.17157 7.5 6 7.5Z" fill="#42526E"/>
<mask id="mask0_0_12085" style="mask-type:alpha" maskUnits="userSpaceOnUse" x="2" y="2" width="14" height="14">
<path fill-rule="evenodd" clip-rule="evenodd" d="M2.25 4.25C2.25 3.14543 3.14543 2.25 4.25 2.25H13.75C14.8546 2.25 15.75 3.14543 15.75 4.25V13.75C15.75 14.8546 14.8546 15.75 13.75 15.75H4.25C3.14543 15.75 2.25 14.8546 2.25 13.75V4.25ZM7.875 12.375L6.75 11.25L4.5 13.5H7.875H13.5V11.475L11.25 9L7.875 12.375ZM6 7.5C6.82843 7.5 7.5 6.82843 7.5 6C7.5 5.17157 6.82843 4.5 6 4.5C5.17157 4.5 4.5 5.17157 4.5 6C4.5 6.82843 5.17157 7.5 6 7.5Z" fill="white"/>
</mask>
<g mask="url(#mask0_0_12085)">
<path fill-rule="evenodd" clip-rule="evenodd" d="M0 18H18V0H0V18Z" fill="white"/>
</g>
</svg>
