<svg width="16" height="16" viewBox="0 0 16 16" fill="none" xmlns="http://www.w3.org/2000/svg">
<path d="M8 16C5.86312 16 3.85416 15.1678 2.34313 13.6569C0.832156 12.1458 0 10.1369 0 8C0 5.86312 0.832156 3.85416 2.34313 2.34313C3.85416 0.832156 5.86312 0 8 0C10.1369 0 12.1458 0.832156 13.6569 2.34313C15.1678 3.85416 16 5.86312 16 8C16 10.1369 15.1678 12.1458 13.6569 13.6569C12.1458 15.1678 10.1369 16 8 16Z" fill="#16A96C"/>
<path fill-rule="evenodd" clip-rule="evenodd" d="M6.28125 4.0625C6.28125 5.01022 7.05228 5.78125 8 5.78125C8.94772 5.78125 9.71875 5.01022 9.71875 4.0625C9.71875 3.11478 8.94772 2.34375 8 2.34375C7.05228 2.34375 6.28125 3.11478 6.28125 4.0625ZM9.40625 6.71875V12.3438H10.3438V13.2812H5.96875V12.3438H6.90625V7.65625H5.96875V6.71875H9.40625Z" fill="white"/>
</svg>
