<svg width="12" height="12" viewBox="0 0 12 12" fill="none" xmlns="http://www.w3.org/2000/svg">
<path d="M6.02065 0.111763C3.60741 0.111763 1.3158 -0.10291 0.440493 2.14351C0.0789388 3.07132 0.131444 4.27628 0.131444 6.00163C0.131444 7.51564 0.0829266 8.93859 0.440493 9.85909C1.3138 12.1068 3.62403 11.8915 6.01932 11.8915C8.33021 11.8915 10.7129 12.1321 11.5988 9.85909C11.961 8.92198 11.9079 7.73496 11.9079 6.00163C11.9079 3.70072 12.0348 2.21529 10.9189 1.10005C9.78905 -0.0298013 8.26109 0.111763 6.01799 0.111763H6.02065ZM5.49294 1.17316C10.5268 1.16519 11.1675 0.605577 10.8139 8.37965C10.6883 11.1292 8.59473 10.8274 6.02131 10.8274C1.32909 10.8274 1.19417 10.6932 1.19417 5.99897C1.19417 1.25026 1.56636 1.17582 5.49294 1.17183V1.17316ZM9.16431 2.15082C8.77417 2.15082 8.45781 2.46718 8.45781 2.85731C8.45781 3.24744 8.77417 3.5638 9.16431 3.5638C9.55444 3.5638 9.8708 3.24744 9.8708 2.85731C9.8708 2.46718 9.55444 2.15082 9.16431 2.15082V2.15082ZM6.02065 2.97694C4.35046 2.97694 2.99662 4.33144 2.99662 6.00163C2.99662 7.67183 4.35046 9.02566 6.02065 9.02566C7.69084 9.02566 9.04401 7.67183 9.04401 6.00163C9.04401 4.33144 7.69084 2.97694 6.02065 2.97694V2.97694ZM6.02065 4.03834C8.61599 4.03834 8.61932 7.96492 6.02065 7.96492C3.42597 7.96492 3.42198 4.03834 6.02065 4.03834Z" fill="url(#paint0_linear_20_776)"/>
<defs>
<linearGradient id="paint0_linear_20_776" x1="0.919944" y1="11.1305" x2="11.8455" y2="1.68023" gradientUnits="userSpaceOnUse">
<stop stop-color="#FFDD55"/>
<stop offset="0.5" stop-color="#FF543E"/>
<stop offset="1" stop-color="#C837AB"/>
</linearGradient>
</defs>
</svg>
