<svg width="32" height="22" viewBox="0 0 32 22" xmlns="http://www.w3.org/2000/svg">
    <defs>
        <filter id="tvpizszj0a">
            <feColorMatrix in="SourceGraphic" values="0 0 0 0 0.729412 0 0 0 0 0.731503 0 0 0 0 0.760784 0 0 0 1.000000 0"/>
        </filter>
    </defs>
    <g transform="translate(-29 -665)" filter="url(#tvpizszj0a)" fill="none" fill-rule="evenodd">
        <g fill="#000" fill-rule="nonzero">
            <path d="M36.273 686.818h-2.91c0-4.016 3.257-5.818 7.273-5.818h8.728c4.016 0 7.272 1.802 7.272 5.818h-2.909c0-2.41-1.953-2.909-4.363-2.909h-8.728c-2.41 0-4.363.5-4.363 2.91zM61 669.364h-2.656a2.91 2.91 0 0 0-2.91 2.909v2.909c0 .803-.65 1.454-1.454 1.454H36.083a1.455 1.455 0 0 1-1.455-1.454v-2.91a2.91 2.91 0 0 0-2.909-2.908H29A4.364 4.364 0 0 1 33.364 665h23.272A4.364 4.364 0 0 1 61 669.364z" opacity=".3"/>
            <path d="M61 672.273v7.272a4.364 4.364 0 0 1-4.364 4.364H33.364A4.364 4.364 0 0 1 29 679.545v-7.272h2.72v2.909a4.364 4.364 0 0 0 4.363 4.363H53.98a4.364 4.364 0 0 0 4.364-4.363v-2.91H61z"/>
        </g>
    </g>
</svg>
