<svg width="24" height="24" viewBox="0 0 24 24" fill="none" xmlns="http://www.w3.org/2000/svg">
<g id="27) Icon/keyboard">
<g id="keyboard">
<path id="Shape" fill-rule="evenodd" clip-rule="evenodd" d="M3.99845 5H19.9859C21.0901 5 21.9844 5.89429 21.9844 6.99845V16.9906C21.9844 18.0948 21.0901 18.9891 19.9859 18.9891H3.99845C2.89429 18.9891 2 18.0948 2 16.9906L2.00998 6.99845C2.00998 5.89429 2.89429 5 3.99845 5ZM12.9914 7.99766H10.993V9.99611H12.9914V7.99766ZM10.993 10.9953H12.9914V12.9938H10.993V10.9953ZM9.99377 7.99766H7.99532V9.99611H9.99377V7.99766ZM7.99532 10.9953H9.99377V12.9938H7.99532V10.9953ZM4.99766 12.9938H6.99611V10.9953H4.99766V12.9938ZM6.99611 9.99611H4.99766V7.99766H6.99611V9.99611ZM7.99532 16.9906H15.9891V14.9922H7.99532V16.9906ZM15.9891 12.9938H13.9906V10.9953H15.9891V12.9938ZM13.9906 9.99611H15.9891V7.99766H13.9906V9.99611ZM18.9867 12.9938H16.9883V10.9953H18.9867V12.9938ZM16.9883 9.99611H18.9867V7.99766H16.9883V9.99611Z" fill="black"/>
</g>
</g>
</svg>
