<svg width="32" height="32" viewBox="0 0 32 32" xmlns="http://www.w3.org/2000/svg">
    <defs>
        <filter id="oapjymm7ma">
            <feColorMatrix in="SourceGraphic" values="0 0 0 0 0.729412 0 0 0 0 0.731503 0 0 0 0 0.760784 0 0 0 1.000000 0"/>
        </filter>
    </defs>
    <g transform="translate(-29 -296)" filter="url(#oapjymm7ma)" fill="none" fill-rule="evenodd">
        <path d="M29 296h32v32H29z"/>
        <path d="M37.243 301.46a3.992 3.992 0 0 1 3.09-1.46h9.334c1.244 0 2.355.568 3.089 1.459.029.014.057.029.085.045l6.279 3.625c.638.368.856 1.184.488 1.822l-2.208 3.824a1.333 1.333 0 0 1-1.822.489l-1.911-1.104v11.173c0 .737-.597 1.334-1.334 1.334H37.667a1.333 1.333 0 0 1-1.334-1.334v-11.172l-1.91 1.103a1.333 1.333 0 0 1-1.821-.489l-2.209-3.824a1.333 1.333 0 0 1 .488-1.822l6.28-3.625c.026-.016.054-.03.082-.044z" fill="#000" fill-rule="nonzero" opacity=".3"/>
        <path d="m42.135 300.297-.785 1.178a.667.667 0 0 0 .155.903L43.667 304l-1.287 9.003c-.03.208.04.418.189.566l1.96 1.96c.26.26.682.26.942 0l1.96-1.96a.667.667 0 0 0 .189-.566L46.333 304l2.162-1.622a.667.667 0 0 0 .155-.903l-.785-1.178a.667.667 0 0 0-.555-.297h-4.62a.667.667 0 0 0-.555.297z" fill="#000" fill-rule="nonzero"/>
    </g>
</svg>
