<svg width="42" height="42" viewBox="0 0 42 42" fill="none" xmlns="http://www.w3.org/2000/svg">
<rect width="42" height="42" rx="9" fill="white"/>
<path d="M20.752 13.0975C20.381 13.0975 20.08 12.7964 20.08 12.4255V10.672C20.08 10.3011 20.381 10 20.752 10C21.1229 10 21.424 10.3011 21.424 10.672V12.4255C21.424 12.7964 21.1229 13.0975 20.752 13.0975Z" fill="#42BE65"/>
<path d="M26.6397 15.5364C26.4676 15.5364 26.2956 15.471 26.1648 15.3393C25.9023 15.0767 25.9023 14.6511 26.1648 14.3886L27.4049 13.1486C27.6674 12.886 28.093 12.886 28.3555 13.1486C28.618 13.4111 28.618 13.8367 28.3555 14.0992L27.1154 15.3393C26.9837 15.4701 26.8117 15.5364 26.6397 15.5364Z" fill="#42BE65"/>
<path d="M30.832 21.424H29.0785C28.7076 21.424 28.4065 21.1229 28.4065 20.752C28.4065 20.381 28.7076 20.08 29.0785 20.08H30.832C31.2029 20.08 31.504 20.381 31.504 20.752C31.504 21.1229 31.2029 21.424 30.832 21.424Z" fill="#42BE65"/>
<path d="M27.8797 28.5517C27.7077 28.5517 27.5357 28.4862 27.4049 28.3545L26.1648 27.1145C25.9023 26.8519 25.9023 26.4263 26.1648 26.1638C26.4273 25.9013 26.8529 25.9013 27.1154 26.1638L28.3555 27.4039C28.618 27.6664 28.618 28.092 28.3555 28.3545C28.2238 28.4862 28.0518 28.5517 27.8797 28.5517Z" fill="#42BE65"/>
<path d="M13.6243 28.5517C13.4523 28.5517 13.2802 28.4862 13.1494 28.3545C12.8869 28.092 12.8869 27.6664 13.1494 27.4039L14.3895 26.1638C14.652 25.9013 15.0776 25.9013 15.3401 26.1638C15.6027 26.4263 15.6027 26.8519 15.3401 27.1145L14.1001 28.3545C13.9684 28.4862 13.7963 28.5517 13.6243 28.5517Z" fill="#42BE65"/>
<path d="M12.4255 21.424H10.672C10.3011 21.424 10 21.1229 10 20.752C10 20.381 10.3011 20.08 10.672 20.08H12.4255C12.7964 20.08 13.0975 20.381 13.0975 20.752C13.0975 21.1229 12.7964 21.424 12.4255 21.424Z" fill="#42BE65"/>
<path d="M14.8644 15.5364C14.6923 15.5364 14.5203 15.471 14.3895 15.3393L13.1494 14.0992C12.8869 13.8367 12.8869 13.4111 13.1494 13.1486C13.4119 12.886 13.8375 12.886 14.1001 13.1486L15.3401 14.3886C15.6027 14.6511 15.6027 15.0767 15.3401 15.3393C15.2075 15.4701 15.0364 15.5364 14.8644 15.5364Z" fill="#42BE65"/>
<path d="M23.44 28.816V29.936C23.44 30.7962 22.7321 31.504 21.872 31.504H19.632C18.8793 31.504 18.064 30.9306 18.064 29.6762V28.816H23.44Z" fill="#42BE65"/>
<path fill-rule="evenodd" clip-rule="evenodd" d="M19.408 14.6233C21.2986 14.2201 23.234 14.6861 24.7034 15.8777C26.1818 17.0784 27.024 18.8525 27.024 20.752C27.024 22.6873 26.146 24.4793 24.6317 25.68C24.0135 26.1638 23.6103 26.791 23.4848 27.472V27.4809C23.4669 27.472 23.458 27.472 23.44 27.472H18.064C18.0461 27.472 18.0192 27.472 18.0013 27.4809V27.472C17.8759 26.7641 17.5085 26.1549 16.9799 25.7606C15.0266 24.2822 14.1127 21.863 14.6144 19.4259C15.1072 17.0515 17.0336 15.1161 19.408 14.6233ZM23.44 20.528C23.44 20.8953 23.7447 21.2 24.112 21.2C24.4794 21.2 24.784 20.8953 24.784 20.528C24.784 18.4313 23.0727 16.72 20.976 16.72C20.6087 16.72 20.304 17.0246 20.304 17.392C20.304 17.7593 20.6087 18.064 20.976 18.064C22.338 18.064 23.44 19.1661 23.44 20.528Z" fill="#42BE65"/>
<path d="M18.0012 27.472H18.064C18.046 27.472 18.0192 27.472 18.0012 27.4809V27.472Z" fill="#42BE65"/>
<path d="M23.4848 27.472V27.4809C23.4669 27.472 23.4579 27.472 23.44 27.472H23.4848Z" fill="#42BE65"/>
</svg>
