<svg width="14" height="12" viewBox="0 0 14 12" fill="none" xmlns="http://www.w3.org/2000/svg">
<path d="M0.25287 8.69345C0.25287 10.5197 1.69127 12 3.46571 12C5.24017 12 6.67857 10.5197 6.67857 8.69345C6.67857 6.86724 5.24017 5.38692 3.46571 5.38692C3.10103 5.38692 2.75195 5.45235 2.42516 5.56765C3.14819 1.29998 6.38185 -1.45218 3.38426 0.812904C0.0603707 3.32463 0.24931 8.5924 0.253029 8.68894C0.253029 8.69044 0.25287 8.69178 0.25287 8.69345Z" fill="white"/>
<path d="M7.32417 8.69345C7.32417 10.5197 8.76256 12 10.537 12C12.3115 12 13.7499 10.5197 13.7499 8.69345C13.7499 6.86724 12.3114 5.38692 10.537 5.38692C10.1723 5.38692 9.82324 5.45235 9.49645 5.56765C10.2195 1.29998 13.4531 -1.45218 10.4555 0.812904C7.13167 3.32463 7.32058 8.5924 7.32432 8.68894C7.32432 8.69044 7.32417 8.69178 7.32417 8.69345Z" fill="white"/>
</svg>
