<svg width="24" height="24" viewBox="0 0 24 24" fill="none" xmlns="http://www.w3.org/2000/svg">
<g id="27) Icon/like">
<g id="like(1)">
<g id="Shape">
<path fill-rule="evenodd" clip-rule="evenodd" d="M21.4575 12.5862C21.8008 12.9444 22 13.43 22 13.9512C22 14.7031 21.5867 15.3639 20.9717 15.6865C21.0992 15.9519 21.1667 16.2458 21.1667 16.5528C21.1667 17.3047 20.7525 17.9664 20.1375 18.2881C20.3275 18.6836 20.3833 19.1388 20.2875 19.5915C20.1009 20.4691 19.3067 21.1057 18.3992 21.1057H10.75C10.1708 21.1057 9.2375 20.9106 8.54414 20.5394C8.25414 21.3745 7.48414 21.9729 6.58332 21.9729H4.08332C2.93418 21.9729 2 21.0008 2 19.8049V12.8672C2 11.6713 2.93418 10.6992 4.08332 10.6991H8.24996C8.47996 10.6991 8.66664 10.8934 8.66664 11.1327V11.2984L8.76582 11.2455L11.1666 5.83499V2.89429C11.1666 2.76251 11.2241 2.63763 11.3233 2.55523L11.3242 2.55451C11.3609 2.52485 11.9765 2.0271 12.8333 2.0271C13.7975 2.0271 15.3333 3.61495 15.3333 5.49592C15.3333 6.68226 14.925 8.15909 14.67 8.96474H19.8175C20.9391 8.96474 21.8933 9.82848 21.9908 10.9307C22.045 11.549 21.8467 12.1431 21.4575 12.5862ZM19.8942 15.3153C19.9458 15.1549 20.0817 15.0413 20.2425 15.0213C20.7692 14.958 21.1667 14.4984 21.1666 13.9512C21.1666 13.5471 20.9483 13.1794 20.5958 12.993C20.4625 12.921 20.3758 12.7805 20.37 12.6235C20.3642 12.4666 20.44 12.3191 20.5675 12.2376C20.9766 11.9749 21.205 11.5048 21.1608 11.0105C21.1025 10.3497 20.5125 9.83198 19.8175 9.83198H14.0833C13.9467 9.83198 13.8183 9.76173 13.74 9.64466C13.6625 9.52673 13.6459 9.37669 13.6942 9.24401C13.6943 9.24355 13.6949 9.24209 13.6957 9.23967C13.7354 9.12866 14.5 6.98963 14.5 5.49592C14.5 4.07543 13.29 2.89429 12.8333 2.89429C12.4742 2.89429 12.1733 3.02958 12 3.12929V5.9295C12 5.99194 11.9866 6.05438 11.9616 6.11161L9.46164 11.7485C9.42164 11.8378 9.35414 11.9106 9.26996 11.954L8.43664 12.3876C8.30664 12.4535 8.15332 12.4457 8.03164 12.3694C7.90832 12.2896 7.83332 12.15 7.83332 12V11.5664H4.08332C3.39414 11.5664 2.83332 12.15 2.83332 12.8672V19.8049C2.83332 20.5221 3.39414 21.1057 4.08332 21.1057H6.58332C7.2725 21.1057 7.83332 20.5221 7.83332 19.8049C7.83332 19.6297 7.935 19.471 8.09082 19.4042C8.24582 19.3383 8.42582 19.3747 8.545 19.4979C8.93832 19.9081 10.0733 20.2385 10.75 20.2385H18.3992C18.9192 20.2385 19.3709 19.8881 19.4734 19.4042C19.5559 19.0157 19.4459 18.6384 19.1717 18.3696C19.0534 18.2534 19.0109 18.0774 19.0617 17.9169C19.1134 17.7565 19.2492 17.6429 19.41 17.623C19.9359 17.5597 20.3334 17.1 20.3334 16.5528C20.3334 16.2545 20.2159 15.9753 20.0042 15.768C19.8859 15.6518 19.8434 15.4758 19.8942 15.3153Z" fill="black"/>
<path d="M21.4575 12.5862L21.0818 12.2563L20.7791 12.601L21.0965 12.9322L21.4575 12.5862ZM20.9717 15.6865L20.7394 15.2437L20.312 15.4679L20.521 15.903L20.9717 15.6865ZM20.1375 18.2881L19.9057 17.8451L19.4775 18.0691L19.6868 18.5047L20.1375 18.2881ZM20.2875 19.5915L20.7766 19.6955L20.7767 19.6951L20.2875 19.5915ZM8.54414 20.5394L8.78012 20.0986L8.26389 19.8222L8.07181 20.3754L8.54414 20.5394ZM4.08332 10.6991V10.1991H4.0833L4.08332 10.6991ZM8.66664 11.2984H8.16664V12.1317L8.9019 11.7396L8.66664 11.2984ZM8.76582 11.2455L9.00108 11.6867L9.15301 11.6057L9.22285 11.4483L8.76582 11.2455ZM11.1666 5.83499L11.6237 6.03778L11.6666 5.94094V5.83499H11.1666ZM11.3233 2.55523L11.009 2.16636L11.0038 2.17064L11.3233 2.55523ZM11.3242 2.55451L11.6386 2.94334L11.6386 2.94332L11.3242 2.55451ZM14.67 8.96474L14.1933 8.81386L13.9873 9.46474H14.67V8.96474ZM21.9908 10.9307L22.4889 10.8871L22.4889 10.8867L21.9908 10.9307ZM20.2425 15.0213L20.1828 14.5249L20.1809 14.5251L20.2425 15.0213ZM19.8942 15.3153L19.4182 15.1621L19.4175 15.1643L19.8942 15.3153ZM21.1666 13.9512H20.6666V13.9512L21.1666 13.9512ZM20.5958 12.993L20.3582 13.4329L20.362 13.4349L20.5958 12.993ZM20.37 12.6235L20.8697 12.605V12.605L20.37 12.6235ZM20.5675 12.2376L20.8368 12.6589L20.8377 12.6583L20.5675 12.2376ZM21.1608 11.0105L20.6628 11.0545L20.6628 11.055L21.1608 11.0105ZM13.74 9.64466L13.3221 9.91927L13.3244 9.92268L13.74 9.64466ZM13.6942 9.24401L14.1641 9.41513L14.1667 9.40736L13.6942 9.24401ZM13.6957 9.23967L14.1665 9.40801L14.1666 9.40796L13.6957 9.23967ZM12 3.12929L11.7507 2.69588L11.5 2.84008V3.12929H12ZM11.9616 6.11161L12.4187 6.31433L12.4198 6.31175L11.9616 6.11161ZM9.46164 11.7485L9.91796 11.9529L9.9187 11.9512L9.46164 11.7485ZM9.26996 11.954L9.04094 11.5095L9.03916 11.5105L9.26996 11.954ZM8.43664 12.3876L8.66271 12.8336L8.66744 12.8312L8.43664 12.3876ZM8.03164 12.3694L7.75998 12.7892L7.76601 12.793L8.03164 12.3694ZM7.83332 11.5664H8.33332V11.0664H7.83332V11.5664ZM8.09082 19.4042L7.8952 18.9441L7.89384 18.9446L8.09082 19.4042ZM8.545 19.4979L8.90591 19.1518L8.90427 19.1501L8.545 19.4979ZM19.4734 19.4042L18.9843 19.3004L18.9843 19.3006L19.4734 19.4042ZM19.1717 18.3696L18.8213 18.7263L18.8217 18.7266L19.1717 18.3696ZM19.0617 17.9169L18.5858 17.7638L18.5851 17.766L19.0617 17.9169ZM19.41 17.623L19.3503 17.1265L19.3485 17.1268L19.41 17.623ZM20.0042 15.768L19.6538 16.1247L19.6544 16.1252L20.0042 15.768ZM22.5 13.9512C22.5 13.3018 22.2515 12.692 21.8185 12.2402L21.0965 12.9322C21.3502 13.1968 21.5 13.5583 21.5 13.9512H22.5ZM21.2039 16.1293C21.9851 15.7195 22.5 14.8872 22.5 13.9512H21.5C21.5 14.5189 21.1883 15.0083 20.7394 15.2437L21.2039 16.1293ZM21.6667 16.5528C21.6667 16.1719 21.5828 15.8038 21.4224 15.47L20.521 15.903C20.6156 16.0999 20.6667 16.3198 20.6667 16.5528H21.6667ZM20.3693 18.7311C21.1508 18.3223 21.6667 17.4889 21.6667 16.5528H20.6667C20.6667 17.1205 20.3542 17.6105 19.9057 17.8451L20.3693 18.7311ZM20.7767 19.6951C20.8949 19.1366 20.827 18.5685 20.5882 18.0716L19.6868 18.5047C19.828 18.7986 19.8718 19.1411 19.7983 19.488L20.7767 19.6951ZM18.3992 21.6057C19.5386 21.6057 20.54 20.8081 20.7766 19.6955L19.7984 19.4875C19.6618 20.1302 19.0748 20.6057 18.3992 20.6057V21.6057ZM10.75 21.6057H18.3992V20.6057H10.75V21.6057ZM8.30816 20.9802C9.07876 21.3927 10.0939 21.6057 10.75 21.6057V20.6057C10.2477 20.6057 9.39624 20.4284 8.78012 20.0986L8.30816 20.9802ZM6.58332 22.4729C7.7143 22.4729 8.66246 21.7229 9.01647 20.7034L8.07181 20.3754C7.84583 21.0261 7.25398 21.4729 6.58332 21.4729V22.4729ZM4.08332 22.4729H6.58332V21.4729H4.08332V22.4729ZM1.5 19.8049C1.5 21.2579 2.63945 22.4729 4.08332 22.4729V21.4729C3.22891 21.4729 2.5 20.7436 2.5 19.8049H1.5ZM1.5 12.8672V19.8049H2.5V12.8672H1.5ZM4.0833 10.1991C2.63945 10.1992 1.5 11.4141 1.5 12.8672H2.5C2.5 11.9285 3.22891 11.1992 4.08334 11.1991L4.0833 10.1991ZM8.24996 10.1991H4.08332V11.1991H8.24996V10.1991ZM9.16664 11.1327C9.16664 10.6362 8.77469 10.1991 8.24996 10.1991V11.1991C8.22019 11.1991 8.19667 11.1858 8.18403 11.1726C8.17171 11.1598 8.16664 11.1447 8.16664 11.1327H9.16664ZM9.16664 11.2984V11.1327H8.16664V11.2984H9.16664ZM8.53056 10.8043L8.43138 10.8572L8.9019 11.7396L9.00108 11.6867L8.53056 10.8043ZM10.7096 5.63219L8.30879 11.0427L9.22285 11.4483L11.6237 6.03778L10.7096 5.63219ZM10.6666 2.89429V5.83499H11.6666V2.89429H10.6666ZM11.0038 2.17064C10.7868 2.35097 10.6666 2.61851 10.6666 2.89429H11.6666C11.6666 2.90651 11.6615 2.92429 11.6428 2.93982L11.0038 2.17064ZM11.0099 2.16568L11.009 2.1664L11.6377 2.94406L11.6386 2.94334L11.0099 2.16568ZM12.8333 1.5271C11.7967 1.5271 11.066 2.12026 11.0099 2.16569L11.6386 2.94332C11.6557 2.92944 12.1563 2.5271 12.8333 2.5271V1.5271ZM15.8333 5.49592C15.8333 4.42149 15.3968 3.44734 14.8357 2.74425C14.554 2.39137 14.2318 2.09483 13.8995 1.88299C13.5738 1.67534 13.2033 1.5271 12.8333 1.5271V2.5271C12.9454 2.5271 13.1284 2.57734 13.3619 2.72619C13.5888 2.87086 13.8313 3.08884 14.0541 3.36804C14.5019 3.92911 14.8333 4.68937 14.8333 5.49592H15.8333ZM15.1467 9.11562C15.4025 8.30733 15.8333 6.76609 15.8333 5.49592H14.8333C14.8333 6.59843 14.4475 8.01086 14.1933 8.81386L15.1467 9.11562ZM19.8175 8.46474H14.67V9.46474H19.8175V8.46474ZM22.4889 10.8867C22.3681 9.52113 21.1929 8.46474 19.8175 8.46474V9.46474C20.6854 9.46474 21.4186 10.1358 21.4928 10.9748L22.4889 10.8867ZM21.8332 12.9161C22.3135 12.3692 22.5549 11.6398 22.4889 10.8871L21.4927 10.9744C21.5351 11.4582 21.3799 11.9169 21.0818 12.2563L21.8332 12.9161ZM20.1809 14.5251C19.8206 14.5699 19.5275 14.8227 19.4182 15.1621L20.3701 15.4685C20.3642 15.487 20.3428 15.5127 20.3041 15.5175L20.1809 14.5251ZM20.6666 13.9512C20.6667 14.257 20.4468 14.4932 20.1828 14.5249L20.3022 15.5178C21.0915 15.4229 21.6667 14.7398 21.6666 13.9512L20.6666 13.9512ZM20.362 13.4349C20.5472 13.5329 20.6666 13.7282 20.6666 13.9512H21.6666C21.6666 13.366 21.3495 12.826 20.8296 12.551L20.362 13.4349ZM19.8703 12.642C19.8825 12.9709 20.0647 13.2744 20.3582 13.4329L20.8334 12.553C20.8603 12.5675 20.8691 12.59 20.8697 12.605L19.8703 12.642ZM20.2982 11.8163C20.0157 11.9969 19.8582 12.3149 19.8703 12.6421L20.8697 12.605C20.8701 12.6182 20.8643 12.6413 20.8368 12.6589L20.2982 11.8163ZM20.6628 11.055C20.6907 11.3674 20.5469 11.6566 20.2973 11.8169L20.8377 12.6583C21.4064 12.2931 21.7193 11.6422 21.6588 10.966L20.6628 11.055ZM19.8175 10.332C20.2728 10.332 20.6289 10.6706 20.6628 11.0545L21.6589 10.9666C21.5761 10.0288 20.7522 9.33198 19.8175 9.33198V10.332ZM14.0833 10.332H19.8175V9.33198H14.0833V10.332ZM13.3244 9.92268C13.4916 10.1726 13.7729 10.332 14.0833 10.332V9.33198C14.1205 9.33198 14.145 9.35084 14.1556 9.36665L13.3244 9.92268ZM13.2244 9.07291C13.1228 9.35182 13.1566 9.66737 13.3222 9.91926L14.1578 9.37006C14.1636 9.37875 14.166 9.38695 14.1667 9.39352C14.1675 9.40002 14.1668 9.40729 14.164 9.41511L13.2244 9.07291ZM13.2249 9.07133C13.2249 9.07144 13.2229 9.0769 13.2216 9.08066L14.1667 9.40736L14.1665 9.40801L13.2249 9.07133ZM14 5.49592C14 6.17499 13.8233 7.03141 13.6296 7.75747C13.4386 8.47378 13.2427 9.02172 13.2249 9.07137L14.1666 9.40796C14.1885 9.34662 14.3947 8.76954 14.5959 8.01515C14.7944 7.27052 15 6.31056 15 5.49592H14ZM12.8333 3.39429C12.7913 3.39429 12.786 3.38331 12.8283 3.40263C12.865 3.41936 12.9189 3.45056 12.9869 3.50138C13.1226 3.60292 13.2844 3.76059 13.4399 3.96509C13.7539 4.37799 14 4.92474 14 5.49592H15C15 4.64662 14.6411 3.89255 14.2359 3.35976C14.0318 3.09142 13.8056 2.86502 13.5859 2.7007C13.4762 2.6186 13.3607 2.54642 13.2438 2.49301C13.1325 2.44219 12.9895 2.39429 12.8333 2.39429V3.39429ZM12.2493 3.56271C12.3827 3.48594 12.5955 3.39429 12.8333 3.39429V2.39429C12.3529 2.39429 11.9639 2.57322 11.7507 2.69588L12.2493 3.56271ZM12.5 5.9295V3.12929H11.5V5.9295H12.5ZM12.4198 6.31175C12.4718 6.19277 12.5 6.0623 12.5 5.9295H11.5C11.5 5.92525 11.5004 5.92186 11.501 5.9192C11.5015 5.91656 11.5023 5.91403 11.5034 5.91148L12.4198 6.31175ZM9.9187 11.9512L12.4187 6.31432L11.5046 5.9089L9.00458 11.5458L9.9187 11.9512ZM9.49898 12.3985C9.68914 12.3005 9.83405 12.1402 9.91796 11.9529L9.00532 11.5441C9.00923 11.5354 9.01914 11.5208 9.04095 11.5095L9.49898 12.3985ZM8.66744 12.8312L9.50076 12.3976L9.03916 11.5105L8.20584 11.9441L8.66744 12.8312ZM7.76601 12.793C8.03561 12.9621 8.37548 12.9792 8.6627 12.8336L8.21058 11.9416C8.2378 11.9279 8.27103 11.9294 8.29727 11.9458L7.76601 12.793ZM7.33332 12C7.33332 12.3155 7.49083 12.615 7.76001 12.7892L8.30327 11.9496C8.32581 11.9642 8.33332 11.9846 8.33332 12H7.33332ZM7.33332 11.5664V12H8.33332V11.5664H7.33332ZM4.08332 12.0664H7.83332V11.0664H4.08332V12.0664ZM3.33332 12.8672C3.33332 12.4072 3.68887 12.0664 4.08332 12.0664V11.0664C3.09941 11.0664 2.33332 11.8928 2.33332 12.8672H3.33332ZM3.33332 19.8049V12.8672H2.33332V19.8049H3.33332ZM4.08332 20.6057C3.68887 20.6057 3.33332 20.2649 3.33332 19.8049H2.33332C2.33332 20.7792 3.09941 21.6057 4.08332 21.6057V20.6057ZM6.58332 20.6057H4.08332V21.6057H6.58332V20.6057ZM7.33332 19.8049C7.33332 20.2649 6.97777 20.6057 6.58332 20.6057V21.6057C7.56723 21.6057 8.33332 20.7792 8.33332 19.8049H7.33332ZM7.89384 18.9446C7.54539 19.094 7.33332 19.4394 7.33332 19.8049H8.33332C8.33332 19.82 8.32461 19.848 8.2878 19.8638L7.89384 18.9446ZM8.90427 19.1501C8.64258 18.8798 8.24242 18.7965 7.8952 18.9441L8.28644 19.8644C8.24922 19.8802 8.20906 19.8697 8.18573 19.8456L8.90427 19.1501ZM10.75 19.7385C10.4778 19.7385 10.0779 19.669 9.69391 19.5459C9.29228 19.4171 9.01202 19.2625 8.9059 19.1518L8.1841 19.8439C8.4713 20.1434 8.9552 20.3592 9.38857 20.4981C9.8396 20.6428 10.3455 20.7385 10.75 20.7385V19.7385ZM18.3992 19.7385H10.75V20.7385H18.3992V19.7385ZM18.9843 19.3006C18.9344 19.5361 18.7011 19.7385 18.3992 19.7385V20.7385C19.1373 20.7385 19.8074 20.2401 19.9625 19.5078L18.9843 19.3006ZM18.8217 18.7266C18.9687 18.8708 19.0328 19.0721 18.9843 19.3004L19.9625 19.5081C20.079 18.9592 19.9231 18.4061 19.5218 18.0126L18.8217 18.7266ZM18.5851 17.766C18.4788 18.1015 18.5655 18.475 18.8213 18.7263L19.5221 18.0129C19.5413 18.0318 19.543 18.0532 19.5384 18.0679L18.5851 17.766ZM19.3485 17.1268C18.9881 17.1715 18.695 17.4243 18.5858 17.7638L19.5377 18.0701C19.5317 18.0887 19.5103 18.1143 19.4716 18.1191L19.3485 17.1268ZM19.8334 16.5528C19.8334 16.8589 19.6132 17.0949 19.3503 17.1265L19.4698 18.1194C20.2585 18.0244 20.8334 17.3411 20.8334 16.5528H19.8334ZM19.6544 16.1252C19.7697 16.2382 19.8334 16.3886 19.8334 16.5528H20.8334C20.8334 16.1204 20.662 15.7123 20.354 15.4107L19.6544 16.1252ZM19.4175 15.1643C19.3112 15.4999 19.3979 15.8734 19.6538 16.1247L20.3546 15.4113C20.3738 15.4302 20.3755 15.4516 20.3708 15.4663L19.4175 15.1643Z" fill="#979797"/>
</g>
<path id="Path" d="M8.24999 11.5664C8.01999 11.5664 7.83331 11.7607 7.83331 12V19.8049C7.83331 20.0443 8.01999 20.2385 8.24999 20.2385C8.47999 20.2385 8.66667 20.0443 8.66667 19.8049V12C8.66667 11.7607 8.47999 11.5664 8.24999 11.5664Z" fill="black" stroke="#979797"/>
</g>
</g>
</svg>
