<svg width="24" height="24" viewBox="0 0 24 24" fill="none" xmlns="http://www.w3.org/2000/svg">
<g id="27) Icon/like-fill">
<g id="like(2)">
<path id="Path" fill-rule="evenodd" clip-rule="evenodd" d="M4.08332 10.6992C2.935 10.6992 2 11.6722 2 12.8672V19.8048C2 20.9998 2.935 21.9729 4.08332 21.9729H6.58332C7.0525 21.9729 7.48414 21.8081 7.83332 21.534V10.6992H4.08332Z" fill="#FF5921"/>
<path id="Path_2" fill-rule="evenodd" clip-rule="evenodd" d="M22 13.9512C22 13.43 21.8017 12.9444 21.4575 12.5862C21.8467 12.1431 22.045 11.549 21.9908 10.9307C21.8933 9.82848 20.9391 8.96474 19.8175 8.96474H14.67C14.925 8.15909 15.3333 6.68226 15.3333 5.49592C15.3333 3.61495 13.7975 2.0271 12.8333 2.0271C11.9675 2.0271 11.3491 2.53442 11.3225 2.55523C11.2242 2.63763 11.1667 2.76251 11.1667 2.89429V5.83499L8.76669 11.2455L8.66669 11.2984V20.5932C9.34501 20.9262 10.2033 21.1057 10.75 21.1057H18.3992C19.3067 21.1057 20.1009 20.4691 20.2875 19.5907C20.3833 19.1388 20.3275 18.6836 20.1367 18.2881C20.7525 17.9655 21.1667 17.3056 21.1667 16.5528C21.1667 16.2458 21.0992 15.9519 20.9709 15.6856C21.5867 15.363 22 14.7031 22 13.9512Z" fill="#FF5921"/>
</g>
</g>
</svg>
