<svg xmlns="http://www.w3.org/2000/svg" xmlns:xlink="http://www.w3.org/1999/xlink" width="24" height="24" viewBox="0 0 24 24">
    <defs>
        <path id="0sbp615o8a" d="M4 12v7c-.006.262.094.515.278.704.184.188.437.294.701.296H6v-9h-1.02c-.264.002-.517.108-.701.296-.184.189-.284.442-.278.704zm15.281-.96c-.578-.675-1.427-1.063-2.321-1.061h-2.634c.04-.181.08-.36.11-.532.515-2.934 0-4-.504-4.594-.461-.542-1.141-.855-1.857-.853-1.544.053-2.812 1.228-2.968 2.751-.393 1.839-.454 2-.968 2.725l-.768 1.089c-.234.335-.36.733-.363 1.141v6.273c.001.532.216 1.041.596 1.416s.896.585 1.433.584h7.247c1.485.008 2.756-1.055 2.997-2.507l.677-4c.148-.87-.1-1.76-.677-2.432zm-1.998 6.1c-.082.483-.505.837-1 .835H9.038v-6.269l.767-1.089c.721-1.044 1.169-2.25 1.302-3.509.036-.543.255-1.209.969-1.108.714.1.575 1.916.363 3.1-.215.981-.505 1.944-.868 2.882l5.39-.008c.297-.001.58.128.773.352.192.225.275.522.226.813l-.676 4.001z"/>
    </defs>
    <g fill="none" fill-rule="evenodd">
        <g>
            <g>
                <g transform="translate(-124 -1279) translate(20 1218) translate(104 61)">
                    <mask id="c9obe1462b" fill="#fff">
                        <use xlink:href="#0sbp615o8a"/>
                    </mask>
                    <g fill="#8F9BB3" mask="url(#c9obe1462b)">
                        <path d="M0 24L24 24 24 0 0 0z"/>
                    </g>
                </g>
            </g>
        </g>
    </g>
</svg>
