<svg width="56" height="56" viewBox="0 0 56 56" fill="none" xmlns="http://www.w3.org/2000/svg">
<rect width="56" height="56" rx="28" fill="black" fill-opacity="0.8"/>
<path d="M30 18C30 18 30.8492 18.1213 34.364 21.636C37.8787 25.1508 37.8787 30.8492 34.364 34.364C33.1187 35.6092 31.5993 36.4133 30 36.7762M30 18L36 18M30 18L30 24M26 37.9998C26 37.9998 25.1508 37.8785 21.636 34.3638C18.1213 30.849 18.1213 25.1506 21.636 21.6358C22.8813 20.3906 24.4007 19.5865 26 19.2236M26 37.9998L20 38M26 37.9998L26 32" stroke="white" stroke-width="2" stroke-linecap="round" stroke-linejoin="round"/>
</svg>
