<svg xmlns="http://www.w3.org/2000/svg" width="36" height="36" viewBox="0 0 36 36">
    <g fill="none" fill-rule="evenodd">
        <g>
            <g transform="translate(-20 -720) translate(20 720)">
                <circle cx="18" cy="18" r="18" fill="#FF5921"/>
                <g fill="#FFF">
                    <path d="M12 2c-4.418 0-8 3.582-8 8 0 6.22 5.05 6.17 6.26 9.78l.51 1.54c.143.425.552.703 1 .68h.56c.448.023.857-.255 1-.68l.51-1.54C15 16.17 20 16.22 20 10c0-4.418-3.582-8-8-8zm0 11c-1.657 0-3-1.343-3-3s1.343-3 3-3 3 1.343 3 3c0 .796-.316 1.559-.879 2.121-.562.563-1.325.879-2.121.879z" transform="translate(6 6)"/>
                </g>
            </g>
        </g>
    </g>
</svg>
