<svg width="24" height="24" viewBox="0 0 24 24" fill="none" xmlns="http://www.w3.org/2000/svg">
<g id="27) Icon/lock-2">
<g id="icon/lock">
<g id="Icon">
<path id="Shape" fill-rule="evenodd" clip-rule="evenodd" d="M7 8C7 4.68629 8.68629 2 12 2C15.3137 2 17 4.68629 17 8H17.5C19.433 8 21 9.567 21 11.5V18.5C21 20.433 19.433 22 17.5 22H6.5C4.567 22 3 20.433 3 18.5V11.5C3 9.567 4.567 8 6.5 8H7ZM9 8H15C15 5.79086 14.2091 4 12 4C9.79086 4 9 5.79086 9 8ZM7 10C5.89543 10 5 10.8954 5 12V18C5 19.1046 5.89543 20 7 20H17C18.1046 20 19 19.1046 19 18V12C19 10.8954 18.1046 10 17 10H7ZM12 17C10.8954 17 10 16.1046 10 15C10 13.8954 10.8954 13 12 13C13.1046 13 14 13.8954 14 15C14 16.1046 13.1046 17 12 17Z" fill="#FF5921"/>
</g>
</g>
</g>
</svg>
