<svg width="24" height="24" viewBox="0 0 24 24" fill="none" xmlns="http://www.w3.org/2000/svg">
<path d="M19.2312 8.6916L16.8686 3.29144H6.1715L3.80893 8.6916C3.4677 9.47161 3.2915 10.3138 3.2915 11.1652V21.3943C3.2915 22.3032 4.02832 23.04 4.93722 23.04H18.1029C19.0118 23.04 19.7486 22.3032 19.7486 21.3943V11.1652C19.7486 10.3138 19.5725 9.47161 19.2312 8.6916Z" fill="#FAA037"/>
<path d="M5.76011 0H16.0458C16.5003 0 16.8687 0.368383 16.8687 0.822857V3.29143H5.76011C5.30564 3.29143 4.93726 2.92305 4.93726 2.46857V0.822857C4.93726 0.368383 5.30564 0 5.76011 0Z" fill="#FAA037"/>
<path d="M15.6344 0H16.0458C16.5003 0 16.8687 0.368383 16.8687 0.822857V3.29143H15.6344C15.1799 3.29143 14.8115 2.92305 14.8115 2.46857V0.822857C14.8115 0.368383 15.1799 0 15.6344 0Z" fill="#F57828"/>
<path d="M19.2312 8.6916L16.8687 3.29144H6.17152L5.81152 4.1143H15.6858L13.6832 8.6916C13.342 9.47161 13.1658 10.3138 13.1658 11.1653V21.3943C13.1658 22.3032 13.9026 23.04 14.8115 23.04H18.103C19.0118 23.04 19.7487 22.3032 19.7487 21.3943V11.1653C19.7487 10.3138 19.5725 9.47161 19.2312 8.6916Z" fill="#F57828"/>
<path d="M4.11427 17.5542C3.88706 17.5542 3.70284 17.37 3.70284 17.1428V16.8685C3.70284 16.188 3.14916 15.6343 2.46856 15.6343C2.24135 15.6343 2.05713 15.45 2.05713 15.2228C2.05713 14.9956 2.24135 14.8114 2.46856 14.8114C3.60287 14.8114 4.5257 15.7342 4.5257 16.8685V17.1428C4.5257 17.37 4.34148 17.5542 4.11427 17.5542Z" fill="#353744"/>
<path d="M5.76 16.4572C5.12763 16.4572 4.55107 16.6952 4.11429 17.0862C3.6775 16.6952 3.10094 16.4572 2.46857 16.4572C1.1052 16.4572 0 17.5624 0 18.9257C0 21.2571 1.64571 23.04 2.88 23.04C4.11429 23.04 4.11429 23.04 4.11429 23.04C4.11429 23.04 4.11429 23.04 5.34857 23.04C6.58286 23.04 8.22857 21.2571 8.22857 18.9257C8.22857 17.5624 7.12337 16.4572 5.76 16.4572Z" fill="#D7322D"/>
<circle cx="2.05723" cy="18.1028" r="0.822857" fill="#F04B37"/>
<path d="M6.1714 13.1657C5.03529 13.1657 4.11426 14.0867 4.11426 15.2229V15.6343H4.52569C5.66179 15.6343 6.58283 14.7132 6.58283 13.5771C6.58283 13.3499 6.39861 13.1657 6.1714 13.1657Z" fill="#69A041"/>
<path d="M17.2801 11.52H18.103V9.46288C18.103 9.23567 17.9187 9.05145 17.6915 9.05145H15.223C14.9957 9.05145 14.8115 9.23567 14.8115 9.46288C14.8115 9.69009 14.9957 9.87431 15.223 9.87431H17.2801V11.52Z" fill="#D7E6E6"/>
<path d="M22.2172 11.52H15.6344C15.1799 11.52 14.8115 11.8884 14.8115 12.3429V22.2172C14.8115 22.6716 15.1799 23.04 15.6344 23.04H22.2172C22.6717 23.04 23.0401 22.6716 23.0401 22.2172V12.3429C23.0401 11.8884 22.6717 11.52 22.2172 11.52Z" fill="#91B945"/>
<path d="M22.2173 11.52H18.9259C18.4714 11.52 18.103 11.8884 18.103 12.3429V22.2172C18.103 22.6716 18.4714 23.04 18.9259 23.04H22.2173C22.6718 23.04 23.0402 22.6716 23.0402 22.2172V12.3429C23.0402 11.8884 22.6718 11.52 22.2173 11.52Z" fill="#69A041"/>
<circle cx="20.5715" cy="17.28" r="2.05714" fill="#FABE19"/>
</svg>
