<svg width="20" height="24" viewBox="0 0 20 24" fill="none" xmlns="http://www.w3.org/2000/svg">
<path d="M19.0804 24H0.919335C0.428177 24 0.0300293 23.5969 0.0300293 23.0996V0.900422C0.0300293 0.403125 0.428177 0 0.919335 0H19.0804C19.5716 0 19.9698 0.403125 19.9698 0.900422V23.0996C19.9698 23.5969 19.5716 24 19.0804 24Z" fill="#B2CAD8"/>
<path d="M10.4671 16.2279H2.24969C1.859 16.2279 1.54224 15.9073 1.54224 15.5116V2.21886C1.54224 1.82328 1.859 1.50256 2.24969 1.50256H10.4671C10.8577 1.50256 11.1745 1.82328 11.1745 2.21886V15.5116C11.1746 15.9072 10.8578 16.2279 10.4671 16.2279Z" fill="white"/>
<path d="M1.52783 2.42407C6.31487 2.42407 10.2315 6.3897 10.2315 11.2366V16.2053H10.4356C10.8326 16.2053 11.1575 15.8764 11.1575 15.4744V2.18032C11.1575 1.79717 10.8507 1.48657 10.4723 1.48657H2.2182C1.83691 1.48657 1.52783 1.79956 1.52783 2.18562V2.42407Z" fill="#FFF0E3"/>
<path d="M10.5418 22.6767H2.17465C1.68095 22.6767 1.28076 22.2714 1.28076 21.7716V18.6604C1.28076 18.1606 1.68099 17.7554 2.17465 17.7554H10.5418C11.0355 17.7554 11.4357 18.1606 11.4357 18.6604V21.7716C11.4357 22.2715 11.0355 22.6767 10.5418 22.6767Z" fill="#FF715A"/>
<path d="M6.57416 18.6897C8.7475 18.6897 10.5093 20.4736 10.5093 22.6741H10.5568C11.042 22.6741 11.4353 22.2759 11.4353 21.7846V18.6547C11.4353 18.1563 11.0362 17.7522 10.5439 17.7522H2.18967C1.69634 17.7522 1.29639 18.1572 1.29639 18.6567V18.6897H6.57416Z" fill="#CC6969"/>
<path d="M17.6968 22.441H13.7199C13.3022 22.441 12.9636 22.0982 12.9636 21.6753V18.7567C12.9636 18.3338 13.3022 17.991 13.7199 17.991H17.6968C18.1145 17.991 18.4531 18.3338 18.4531 18.7567V21.6753C18.4531 22.0982 18.1145 22.441 17.6968 22.441Z" fill="#FFF0E3"/>
<path d="M14.074 18.924C15.9916 18.924 17.5462 20.498 17.5462 22.4397H17.7151C18.1332 22.4397 18.4721 22.0965 18.4721 21.6732V18.751C18.4721 18.3288 18.1341 17.9866 17.7172 17.9866H13.7383C13.3118 17.9866 12.9629 18.3398 12.9629 18.7716V18.9241H14.074V18.924Z" fill="#FFD8C7"/>
<path d="M17.8532 16.4949H13.5637C13.0718 16.4949 12.6731 16.0911 12.6731 15.5931V10.1964C12.6731 9.69841 13.0718 9.29468 13.5637 9.29468H17.8532C18.3451 9.29468 18.7438 9.69841 18.7438 10.1964V15.5931C18.7438 16.0912 18.3451 16.4949 17.8532 16.4949Z" fill="#CC9E5A"/>
<path d="M12.6851 10.2522C15.5233 10.2522 17.824 12.5817 17.824 15.4553V16.4866H17.8714C18.3566 16.4866 18.7499 16.0884 18.7499 15.5971V10.2081C18.7499 9.71468 18.3549 9.3147 17.8676 9.3147H13.5819C13.0886 9.3147 12.6851 9.72331 12.6851 10.2227L12.6851 10.2522Z" fill="#C19152"/>
<path d="M17.7807 7.74528H13.636C13.2424 7.74528 12.9233 7.42222 12.9233 7.02369V2.2371C12.9233 1.83857 13.2424 1.5155 13.636 1.5155H17.7807C18.1744 1.5155 18.4934 1.83857 18.4934 2.2371V7.02369C18.4934 7.42222 18.1744 7.74528 17.7807 7.74528Z" fill="#FFF0E3"/>
<path d="M12.9167 2.4709C15.463 2.4709 17.5464 4.58028 17.5464 7.1584V7.76778H17.7529C18.1486 7.76778 18.4723 7.43998 18.4723 7.03934V2.27759C18.4723 1.86828 18.1416 1.53345 17.7373 1.53345H13.6082C13.2263 1.5334 12.9167 1.84685 12.9167 2.23348V2.4709Z" fill="#FFD8C7"/>
<ellipse cx="3.64652" cy="4.47419" rx="0.457316" ry="0.407297" fill="#CC9E5A"/>
<ellipse cx="3.64652" cy="8.83967" rx="0.457316" ry="0.407297" fill="#CC9E5A"/>
<ellipse cx="3.58659" cy="13.7049" rx="0.402269" ry="0.407297" fill="black"/>
<ellipse cx="6.35832" cy="4.47419" rx="0.402269" ry="0.407297" fill="#CC9E5A"/>
<ellipse cx="6.35832" cy="8.83967" rx="0.402269" ry="0.407297" fill="black"/>
<ellipse cx="6.35832" cy="13.7049" rx="0.402269" ry="0.407297" fill="black"/>
<ellipse cx="5.44353" cy="21.449" rx="0.402269" ry="0.407297" fill="#E5281A"/>
<ellipse cx="10.1064" cy="19.064" rx="0.402269" ry="0.407297" fill="#E5281A"/>
<ellipse cx="9.101" cy="4.47419" rx="0.402269" ry="0.407297" fill="#CC9E5A"/>
<ellipse cx="9.101" cy="8.83967" rx="0.402269" ry="0.407297" fill="black"/>
<ellipse cx="9.101" cy="13.7049" rx="0.402269" ry="0.407297" fill="#CC9E5A"/>
<path d="M5.72771 6.81813L6.38562 6.50501C9.44243 5.05015 13.0853 6.37976 14.5222 9.47477L14.6324 9.71206C14.8071 10.0884 14.6474 10.5369 14.2757 10.7138L3.89414 15.6548C3.52243 15.8317 3.07951 15.6701 2.90479 15.2937L2.7946 15.0564C1.35771 11.9614 2.6709 8.27299 5.72771 6.81813Z" fill="#FEDE7A"/>
<path d="M3.28193 20.5181L2.6523 19.5165C2.52841 19.3194 2.58577 19.0579 2.78045 18.9325L3.76966 18.295C3.96433 18.1695 4.22262 18.2276 4.34651 18.4247L4.97614 19.4263C5.10003 19.6234 5.04267 19.8849 4.84799 20.0104L3.85878 20.6479C3.6641 20.7733 3.40582 20.7152 3.28193 20.5181Z" fill="#FEDE7A"/>
<path d="M6.77131 20.9561L7.03525 19.7994C7.08719 19.5717 7.31159 19.4298 7.53641 19.4824L8.67891 19.7496C8.90377 19.8022 9.04391 20.0294 8.99196 20.257L8.72803 21.4138C8.67608 21.6415 8.45168 21.7834 8.22687 21.7308L7.08437 21.4636C6.85955 21.411 6.71937 21.1838 6.77131 20.9561Z" fill="#FFFDE9"/>
<path d="M13.9147 11.4925L14.0108 11.0713C14.0747 10.791 14.351 10.6163 14.6278 10.6811L15.0438 10.7784C15.3206 10.8431 15.4932 11.1228 15.4292 11.4031L15.3331 11.8243C15.2692 12.1046 14.9929 12.2793 14.7161 12.2145L14.3001 12.1172C14.0233 12.0525 13.8507 11.7728 13.9147 11.4925Z" fill="#E5281A"/>
<path d="M17.2159 13.9139L17.3121 13.4927C17.376 13.2124 17.6522 13.0377 17.929 13.1025L18.3451 13.1998C18.6219 13.2645 18.7944 13.5442 18.7305 13.8245L18.6344 14.2457C18.5704 14.526 18.2942 14.7007 18.0174 14.6359L17.6014 14.5386C17.3246 14.4738 17.152 14.1942 17.2159 13.9139Z" fill="#FFFDE9"/>
<ellipse cx="15.7008" cy="5.6011" rx="1.37903" ry="1.39627" fill="#CC6969"/>
<ellipse cx="15.7162" cy="3.65957" rx="1.37903" ry="1.39627" fill="#CC4646"/>
<path d="M15.64 14.4575L13.893 14.555C13.7465 14.5632 13.6637 14.7288 13.7439 14.8531L14.7009 16.3362C14.7811 16.4605 14.9642 16.4503 15.0304 16.3178L15.8204 14.7372C15.8867 14.6047 15.7864 14.4493 15.64 14.4575Z" fill="#FEDE7A"/>
<path d="M16.2508 13.768C16.0675 13.768 15.91 13.6278 15.8903 13.4392C15.8452 13.009 15.9124 12.6235 16.0898 12.2936C16.2659 11.9662 16.4959 11.7944 16.6808 11.6565C16.8535 11.5276 16.9314 11.4653 16.967 11.3391C17.0143 11.1718 16.9813 10.9223 16.8268 10.7893C16.6574 10.6435 16.4015 10.6917 16.3729 10.6977C16.1767 10.7387 15.9846 10.6108 15.9441 10.412C15.9036 10.2131 16.03 10.0188 16.2263 9.97783C16.3734 9.94717 16.885 9.87461 17.297 10.2293C17.7076 10.5828 17.7777 11.1431 17.6649 11.5416C17.5597 11.9137 17.3112 12.0992 17.1116 12.2482C16.9586 12.3624 16.8264 12.461 16.7274 12.6452C16.6217 12.8416 16.583 13.0826 16.6122 13.3616C16.6334 13.5635 16.4889 13.7445 16.2896 13.7659C16.2765 13.7672 16.2636 13.768 16.2508 13.768Z" fill="#A57341"/>
<path fill-rule="evenodd" clip-rule="evenodd" d="M13.2677 20.5069C13.4117 21.3282 14.1201 21.9072 14.9168 21.9072C15.0137 21.9072 15.1119 21.8986 15.2104 21.8809C15.6512 21.8017 16.035 21.5534 16.2913 21.182C16.5476 20.8104 16.6457 20.3601 16.5675 19.9139C16.4892 19.4677 16.2441 19.079 15.8771 18.8195C15.5102 18.56 15.0652 18.4607 14.6247 18.5399C13.715 18.7034 13.1062 19.5858 13.2677 20.5069ZM14.7516 19.2636C14.8077 19.2534 14.8638 19.2485 14.9196 19.2485C15.1123 19.2485 15.3002 19.3079 15.4615 19.422C15.6695 19.5691 15.8084 19.7894 15.8527 20.0423C15.8971 20.2952 15.8415 20.5505 15.6962 20.761C15.5509 20.9716 15.3334 21.1123 15.0836 21.1572C14.5676 21.2495 14.0739 20.9005 13.9825 20.3785C13.8909 19.8564 14.236 19.3562 14.7516 19.2636Z" fill="#F5CCDC"/>
<path fill-rule="evenodd" clip-rule="evenodd" d="M13.7501 20.4201C13.852 21.0013 14.3532 21.411 14.917 21.411C14.9856 21.411 15.0551 21.4049 15.1248 21.3924C15.4367 21.3364 15.7083 21.1607 15.8896 20.8978C16.071 20.6349 16.1404 20.3162 16.0851 20.0005C16.0297 19.6848 15.8563 19.4097 15.5966 19.226C15.3369 19.0424 15.022 18.9722 14.7103 19.0282C14.0666 19.1439 13.6358 19.7683 13.7501 20.4201ZM14.7515 19.2635C14.8076 19.2534 14.8638 19.2484 14.9195 19.2484C15.1123 19.2484 15.3001 19.3079 15.4614 19.422C15.6694 19.5691 15.8083 19.7894 15.8526 20.0423C15.897 20.2952 15.8414 20.5504 15.6962 20.761C15.5508 20.9716 15.3333 21.1122 15.0836 21.1572C14.5675 21.2495 14.0739 20.9005 13.9824 20.3785C13.8909 19.8564 14.2359 19.3562 14.7515 19.2635Z" fill="white"/>
<path fill-rule="evenodd" clip-rule="evenodd" d="M13.2677 20.5069C13.4117 21.3282 14.1201 21.9072 14.9168 21.9072C15.0137 21.9072 15.1119 21.8986 15.2104 21.8809C15.6512 21.8017 16.035 21.5534 16.2913 21.182C16.5476 20.8104 16.6457 20.3601 16.5675 19.9139C16.4892 19.4677 16.2441 19.079 15.8771 18.8195C15.5102 18.56 15.0652 18.4607 14.6247 18.5399C13.715 18.7034 13.1062 19.5858 13.2677 20.5069ZM14.6599 18.7405C14.747 18.7249 14.8341 18.7171 14.9207 18.7171C15.2199 18.7171 15.5115 18.8095 15.762 18.9866C16.0848 19.2149 16.3005 19.5569 16.3693 19.9495C16.4381 20.3421 16.3518 20.7384 16.1264 21.0653C15.9008 21.3922 15.5631 21.6106 15.1753 21.6803C14.3741 21.8237 13.6078 21.2819 13.4658 20.4714C13.3237 19.6609 13.8594 18.8843 14.6599 18.7405Z" fill="#E0A9D5"/>
<path fill-rule="evenodd" clip-rule="evenodd" d="M14.7862 20.5069C14.9302 21.3282 15.6386 21.9072 16.4353 21.9072C16.5322 21.9072 16.6304 21.8986 16.729 21.8809C17.1697 21.8017 17.5536 21.5534 17.8099 21.182C18.0662 20.8104 18.1643 20.3601 18.086 19.9139C18.0078 19.4677 17.7626 19.079 17.3957 18.8195C17.0288 18.56 16.5838 18.4607 16.1433 18.5399C15.2335 18.7034 14.6247 19.5858 14.7862 20.5069ZM16.2701 19.2636C16.3263 19.2534 16.3824 19.2485 16.4382 19.2485C16.6308 19.2485 16.8187 19.3079 16.9801 19.422C17.188 19.5691 17.3269 19.7894 17.3713 20.0423C17.4156 20.2952 17.36 20.5505 17.2148 20.761C17.0695 20.9716 16.8519 21.1123 16.6022 21.1572C16.0861 21.2495 15.5925 20.9005 15.501 20.3785C15.4095 19.8564 15.7545 19.3562 16.2701 19.2636Z" fill="#F5CCDC"/>
<path fill-rule="evenodd" clip-rule="evenodd" d="M15.2689 20.4201C15.3708 21.0013 15.872 21.411 16.4358 21.411C16.5044 21.411 16.5739 21.4049 16.6436 21.3924C16.9555 21.3364 17.227 21.1607 17.4084 20.8978C17.5898 20.6349 17.6592 20.3162 17.6039 20.0005C17.5485 19.6848 17.3751 19.4097 17.1154 19.226C16.8557 19.0424 16.5408 18.9722 16.2291 19.0282C15.5854 19.1439 15.1546 19.7683 15.2689 20.4201ZM16.2703 19.2635C16.3264 19.2534 16.3826 19.2484 16.4383 19.2484C16.631 19.2484 16.8189 19.3079 16.9802 19.422C17.1882 19.5691 17.3271 19.7894 17.3714 20.0423C17.4158 20.2952 17.3602 20.5504 17.215 20.761C17.0696 20.9716 16.8521 21.1122 16.6024 21.1572C16.0863 21.2495 15.5927 20.9005 15.5012 20.3785C15.4097 19.8564 15.7547 19.3562 16.2703 19.2635Z" fill="white"/>
<path fill-rule="evenodd" clip-rule="evenodd" d="M14.7862 20.5069C14.9302 21.3282 15.6386 21.9072 16.4353 21.9072C16.5322 21.9072 16.6304 21.8986 16.729 21.8809C17.1697 21.8017 17.5536 21.5534 17.8099 21.182C18.0662 20.8104 18.1643 20.3601 18.086 19.9139C18.0078 19.4677 17.7626 19.079 17.3957 18.8195C17.0288 18.56 16.5838 18.4607 16.1433 18.5399C15.2335 18.7034 14.6247 19.5858 14.7862 20.5069ZM16.1784 18.7405C16.2655 18.7249 16.3527 18.7171 16.4393 18.7171C16.7384 18.7171 17.0301 18.8095 17.2806 18.9866C17.6034 19.2149 17.819 19.5569 17.8879 19.9495C17.9567 20.3421 17.8704 20.7384 17.6449 21.0653C17.4194 21.3922 17.0816 21.6106 16.6939 21.6803C15.8927 21.8237 15.1264 21.2819 14.9844 20.4714C14.8422 19.6609 15.378 18.8843 16.1784 18.7405Z" fill="#E0A9D5"/>
<path d="M3.65895 13.5816C3.37279 12.9588 3.22969 12.6474 3.25053 12.4248C3.29942 11.9026 3.73858 11.8977 3.88557 11.2943C4.03321 10.6883 3.64354 10.4746 3.84247 10.0673C4.06756 9.60647 4.61488 9.78118 5.0608 9.18062C5.28747 8.87527 5.18608 8.77618 5.43756 8.47341C5.67395 8.18879 5.85844 8.16212 6.40256 7.84679C7.24918 7.35615 7.21816 7.1799 7.56701 7.13818C8.09252 7.07527 8.15923 7.47577 8.78293 7.54079C9.64812 7.63097 10.0175 6.91229 10.5883 7.14483C10.9679 7.29952 10.8506 7.63632 11.347 7.98249C11.8632 8.34249 12.1559 8.09396 12.6827 8.42972C13.1112 8.70287 13.5287 9.25702 13.4277 9.71635C13.3359 10.1335 12.846 10.3372 12.4021 10.5257C11.3859 10.9575 10.3901 11.4371 9.37798 11.8786C7.88395 12.5305 6.17941 13.5705 6.02418 13.6657C5.28136 14.1213 4.52992 14.6267 4.08918 14.3436C3.97779 14.2721 3.87002 14.0409 3.65895 13.5816Z" fill="#F9E79B"/>
<ellipse cx="4.8443" cy="12.4486" rx="0.244444" ry="0.2475" fill="#FEDE7A"/>
<ellipse cx="5.07403" cy="10.4854" rx="0.244444" ry="0.2475" fill="#FEDE7A"/>
<ellipse cx="7.11896" cy="9.23017" rx="0.244444" ry="0.2475" fill="#FEDE7A"/>
<ellipse cx="6.51471" cy="10.9579" rx="0.244444" ry="0.2475" fill="#FEDE7A"/>
<ellipse cx="7.94757" cy="11.512" rx="0.244444" ry="0.2475" fill="#FEDE7A"/>
<ellipse cx="8.36432" cy="9.51703" rx="0.244444" ry="0.2475" fill="#FEDE7A"/>
<ellipse cx="11.6815" cy="9.51703" rx="0.244444" ry="0.2475" fill="#FEDE7A"/>
<ellipse cx="9.30084" cy="10.4357" rx="0.244444" ry="0.2475" fill="#FEDE7A"/>
<ellipse cx="10.0757" cy="8.12201" rx="0.244444" ry="0.2475" fill="#FEDE7A"/>
<ellipse cx="10.5174" cy="9.26764" rx="0.244444" ry="0.2475" fill="#FEDE7A"/>
</svg>
