<svg width="24" height="24" viewBox="0 0 24 24" fill="none" xmlns="http://www.w3.org/2000/svg">
<g id="27) Icon/merhant">
<g id="store">
<path id="Shape" fill-rule="evenodd" clip-rule="evenodd" d="M19.7704 3.19861L22 8.19574L21.96 9.25004C21.96 10.7395 20.7598 11.9816 19.2511 12.0005C18.2909 12.0126 17.4405 11.5348 16.9406 10.8052C16.8746 10.7089 16.7314 10.7122 16.6652 10.8085C15.5728 12.3978 13.2115 12.397 12.1196 10.8085C12.0525 10.7109 11.909 10.7109 11.8419 10.8085C10.7509 12.3957 8.3879 12.3992 7.29555 10.8074C7.22844 10.7096 7.08478 10.7096 7.01767 10.8073C6.52362 11.527 5.68927 12.0008 4.74582 12.0008C3.23522 12.0008 2.00403 10.7858 2.00154 9.29204C2.00154 8.17633 1.99865 7.91093 2.00076 7.9109C2.00284 7.91086 2.00975 8.16746 2.02898 8.12432L4.19114 3.19861C4.24395 3.07834 4.3637 3.00076 4.49634 3.00076H19.4652C19.5978 3.00076 19.7175 3.07834 19.7704 3.19861ZM20.5044 13.0155C19.3511 13.4643 18.0045 13.2825 17.021 12.494C16.8951 12.3931 16.7132 12.3928 16.5874 12.4938C15.3209 13.5099 13.4656 13.5103 12.1985 12.4947C12.0721 12.3934 11.8894 12.3934 11.763 12.4947C10.4954 13.5107 8.63904 13.5096 7.37343 12.4933C7.24757 12.3923 7.06553 12.3925 6.93963 12.4935C5.95572 13.2828 4.60911 13.4645 3.45742 13.0155C3.23892 12.9303 2.9995 13.0835 2.9995 13.3079V20.3813C2.9995 21.2539 3.74416 21.9613 4.6627 21.9613H8.28017V15.9966C8.28017 15.1254 9.02628 14.4166 9.94337 14.4166H14.0182C14.9353 14.4166 15.6814 15.1254 15.6814 15.9966V21.9613H19.2989C20.2174 21.9613 20.9621 21.2539 20.9621 20.3813V13.308C20.962 13.0838 20.7229 12.9305 20.5044 13.0155ZM13.9807 16.7841V21.9613H12.1999H11.7616H9.98075V16.7841C9.98075 16.3304 10.2757 15.9613 10.6383 15.9613H13.3232C13.6858 15.9613 13.9807 16.3304 13.9807 16.7841Z" fill="black"/>
</g>
</g>
</svg>
