<svg width="24" height="24" viewBox="0 0 24 24" fill="none" xmlns="http://www.w3.org/2000/svg">
<g id="27) Icon/messages">
<g id="Chat1">
<path id="Path-75" d="M5 15L3 21.5L9.5 19.5L5 15Z" fill="black"/>
<path id="Combined-Shape" fill-rule="evenodd" clip-rule="evenodd" d="M3 11.5C3 16.7467 7.25329 21 12.5 21C17.7467 21 22 16.7467 22 11.5C22 6.25329 17.7467 2 12.5 2C7.25329 2 3 6.25329 3 11.5ZM9 11.5C9 12.3284 8.32843 13 7.5 13C6.67157 13 6 12.3284 6 11.5C6 10.6716 6.67157 10 7.5 10C8.32843 10 9 10.6716 9 11.5ZM12.5 13C13.3284 13 14 12.3284 14 11.5C14 10.6716 13.3284 10 12.5 10C11.6716 10 11 10.6716 11 11.5C11 12.3284 11.6716 13 12.5 13ZM19 11.5C19 12.3284 18.3284 13 17.5 13C16.6716 13 16 12.3284 16 11.5C16 10.6716 16.6716 10 17.5 10C18.3284 10 19 10.6716 19 11.5Z" fill="black"/>
</g>
</g>
</svg>
