<svg width="24" height="24" viewBox="0 0 24 24" fill="none" xmlns="http://www.w3.org/2000/svg">
<g id="27) Icon/moment-fill">
<g id="moment">
<path id="Combined-Shape" fill-rule="evenodd" clip-rule="evenodd" d="M21 16.3851V8.91486L13.0539 13.2074C13.0361 13.217 13.0181 13.2261 13 13.2346V21.4152L20.448 17.291C20.7901 17.1016 21 16.7572 21 16.3851ZM10.7403 13.2074L3 9.02602V16.3851C3 16.7572 3.20987 17.1016 3.55204 17.291L11 21.4152V13.3056C10.911 13.285 10.8236 13.2524 10.7403 13.2074Z" fill="black"/>
<path id="Path" opacity="0.3" d="M3.2431 6.99652C3.33765 6.88481 3.45698 6.79039 3.59611 6.72106L11.4711 2.79648C11.8017 2.63172 12.1982 2.63172 12.5288 2.79648L20.4038 6.72106C20.5111 6.77451 20.6066 6.84286 20.688 6.92254L12.0539 11.5868C11.9971 11.6174 11.9448 11.6525 11.8971 11.6913C11.8494 11.6525 11.797 11.6174 11.7403 11.5868L3.2431 6.99652Z" fill="black"/>
</g>
</g>
</svg>
