<svg width="22" height="22" viewBox="0 0 22 22" fill="none" xmlns="http://www.w3.org/2000/svg">
<path d="M20.4155 14.3411C17.5924 16.3495 13.8895 16.5726 10.877 15M1.58445 7.65889C4.41439 5.64566 8.12844 5.42638 11.1448 7.01149M14.3737 13.1243C17.2604 11.305 18.9319 7.97413 18.601 4.51222M7.58184 8.90371C4.72231 10.7291 3.06959 14.0436 3.39878 17.4878M14.5269 9.13704C14.3939 5.72851 12.345 2.61684 9.1821 1.17222M7.47562 12.9256C7.63112 16.3096 9.67429 19.392 12.8177 20.8278M18.071 3.92893C21.9763 7.83418 21.9763 14.1658 18.071 18.071C14.1658 21.9763 7.83416 21.9763 3.92893 18.071C0.0236888 14.1658 0.0236888 7.83416 3.92893 3.92893C7.83418 0.0236888 14.1658 0.0236888 18.071 3.92893ZM13.8284 8.17157C15.3905 9.73367 15.3905 12.2663 13.8284 13.8284C12.2663 15.3905 9.73367 15.3905 8.17157 13.8284C6.60948 12.2663 6.60948 9.73367 8.17157 8.17157C9.73367 6.60948 12.2663 6.60948 13.8284 8.17157Z" stroke="#101828" stroke-width="1.5" stroke-linecap="round" stroke-linejoin="round"/>
</svg>
