<svg xmlns="http://www.w3.org/2000/svg" width="24" height="24" viewBox="0 0 24 24">
    <g fill="none" fill-rule="evenodd">
        <g>
            <g>
                <path fill-rule="nonzero" d="M0 0H24V24H0z" transform="translate(-331 -57) translate(331 57)"/>
                <path fill="#FFF" d="M12 14c-1.105 0-2-.895-2-2s.895-2 2-2 2 .895 2 2-.895 2-2 2zm0 7c-1.105 0-2-.895-2-2s.895-2 2-2 2 .895 2 2-.895 2-2 2zm0-14c-1.105 0-2-.895-2-2s.895-2 2-2 2 .895 2 2-.895 2-2 2z" transform="translate(-331 -57) translate(331 57)"/>
            </g>
        </g>
    </g>
</svg>
