<svg width="20" height="22" viewBox="0 0 20 22" fill="none" xmlns="http://www.w3.org/2000/svg">
<path d="M13 18C13 19.6569 11.6569 21 10 21C8.34315 21 7 19.6569 7 18M5.37748 6.88479C4.49088 7.81326 4 8.9847 4 10.2C4 12.4818 3.43413 14.1506 2.72806 15.3447C1.92334 16.7056 1.52098 17.3861 1.53686 17.5486C1.55504 17.7346 1.58852 17.7933 1.73934 17.9036C1.87117 18 2.53351 18 3.85819 18H17.88M10 5C9.70709 5 9.41639 5.01856 9.12999 5.05493C8.74847 5.10339 8.55771 5.12762 8.36624 5.07557C8.2284 5.0381 8.02056 4.91728 7.91979 4.81604C7.77982 4.67541 7.74922 4.60123 7.68801 4.45287C7.56684 4.15921 7.5 3.83741 7.5 3.5C7.5 2.11929 8.61929 1 10 1C11.3807 1 12.5 2.11929 12.5 3.5C12.5 4.17562 12.232 4.78864 11.7965 5.23856C11.2203 5.08184 10.615 5 10 5ZM10 5C11.5913 5 13.1174 5.54786 14.2426 6.52304C15.3679 7.49823 16 8.82087 16 10.2C16 10.5348 16.0091 10.8563 16.0264 11.1652M19 19L1 3" stroke="#101828" stroke-width="1.5" stroke-linecap="round" stroke-linejoin="round"/>
</svg>
