<svg width="24" height="24" viewBox="0 0 24 24" fill="none" xmlns="http://www.w3.org/2000/svg">
<g id="27) Icon/my-life3">
<g id="calendar">
<path id="Path" d="M20 4H19V3C19 2.4 18.6 2 18 2C17.4 2 17 2.4 17 3V4H7V3C7 2.4 6.6 2 6 2C5.4 2 5 2.4 5 3V4H3C2.5 4 2 4.4 2 5V19C2 19.6 2.5 20 3 20H9.1C8.4 18.8 8 17.4 8 16C8 11.6 11.6 8 16 8C17.9 8 19.6 8.7 21 9.8V5C21 4.5 20.5 4 20 4Z" fill="black"/>
<path id="Shape" fill-rule="evenodd" clip-rule="evenodd" d="M10 16C10 12.7 12.7 10 16 10C19.3 10 22 12.7 22 16C22 19.3 19.3 22 16 22C12.7 22 10 19.3 10 16ZM15 16C15 16.6 15.4 17 16 17H18C18.6 17 19 16.6 19 16C19 15.4 18.6 15 18 15H17V13C17 12.4 16.6 12 16 12C15.4 12 15 12.4 15 13V16Z" fill="black"/>
</g>
</g>
</svg>
