<svg width="24" height="24" viewBox="0 0 24 24" fill="none" xmlns="http://www.w3.org/2000/svg">
<g id="27) Icon/mywallet">
<g id="Wallet">
<circle id="Oval-47" opacity="0.3" cx="20.5" cy="13.5" r="1.5" fill="black"/>
<rect id="Rectangle-162" opacity="0.3" x="2.4008" y="6.44864" width="18" height="7" rx="1" transform="rotate(-15 2.4008 6.44864)" fill="black"/>
<path id="Combined-Shape" d="M22 10.3368C21.5454 10.1208 21.0368 10 20.5 10C18.567 10 17 11.567 17 13.5C17 15.433 18.567 17 20.5 17C21.0368 17 21.5454 16.8792 22 16.6632V19C22 20.1046 21.1046 21 20 21H4C2.89543 21 2 20.1046 2 19V7C2 5.89543 2.89543 5 4 5H20C21.1046 5 22 5.89543 22 7V10.3368Z" fill="black"/>
</g>
</g>
</svg>
