<svg width="25" height="22" viewBox="0 0 25 22" fill="none" xmlns="http://www.w3.org/2000/svg">
<path d="M12.5037 21.3182L2.28214 11.0966C1.4668 10.2812 0.923236 9.33333 0.651456 8.25284C0.386305 7.17235 0.389619 6.09848 0.661399 5.03125C0.93318 3.95739 1.47343 3.02273 2.28214 2.22727C3.11074 1.41193 4.05534 0.871685 5.11594 0.606534C6.18318 0.334753 7.2471 0.334753 8.30771 0.606534C9.37494 0.878314 10.3229 1.41856 11.1515 2.22727L12.5037 3.53977L13.856 2.22727C14.6912 1.41856 15.6391 0.878314 16.6998 0.606534C17.7604 0.334753 18.821 0.334753 19.8816 0.606534C20.9488 0.871685 21.8967 1.41193 22.7253 2.22727C23.534 3.02273 24.0743 3.95739 24.3461 5.03125C24.6178 6.09848 24.6178 7.17235 24.3461 8.25284C24.0809 9.33333 23.5407 10.2812 22.7253 11.0966L12.5037 21.3182Z" fill="url(#paint0_linear_466_75943)"/>
<defs>
<linearGradient id="paint0_linear_466_75943" x1="-2" y1="-3" x2="-2" y2="25" gradientUnits="userSpaceOnUse">
<stop stop-color="#FA6363"/>
<stop offset="1" stop-color="#F33333"/>
</linearGradient>
</defs>
</svg>
