<svg version="1.1" id="Layer_1" xmlns="http://www.w3.org/2000/svg" xmlns:xlink="http://www.w3.org/1999/xlink" x="0px" y="0px"
	width="100%" viewBox="0 0 992 809" enable-background="new 0 0 992 809" xml:space="preserve">
<path fill="#ffffff" opacity="1.000000" stroke="none"
	d="
M693.000000,810.000000
	C462.000000,810.000000 231.500000,810.000000 1.000000,810.000000
	C1.000000,540.333313 1.000000,270.666656 1.000000,1.000000
	C331.666656,1.000000 662.333313,1.000000 993.000000,1.000000
	C993.000000,270.666656 993.000000,540.333313 993.000000,810.000000
	C893.166687,810.000000 793.333313,810.000000 693.000000,810.000000
M712.760986,639.214417
	C720.371887,645.406311 724.185181,653.144714 721.548157,662.978516
	C717.380981,678.518433 698.629211,683.673828 686.905884,672.408142
	C675.614380,661.557495 664.685974,650.328796 653.604675,639.259583
	C639.929688,625.599609 626.316223,611.877441 612.567749,598.291931
	C605.418091,591.227112 596.610474,589.567627 588.324097,593.344177
	C579.418640,597.402710 575.421509,604.606750 575.873352,615.128967
	C576.200562,622.749695 581.292908,627.506775 586.060913,632.272217
	C610.096741,656.295227 634.111389,680.344971 658.490234,704.017883
	C692.356812,736.903809 751.348022,719.750916 763.016724,673.901062
	C766.358521,660.770447 765.422791,647.878174 762.585999,635.001831
	C780.743591,628.433838 794.426575,616.883118 802.450378,599.084412
	C809.499451,583.447998 806.983154,562.611450 794.758423,549.282349
	C780.223877,533.434875 761.281250,527.332703 740.677246,527.370911
	C730.158142,527.390442 719.405273,530.266174 709.200012,533.325195
	C699.568115,536.212341 690.526611,541.049316 683.325073,548.919434
	C678.977417,544.827148 674.714600,540.639771 670.261658,536.665466
	C663.947205,531.029724 656.521179,530.048950 648.939575,533.133972
	C634.277161,539.100281 630.976929,556.764465 642.158691,568.416382
	C649.396667,575.958679 656.798279,583.343994 664.047668,591.663940
	C665.482849,608.448242 674.293945,620.794373 687.895630,629.804993
	C695.172180,634.625305 703.008484,638.759888 712.760986,639.214417
M253.291626,275.927948
	C249.640457,274.335510 245.940170,272.846100 242.346512,271.133026
	C225.849548,263.268951 209.337311,255.746704 190.782349,253.655045
	C175.368500,251.917465 160.756454,254.169968 147.745499,262.156708
	C139.094116,267.467316 131.234055,274.439850 124.049210,281.688812
	C109.299629,296.570007 99.725533,314.877197 93.197762,334.556946
	C86.451836,354.894348 84.544250,375.784454 87.819481,397.245117
	C90.737106,416.362579 96.629662,434.474915 105.515236,451.362488
	C112.904312,465.405884 122.065765,478.560608 130.967255,491.754700
	C147.193848,515.806458 167.216492,536.075012 191.704544,551.926025
	C221.859955,571.445496 254.683929,584.692566 289.189819,593.922241
	C305.997925,598.418091 323.217712,600.951721 340.693054,601.013306
	C358.266602,601.075256 375.840790,601.019409 393.413940,600.903870
	C394.325104,600.897888 395.229370,599.846863 397.027802,599.318298
	C402.310425,599.956116 407.579681,600.747803 412.877716,601.208313
	C475.937408,606.689819 531.086609,588.344849 578.200378,546.059143
	C594.050598,531.833191 606.701294,514.964417 618.706482,496.983398
	C619.656677,496.720581 620.689575,496.616669 621.544983,496.171600
	C639.067261,487.054535 658.049011,484.185669 677.405029,484.186829
	C689.274170,484.187561 701.145630,485.946747 713.011780,486.965546
	C740.229797,489.302460 764.106934,481.607941 783.243225,461.963226
	C792.094604,452.876678 800.042480,442.721649 807.248962,432.258301
	C825.127136,406.300140 839.780579,378.593689 849.312134,348.404022
	C857.513000,322.429108 859.949707,295.790649 856.845276,268.811554
	C854.089050,244.858231 846.954529,222.197235 834.680603,201.223740
	C820.494019,176.981979 801.371704,157.717422 776.688965,144.483032
	C746.720581,128.414597 714.452759,123.072929 680.789490,127.134422
	C657.059509,129.997467 634.413696,137.078445 613.182800,148.026886
	C589.153870,160.418167 567.132446,175.663940 549.192688,196.250305
	C546.160095,199.730347 542.800659,202.925568 538.933228,206.080353
	C509.993652,190.139481 479.097656,180.372726 446.076111,178.929825
	C429.871216,178.221725 413.379181,178.632690 397.335388,180.845200
	C365.663879,185.212814 337.093018,198.086380 311.065521,216.589462
	C288.288910,232.781479 269.523529,252.831329 253.291626,275.927948
M141.846588,562.034790
	C141.920822,561.205811 141.904816,560.356934 142.082458,559.550720
	C147.192764,536.357422 128.196732,513.432190 103.913231,512.965088
	C81.498650,512.533997 63.629742,532.801941 63.742332,552.727783
	C63.858620,573.306946 82.631287,591.864319 102.272919,592.125793
	C119.670525,592.357422 137.187408,580.425842 141.846588,562.034790
M899.995056,402.502380
	C891.721130,395.113037 881.974304,391.550720 871.053406,393.270233
	C855.663452,395.693451 843.794495,409.577850 842.854919,423.329376
	C841.522156,442.835541 855.647583,456.546844 870.309753,459.414764
	C892.378784,463.731445 913.656494,443.241577 909.321594,421.099945
	C907.952393,414.106903 904.829468,408.367401 899.995056,402.502380
M95.184540,248.522873
	C102.244408,252.239502 109.808266,253.431702 117.388252,251.225906
	C140.312195,244.554932 143.892548,217.058197 129.306595,203.470016
	C116.065781,191.134949 91.237991,193.718628 83.450691,214.374542
	C79.683754,224.366394 81.126312,239.137939 95.184540,248.522873
M285.682953,116.648994
	C289.361511,121.499123 294.153046,123.604240 300.136719,122.056259
	C305.433502,120.685974 308.856262,117.173134 309.864197,111.769623
	C310.899963,106.216827 309.108002,101.555664 304.455627,98.190353
	C299.666260,94.725975 292.822021,95.041435 288.192047,98.855194
	C283.222137,102.948959 282.193207,108.965790 285.682953,116.648994
M908.724426,303.748749
	C914.713135,306.990143 920.746765,304.922455 920.708862,299.170197
	C920.691772,296.575409 918.681641,292.755951 916.528015,291.761749
	C914.380371,290.770294 910.217957,291.761169 908.199036,293.418274
	C904.984680,296.056641 905.507690,299.928375 908.724426,303.748749
M276.861206,153.275436
	C274.257996,150.340546 267.269196,148.996170 264.270447,151.030106
	C261.613831,152.831955 260.726959,156.218613 263.198639,157.687943
	C266.006378,159.357056 270.030853,159.678131 273.407501,159.352402
	C274.784912,159.219528 275.849823,155.847366 276.861206,153.275436
M232.822006,157.979492
	C236.438004,158.459229 240.123993,159.595367 243.648758,159.219498
	C246.692032,158.894989 247.654114,155.948715 246.399490,152.984360
	C245.287933,150.358063 239.010483,148.988083 235.042816,150.554703
	C231.845901,151.816986 230.971283,154.227997 232.822006,157.979492
M257.921173,133.932297
	C252.801193,131.079102 250.071136,132.532959 249.911255,138.227310
	C249.864655,139.886902 249.356644,141.879608 250.079361,143.130966
	C251.080490,144.864380 252.929001,146.940582 254.635117,147.160599
	C255.907059,147.324600 258.483185,144.964615 258.784790,143.401825
	C259.326416,140.595261 258.595490,137.543106 257.921173,133.932297
M259.079132,171.333893
	C258.946442,167.639374 260.034485,162.673019 254.357040,162.757217
	C248.606277,162.842453 250.135849,167.916504 249.901718,171.517029
	C249.696381,174.674683 250.534164,177.439560 254.109512,177.628448
	C257.507050,177.807922 259.142975,175.583252 259.079132,171.333893
M911.098999,200.341522
	C914.133972,200.956818 917.259827,202.337479 920.180420,201.990372
	C923.697510,201.572357 925.108643,196.559067 922.253540,194.882690
	C919.769775,193.424393 916.066711,193.297363 913.103760,193.790833
	C912.013977,193.972321 911.500793,197.616043 911.098999,200.341522
M906.463928,214.808701
	C911.051575,213.119888 913.071533,207.627518 910.554749,203.685150
	C908.698486,200.777481 904.424194,200.764191 902.634705,203.660507
	C900.623596,206.915649 902.186462,212.547638 906.463928,214.808701
M902.405640,199.729675
	C902.957275,194.799225 901.737854,193.249969 897.132812,193.030731
	C892.178040,192.794815 889.347412,194.678543 889.590820,198.049805
	C889.827087,201.323212 893.073364,203.253021 897.700745,202.500473
	C899.210205,202.255020 900.575073,201.120010 902.405640,199.729675
M906.466675,194.006195
	C911.112244,192.486649 913.162354,186.391678 910.293945,182.627701
	C908.390808,180.130463 904.389954,180.326767 902.679688,183.001358
	C900.627991,186.209900 902.161499,191.803375 906.466675,194.006195
z"/>
	<path fill="#8F9BB3" opacity="1.000000" stroke="none"
		d="
M539.592163,206.252350
	C542.800659,202.925568 546.160095,199.730347 549.192688,196.250305
	C567.132446,175.663940 589.153870,160.418167 613.182800,148.026886
	C634.413696,137.078445 657.059509,129.997467 680.789490,127.134422
	C714.452759,123.072929 746.720581,128.414597 776.688965,144.483032
	C801.371704,157.717422 820.494019,176.981979 834.680603,201.223740
	C846.954529,222.197235 854.089050,244.858231 856.845276,268.811554
	C859.949707,295.790649 857.513000,322.429108 849.312134,348.404022
	C839.780579,378.593689 825.127136,406.300140 807.248962,432.258301
	C800.042480,442.721649 792.094604,452.876678 783.243225,461.963226
	C764.106934,481.607941 740.229797,489.302460 713.011780,486.965546
	C701.145630,485.946747 689.274170,484.187561 677.405029,484.186829
	C658.049011,484.185669 639.067261,487.054535 621.544983,496.171600
	C620.689575,496.616669 619.656677,496.720581 618.393005,496.635193
	C638.221863,460.333954 648.439575,421.970856 646.157043,380.578186
	C643.256165,327.972321 623.501465,282.580963 587.648254,244.108337
	C573.585571,229.018250 557.200439,216.853287 539.592163,206.252350
z"/>
	<path fill="#EC8436" opacity="1.000000" stroke="none"
		d="
M539.262695,206.166351
	C557.200439,216.853287 573.585571,229.018250 587.648254,244.108337
	C623.501465,282.580963 643.256165,327.972321 646.157043,380.578186
	C648.439575,421.970856 638.221863,460.333954 618.010620,496.633057
	C606.701294,514.964417 594.050598,531.833191 578.200378,546.059143
	C531.086609,588.344849 475.937408,606.689819 412.877716,601.208313
	C407.579681,600.747803 402.310425,599.956116 396.255096,599.157227
	C358.530701,592.002136 325.558594,576.512634 297.128937,551.904907
	C251.331604,512.264282 226.444519,461.869751 222.354126,401.583099
	C220.752625,377.979034 222.223221,354.358124 229.141022,331.387604
	C235.031433,311.828491 243.525558,293.479706 254.020737,276.009857
	C269.523529,252.831329 288.288910,232.781479 311.065521,216.589462
	C337.093018,198.086380 365.663879,185.212814 397.335388,180.845200
	C413.379181,178.632690 429.871216,178.221725 446.076111,178.929825
	C479.097656,180.372726 509.993652,190.139481 539.262695,206.166351
M472.080658,555.754456
	C489.104980,552.360596 504.660034,545.368103 519.617004,536.736389
	C586.152344,498.338715 610.384644,429.814911 602.650513,368.668182
	C592.673706,289.790070 529.059326,233.334274 463.519592,223.533310
	C436.143005,219.439331 409.726959,220.925171 383.594574,228.807480
	C300.881409,253.756287 250.177628,340.092773 268.290771,424.570953
	C285.582062,505.216095 353.506348,560.176086 436.095184,559.778076
	C447.816864,559.721558 459.526855,557.249329 472.080658,555.754456
z"/>
	<path fill="#8F9BB3" opacity="1.000000" stroke="none"
		d="
M253.656189,275.968903
	C243.525558,293.479706 235.031433,311.828491 229.141022,331.387604
	C222.223221,354.358124 220.752625,377.979034 222.354126,401.583099
	C226.444519,461.869751 251.331604,512.264282 297.128937,551.904907
	C325.558594,576.512634 358.530701,592.002136 395.809631,599.139282
	C395.229370,599.846863 394.325104,600.897888 393.413940,600.903870
	C375.840790,601.019409 358.266602,601.075256 340.693054,601.013306
	C323.217712,600.951721 305.997925,598.418091 289.189819,593.922241
	C254.683929,584.692566 221.859955,571.445496 191.704544,551.926025
	C167.216492,536.075012 147.193848,515.806458 130.967255,491.754700
	C122.065765,478.560608 112.904312,465.405884 105.515236,451.362488
	C96.629662,434.474915 90.737106,416.362579 87.819481,397.245117
	C84.544250,375.784454 86.451836,354.894348 93.197762,334.556946
	C99.725533,314.877197 109.299629,296.570007 124.049210,281.688812
	C131.234055,274.439850 139.094116,267.467316 147.745499,262.156708
	C160.756454,254.169968 175.368500,251.917465 190.782349,253.655045
	C209.337311,255.746704 225.849548,263.268951 242.346512,271.133026
	C245.940170,272.846100 249.640457,274.335510 253.656189,275.968903
z"/>
	<path fill="#EC8436" opacity="1.000000" stroke="none"
		d="
M664.126526,590.799622
	C656.798279,583.343994 649.396667,575.958679 642.158691,568.416382
	C630.976929,556.764465 634.277161,539.100281 648.939575,533.133972
	C656.521179,530.048950 663.947205,531.029724 670.261658,536.665466
	C674.714600,540.639771 678.977417,544.827148 683.781189,549.360596
	C701.870239,567.697571 719.435913,585.660217 737.163086,603.462158
	C746.663452,613.002502 756.622803,622.124695 761.791382,635.019714
	C765.422791,647.878174 766.358521,660.770447 763.016724,673.901062
	C751.348022,719.750916 692.356812,736.903809 658.490234,704.017883
	C634.111389,680.344971 610.096741,656.295227 586.060913,632.272217
	C581.292908,627.506775 576.200562,622.749695 575.873352,615.128967
	C575.421509,604.606750 579.418640,597.402710 588.324097,593.344177
	C596.610474,589.567627 605.418091,591.227112 612.567749,598.291931
	C626.316223,611.877441 639.929688,625.599609 653.604675,639.259583
	C664.685974,650.328796 675.614380,661.557495 686.905884,672.408142
	C698.629211,683.673828 717.380981,678.518433 721.548157,662.978516
	C724.185181,653.144714 720.371887,645.406311 712.303833,638.761230
	C695.939941,622.471924 680.033264,606.635742 664.126526,590.799622
z"/>
	<path fill="#8F9BB3" opacity="1.000000" stroke="none"
		d="
M762.188721,635.010742
	C756.622803,622.124695 746.663452,613.002502 737.163086,603.462158
	C719.435913,585.660217 701.870239,567.697571 684.082397,549.523315
	C690.526611,541.049316 699.568115,536.212341 709.200012,533.325195
	C719.405273,530.266174 730.158142,527.390442 740.677246,527.370911
	C761.281250,527.332703 780.223877,533.434875 794.758423,549.282349
	C806.983154,562.611450 809.499451,583.447998 802.450378,599.084412
	C794.426575,616.883118 780.743591,628.433838 762.188721,635.010742
z"/>
	<path fill="#EC8436" opacity="1.000000" stroke="none"
		d="
M141.707581,562.425171
	C137.187408,580.425842 119.670525,592.357422 102.272919,592.125793
	C82.631287,591.864319 63.858620,573.306946 63.742332,552.727783
	C63.629742,532.801941 81.498650,512.533997 103.913231,512.965088
	C128.196732,513.432190 147.192764,536.357422 142.082458,559.550720
	C141.904816,560.356934 141.920822,561.205811 141.707581,562.425171
z"/>
	<path fill="#EC8436" opacity="1.000000" stroke="none"
		d="
M900.249695,402.759644
	C904.829468,408.367401 907.952393,414.106903 909.321594,421.099945
	C913.656494,443.241577 892.378784,463.731445 870.309753,459.414764
	C855.647583,456.546844 841.522156,442.835541 842.854919,423.329376
	C843.794495,409.577850 855.663452,395.693451 871.053406,393.270233
	C881.974304,391.550720 891.721130,395.113037 900.249695,402.759644
z"/>
	<path fill="#EC8436" opacity="1.000000" stroke="none"
		d="
M94.894379,248.291077
	C81.126312,239.137939 79.683754,224.366394 83.450691,214.374542
	C91.237991,193.718628 116.065781,191.134949 129.306595,203.470016
	C143.892548,217.058197 140.312195,244.554932 117.388252,251.225906
	C109.808266,253.431702 102.244408,252.239502 94.894379,248.291077
z"/>
	<path fill="#8F9BB3" opacity="1.000000" stroke="none"
		d="
M664.087097,591.231812
	C680.033264,606.635742 695.939941,622.471924 712.015015,638.598999
	C703.008484,638.759888 695.172180,634.625305 687.895630,629.804993
	C674.293945,620.794373 665.482849,608.448242 664.087097,591.231812
z"/>
	<path fill="#0F62FE" opacity="1.000000" stroke="none"
		d="
M285.468414,116.342674
	C282.193207,108.965790 283.222137,102.948959 288.192047,98.855194
	C292.822021,95.041435 299.666260,94.725975 304.455627,98.190353
	C309.108002,101.555664 310.899963,106.216827 309.864197,111.769623
	C308.856262,117.173134 305.433502,120.685974 300.136719,122.056259
	C294.153046,123.604240 289.361511,121.499123 285.468414,116.342674
M299.928467,106.588257
	C297.917603,106.519768 295.761871,106.017616 293.973541,106.615143
	C293.337189,106.827774 292.914307,110.157280 293.632782,111.247658
	C294.346863,112.331306 297.598755,113.230309 298.021210,112.737839
	C299.257019,111.297150 299.637177,109.122528 299.928467,106.588257
z"/>
	<path fill="#0F62FE" opacity="1.000000" stroke="none"
		d="
M908.455566,303.485809
	C905.507690,299.928375 904.984680,296.056641 908.199036,293.418274
	C910.217957,291.761169 914.380371,290.770294 916.528015,291.761749
	C918.681641,292.755951 920.691772,296.575409 920.708862,299.170197
	C920.746765,304.922455 914.713135,306.990143 908.455566,303.485809
z"/>
	<path fill="#0F62FE" opacity="1.000000" stroke="none"
		d="
M276.959076,153.612198
	C275.849823,155.847366 274.784912,159.219528 273.407501,159.352402
	C270.030853,159.678131 266.006378,159.357056 263.198639,157.687943
	C260.726959,156.218613 261.613831,152.831955 264.270447,151.030106
	C267.269196,148.996170 274.257996,150.340546 276.959076,153.612198
z"/>
	<path fill="#0F62FE" opacity="1.000000" stroke="none"
		d="
M232.594788,157.692673
	C230.971283,154.227997 231.845901,151.816986 235.042816,150.554703
	C239.010483,148.988083 245.287933,150.358063 246.399490,152.984360
	C247.654114,155.948715 246.692032,158.894989 243.648758,159.219498
	C240.123993,159.595367 236.438004,158.459229 232.594788,157.692673
z"/>
	<path fill="#0F62FE" opacity="1.000000" stroke="none"
		d="
M258.158722,134.262939
	C258.595490,137.543106 259.326416,140.595261 258.784790,143.401825
	C258.483185,144.964615 255.907059,147.324600 254.635117,147.160599
	C252.929001,146.940582 251.080490,144.864380 250.079361,143.130966
	C249.356644,141.879608 249.864655,139.886902 249.911255,138.227310
	C250.071136,132.532959 252.801193,131.079102 258.158722,134.262939
z"/>
	<path fill="#0F62FE" opacity="1.000000" stroke="none"
		d="
M259.077179,171.761688
	C259.142975,175.583252 257.507050,177.807922 254.109512,177.628448
	C250.534164,177.439560 249.696381,174.674683 249.901718,171.517029
	C250.135849,167.916504 248.606277,162.842453 254.357040,162.757217
	C260.034485,162.673019 258.946442,167.639374 259.077179,171.761688
z"/>
	<path fill="#0F62FE" opacity="1.000000" stroke="none"
		d="
M910.911804,200.011017
	C911.500793,197.616043 912.013977,193.972321 913.103760,193.790833
	C916.066711,193.297363 919.769775,193.424393 922.253540,194.882690
	C925.108643,196.559067 923.697510,201.572357 920.180420,201.990372
	C917.259827,202.337479 914.133972,200.956818 910.911804,200.011017
z"/>
	<path fill="#0F62FE" opacity="1.000000" stroke="none"
		d="
M906.083374,214.762970
	C902.186462,212.547638 900.623596,206.915649 902.634705,203.660507
	C904.424194,200.764191 908.698486,200.777481 910.554749,203.685150
	C913.071533,207.627518 911.051575,213.119888 906.083374,214.762970
z"/>
	<path fill="#0F62FE" opacity="1.000000" stroke="none"
		d="
M902.205811,200.060760
	C900.575073,201.120010 899.210205,202.255020 897.700745,202.500473
	C893.073364,203.253021 889.827087,201.323212 889.590820,198.049805
	C889.347412,194.678543 892.178040,192.794815 897.132812,193.030731
	C901.737854,193.249969 902.957275,194.799225 902.205811,200.060760
z"/>
	<path fill="#0F62FE" opacity="1.000000" stroke="none"
		d="
M906.070190,193.964233
	C902.161499,191.803375 900.627991,186.209900 902.679688,183.001358
	C904.389954,180.326767 908.390808,180.130463 910.293945,182.627701
	C913.162354,186.391678 911.112244,192.486649 906.070190,193.964233
z"/>
	<path fill="#F4ECE6" opacity="1.000000" stroke="none"
		d="
M471.661469,555.824829
	C459.526855,557.249329 447.816864,559.721558 436.095184,559.778076
	C353.506348,560.176086 285.582062,505.216095 268.290771,424.570953
	C250.177628,340.092773 300.881409,253.756287 383.594574,228.807480
	C409.726959,220.925171 436.143005,219.439331 463.519592,223.533310
	C529.059326,233.334274 592.673706,289.790070 602.650513,368.668182
	C610.384644,429.814911 586.152344,498.338715 519.617004,536.736389
	C504.660034,545.368103 489.104980,552.360596 471.661469,555.824829
M532.940796,443.060547
	C533.680542,435.573273 532.506836,428.467560 528.839417,421.819000
	C505.835144,380.115234 482.898285,338.374176 459.808380,296.717896
	C455.248535,288.491486 448.279663,283.018860 438.917511,280.947632
	C422.955170,277.416260 409.230133,283.622070 401.086548,298.275299
	C390.165588,317.926025 379.378510,337.651123 368.539307,357.347260
	C356.816895,378.648224 345.083130,399.942902 333.391174,421.260590
	C329.291168,428.736084 326.721497,436.591095 329.093109,445.179596
	C334.031372,463.063049 345.909882,471.986084 364.539062,471.990204
	C408.862885,472.000031 453.186737,471.998932 497.510559,471.990997
	C516.444336,471.987610 528.383911,462.499268 532.940796,443.060547
z"/>
	<path fill="#F2F3F9" opacity="1.000000" stroke="none"
		d="
M300.140564,106.911880
	C299.637177,109.122528 299.257019,111.297150 298.021210,112.737839
	C297.598755,113.230309 294.346863,112.331306 293.632782,111.247658
	C292.914307,110.157280 293.337189,106.827774 293.973541,106.615143
	C295.761871,106.017616 297.917603,106.519768 300.140564,106.911880
z"/>
	<path fill="#EC8436" opacity="1.000000" stroke="none"
		d="
M532.898010,443.501831
	C528.383911,462.499268 516.444336,471.987610 497.510559,471.990997
	C453.186737,471.998932 408.862885,472.000031 364.539062,471.990204
	C345.909882,471.986084 334.031372,463.063049 329.093109,445.179596
	C326.721497,436.591095 329.291168,428.736084 333.391174,421.260590
	C345.083130,399.942902 356.816895,378.648224 368.539307,357.347260
	C379.378510,337.651123 390.165588,317.926025 401.086548,298.275299
	C409.230133,283.622070 422.955170,277.416260 438.917511,280.947632
	C448.279663,283.018860 455.248535,288.491486 459.808380,296.717896
	C482.898285,338.374176 505.835144,380.115234 528.839417,421.819000
	C532.506836,428.467560 533.680542,435.573273 532.898010,443.501831
M473.499817,444.023499
	C478.328857,444.045319 483.157867,444.071838 487.986938,444.088135
	C502.316406,444.136536 508.304321,433.938416 501.356781,421.299835
	C482.275787,386.588715 463.149292,351.902496 444.142242,317.150940
	C441.210114,311.789978 437.414093,308.033295 431.005188,307.973694
	C424.557037,307.913727 420.731873,311.702515 417.804291,317.034851
	C398.661560,351.901611 379.392792,386.699219 360.265137,421.574188
	C353.494171,433.919464 359.599701,444.102905 373.583740,444.096313
	C406.555817,444.080841 439.527863,444.048828 473.499817,444.023499
z"/>
	<path fill="#F3EBE6" opacity="1.000000" stroke="none"
		d="
M472.999878,444.023499
	C439.527863,444.048828 406.555817,444.080841 373.583740,444.096313
	C359.599701,444.102905 353.494171,433.919464 360.265137,421.574188
	C379.392792,386.699219 398.661560,351.901611 417.804291,317.034851
	C420.731873,311.702515 424.557037,307.913727 431.005188,307.973694
	C437.414093,308.033295 441.210114,311.789978 444.142242,317.150940
	C463.149292,351.902496 482.275787,386.588715 501.356781,421.299835
	C508.304321,433.938416 502.316406,444.136536 487.986938,444.088135
	C483.157867,444.071838 478.328857,444.045319 472.999878,444.023499
M431.363647,399.655640
	C437.275452,397.734283 438.925323,395.617676 438.937225,389.638214
	C438.966095,375.164520 438.975525,360.690674 438.931885,346.217041
	C438.913879,340.242279 436.055481,337.029449 430.900909,336.943604
	C425.874115,336.859894 423.030823,340.121307 423.010712,346.257660
	C422.963287,360.731262 422.970978,375.205139 423.005188,389.678802
	C423.019196,395.616364 424.741730,397.793457 431.363647,399.655640
M433.700623,415.472992
	C427.705688,414.662140 423.843903,416.781647 423.131500,421.511566
	C422.484833,425.805420 424.252533,428.964264 428.352203,430.537048
	C432.056732,431.958160 436.202637,430.230713 438.040009,426.702850
	C440.165802,422.621155 439.010803,419.154816 433.700623,415.472992
z"/>
	<path fill="#0F62FE" opacity="1.000000" stroke="none"
		d="
M430.994598,399.656067
	C424.741730,397.793457 423.019196,395.616364 423.005188,389.678802
	C422.970978,375.205139 422.963287,360.731262 423.010712,346.257660
	C423.030823,340.121307 425.874115,336.859894 430.900909,336.943604
	C436.055481,337.029449 438.913879,340.242279 438.931885,346.217041
	C438.975525,360.690674 438.966095,375.164520 438.937225,389.638214
	C438.925323,395.617676 437.275452,397.734283 430.994598,399.656067
z"/>
	<path fill="#0F62FE" opacity="1.000000" stroke="none"
		d="
M434.054810,415.639496 
	C439.010803,419.154816 440.165802,422.621155 438.040009,426.702850 
	C436.202637,430.230713 432.056732,431.958160 428.352203,430.537048 
	C424.252533,428.964264 422.484833,425.805420 423.131500,421.511566 
	C423.843903,416.781647 427.705688,414.662140 434.054810,415.639496 
z"/>
</svg>