<svg width="216" height="160" viewBox="0 0 216 160" xmlns="http://www.w3.org/2000/svg">
    <g transform="translate(36.288 41)" fill="none" fill-rule="evenodd">
        <path d="M138.24 8.25c3.34 0 6.048 3.134 6.048 7s-2.708 7-6.048 7h-34.56c3.34 0 6.048 3.134 6.048 7s-2.708 7-6.048 7h19.008c3.34 0 6.048 3.134 6.048 7s-2.708 7-6.048 7h-8.79c-4.212 0-7.626 3.134-7.626 7 0 2.577 1.728 4.91 5.184 7 3.34 0 6.048 3.134 6.048 7s-2.708 7-6.048 7H39.744c-3.34 0-6.048-3.134-6.048-7s2.708-7 6.048-7H6.048c-3.34 0-6.048-3.134-6.048-7s2.708-7 6.048-7h34.56c3.34 0 6.048-3.134 6.048-7s-2.708-7-6.048-7h-21.6c-3.34 0-6.048-3.134-6.048-7s2.708-7 6.048-7h34.56c-3.34 0-6.048-3.134-6.048-7s2.708-7 6.048-7h84.672zm0 28c3.34 0 6.048 3.134 6.048 7s-2.708 7-6.048 7-6.048-3.134-6.048-7 2.708-7 6.048-7z" fill="#FF5921" opacity=".3"/>
        <path d="M20.09 13.72 91.035.574a3 3 0 0 1 3.52 2.547l7.014 51.807a3 3 0 0 1-2.427 3.352L28.197 71.426a3 3 0 0 1-3.52-2.547l-7.014-51.807a3 3 0 0 1 2.427-3.352z" fill="#FFF"/>
        <path d="m31.402 70.673-2.75.525c-1.89.36-3.664-1.192-3.963-3.468L18.187 18.29c-.3-2.275.99-4.412 2.88-4.773L90.337.302c1.89-.36 3.664 1.192 3.963 3.468l.697 5.3m.494 3.756.412 3.133" stroke="#FF5921" stroke-width="2.5" stroke-linecap="round"/>
        <path d="m23.57 15.995 64.67-11.69a3 3 0 0 1 3.504 2.54L98.1 52.642a3 3 0 0 1-2.438 3.364l-64.67 11.69a3 3 0 0 1-3.504-2.54l-6.356-45.796a3 3 0 0 1 2.438-3.364z" fill="#FFDED3"/>
        <rect stroke="#FF5921" stroke-width="2.5" fill="#FFF" x="35.81" y="20.5" width="74.396" height="56.5" rx="4"/>
        <path fill="#FFDED3" d="M36.72 32.25h72.576v14H36.72z"/>
        <path d="M109.876 32.25H52.99m51.702 13H36.574m30.872 19H42.988m5.646-32h-6.218" stroke="#FF5921" stroke-width="2.5" stroke-linecap="round" stroke-linejoin="round"/>
    </g>
</svg>
