<svg xmlns="http://www.w3.org/2000/svg" width="57.339" height="71.715" viewBox="0 0 57.339 71.715">
  <g id="Icon_ionic-ios-notifications" data-name="Icon ionic-ios-notifications" transform="translate(-6.761 -3.93)">
    <path id="Path_960" data-name="Path 960" d="M23.243,37.836c5.574,0,8.621-3.943,8.621-9.5H14.6C14.6,33.892,17.651,37.836,23.243,37.836Z" transform="translate(12.151 37.809)"/>
    <path id="Path_961" data-name="Path 961" d="M63.373,57.04c-2.76-3.639-8.191-5.772-8.191-22.065,0-16.723-7.385-23.445-14.268-25.058C40.269,9.756,39.8,9.541,39.8,8.86V8.34a4.374,4.374,0,1,0-8.747,0v.52c0,.663-.466.9-1.111,1.058-6.9,1.631-14.268,8.335-14.268,25.058,0,16.293-5.431,18.408-8.191,22.065a3.558,3.558,0,0,0,2.85,5.7H60.541A3.559,3.559,0,0,0,63.373,57.04Z" transform="translate(0 0)"/>
  </g>
</svg>
