<svg width="32" height="32" viewBox="0 0 32 32" xmlns="http://www.w3.org/2000/svg">
    <defs>
        <filter id="h8kur4c3qa">
            <feColorMatrix in="SourceGraphic" values="0 0 0 0 0.729412 0 0 0 0 0.731503 0 0 0 0 0.760784 0 0 0 1.000000 0"/>
        </filter>
    </defs>
    <g transform="translate(-29 -845)" filter="url(#h8kur4c3qa)" fill="none" fill-rule="evenodd">
        <path d="M29 845h32v32H29z"/>
        <path d="M46.333 867.731V869h1.334a2.667 2.667 0 0 1 2.666 2.667H39.667A2.667 2.667 0 0 1 42.333 869h1.334v-1.269c-5.47-.608-9.885-4.905-10.566-10.437a1.333 1.333 0 0 1 2.646-.326c.573 4.642 4.534 8.17 9.254 8.17 4.77 0 8.757-3.599 9.269-8.301a1.333 1.333 0 0 1 2.651.289c-.611 5.607-5.058 9.992-10.588 10.605z" fill="#000" fill-rule="nonzero"/>
        <path d="M45 863.667a8 8 0 1 1 0-16 8 8 0 0 1 0 16zm-4.245-8.266a.875.875 0 1 0-1.746.122c.155 2.215 1.187 3.962 3.051 5.167a.875.875 0 0 0 .95-1.47c-1.402-.906-2.139-2.154-2.255-3.819z" fill="#000" fill-rule="nonzero" opacity=".3"/>
    </g>
</svg>
