<svg xmlns="http://www.w3.org/2000/svg" width="24" height="24" viewBox="0 0 24 24">
    <g fill="none" fill-rule="evenodd">
        <g>
            <g>
                <path fill-rule="nonzero" d="M0 0H24V24H0z" transform="translate(-330 -56) translate(330 56)"/>
                <path fill="#FFF" d="M9.143 3.849l.334-1.334C9.699 1.625 10.499 1 11.417 1h1.166c.918 0 1.718.625 1.94 1.515l.334 1.334c.08.32.404.515.724.435.057-.015.112-.037.163-.068l1.179-.707c.787-.472 1.794-.348 2.443.3l.824.825c.65.649.773 1.656.301 2.443l-.707 1.18c-.17.282-.078.65.204.819.051.03.106.053.163.067l1.334.334c.89.222 1.515 1.022 1.515 1.94v1.166c0 .918-.625 1.718-1.515 1.94l-1.334.334c-.32.08-.515.404-.435.724.015.057.037.112.068.163l.707 1.179c.472.787.348 1.794-.3 2.443l-.825.824c-.649.65-1.656.773-2.443.301l-1.18-.707c-.282-.17-.65-.078-.819.204-.03.051-.053.106-.067.163l-.334 1.334c-.222.89-1.022 1.515-1.94 1.515h-1.166c-.918 0-1.718-.625-1.94-1.515l-.334-1.334c-.08-.32-.404-.515-.724-.435-.057.015-.112.037-.163.068l-1.179.707c-.787.472-1.794.348-2.443-.3l-.824-.825c-.65-.649-.773-1.656-.301-2.443l.707-1.18c.17-.282.078-.65-.204-.819-.051-.03-.106-.053-.163-.067l-1.334-.334C1.625 14.301 1 13.501 1 12.583v-1.166c0-.918.625-1.718 1.515-1.94l1.334-.334c.32-.08.515-.404.435-.724-.015-.057-.037-.112-.068-.163L3.51 7.077c-.472-.787-.348-1.794.3-2.443l.825-.824c.649-.65 1.656-.773 2.443-.301l1.18.707c.282.17.65.078.819-.204.03-.051.053-.106.067-.163zm1.94.485c-.062.249-.16.487-.292.707-.738 1.23-2.334 1.628-3.564.89l-1.179-.707-.824.824.707 1.18c.132.22.23.457.293.706.348 1.391-.498 2.802-1.89 3.15L3 11.417v1.166l1.334.333c.249.063.487.161.707.293 1.23.738 1.628 2.334.89 3.564l-.707 1.179.824.824 1.18-.707c.22-.132.457-.23.706-.293 1.391-.348 2.802.498 3.15 1.89L11.417 21h1.166l.333-1.334c.063-.249.161-.487.293-.707.738-1.23 2.334-1.628 3.564-.89l1.179.707.824-.824-.707-1.18c-.132-.22-.23-.457-.293-.706-.348-1.391.498-2.802 1.89-3.15L21 12.583v-1.166l-1.334-.333c-.249-.063-.487-.161-.707-.293-1.23-.738-1.628-2.334-.89-3.564l.707-1.179-.824-.824-1.18.707c-.22.132-.457.23-.706.293-1.391.348-2.802-.498-3.15-1.89L12.583 3h-1.166l-.333 1.334zM12 16c-2.21 0-4-1.79-4-4s1.79-4 4-4 4 1.79 4 4-1.79 4-4 4zm0-2c1.105 0 2-.895 2-2s-.895-2-2-2-2 .895-2 2 .895 2 2 2z" transform="translate(-330 -56) translate(330 56)"/>
            </g>
        </g>
    </g>
</svg>
