<svg width="24" height="24" viewBox="0 0 24 24" fill="none" xmlns="http://www.w3.org/2000/svg">
<g id="27) Icon/phone-2">
<path id="Shape" fill-rule="evenodd" clip-rule="evenodd" d="M14.506 13.2085C15.2725 12.7532 16.2242 12.7468 16.9954 13.1988C18.0846 13.8369 19.9754 14.9439 20.7889 15.4197C21.7258 15.9686 22.1858 17.0615 21.93 18.1184C21.7452 18.8744 21.329 19.6149 20.6517 20.2922C17.6157 23.3282 13.5033 22.4693 7.51701 16.483C1.53109 10.4971 0.672266 6.38389 3.70711 3.34904C4.38382 2.67142 5.12533 2.25384 5.87782 2.07091C6.93371 1.81214 8.03114 2.27551 8.58203 3.21449L10.7981 7.00003C11.2502 7.77127 11.2466 8.72725 10.789 9.49424L10.0812 10.6823C10.5762 11.2996 11.0972 11.8968 11.5994 12.3991C12.1017 12.9014 12.6989 13.4224 13.3162 13.9174L14.506 13.2085ZM19.7793 17.1438C18.9662 16.6682 17.0749 15.5609 15.9852 14.9225C15.844 14.8398 15.67 14.8409 15.5269 14.9259L14.0163 15.8259C13.5008 16.1332 12.8549 16.0952 12.3825 15.7263C11.603 15.1175 10.836 14.4612 10.1867 13.8119C9.5374 13.1626 8.88107 12.3956 8.27226 11.616C7.90339 11.1437 7.86537 10.4977 8.17258 9.98231L9.07278 8.4714C9.15742 8.32951 9.1581 8.15298 9.07438 8.01016L6.85807 4.22427C6.755 4.04859 6.5518 3.96279 6.35249 4.01163C5.95428 4.10844 5.5385 4.34258 5.12057 4.76107C3.02203 6.85962 3.62977 9.77027 8.92976 15.0703C14.2301 20.3706 17.14 20.9784 19.2389 18.8795C19.6574 18.461 19.8912 18.0451 19.989 17.6451C20.0372 17.4458 19.953 17.2455 19.7793 17.1438Z" fill="#FF5921"/>
</g>
</svg>
