<svg width="32" height="32" viewBox="0 0 32 32" xmlns="http://www.w3.org/2000/svg">
    <defs>
        <filter id="6wzutniyaa">
            <feColorMatrix in="SourceGraphic" values="0 0 0 0 0.729412 0 0 0 0 0.731503 0 0 0 0 0.760784 0 0 0 1.000000 0"/>
        </filter>
    </defs>
    <g transform="translate(-29 -387)" filter="url(#6wzutniyaa)" fill="none" fill-rule="evenodd">
        <path d="M29 387h32v32H29z"/>
        <path d="M39.667 390.333c-.92 0-1.667.747-1.667 1.667v22c0 .92.746 1.667 1.667 1.667h10.666c.92 0 1.667-.747 1.667-1.667v-22c0-.92-.746-1.667-1.667-1.667H39.667z" fill="#000" fill-rule="nonzero" opacity=".3"/>
        <path d="M39.667 390.333c-.92 0-1.667.747-1.667 1.667v22c0 .92.746 1.667 1.667 1.667h10.666c.92 0 1.667-.747 1.667-1.667v-22c0-.92-.746-1.667-1.667-1.667H39.667zm0-2h10.666A3.667 3.667 0 0 1 54 392v22a3.667 3.667 0 0 1-3.667 3.667H39.667A3.667 3.667 0 0 1 36 414v-22a3.667 3.667 0 0 1 3.667-3.667zm2 1h6.666c.369 0 .667.299.667.667v1.333a.667.667 0 0 1-.667.667h-6.666a.667.667 0 0 1-.667-.667V390c0-.368.298-.667.667-.667z" fill="#000" fill-rule="nonzero"/>
    </g>
</svg>
