<svg xmlns="http://www.w3.org/2000/svg" width="20" height="20" viewBox="0 0 20 20">
    <g fill="none" fill-rule="evenodd">
        <g fill="#FFF">
            <g>
                <path d="M19.992 8.035c-.025-.124-.112-.228-.23-.274-1.04-.414-2.141-.624-3.275-.624-1.768 0-3.132.505-3.66.733L7.209 3.094C7.405 1.37 6.474.192 6.433.14 6.365.057 6.266.006 6.159 0c-.107-.002-.212.034-.287.11L.11 5.865c-.077.076-.117.18-.11.289.006.107.057.207.142.274.823.652 1.829.79 2.527.79.155 0 .288-.007.39-.015l4.804 5.641c-.327.842-1.329 3.875-.115 6.918.046.118.15.204.274.23.025.005.051.008.076.008.1 0 .196-.04.267-.11l5.503-5.497 5.125 5.12c.074.073.17.11.267.11s.193-.037.267-.11c.148-.148.148-.387 0-.534l-5.125-5.12 5.486-5.48c.09-.09.129-.22.103-.344z" transform="translate(-191 -58) translate(191 58) matrix(-1 0 0 1 20 0)"/>
            </g>
        </g>
    </g>
</svg>
