<svg xmlns="http://www.w3.org/2000/svg" width="24" height="24" viewBox="0 0 24 24">
    <g fill="none" fill-rule="evenodd">
        <g>
            <g>
                <g>
                    <path d="M0 0L24 0 24 24 0 24z" transform="translate(-38 -221) translate(20 203) translate(18 18)"/>
                    <path fill="#FFF" d="M21.6 18.96c.398 0 .72.322.72.72 0 .398-.322.72-.72.72H2.4c-.398 0-.72-.322-.72-.72 0-.398.322-.72.72-.72h19.2zm0-6.72c.398 0 .72.322.72.72 0 .398-.322.72-.72.72H2.4c-.398 0-.72-.322-.72-.72 0-.398.322-.72.72-.72h19.2zM2.976 2.88c.203 0 .402.059.573.17l3.806 2.459c.49.316.63.97.313 1.46-.08.125-.188.232-.313.314l-3.806 2.46c-.49.316-1.143.175-1.46-.315-.11-.17-.169-.37-.169-.573V3.936c0-.583.473-1.056 1.056-1.056zM21.6 5.52c.398 0 .72.322.72.72 0 .398-.322.72-.72.72H10.08c-.398 0-.72-.322-.72-.72 0-.398.322-.72.72-.72H21.6z" transform="translate(-38 -221) translate(20 203) translate(18 18)"/>
                </g>
            </g>
        </g>
    </g>
</svg>
