<svg width="24" height="24" viewBox="0 0 24 24" fill="none" xmlns="http://www.w3.org/2000/svg">
<g id="27) Icon/playlist">
<g id="Playlist1">
<path id="Combined-Shape" d="M8.97852 18.8007C8.80029 20.0396 7.53473 21 6 21C4.34315 21 3 19.8807 3 18.5C3 17.1193 4.34315 16 6 16C6.35064 16 6.68722 16.0501 7 16.1423V5.93171C7 5.41894 7.31978 4.96567 7.78944 4.81272L13.5394 3.05418C14.2639 2.81827 15 3.38226 15 4.17317C15 4.95475 15 5.54093 15 5.93171C15 6.51789 14.4512 6.89226 14 7C13.3509 7.15502 11.6842 7.48836 9 8V18.5512C9 18.641 8.99272 18.7241 8.97852 18.8007Z" fill="black"/>
<path id="Combined-Shape_2" opacity="0.3" fill-rule="evenodd" clip-rule="evenodd" d="M16 9H20C20.5523 9 21 9.44772 21 10C21 10.5523 20.5523 11 20 11H16C15.4477 11 15 10.5523 15 10C15 9.44772 15.4477 9 16 9ZM14 13H20C20.5523 13 21 13.4477 21 14C21 14.5523 20.5523 15 20 15H14C13.4477 15 13 14.5523 13 14C13 13.4477 13.4477 13 14 13ZM20 17H14C13.4477 17 13 17.4477 13 18C13 18.5523 13.4477 19 14 19H20C20.5523 19 21 18.5523 21 18C21 17.4477 20.5523 17 20 17Z" fill="black"/>
</g>
</g>
</svg>
