<svg width="360" height="568" viewBox="0 0 360 568" fill="none" xmlns="http://www.w3.org/2000/svg">
<rect x="301" y="562" width="240" height="2" transform="rotate(-180 301 562)" fill="#9E46E1"/>
<rect x="301" y="556" width="240" height="1" transform="rotate(-180 301 556)" fill="#9E46E1"/>
<mask id="mask0_1103_31051" style="mask-type:alpha" maskUnits="userSpaceOnUse" x="321" y="525" width="39" height="39">
<path fill-rule="evenodd" clip-rule="evenodd" d="M360 525.936H321.94V563.9H360V525.936Z" fill="white"/>
</mask>
<g mask="url(#mask0_1103_31051)">
<path fill-rule="evenodd" clip-rule="evenodd" d="M325.494 557.197C327.59 556.263 330.407 556.576 332.616 556.809C334.02 556.958 335.407 557.221 336.763 557.605C334.228 556.41 331.715 554.95 328.904 554.965C327.26 554.974 325.536 555.562 324.416 556.811C323.906 557.38 323.584 558.061 323.55 558.762C324.024 558.073 324.738 557.536 325.494 557.197ZM352.891 536.586C352.651 534.37 352.357 531.588 353.279 529.482C353.609 528.728 354.146 528.024 354.833 527.554C354.153 527.579 353.5 527.877 352.894 528.406C351.62 529.513 351.064 531.246 351.043 532.884C351.001 535.675 352.485 538.188 353.687 540.71C353.304 539.362 353.041 537.982 352.891 536.586ZM325.805 554.583C329.058 553.447 332.395 554.778 335.344 556.16C339.268 557.998 345.847 560.366 348.113 555.541C348.117 555.427 348.117 555.312 348.113 555.194C348.056 553.949 347.567 552.701 346.765 551.735C346.531 551.525 346.308 551.305 346.104 551.068C345.496 550.555 344.771 550.186 343.957 550.036C342.247 549.726 339.894 550.683 339.883 552.714C339.87 555.364 343.186 555.316 344.169 553.375C344.199 553.319 344.268 553.354 344.277 553.405C344.748 556.937 339.803 556.782 338.759 553.921C337.359 550.089 341.698 548.012 344.885 548.835C344.047 545.647 346.14 541.357 349.988 542.72C352.868 543.743 353.003 548.697 349.468 548.226C349.418 548.218 349.382 548.146 349.439 548.119C351.222 547.222 351.519 544.6 349.365 544.001C347.407 543.459 346.14 545.339 346.096 547.054C346.064 548.262 346.513 549.322 347.245 550.156C347.422 550.316 347.593 550.484 347.753 550.658C348.704 551.483 349.965 551.992 351.262 552.05C351.374 552.057 351.485 552.057 351.595 552.055C356.308 549.86 354.235 543.531 352.407 539.658C350.969 536.611 349.473 533.173 350.66 529.792C351.477 527.468 353.588 525.62 356.167 525.981C358.784 526.348 360.668 529.026 359.776 531.561C359.23 533.106 357.014 532.22 357.677 530.679C357.986 529.96 357.738 529.286 357.291 528.751C356.02 528.22 354.753 528.747 354.104 529.893C353.268 531.365 353.237 533.354 353.249 535.009C353.273 537.924 353.965 540.694 354.868 543.442C354.887 543.495 354.851 543.539 354.809 543.558C355.468 546.086 355.31 549.831 353.458 551.668C354.71 551.154 355.731 550.15 356.222 548.808C356.91 546.922 355.986 545.465 355.969 543.619C355.957 542.38 357.473 541.846 358.336 542.64C361.422 545.482 358.397 551.345 355.325 552.934C353.475 553.892 351.237 553.921 349.281 553.216C349.984 555.169 349.95 557.399 348.997 559.247C347.409 562.317 341.521 565.324 338.679 562.248C337.883 561.391 338.418 559.875 339.66 559.888C341.416 559.906 342.782 560.784 344.588 560.221C346.06 559.764 347.176 558.712 347.731 557.378C345.887 559.222 342.136 559.39 339.603 558.726C339.584 558.768 339.542 558.8 339.489 558.783C336.736 557.884 333.957 557.191 331.037 557.166C329.536 557.153 327.976 557.216 326.569 557.773C325.971 557.924 325.454 558.229 325.024 558.686C324.875 559.453 324.725 560.219 324.574 560.986C324.582 561.013 324.595 561.045 324.607 561.074C325.182 561.599 325.929 561.91 326.694 561.582C328.216 560.931 329.153 563.126 327.578 563.676C325.085 564.55 322.428 562.754 322.003 560.194C321.567 557.58 323.439 555.412 325.805 554.583Z" fill="#454058"/>
</g>
<path fill-rule="evenodd" clip-rule="evenodd" d="M332 561.797C332.048 560.897 332.836 560.255 333.899 560.205C334.291 560.187 334.661 560.271 335 560.433" fill="#454058"/>
<path fill-rule="evenodd" clip-rule="evenodd" d="M358.203 536C359.103 536.048 359.745 536.836 359.795 537.899C359.813 538.288 359.729 538.661 359.567 539" fill="#454058"/>
<path fill-rule="evenodd" clip-rule="evenodd" d="M358 564C356.616 563.67 354.834 563.151 354.236 562.562C353.629 561.96 353.227 560.275 353 559" fill="#454058"/>
<mask id="mask1_1103_31051" style="mask-type:alpha" maskUnits="userSpaceOnUse" x="1" y="529" width="39" height="39">
<path fill-rule="evenodd" clip-rule="evenodd" d="M1 529.936H39.0602V567.9H1V529.936Z" fill="white"/>
</mask>
<g mask="url(#mask1_1103_31051)">
<path fill-rule="evenodd" clip-rule="evenodd" d="M35.5063 561.197C33.4094 560.263 30.5926 560.576 28.3842 560.809C26.98 560.958 25.5926 561.221 24.2368 561.605C26.7716 560.41 29.2852 558.95 32.0958 558.965C33.74 558.974 35.4642 559.562 36.5842 560.811C37.0937 561.38 37.4158 562.061 37.4494 562.762C36.9758 562.073 36.2621 561.536 35.5063 561.197ZM8.1084 540.586C8.3484 538.37 8.64313 535.588 7.72103 533.482C7.3905 532.728 6.85366 532.024 6.16734 531.554C6.84734 531.579 7.49997 531.877 8.10629 532.406C9.37997 533.513 9.93576 535.246 9.95682 536.884C9.99892 539.675 8.51471 542.188 7.31261 544.71C7.69576 543.362 7.95892 541.982 8.1084 540.586ZM35.1947 558.583C31.9421 557.447 28.6052 558.778 25.6558 560.16C21.7316 561.998 15.1526 564.366 12.8873 559.541C12.8831 559.427 12.8831 559.312 12.8873 559.194C12.9442 557.949 13.4326 556.701 14.2347 555.735C14.4684 555.525 14.6916 555.305 14.8958 555.068C15.5042 554.555 16.2284 554.186 17.0431 554.036C18.7526 553.726 21.1063 554.683 21.1168 556.714C21.1294 559.364 17.8137 559.316 16.8305 557.375C16.801 557.319 16.7316 557.354 16.7231 557.405C16.2516 560.937 21.1968 560.782 22.241 557.921C23.641 554.089 19.3021 552.012 16.1147 552.835C16.9526 549.647 14.86 545.357 11.0116 546.72C8.13155 547.743 7.99682 552.697 11.5316 552.226C11.5821 552.218 11.6179 552.146 11.561 552.119C9.77787 551.222 9.48103 548.6 11.6347 548.001C13.5926 547.459 14.86 549.339 14.9042 551.054C14.9358 552.262 14.4873 553.322 13.7547 554.156C13.5779 554.316 13.4073 554.484 13.2473 554.658C12.2958 555.483 11.0347 555.992 9.73787 556.05C9.62629 556.057 9.51471 556.057 9.40524 556.055C4.69155 553.86 6.76524 547.531 8.59261 543.658C10.0305 540.611 11.5273 537.173 10.34 533.792C9.52313 531.468 7.41155 529.62 4.83261 529.981C2.21576 530.348 0.331553 533.026 1.22418 535.561C1.76945 537.106 3.98629 536.22 3.32313 534.679C3.01366 533.96 3.26208 533.286 3.7084 532.751C4.97997 532.22 6.24734 532.747 6.89576 533.893C7.73155 535.365 7.76313 537.354 7.7505 539.009C7.72734 541.924 7.03471 544.694 6.13155 547.442C6.11261 547.495 6.1484 547.539 6.1905 547.558C5.53155 550.086 5.68945 553.831 7.54208 555.668C6.28945 555.154 5.26839 554.15 4.77787 552.808C4.08945 550.922 5.01366 549.465 5.0305 547.619C5.04313 546.38 3.52734 545.846 2.66418 546.64C-0.422131 549.482 2.60313 555.345 5.67471 556.934C7.52524 557.892 9.76313 557.921 11.7189 557.216C11.0158 559.169 11.0494 561.399 12.0031 563.247C13.5905 566.317 19.4789 569.324 22.321 566.248C23.1168 565.391 22.5821 563.875 21.34 563.888C19.5842 563.906 18.2179 564.784 16.4116 564.221C14.94 563.764 13.8242 562.712 13.2684 561.378C15.1126 563.222 18.8642 563.39 21.3968 562.726C21.4158 562.768 21.4579 562.8 21.5105 562.783C24.2642 561.884 27.0431 561.191 29.9631 561.166C31.4642 561.153 33.0242 561.216 34.4305 561.773C35.0284 561.924 35.5463 562.229 35.9758 562.686C36.1252 563.453 36.2747 564.219 36.4263 564.986C36.4179 565.013 36.4052 565.045 36.3926 565.074C35.8179 565.599 35.0705 565.91 34.3063 565.582C32.7842 564.931 31.8473 567.126 33.4221 567.676C35.9147 568.55 38.5716 566.754 38.9968 564.194C39.4326 561.58 37.561 559.412 35.1947 558.583Z" fill="#454058"/>
</g>
<path fill-rule="evenodd" clip-rule="evenodd" d="M29 565.797C28.9522 564.897 28.164 564.255 27.1011 564.205C26.7094 564.187 26.3392 564.271 26 564.433" fill="#454058"/>
<path fill-rule="evenodd" clip-rule="evenodd" d="M2.7972 540C1.8972 540.048 1.2552 540.836 1.2052 541.899C1.1872 542.288 1.2712 542.661 1.4332 543" fill="#454058"/>
<path fill-rule="evenodd" clip-rule="evenodd" d="M3 568C4.38426 567.67 6.16611 567.151 6.76353 566.562C7.37136 565.96 7.77311 564.275 8 563" fill="#454058"/>
<rect width="461" height="2" transform="matrix(0 1 1 0 357.5 54)" fill="#9E46E1"/>
<rect width="461" height="1" transform="matrix(0 1 1 0 353 54.5)" fill="#9E46E1"/>
<rect x="2.5" y="55" width="461" height="2" transform="rotate(90 2.5 55)" fill="#9E46E1"/>
<rect x="8" y="55.5" width="461" height="1" transform="rotate(90 8 55.5)" fill="#9E46E1"/>
<mask id="mask2_1103_31051" style="mask-type:alpha" maskUnits="userSpaceOnUse" x="321" y="0" width="39" height="39">
<path fill-rule="evenodd" clip-rule="evenodd" d="M360 38.0638H321.94V0.100487H360V38.0638Z" fill="white"/>
</mask>
<g mask="url(#mask2_1103_31051)">
<path fill-rule="evenodd" clip-rule="evenodd" d="M325.494 6.80254C327.59 7.73704 330.407 7.42414 332.616 7.19104C334.02 7.04194 335.407 6.77944 336.763 6.39514C334.228 7.59004 331.715 9.04954 328.904 9.03484C327.26 9.02644 325.536 8.43844 324.416 7.18894C323.906 6.61984 323.584 5.93945 323.55 5.23804C324.024 5.92685 324.738 6.46444 325.494 6.80254ZM352.891 27.414C352.651 29.6295 352.357 32.412 353.279 34.5183C353.609 35.2722 354.146 35.9757 354.833 36.4461C354.153 36.4209 353.5 36.1227 352.894 35.5935C351.62 34.4868 351.064 32.7543 351.043 31.1163C351.001 28.3254 352.485 25.8117 353.687 23.2896C353.304 24.6378 353.041 26.0175 352.891 27.414ZM325.805 9.41704C329.058 10.5531 332.395 9.22174 335.344 7.83994C339.268 6.00245 345.847 3.63364 348.113 8.45944C348.117 8.57284 348.117 8.68834 348.113 8.80594C348.056 10.0512 347.567 11.2986 346.765 12.2646C346.531 12.4746 346.308 12.6951 346.104 12.9324C345.496 13.4448 344.771 13.8144 343.957 13.9635C342.247 14.2743 339.894 13.3167 339.883 11.286C339.87 8.63585 343.186 8.68414 344.169 10.6245C344.199 10.6812 344.268 10.6455 344.277 10.5951C344.748 7.06294 339.803 7.21835 338.759 10.0785C337.359 13.911 341.698 15.9879 344.885 15.1647C344.047 18.3525 346.14 22.6428 349.988 21.2799C352.868 20.2572 353.003 15.3033 349.468 15.7737C349.418 15.7821 349.382 15.8535 349.439 15.8808C351.222 16.7775 351.519 19.4004 349.365 19.9989C347.407 20.5407 346.14 18.6612 346.096 16.9455C346.064 15.738 346.513 14.6775 347.245 13.8438C347.422 13.6842 347.593 13.5162 347.753 13.3419C348.704 12.5166 349.965 12.0084 351.262 11.9496C351.374 11.9433 351.485 11.9433 351.595 11.9454C356.308 14.1399 354.235 20.4693 352.407 24.3417C350.969 27.3888 349.473 30.8265 350.66 34.2075C351.477 36.5322 353.588 38.3802 356.167 38.019C358.784 37.6515 360.668 34.974 359.776 32.4393C359.23 30.8937 357.014 31.7799 357.677 33.3213C357.986 34.0395 357.738 34.7136 357.291 35.2491C356.02 35.7804 354.753 35.2533 354.104 34.1067C353.268 32.6346 353.237 30.6459 353.249 28.9911C353.273 26.0763 353.965 23.3064 354.868 20.5575C354.887 20.505 354.851 20.4609 354.809 20.442C355.468 17.9136 355.31 14.1693 353.458 12.3318C354.71 12.8463 355.731 13.8501 356.222 15.192C356.91 17.0778 355.986 18.5352 355.969 20.3811C355.957 21.6201 357.473 22.1535 358.336 21.3597C361.422 18.5184 358.397 12.6552 355.325 11.0655C353.475 10.1079 351.237 10.0785 349.281 10.7841C349.984 8.83114 349.95 6.60094 348.997 4.75294C347.409 1.68275 341.521 -1.32446 338.679 1.75204C337.883 2.60884 338.418 4.12505 339.66 4.11245C341.416 4.09354 342.782 3.21574 344.588 3.77855C346.06 4.23635 347.176 5.28844 347.731 6.62194C345.887 4.77814 342.136 4.61014 339.603 5.27374C339.584 5.23174 339.542 5.20024 339.489 5.21704C336.736 6.11584 333.957 6.80884 331.037 6.83404C329.536 6.84664 327.976 6.78364 326.569 6.22714C325.971 6.07594 325.454 5.77145 325.024 5.31364C324.875 4.54715 324.725 3.78064 324.574 3.01414C324.582 2.98684 324.595 2.95535 324.607 2.92595C325.182 2.40094 325.929 2.09015 326.694 2.41774C328.216 3.06874 329.153 0.874245 327.578 0.324043C325.085 -0.549557 322.428 1.24594 322.003 3.80584C321.567 6.42034 323.439 8.58754 325.805 9.41704Z" fill="#454058"/>
</g>
<path fill-rule="evenodd" clip-rule="evenodd" d="M332 2.2028C332.048 3.1028 332.836 3.7448 333.899 3.7948C334.291 3.8128 334.661 3.7288 335 3.5668" fill="#454058"/>
<path fill-rule="evenodd" clip-rule="evenodd" d="M358.203 28C359.103 27.9522 359.745 27.164 359.795 26.1011C359.813 25.7118 359.729 25.3392 359.567 25" fill="#454058"/>
<path fill-rule="evenodd" clip-rule="evenodd" d="M358 0C356.616 0.329625 354.834 0.848784 354.236 1.43799C353.629 2.03956 353.227 3.72476 353 5" fill="#454058"/>
<rect x="301" y="3" width="240" height="2" transform="rotate(-180 301 3)" fill="#9E46E1"/>
<rect x="301" y="8" width="240" height="1" transform="rotate(-180 301 8)" fill="#9E46E1"/>
<mask id="mask3_1103_31051" style="mask-type:alpha" maskUnits="userSpaceOnUse" x="2" y="1" width="39" height="39">
<path fill-rule="evenodd" clip-rule="evenodd" d="M2 39.0638H40.0602V1.10049H2V39.0638Z" fill="white"/>
</mask>
<g mask="url(#mask3_1103_31051)">
<path fill-rule="evenodd" clip-rule="evenodd" d="M36.5063 7.80254C34.4094 8.73704 31.5926 8.42414 29.3842 8.19104C27.98 8.04194 26.5926 7.77944 25.2368 7.39514C27.7716 8.59004 30.2852 10.0495 33.0958 10.0348C34.74 10.0264 36.4642 9.43844 37.5842 8.18894C38.0937 7.61984 38.4158 6.93945 38.4494 6.23804C37.9758 6.92685 37.2621 7.46444 36.5063 7.80254ZM9.1084 28.414C9.3484 30.6295 9.64313 33.412 8.72103 35.5183C8.3905 36.2722 7.85366 36.9757 7.16734 37.4461C7.84734 37.4209 8.49997 37.1227 9.10629 36.5935C10.38 35.4868 10.9358 33.7543 10.9568 32.1163C10.9989 29.3254 9.51471 26.8117 8.31261 24.2896C8.69576 25.6378 8.95892 27.0175 9.1084 28.414ZM36.1947 10.417C32.9421 11.5531 29.6052 10.2217 26.6558 8.83994C22.7316 7.00245 16.1526 4.63364 13.8873 9.45944C13.8831 9.57284 13.8831 9.68834 13.8873 9.80594C13.9442 11.0512 14.4326 12.2986 15.2347 13.2646C15.4684 13.4746 15.6916 13.6951 15.8958 13.9324C16.5042 14.4448 17.2284 14.8144 18.0431 14.9635C19.7526 15.2743 22.1063 14.3167 22.1168 12.286C22.1294 9.63585 18.8137 9.68414 17.8305 11.6245C17.801 11.6812 17.7316 11.6455 17.7231 11.5951C17.2516 8.06294 22.1968 8.21835 23.241 11.0785C24.641 14.911 20.3021 16.9879 17.1147 16.1647C17.9526 19.3525 15.86 23.6428 12.0116 22.2799C9.13155 21.2572 8.99682 16.3033 12.5316 16.7737C12.5821 16.7821 12.6179 16.8535 12.561 16.8808C10.7779 17.7775 10.481 20.4004 12.6347 20.9989C14.5926 21.5407 15.86 19.6612 15.9042 17.9455C15.9358 16.738 15.4873 15.6775 14.7547 14.8438C14.5779 14.6842 14.4073 14.5162 14.2473 14.3419C13.2958 13.5166 12.0347 13.0084 10.7379 12.9496C10.6263 12.9433 10.5147 12.9433 10.4052 12.9454C5.69155 15.1399 7.76524 21.4693 9.59261 25.3417C11.0305 28.3888 12.5273 31.8265 11.34 35.2075C10.5231 37.5322 8.41155 39.3802 5.83261 39.019C3.21576 38.6515 1.33155 35.974 2.22418 33.4393C2.76945 31.8937 4.98629 32.7799 4.32313 34.3213C4.01366 35.0395 4.26208 35.7136 4.7084 36.2491C5.97997 36.7804 7.24734 36.2533 7.89576 35.1067C8.73155 33.6346 8.76313 31.6459 8.7505 29.9911C8.72734 27.0763 8.03471 24.3064 7.13155 21.5575C7.11261 21.505 7.1484 21.4609 7.1905 21.442C6.53155 18.9136 6.68945 15.1693 8.54208 13.3318C7.28945 13.8463 6.26839 14.8501 5.77787 16.192C5.08945 18.0778 6.01366 19.5352 6.0305 21.3811C6.04313 22.6201 4.52734 23.1535 3.66418 22.3597C0.577869 19.5184 3.60313 13.6552 6.67471 12.0655C8.52524 11.1079 10.7631 11.0785 12.7189 11.7841C12.0158 9.83114 12.0494 7.60094 13.0031 5.75294C14.5905 2.68275 20.4789 -0.324455 23.321 2.75204C24.1168 3.60884 23.5821 5.12505 22.34 5.11245C20.5842 5.09354 19.2179 4.21574 17.4116 4.77855C15.94 5.23635 14.8242 6.28844 14.2684 7.62194C16.1126 5.77814 19.8642 5.61014 22.3968 6.27374C22.4158 6.23174 22.4579 6.20024 22.5105 6.21704C25.2642 7.11584 28.0431 7.80884 30.9631 7.83404C32.4642 7.84664 34.0242 7.78364 35.4305 7.22714C36.0284 7.07594 36.5463 6.77145 36.9758 6.31364C37.1252 5.54715 37.2747 4.78064 37.4263 4.01414C37.4179 3.98684 37.4052 3.95535 37.3926 3.92595C36.8179 3.40094 36.0705 3.09015 35.3063 3.41774C33.7842 4.06874 32.8473 1.87424 34.4221 1.32404C36.9147 0.450443 39.5716 2.24594 39.9968 4.80584C40.4326 7.42034 38.561 9.58754 36.1947 10.417Z" fill="#454058"/>
</g>
<path fill-rule="evenodd" clip-rule="evenodd" d="M30 3.2028C29.9522 4.1028 29.164 4.7448 28.1011 4.7948C27.7094 4.8128 27.3392 4.7288 27 4.5668" fill="#454058"/>
<path fill-rule="evenodd" clip-rule="evenodd" d="M3.7972 29C2.8972 28.9522 2.2552 28.164 2.2052 27.1011C2.1872 26.7118 2.2712 26.3392 2.4332 26" fill="#454058"/>
<path fill-rule="evenodd" clip-rule="evenodd" d="M4 1C5.38426 1.32963 7.16611 1.84878 7.76353 2.43799C8.37136 3.03956 8.77311 4.72476 9 6" fill="#454058"/>
</svg>
