<svg width="24" height="24" viewBox="0 0 24 24" fill="none" xmlns="http://www.w3.org/2000/svg">
<path d="M21.9312 6.62073V23.1724C21.9312 23.6294 21.5605 24 21.1035 24C20.6465 24 20.2759 23.6294 20.2759 23.1724V6.62073H21.9312Z" fill="#805333"/>
<path fill-rule="evenodd" clip-rule="evenodd" d="M2.48267 1.65503H15.7241C16.1806 1.65649 16.5503 2.02618 16.5516 2.48267V23.1723C16.5503 23.6288 16.1806 23.9987 15.7241 23.9999H2.48267V1.65503ZM7.86194 13.655H12.8276L13.0345 11.9999H7.65503L7.86194 13.655Z" fill="#F18D46"/>
<path d="M3.31036 1.65503V23.9999H1.65509C0.741028 23.9999 0 23.2589 0 22.3448V3.3103C0 2.39624 0.741028 1.65503 1.65509 1.65503L3.31036 1.65503Z" fill="#804537"/>
<path d="M2.48267 4.13806H4.13794C4.36646 4.13806 4.55157 3.95276 4.55157 3.72424C4.55157 3.49573 4.36646 3.31042 4.13794 3.31042H2.48267C2.25415 3.31042 2.06885 3.49573 2.06885 3.72424C2.06885 3.95276 2.25415 4.13806 2.48267 4.13806Z" fill="#CC6F56"/>
<path d="M4.13794 4.96545H2.48267C2.25415 4.96545 2.06885 5.15076 2.06885 5.37927C2.06885 5.60779 2.25415 5.79309 2.48267 5.79309H4.13794C4.36646 5.79309 4.55157 5.60779 4.55157 5.37927C4.55157 5.15076 4.36646 4.96545 4.13794 4.96545Z" fill="#CC6F56"/>
<path d="M4.13794 6.62073H2.48267C2.25415 6.62073 2.06885 6.80603 2.06885 7.03455C2.06885 7.26306 2.25415 7.44836 2.48267 7.44836H4.13794C4.36646 7.44836 4.55157 7.26306 4.55157 7.03455C4.55157 6.80603 4.36646 6.62073 4.13794 6.62073Z" fill="#CC6F56"/>
<path d="M4.13794 8.27588H2.48267C2.25415 8.27588 2.06885 8.46118 2.06885 8.6897C2.06885 8.91821 2.25415 9.10352 2.48267 9.10352H4.13794C4.36646 9.10352 4.55157 8.91821 4.55157 8.6897C4.55157 8.46118 4.36646 8.27588 4.13794 8.27588Z" fill="#CC6F56"/>
<path d="M4.13794 9.93115H2.48267C2.25415 9.93115 2.06885 10.1163 2.06885 10.345C2.06885 10.5735 2.25415 10.7586 2.48267 10.7586H4.13794C4.36646 10.7586 4.55157 10.5735 4.55157 10.345C4.55157 10.1163 4.36646 9.93115 4.13794 9.93115Z" fill="#CC6F56"/>
<path d="M4.13794 11.5862H2.48267C2.25415 11.5862 2.06885 11.7715 2.06885 12C2.06885 12.2285 2.25415 12.4138 2.48267 12.4138H4.13794C4.36646 12.4138 4.55157 12.2285 4.55157 12C4.55157 11.7715 4.36646 11.5862 4.13794 11.5862Z" fill="#CC6F56"/>
<path d="M4.13794 13.2415H2.48267C2.25415 13.2415 2.06885 13.4266 2.06885 13.6551C2.06885 13.8838 2.25415 14.0689 2.48267 14.0689H4.13794C4.36646 14.0689 4.55157 13.8838 4.55157 13.6551C4.55157 13.4266 4.36646 13.2415 4.13794 13.2415Z" fill="#CC6F56"/>
<path d="M4.13794 14.8965H2.48267C2.25415 14.8965 2.06885 15.0818 2.06885 15.3103C2.06885 15.5388 2.25415 15.7241 2.48267 15.7241H4.13794C4.36646 15.7241 4.55157 15.5388 4.55157 15.3103C4.55157 15.0818 4.36646 14.8965 4.13794 14.8965Z" fill="#CC6F56"/>
<path d="M4.13794 16.5516H2.48267C2.25415 16.5516 2.06885 16.7369 2.06885 16.9655C2.06885 17.194 2.25415 17.3793 2.48267 17.3793H4.13794C4.36646 17.3793 4.55157 17.194 4.55157 16.9655C4.55157 16.7369 4.36646 16.5516 4.13794 16.5516Z" fill="#CC6F56"/>
<path d="M4.13794 18.2069H2.48267C2.25415 18.2069 2.06885 18.3922 2.06885 18.6207C2.06885 18.8492 2.25415 19.0345 2.48267 19.0345H4.13794C4.36646 19.0345 4.55157 18.8492 4.55157 18.6207C4.55157 18.3922 4.36646 18.2069 4.13794 18.2069Z" fill="#CC6F56"/>
<path d="M4.13794 19.8621H2.48267C2.25415 19.8621 2.06885 20.0474 2.06885 20.2759C2.06885 20.5044 2.25415 20.6897 2.48267 20.6897H4.13794C4.36646 20.6897 4.55157 20.5044 4.55157 20.2759C4.55157 20.0474 4.36646 19.8621 4.13794 19.8621Z" fill="#CC6F56"/>
<path d="M4.13794 21.5173H2.48267C2.25415 21.5173 2.06885 21.7026 2.06885 21.9312C2.06885 22.1597 2.25415 22.345 2.48267 22.345H4.13794C4.36646 22.345 4.55157 22.1597 4.55157 21.9312C4.55157 21.7026 4.36646 21.5173 4.13794 21.5173Z" fill="#CC6F56"/>
<path d="M14.8965 8.68958C14.897 9.12866 14.7229 9.54999 14.4123 9.86053C14.1018 10.1711 13.6805 10.3454 13.2414 10.3448L13.0345 11.9999H7.65501L7.44829 10.3448C6.53404 10.3516 5.78752 9.61609 5.78056 8.70203C5.77379 7.78796 6.50932 7.04126 7.42339 7.03448H7.50615C7.52684 7.03375 7.54771 7.03503 7.56822 7.03851C7.21593 5.85291 7.6552 4.57446 8.66209 3.85577C9.66881 3.13727 11.0207 3.13727 12.0274 3.85577C13.0343 4.57446 13.4736 5.85291 13.1213 7.03851C13.1418 7.03503 13.1626 7.03375 13.1833 7.03448H13.2703C14.173 7.05023 14.8967 7.78668 14.8965 8.68958Z" fill="white"/>
<path d="M13.0345 12L12.8276 13.6551H7.86194L7.65503 12L13.0345 12Z" fill="#BDC3C7"/>
<path d="M6.20679 16.9654H7.03442C7.26294 16.9654 7.44824 16.7803 7.44824 16.5516C7.44824 16.3231 7.26294 16.1379 7.03442 16.1379H6.20679C5.97827 16.1379 5.79297 16.3231 5.79297 16.5516C5.79297 16.7803 5.97827 16.9654 6.20679 16.9654Z" fill="#E6E7E8"/>
<path d="M8.6897 16.9654H14.4828C14.7113 16.9654 14.8966 16.7803 14.8966 16.5516C14.8966 16.3231 14.7113 16.1379 14.4828 16.1379H8.6897C8.46118 16.1379 8.27588 16.3231 8.27588 16.5516C8.27588 16.7803 8.46118 16.9654 8.6897 16.9654Z" fill="#E6E7E8"/>
<path d="M7.03442 19.4484H6.20679C5.97827 19.4484 5.79297 19.6335 5.79297 19.862C5.79297 20.0905 5.97827 20.2758 6.20679 20.2758H7.03442C7.26294 20.2758 7.44824 20.0905 7.44824 19.862C7.44824 19.6335 7.26294 19.4484 7.03442 19.4484Z" fill="#E6E7E8"/>
<path d="M14.4828 19.4484H8.6897C8.46118 19.4484 8.27588 19.6335 8.27588 19.862C8.27588 20.0905 8.46118 20.2758 8.6897 20.2758H14.4828C14.7113 20.2758 14.8966 20.0905 14.8966 19.862C14.8966 19.6335 14.7113 19.4484 14.4828 19.4484Z" fill="#E6E7E8"/>
<path d="M6.20679 18.6207H10.3448C10.5733 18.6207 10.7584 18.4354 10.7584 18.2069C10.7584 17.9784 10.5733 17.7931 10.3448 17.7931H6.20679C5.97827 17.7931 5.79297 17.9784 5.79297 18.2069C5.79297 18.4354 5.97827 18.6207 6.20679 18.6207Z" fill="#E6E7E8"/>
<path d="M14.4827 17.7931H12C11.7715 17.7931 11.5862 17.9784 11.5862 18.2069C11.5862 18.4354 11.7715 18.6207 12 18.6207H14.4827C14.7112 18.6207 14.8965 18.4354 14.8965 18.2069C14.8965 17.9784 14.7112 17.7931 14.4827 17.7931Z" fill="#E6E7E8"/>
<path d="M24.0001 4.138C24.0001 1.85266 22.7034 0 21.1036 0C19.5038 0 18.207 1.85266 18.207 4.138C18.207 6.42316 19.5038 8.27582 21.1036 8.27582C22.7034 8.27582 24.0001 6.42316 24.0001 4.138Z" fill="#CB8252"/>
<path d="M8.78052 7.92409C8.71954 7.95705 8.65125 7.97408 8.58203 7.9739C8.4317 7.97317 8.29364 7.89077 8.22186 7.75857C8.07574 7.41103 7.78351 7.14608 7.42334 7.03457H7.5061C7.52679 7.03383 7.54767 7.03512 7.56818 7.0386C7.48816 6.7687 7.44769 6.48855 7.44824 6.20693C7.4649 6.20601 7.48157 6.20748 7.49786 6.21114C8.13983 6.33437 8.68073 6.76412 8.94604 7.36141C8.99896 7.45791 9.01141 7.57162 8.98029 7.67727C8.94916 7.78274 8.87738 7.87173 8.78052 7.92409Z" fill="#E6E7E8"/>
<path d="M13.2661 7.03457C12.9059 7.14608 12.6137 7.41103 12.4675 7.75857C12.3958 7.89077 12.2577 7.97317 12.1076 7.9739C12.0382 7.97408 11.9699 7.95705 11.9089 7.92409C11.812 7.87173 11.7403 7.78274 11.7091 7.67727C11.6782 7.57162 11.6904 7.45791 11.7434 7.36141C12.0101 6.76504 12.5505 6.33602 13.1915 6.21114C13.2078 6.20748 13.2247 6.20601 13.2413 6.20693C13.2417 6.48855 13.2012 6.7687 13.1212 7.0386C13.1417 7.03512 13.1626 7.03383 13.1833 7.03457H13.2661Z" fill="#E6E7E8"/>
</svg>
