<svg width="56" height="56" viewBox="0 0 56 56" xmlns="http://www.w3.org/2000/svg">
    <defs>
        <filter id="w0s1l8i3xa">
            <feColorMatrix in="SourceGraphic" values="0 0 0 0 0.258824 0 0 0 0 0.745098 0 0 0 0 0.396078 0 0 0 1.000000 0"/>
        </filter>
    </defs>
    <g fill="none" fill-rule="evenodd">
        <rect fill="#FFF" width="56" height="56" rx="8"/>
        <g filter="url(#w0s1l8i3xa)">
            <g fill="#000" fill-rule="nonzero">
                <path d="M35.838 18H33.04a.586.586 0 0 0 0 1.172h2.8c.545 0 .99.444.99.99v2.799a.586.586 0 0 0 1.171 0v-2.8C38 18.97 37.03 18 35.838 18zM18.586 23.547a.586.586 0 0 0 .586-.586v-2.8c0-.545.444-.99.99-.99h2.799a.586.586 0 0 0 0-1.171h-2.8C18.97 18 18 18.97 18 20.162v2.799c0 .324.262.586.586.586zM22.96 36.828h-2.798a.991.991 0 0 1-.99-.99V33.04a.586.586 0 0 0-1.172 0v2.8C18 37.03 18.97 38 20.162 38h2.799a.586.586 0 0 0 0-1.172zM37.414 32.453a.586.586 0 0 0-.586.586v2.8c0 .545-.444.99-.99.99H33.04a.586.586 0 0 0 0 1.171h2.8C37.03 38 38 37.03 38 35.838V33.04a.586.586 0 0 0-.586-.586zM31.345 22.297h1.859a.46.46 0 0 1 .46.46v1.858a.586.586 0 0 0 1.172 0v-1.858c0-.9-.732-1.632-1.632-1.632h-1.859a.586.586 0 0 0 0 1.172zM21.164 22.757v1.858a.586.586 0 0 0 1.172 0v-1.858a.46.46 0 0 1 .46-.46h1.859a.586.586 0 0 0 0-1.172h-1.859c-.9 0-1.632.732-1.632 1.632zM24.655 33.625h-1.859a.46.46 0 0 1-.46-.46v-1.859a.586.586 0 0 0-1.172 0v1.859c0 .9.732 1.632 1.632 1.632h1.859a.586.586 0 0 0 0-1.172zM34.836 33.165v-1.859a.586.586 0 0 0-1.172 0v1.859a.46.46 0 0 1-.46.46h-1.859a.586.586 0 0 0 0 1.172h1.859c.9 0 1.632-.732 1.632-1.632zM18.04 28c0 .324.261.586.585.586h18.75a.586.586 0 0 0 0-1.172h-18.75a.586.586 0 0 0-.586.586z"/>
            </g>
        </g>
    </g>
</svg>
