<svg width="25" height="20" viewBox="0 0 25 20" fill="none" xmlns="http://www.w3.org/2000/svg">
<path d="M9.26905 12.3502L10.4883 11.8046C10.4883 11.8046 8.84236 9.47163 9.8053 7.73736C10.7682 6.00302 9.53146 4.11768 9.53146 4.11768L7.70252 4.93603C7.70252 4.93603 7.47378 8.48626 7.97546 9.90158C7.97546 9.90158 7.30073 7.72273 5.35183 7.50147L3.79065 9.46012C3.79065 9.46012 6.28373 9.5232 7.10494 11.0479C7.92615 12.5726 7.9481 12.9412 7.9481 12.9412L9.26905 12.3502Z" fill="#44C4A1"/>
<path d="M9.71179 6.2173C9.71179 6.2173 8.83479 6.90093 8.81417 8.63141C8.7974 10.041 9.79529 11.7647 9.79529 11.7647L10.4884 11.4723C10.4884 11.4723 8.80149 8.75255 9.86708 7.45321C9.86708 7.45321 10.4909 6.52115 10.4253 5.59058C10.3596 4.65995 9.71179 6.2173 9.71179 6.2173Z" fill="#3EA69B"/>
<ellipse cx="8.56859" cy="4.34082" rx="2.12313" ry="2.09608" transform="rotate(-51.4117 8.56859 4.34082)" fill="#3EA69B"/>
<ellipse cx="8.27731" cy="3.94797" rx="1.63408" ry="1.6133" transform="rotate(-51.4117 8.27731 3.94797)" fill="#44C4A1"/>
<ellipse cx="4.27306" cy="7.27722" rx="2.12313" ry="2.09608" transform="rotate(-51.4117 4.27306 7.27722)" fill="#3EA69B"/>
<ellipse cx="3.98178" cy="6.88437" rx="1.63408" ry="1.6133" transform="rotate(-51.4117 3.98178 6.88437)" fill="#44C4A1"/>
<ellipse cx="3.2439" cy="4.71987" rx="1.64189" ry="1.62102" transform="rotate(-51.4117 3.2439 4.71987)" fill="#3EA69B"/>
<ellipse cx="3.01865" cy="4.41609" rx="1.26373" ry="1.24761" transform="rotate(-51.4117 3.01865 4.41609)" fill="#44C4A1"/>
<ellipse cx="6.68593" cy="7.03121" rx="1.48892" ry="1.4356" transform="rotate(-64.613 6.68593 7.03121)" fill="#3EA69B"/>
<ellipse cx="6.43058" cy="6.81488" rx="1.14597" ry="1.10493" transform="rotate(-64.613 6.43058 6.81488)" fill="#44C4A1"/>
<ellipse cx="5.85613" cy="3.85413" rx="2.6481" ry="2.61444" transform="rotate(-51.4117 5.85613 3.85413)" fill="#3EA69B"/>
<ellipse cx="5.49283" cy="3.36411" rx="2.0381" ry="2.01219" transform="rotate(-51.4117 5.49283 3.36411)" fill="#44C4A1"/>
<path d="M16.6113 3.57406C16.2247 3.47947 15.8279 3.5382 15.4492 3.72175C14.7755 4.04824 14.0153 4.04824 13.3416 3.72175C12.9629 3.5382 12.5661 3.47947 12.1795 3.57406C10.872 3.8939 10.1759 5.84504 10.6247 7.93209C11.0734 10.0191 12.4971 11.4517 13.8046 11.1318C13.9252 11.1023 14.0406 11.0586 14.1503 11.0023C14.3057 10.9225 14.485 10.9225 14.6404 11.0023C14.7501 11.0586 14.8655 11.1023 14.9862 11.1318C16.2937 11.4517 17.7174 10.0191 18.1661 7.93209C18.6149 5.84511 17.9188 3.89396 16.6113 3.57406Z" fill="#E56353"/>
<path d="M18.1633 7.93132C17.7061 10.0174 16.2576 11.4521 14.9286 11.1317C14.8052 11.1019 14.6879 11.0595 14.5766 11.0022C14.4188 10.9216 14.2367 10.9216 14.0789 11.0022C13.9657 11.0595 13.8483 11.102 13.7269 11.1317C12.7498 11.3672 11.708 10.6562 11.0465 9.43597C11.6837 10.2361 12.505 10.652 13.2839 10.4631C13.4073 10.4334 13.5246 10.3888 13.6359 10.3337C13.7937 10.253 13.9778 10.253 14.1356 10.3337C14.2468 10.3888 14.3641 10.4334 14.4876 10.4631C15.8167 10.7836 17.265 9.34895 17.7222 7.26066C17.9791 6.07858 17.8658 4.9411 17.4755 4.11768C18.1997 4.90502 18.5031 6.37995 18.1633 7.93132Z" fill="#D15241"/>
<path d="M14.6744 4.25557C14.2497 4.26546 13.8997 4.04302 13.8447 4.14406C13.7812 4.23348 14.1241 4.70731 14.6744 4.70591C15.2247 4.70731 15.5675 4.23348 15.5041 4.14406C15.4489 4.04302 15.099 4.26546 14.6744 4.25557Z" fill="#D15241"/>
<path d="M15.2311 1.21271C14.1147 2.08028 14.4378 3.93409 14.4418 3.9555C14.4596 4.05179 14.5328 4.11769 14.6147 4.11769C14.6268 4.11769 14.6391 4.11627 14.6514 4.11317C14.747 4.08984 14.8081 3.98118 14.7881 3.87054C14.7747 3.79672 14.513 2.2705 15.4288 1.55528C15.4791 1.51599 15.5117 1.45256 15.5117 1.38233C15.5117 1.21587 15.3505 1.11995 15.2311 1.21271Z" fill="#44C4A1"/>
<path d="M14.3953 2.75248C14.3953 2.75248 10.5048 0.883893 9.37207 5.22838C9.37207 5.22845 12.7691 5.92914 14.3953 2.75248Z" fill="#44C4A1"/>
<path d="M14.3953 2.94137C14.3953 2.94137 11.1528 2.8715 9.93018 5.2941C9.93012 5.29417 11.0149 3.46314 14.3953 2.94137Z" fill="#3EA69B"/>
<path opacity="0.15" d="M16.0914 4.62414C15.9831 4.39808 16.1162 4.11538 16.3379 4.11769C16.5617 4.12 16.8007 4.19459 16.9146 4.46408C17.1605 5.04644 17.4218 6.80612 16.807 8.02721C16.3851 8.86507 15.9488 9.60148 15.3788 9.95798C15.1062 10.1284 14.8276 9.74452 15.0141 9.45647C15.7282 8.3536 16.8534 6.21578 16.0914 4.62414Z" fill="#EBF0F3"/>
<path d="M11.3241 3.56562C10.2077 4.43318 10.5308 6.287 10.5348 6.30841C10.5526 6.40469 10.6258 6.4706 10.7078 6.4706C10.7198 6.4706 10.7321 6.46917 10.7444 6.46608C10.84 6.44275 10.9011 6.33409 10.8811 6.22344C10.8677 6.14962 10.6061 4.6234 11.5219 3.90819C11.5721 3.86889 11.6047 3.80547 11.6047 3.73523C11.6047 3.56877 11.4435 3.47286 11.3241 3.56562Z" fill="#44C4A1"/>
<path d="M10.4883 5.10551C10.4883 5.10551 6.59783 3.23692 5.46509 7.58141C5.46515 7.58147 8.86216 8.28217 10.4883 5.10551Z" fill="#44C4A1"/>
<ellipse cx="10.4884" cy="9.41171" rx="3.90698" ry="4.11765" fill="#FCD462"/>
<path d="M19.5208 1.69458C19.7427 1.7227 19.8312 2.00462 19.8708 2.23496C19.9052 2.43559 19.9396 2.63621 19.9741 2.83683C20.0058 3.02167 20.0544 3.23162 20.2134 3.31835C20.3963 3.41805 20.6307 3.28505 20.7286 3.09504C20.8265 2.90503 20.8267 2.67877 20.8322 2.46288C20.8456 1.93828 21.007 1.10594 21.6758 1.1813C21.8192 1.19747 22.399 1.08779 22.8572 1.78387C23.239 2.364 22.8002 2.93519 22.4141 3.26978C22.2553 3.40744 22.0853 3.54709 22.0028 3.74497C21.9204 3.94291 21.965 4.21818 22.1526 4.30746C22.3159 4.38518 22.5036 4.29577 22.6621 4.20795C22.8342 4.11266 23.0062 4.01736 23.1782 3.92207C23.3757 3.81265 23.6423 3.7118 23.8002 3.87746C23.9565 4.04133 23.8638 4.31731 23.7629 4.52336C23.6792 4.69407 23.593 4.86843 23.4596 4.9999C23.3261 5.13137 23.1339 5.214 22.9573 5.16275C22.9054 5.14766 22.853 5.12133 22.8002 5.13226C22.7274 5.14728 22.6848 5.22481 22.6249 5.27057C22.4968 5.36848 22.3163 5.30706 22.1766 5.22851C22.1273 5.20084 22.0744 5.17035 22.019 5.17783C21.9637 5.18524 21.9189 5.2296 21.889 5.27881C21.7755 5.46576 21.8546 5.74908 22.0464 5.84246C22.1104 5.87359 22.1955 5.90158 22.202 5.97514C22.2055 6.01522 22.1816 6.0519 22.1569 6.08258C22.0097 6.26486 21.7862 6.37703 21.5583 6.38291C21.2244 6.39153 20.8635 6.19091 20.5751 6.3675C20.4275 6.45788 20.3433 6.6259 20.2458 6.77309C20.1483 6.92022 20.0079 7.06409 19.837 7.05872C19.788 7.05719 19.7412 7.03341 19.7021 6.9982C19.6515 6.98771 19.6048 6.96381 19.5735 6.92431C19.4641 6.78664 19.4856 6.58219 19.5361 6.41103C19.5866 6.23987 19.661 6.06692 19.6379 5.88944C19.5928 5.54271 19.2196 5.36887 19.0201 5.0881C18.884 4.89655 18.8305 4.64314 18.8768 4.40941C18.8846 4.37004 18.8974 4.32766 18.9297 4.30587C18.9889 4.26586 19.0625 4.31884 19.1254 4.35233C19.3138 4.45287 19.5756 4.34345 19.6461 4.13458C19.6647 4.07955 19.6704 4.01532 19.6419 3.96508C19.6133 3.91472 19.5578 3.88992 19.5066 3.8664C19.3614 3.79961 19.2039 3.68866 19.1985 3.52262C19.196 3.44502 19.228 3.362 19.1944 3.29278C19.17 3.24249 19.1179 3.21545 19.0746 3.18196C18.9272 3.06794 18.8708 2.85856 18.8873 2.6674C18.9039 2.4763 18.9817 2.29766 19.0585 2.12344C19.1509 1.91329 19.3013 1.66678 19.5208 1.69458Z" fill="#31978C"/>
<path d="M24.4113 5.86589C24.3088 5.65564 24.0229 5.66563 23.8008 5.70635C23.6072 5.74179 23.4138 5.77723 23.2202 5.81267C23.0419 5.84533 22.835 5.87001 22.7013 5.74237C22.5476 5.59565 22.5866 5.31711 22.7245 5.15409C22.8624 4.99107 23.0671 4.91246 23.2605 4.83212C23.7305 4.63682 24.4277 4.18817 24.1272 3.55111C24.0628 3.41464 23.9606 2.80169 23.1716 2.58886C22.5139 2.41148 22.1495 3.04479 21.9808 3.54357C21.9114 3.7488 21.8441 3.96581 21.6936 4.11613C21.5431 4.26652 21.2786 4.31781 21.1325 4.16272C21.0055 4.02779 21.0212 3.81065 21.0456 3.62302C21.0721 3.41941 21.0986 3.2158 21.1251 3.01213C21.1555 2.7783 21.1541 2.47913 20.9494 2.37997C20.7469 2.28184 20.5293 2.4694 20.3779 2.64099C20.2525 2.78319 20.1247 2.92914 20.052 3.10704C19.9794 3.285 19.9714 3.50421 20.0791 3.66149C20.1108 3.70775 20.1528 3.7506 20.1613 3.80679C20.173 3.88411 20.1176 3.95331 20.097 4.0285C20.0529 4.18952 20.1712 4.34713 20.2908 4.45847C20.333 4.49771 20.3789 4.53959 20.3914 4.59719C20.4039 4.6546 20.3794 4.71433 20.3452 4.76111C20.2154 4.9385 19.9316 4.95834 19.7804 4.80054C19.73 4.74797 19.6751 4.67322 19.6063 4.6923C19.5688 4.70267 19.5439 4.73914 19.5247 4.77438C19.4109 4.98354 19.387 5.24404 19.4608 5.47194C19.5691 5.80609 19.8759 6.0943 19.8162 6.44147C19.7857 6.61918 19.6629 6.76087 19.5636 6.90862C19.4643 7.05636 19.3829 7.24547 19.4471 7.41307C19.4655 7.46113 19.5033 7.49921 19.5487 7.52576C19.5758 7.57228 19.6137 7.6103 19.6602 7.62769C19.8228 7.68845 20.0004 7.59619 20.1377 7.48678C20.275 7.37737 20.4057 7.24361 20.5743 7.20488C20.9037 7.12936 21.1907 7.4391 21.514 7.53948C21.7346 7.60798 21.9825 7.57312 22.178 7.44618C22.2109 7.42479 22.2448 7.39741 22.2533 7.35785C22.2688 7.28523 22.1954 7.23065 22.1433 7.17994C21.9868 7.02795 21.9949 6.73052 22.1595 6.58812C22.2028 6.55062 22.259 6.52266 22.3142 6.53355C22.3697 6.54444 22.4114 6.59089 22.4506 6.63348C22.5614 6.7543 22.7165 6.87195 22.8687 6.8197C22.9398 6.79528 23.0038 6.73477 23.078 6.74405C23.1321 6.75082 23.1746 6.79309 23.22 6.82447C23.3743 6.93104 23.5834 6.91435 23.7506 6.83168C23.9179 6.74901 24.0524 6.60984 24.1835 6.4733C24.3419 6.30848 24.5128 6.07388 24.4113 5.86589Z" fill="#3EA69B"/>
<path d="M16.935 2.56288C17.1446 2.51141 17.3102 2.75265 17.4158 2.9614C17.5078 3.14318 17.5998 3.32503 17.6918 3.5068C17.7765 3.67431 17.8841 3.86014 18.0546 3.88765C18.2505 3.91921 18.4227 3.70757 18.4539 3.48906C18.4852 3.27054 18.4168 3.0517 18.3564 2.84105C18.2097 2.32898 18.1039 1.46691 18.733 1.30268C18.8678 1.26752 19.3602 0.955957 19.9864 1.46665C20.5082 1.89228 20.2833 2.60027 20.0348 3.06061C19.9325 3.25005 19.8207 3.44532 19.8059 3.66592C19.7912 3.88653 19.9149 4.13694 20.1121 4.15678C20.2836 4.17406 20.4267 4.02103 20.5438 3.87992C20.6709 3.72676 20.798 3.57366 20.925 3.4205C21.0709 3.24461 21.2819 3.05269 21.4753 3.15687C21.6665 3.25994 21.6662 3.55965 21.6371 3.79473C21.6129 3.98947 21.5875 4.1886 21.5064 4.36311C21.4252 4.53755 21.276 4.68561 21.1005 4.69864C21.0488 4.70244 20.9933 4.69563 20.9487 4.7249C20.8873 4.76517 20.8722 4.85527 20.8318 4.92075C20.7453 5.06088 20.5631 5.06547 20.4126 5.03901C20.3596 5.02971 20.3024 5.01898 20.2544 5.04582C20.2065 5.07261 20.1794 5.13134 20.1671 5.18956C20.1209 5.41056 20.2784 5.65651 20.4805 5.67884C20.5479 5.6863 20.6336 5.68316 20.6618 5.75198C20.6771 5.78944 20.6665 5.83344 20.6533 5.87188C20.5752 6.10034 20.4065 6.28801 20.2018 6.37445C19.9016 6.50116 19.5138 6.43509 19.3058 6.70808C19.1994 6.84782 19.174 7.04014 19.1302 7.21701C19.0864 7.39387 19.0026 7.58279 18.8461 7.63818C18.8012 7.6541 18.7516 7.64761 18.7055 7.62745C18.6564 7.63524 18.6069 7.62869 18.5665 7.60165C18.4256 7.50735 18.3832 7.30194 18.3771 7.11852C18.3711 6.93511 18.3861 6.74148 18.3114 6.57803C18.1655 6.25874 17.7745 6.22286 17.5087 6.02216C17.3273 5.88517 17.2021 5.65906 17.1732 5.41665C17.1684 5.37579 17.1672 5.33034 17.1898 5.2978C17.2314 5.23808 17.3142 5.26322 17.3813 5.27337C17.5825 5.30382 17.7866 5.10522 17.7873 4.87819C17.7875 4.81834 17.7732 4.75423 17.7322 4.71579C17.691 4.67723 17.6332 4.6729 17.5797 4.66832C17.4278 4.65522 17.2515 4.60369 17.1963 4.44509C17.1705 4.37097 17.1744 4.27936 17.123 4.22429C17.0856 4.18428 17.0302 4.17662 16.9808 4.15959C16.8127 4.10157 16.6981 3.91908 16.6552 3.72839C16.6123 3.53771 16.6288 3.3374 16.6456 3.14168C16.6659 2.90548 16.7276 2.61383 16.935 2.56288Z" fill="#44C4A1"/>
<path d="M20.3537 8.86935C20.2698 9.06629 20.0902 9.41106 19.8471 9.83843C19.7921 9.93462 19.7338 10.0356 19.6733 10.1393C19.3498 10.6925 18.9446 11.3434 18.5164 11.9772C18.4712 12.0446 18.4265 12.1111 18.3804 12.178C17.3805 13.6307 16.2873 14.9303 15.7971 14.6732C15.4672 14.5001 15.4557 13.6423 15.5987 12.5568C15.6035 12.5124 15.6093 12.4686 15.6165 12.4241C15.7523 11.4547 16.0026 10.3239 16.2572 9.33994C16.2647 9.31134 16.2712 9.28216 16.2797 9.25407C16.5406 8.24997 16.8029 7.41333 16.9443 7.08113C17.389 6.0367 18.5135 5.58971 19.4545 6.08326C20.3966 6.57738 20.7983 7.82485 20.3537 8.86935Z" fill="#E69871"/>
<path d="M19.9408 10.0429C19.8835 10.1398 19.8228 10.2414 19.7597 10.3458C19.3432 10.107 18.9266 9.86816 18.509 9.62878C18.9423 9.67153 19.3682 9.78654 19.7673 9.968C19.8242 9.99421 19.8825 10.0172 19.9408 10.0429Z" fill="#F0A67A"/>
<path d="M17.7191 10.3546C17.2078 10.0979 16.7016 9.82674 16.203 9.54106C16.2108 9.51226 16.2176 9.48288 16.2264 9.4546C16.2388 9.45692 16.2527 9.45873 16.2661 9.45899C16.32 9.46144 16.375 9.44736 16.429 9.45511C16.5846 9.47636 16.6912 9.66156 16.8481 9.67163C16.8669 9.67331 16.8872 9.67176 16.9056 9.67983C16.927 9.68939 16.9404 9.71186 16.9536 9.73175C17.1408 10.0141 17.4355 10.1885 17.7191 10.3546Z" fill="#F0A67A"/>
<path d="M18.5551 12.1965C18.5081 12.2644 18.4616 12.3313 18.4135 12.3988C17.9742 12.1615 17.5335 11.9248 17.0928 11.6882C16.9933 11.6338 16.8791 11.5575 16.8781 11.4376C17.0089 11.504 17.1393 11.5714 17.2691 11.6373C17.3171 11.6616 17.366 11.6864 17.4183 11.6841C17.4632 11.682 17.5039 11.6619 17.5477 11.6539C17.6018 11.6447 17.6564 11.6567 17.71 11.6681C17.8753 11.7034 18.0456 11.7413 18.1865 11.8402C18.2342 11.8736 18.278 11.9128 18.3208 11.9543C18.402 12.0309 18.4797 12.1124 18.5551 12.1965Z" fill="#F0A67A"/>
<path d="M16.8906 13.4741L15.6158 12.8314C15.5828 12.8147 15.5498 12.798 15.5173 12.7802C15.5223 12.7355 15.5283 12.6914 15.5358 12.6466C15.5868 12.6751 15.6397 12.6993 15.6911 12.7241C15.9227 12.8363 16.1396 12.9792 16.356 13.123C16.5344 13.2397 16.7123 13.3574 16.8906 13.4741Z" fill="#F0A67A"/>
<path d="M21.6511 10C21.6092 10.4303 21.5436 10.8551 21.457 11.2664C21.436 11.3828 21.4098 11.4992 21.3783 11.6128C21.339 11.7914 21.2917 11.9701 21.2393 12.1432C21.1317 12.5248 21.0032 12.8983 20.8563 13.2581C19.3872 16.8897 16.1709 19.4118 12.4405 19.4118C8.71007 19.4118 5.49644 16.8897 4.02742 13.2581C3.8805 12.8983 3.75196 12.5248 3.64436 12.1432C3.59189 11.9701 3.5447 11.7914 3.50537 11.6128C3.47385 11.4992 3.44761 11.3828 3.42666 11.2664C3.34008 10.8551 3.27445 10.4303 3.23254 10H21.6511Z" fill="#EBF0F3"/>
<path opacity="0.5" d="M14.9535 18.949C14.1124 19.2494 13.2172 19.4118 12.2883 19.4118C8.61953 19.4118 5.45902 16.8897 4.01429 13.2581C3.86979 12.8983 3.74337 12.5248 3.63756 12.1432C3.58595 11.9701 3.53954 11.7914 3.50086 11.6128C3.46986 11.4992 3.44406 11.3828 3.42345 11.2664C3.3383 10.8551 3.27376 10.4303 3.23254 10H6.27696C6.31304 10.2733 6.35945 10.5466 6.41366 10.8118C6.43427 10.9282 6.46013 11.0446 6.49101 11.1582C6.52975 11.3368 6.57616 11.5155 6.62777 11.6886C6.73358 12.0702 6.85995 12.4437 7.00444 12.8036C8.40542 16.3268 11.424 18.8056 14.9535 18.949Z" fill="#D5D6DB"/>
<path d="M14.1138 20H9.65362C9.49814 20 9.37207 19.8599 9.37207 19.6872V18.8235H14.3953V19.6872C14.3953 19.8599 14.2693 20 14.1138 20Z" fill="#D5D6DB"/>
<path d="M21.0355 10.6558C21.0148 10.7879 20.989 10.9201 20.958 11.0492H3.35888C3.32784 10.9201 3.30201 10.7879 3.28137 10.6558H21.0355Z" fill="#E56353"/>
<path d="M20.821 11.6515C20.7151 12.0849 20.5885 12.509 20.4439 12.9178H3.87292C3.72825 12.509 3.60167 12.0849 3.49573 11.6515H20.821Z" fill="#E56353"/>
</svg>
