<svg width="24" height="24" viewBox="0 0 24 24" fill="none" xmlns="http://www.w3.org/2000/svg">
<g id="27) Icon/scan">
<g id="Barcode-read">
<rect id="Rectangle-151" opacity="0.3" x="4" y="2" width="8" height="20" fill="black"/>
<path id="Combined-Shape" fill-rule="evenodd" clip-rule="evenodd" d="M19.5 4.5H15.75C14.9167 4.35702 14.5 3.94036 14.5 3.25C14.5 2.55964 14.9167 2.14298 15.75 2H22V8.25C22 9.08333 21.5833 9.5 20.75 9.5C19.9167 9.5 19.5 9.08333 19.5 8.25V4.5ZM8.25 19.5H4.5V15.75C4.5 14.9167 4.08333 14.5 3.25 14.5C2.41667 14.5 2 14.9167 2 15.75V22H8.25C9.08333 21.857 9.5 21.4404 9.5 20.75C9.5 20.0596 9.08333 19.643 8.25 19.5ZM19.5 15.75V19.5H15.75C14.9167 19.5 14.5 19.9167 14.5 20.75C14.5 21.5833 14.9167 22 15.75 22H22V15.75C21.857 14.9167 21.4404 14.5 20.75 14.5C20.0596 14.5 19.643 14.9167 19.5 15.75ZM4.5 8.25V4.5H8.25C9.08333 4.5 9.5 4.08333 9.5 3.25C9.5 2.41667 9.08333 2 8.25 2H2V8.25C2.14298 9.08333 2.55964 9.5 3.25 9.5C3.94036 9.5 4.35702 9.08333 4.5 8.25Z" fill="black"/>
</g>
</g>
</svg>
