<svg width="24" height="24" viewBox="0 0 24 24" xmlns="http://www.w3.org/2000/svg">
    <g fill-rule="nonzero" fill="none">
        <path d="M0 0h24v24H0z"/>
        <path d="m20.751 19.436-3.331-3.327c2.548-3.17 2.303-7.86-.603-10.742A8.053 8.053 0 0 0 11.093 3c-2.168 0-4.18.849-5.723 2.367A8.035 8.035 0 0 0 3 11.085c0 2.165.85 4.175 2.37 5.717a8.053 8.053 0 0 0 5.723 2.367 8.135 8.135 0 0 0 5.053-1.764l3.33 3.327a.883.883 0 0 0 .626.268c.247 0 .47-.089.627-.268.358-.38.358-.938.022-1.296zM17.4 11.1a6.273 6.273 0 0 1-6.3 6.3 6.273 6.273 0 0 1-6.3-6.3 6.273 6.273 0 0 1 6.3-6.3 6.278 6.278 0 0 1 6.3 6.3z" fill="#000"/>
    </g>
</svg>
