<svg width="24" height="24" viewBox="0 0 24 24" fill="none" xmlns="http://www.w3.org/2000/svg">
<g id="27) Icon/share-fill">
<path id="&#240;&#159;&#142;&#168; Icon &#208;&#161;olor" fill-rule="evenodd" clip-rule="evenodd" d="M18.8421 15.3333C17.9821 15.3333 17.2032 15.7 16.6326 16.29L8.28 12.3722C8.29368 12.2489 8.31579 12.1267 8.31579 12C8.31579 11.8733 8.29368 11.7511 8.28 11.6278L16.6326 7.71C17.2032 8.3 17.9821 8.66667 18.8421 8.66667C20.5832 8.66667 22 7.17111 22 5.33333C22 3.49556 20.5832 2 18.8421 2C17.1011 2 15.6842 3.49556 15.6842 5.33333C15.6842 5.46 15.7063 5.58222 15.72 5.70556L7.36737 9.62333C6.79684 9.03333 6.01789 8.66667 5.15789 8.66667C3.41684 8.66667 2 10.1622 2 12C2 13.8378 3.41684 15.3333 5.15789 15.3333C6.01789 15.3333 6.79684 14.9667 7.36737 14.3767L15.72 18.2944C15.7063 18.4178 15.6842 18.54 15.6842 18.6667C15.6842 20.5044 17.1011 22 18.8421 22C20.5832 22 22 20.5044 22 18.6667C22 16.8289 20.5832 15.3333 18.8421 15.3333Z" fill="#222B45"/>
<mask id="mask0_0_61181" style="mask-type:alpha" maskUnits="userSpaceOnUse" x="2" y="2" width="20" height="20">
<path id="&#240;&#159;&#142;&#168; Icon &#208;&#161;olor_2" fill-rule="evenodd" clip-rule="evenodd" d="M18.8421 15.3333C17.9821 15.3333 17.2032 15.7 16.6326 16.29L8.28 12.3722C8.29368 12.2489 8.31579 12.1267 8.31579 12C8.31579 11.8733 8.29368 11.7511 8.28 11.6278L16.6326 7.71C17.2032 8.3 17.9821 8.66667 18.8421 8.66667C20.5832 8.66667 22 7.17111 22 5.33333C22 3.49556 20.5832 2 18.8421 2C17.1011 2 15.6842 3.49556 15.6842 5.33333C15.6842 5.46 15.7063 5.58222 15.72 5.70556L7.36737 9.62333C6.79684 9.03333 6.01789 8.66667 5.15789 8.66667C3.41684 8.66667 2 10.1622 2 12C2 13.8378 3.41684 15.3333 5.15789 15.3333C6.01789 15.3333 6.79684 14.9667 7.36737 14.3767L15.72 18.2944C15.7063 18.4178 15.6842 18.54 15.6842 18.6667C15.6842 20.5044 17.1011 22 18.8421 22C20.5832 22 22 20.5044 22 18.6667C22 16.8289 20.5832 15.3333 18.8421 15.3333Z" fill="white"/>
</mask>
<g mask="url(#mask0_0_61181)">
</g>
</g>
</svg>
