<svg xmlns="http://www.w3.org/2000/svg" width="24" height="24" viewBox="0 0 24 24">
    <defs>
        <filter id="s8nbql394a">
            <feColorMatrix in="SourceGraphic" values="0 0 0 0 0.729412 0 0 0 0 0.731503 0 0 0 0 0.760784 0 0 0 1.000000 0"/>
        </filter>
    </defs>
    <g fill="none" fill-rule="evenodd">
        <g>
            <g>
                <g>
                    <g filter="url(#s8nbql394a)" transform="translate(-127 -1088) translate(0 1074) translate(117 10) translate(10 4)">
                        <path d="M0 0H24V24H0z"/>
                        <path fill="#000" fill-rule="nonzero" d="M5.5 2h13c.828 0 1.5.672 1.5 1.5v3c0 .828-.672 1.5-1.5 1.5h-13C4.672 8 4 7.328 4 6.5v-3C4 2.672 4.672 2 5.5 2zM11 4c-.552 0-1 .448-1 1s.448 1 1 1h2c.552 0 1-.448 1-1s-.448-1-1-1h-2z" opacity=".3"/>
                        <path fill="#000" fill-rule="nonzero" d="M5.5 9h13c.828 0 1.5.672 1.5 1.5v3c0 .828-.672 1.5-1.5 1.5h-13c-.828 0-1.5-.672-1.5-1.5v-3C4 9.672 4.672 9 5.5 9zm5.5 2c-.552 0-1 .448-1 1s.448 1 1 1h2c.552 0 1-.448 1-1s-.448-1-1-1h-2zm-5.5 5h13c.828 0 1.5.672 1.5 1.5v3c0 .828-.672 1.5-1.5 1.5h-13c-.828 0-1.5-.672-1.5-1.5v-3c0-.828.672-1.5 1.5-1.5zm5.5 2c-.552 0-1 .448-1 1s.448 1 1 1h2c.552 0 1-.448 1-1s-.448-1-1-1h-2z"/>
                    </g>
                </g>
            </g>
        </g>
    </g>
</svg>
