<svg width="24" height="24" viewBox="0 0 24 24" fill="none" xmlns="http://www.w3.org/2000/svg">
<g id="27) Icon/shop-2">
<g id="Cart2">
<path id="Path-30" opacity="0.3" d="M12 4.56205L7.76822 9.64018C7.41466 10.0645 6.78409 10.1218 6.35981 9.76822C5.93554 9.41466 5.87821 8.78409 6.23178 8.35982L11.2318 2.35982C11.6316 1.88006 12.3684 1.88006 12.7682 2.35982L17.7682 8.35982C18.1218 8.78409 18.0645 9.41466 17.6402 9.76822C17.2159 10.1218 16.5853 10.0645 16.2318 9.64018L12 4.56205Z" fill="black"/>
<path id="Combined-Shape" fill-rule="evenodd" clip-rule="evenodd" d="M20.7192 9H3.28078C3.19902 9 3.11756 9.01003 3.03824 9.02986C2.50245 9.16381 2.17669 9.70674 2.31063 10.2425L4.4319 18.7276C4.76578 20.0631 5.96573 21 7.34233 21H16.6577C18.0343 21 19.2342 20.0631 19.5681 18.7276L21.6894 10.2425C21.7092 10.1632 21.7192 10.0818 21.7192 10C21.7192 9.44772 21.2715 9 20.7192 9ZM11 13C11 12.4477 11.4477 12 12 12C12.5523 12 13 12.4477 13 13V17C13 17.5523 12.5523 18 12 18C11.4477 18 11 17.5523 11 17V13ZM6.96472 12.1363C6.43126 12.2792 6.11468 12.8276 6.25762 13.361L7.29289 17.2247C7.43584 17.7582 7.98417 18.0748 8.51764 17.9319C9.0511 17.7889 9.36769 17.2406 9.22475 16.7071L8.18947 12.8434C8.04653 12.3099 7.49819 11.9934 6.96472 12.1363ZM15.8105 12.8434C15.9535 12.3099 16.5018 11.9934 17.0353 12.1363C17.5687 12.2792 17.8853 12.8276 17.7424 13.361L16.7071 17.2247C16.5642 17.7582 16.0158 18.0748 15.4824 17.9319C14.9489 17.7889 14.6323 17.2406 14.7753 16.7071L15.8105 12.8434Z" fill="black"/>
</g>
</g>
</svg>
