<svg width="24" height="24" viewBox="0 0 24 24" fill="none" xmlns="http://www.w3.org/2000/svg">
<g id="27) Icon/shop-order">
<g id="Commode2">
<path id="Combined-Shape" opacity="0.3" fill-rule="evenodd" clip-rule="evenodd" d="M18.5 2H5.5C4.67157 2 4 2.67157 4 3.5V6.5C4 7.32843 4.67157 8 5.5 8H18.5C19.3284 8 20 7.32843 20 6.5V3.5C20 2.67157 19.3284 2 18.5 2ZM10 5C10 4.44772 10.4477 4 11 4H13C13.5523 4 14 4.44772 14 5C14 5.55228 13.5523 6 13 6H11C10.4477 6 10 5.55228 10 5Z" fill="black"/>
<path id="Combined-Shape_2" fill-rule="evenodd" clip-rule="evenodd" d="M18.5 9H5.5C4.67157 9 4 9.67157 4 10.5V13.5C4 14.3284 4.67157 15 5.5 15H18.5C19.3284 15 20 14.3284 20 13.5V10.5C20 9.67157 19.3284 9 18.5 9ZM10 12C10 11.4477 10.4477 11 11 11H13C13.5523 11 14 11.4477 14 12C14 12.5523 13.5523 13 13 13H11C10.4477 13 10 12.5523 10 12ZM5.5 16H18.5C19.3284 16 20 16.6716 20 17.5V20.5C20 21.3284 19.3284 22 18.5 22H5.5C4.67157 22 4 21.3284 4 20.5V17.5C4 16.6716 4.67157 16 5.5 16ZM10 19C10 18.4477 10.4477 18 11 18H13C13.5523 18 14 18.4477 14 19C14 19.5523 13.5523 20 13 20H11C10.4477 20 10 19.5523 10 19Z" fill="black"/>
</g>
</g>
</svg>
