<svg width="24" height="24" viewBox="0 0 24 24" xmlns="http://www.w3.org/2000/svg">
    <defs>
        <filter id="j3k3vy724a">
            <feColorMatrix in="SourceGraphic" values="0 0 0 0 0.729412 0 0 0 0 0.731503 0 0 0 0 0.760784 0 0 0 1.000000 0"/>
        </filter>
    </defs>
    <g transform="translate(-331 -100)" filter="url(#j3k3vy724a)" fill="none" fill-rule="evenodd">
        <g transform="translate(331 100)">
            <path d="M0 0h24v24H0z"/>
            <rect fill="#000" fill-rule="nonzero" x="4" y="4" width="7" height="7" rx="1.5"/>
            <path d="M5.5 13h4a1.5 1.5 0 0 1 1.5 1.5v4A1.5 1.5 0 0 1 9.5 20h-4A1.5 1.5 0 0 1 4 18.5v-4A1.5 1.5 0 0 1 5.5 13zm9-9h4A1.5 1.5 0 0 1 20 5.5v4a1.5 1.5 0 0 1-1.5 1.5h-4A1.5 1.5 0 0 1 13 9.5v-4A1.5 1.5 0 0 1 14.5 4zm0 9h4a1.5 1.5 0 0 1 1.5 1.5v4a1.5 1.5 0 0 1-1.5 1.5h-4a1.5 1.5 0 0 1-1.5-1.5v-4a1.5 1.5 0 0 1 1.5-1.5z" fill="#000" fill-rule="nonzero" opacity=".3"/>
        </g>
    </g>
</svg>
