<svg width="14" height="14" viewBox="0 0 14 14" fill="none" xmlns="http://www.w3.org/2000/svg">
<path fill-rule="evenodd" clip-rule="evenodd" d="M7 13.5C10.5899 13.5 13.5 10.5899 13.5 7C13.5 3.41015 10.5899 0.5 7 0.5C3.41015 0.5 0.5 3.41015 0.5 7C0.5 10.5899 3.41015 13.5 7 13.5ZM4.15625 7C3.48315 7 2.9375 6.45435 2.9375 5.78125C2.9375 5.10815 3.48315 4.5625 4.15625 4.5625C4.82935 4.5625 5.375 5.10815 5.375 5.78125C5.375 6.45435 4.82935 7 4.15625 7ZM9.84375 7C9.17065 7 8.625 6.45435 8.625 5.78125C8.625 5.10815 9.17065 4.5625 9.84375 4.5625C10.5168 4.5625 11.0625 5.10815 11.0625 5.78125C11.0625 6.45435 10.5168 7 9.84375 7ZM3.75 9.4375H10.25C9.70833 10.5208 8.62499 11.0625 6.99998 11.0625C5.37496 11.0625 4.29164 10.5208 3.75 9.4375Z" fill="white"/>
</svg>
