<svg width="24" height="24" viewBox="0 0 24 24" fill="none" xmlns="http://www.w3.org/2000/svg">
<path d="M14.069 22.3448H0.827586C0.827586 22.3448 0 15.7241 0 12C0 8.27587 0.827586 1.65518 0.827586 1.65518H14.069C14.069 1.65518 14.8966 8.27587 14.8966 12C14.8966 15.7241 14.069 22.3448 14.069 22.3448Z" fill="#EB423F"/>
<ellipse cx="7.44823" cy="6.2069" rx="4.13793" ry="2.06897" fill="#A82A27"/>
<path d="M9.5173 6.62068H5.37937C5.15084 6.62068 4.96558 6.43542 4.96558 6.20688C4.96558 5.97835 5.15084 5.79309 5.37937 5.79309H9.5173C9.74583 5.79309 9.93109 5.97835 9.93109 6.20688C9.93109 6.43542 9.74583 6.62068 9.5173 6.62068Z" fill="#C7312E"/>
<path d="M14.069 1.65517H0.827586L0 0H14.8966L14.069 1.65517Z" fill="#C7312E"/>
<path d="M0.827586 22.3448H14.069L14.8966 24H0L0.827586 22.3448Z" fill="#C7312E"/>
<path d="M7.99372 12.4138C9.59344 12.4138 10.8903 12.6978 10.8903 14.069C10.8903 15.4402 9.59344 16.5517 7.99372 16.5517C6.394 16.5517 5.09717 15.4402 5.09717 14.069C5.09717 12.6978 6.394 12.4138 7.99372 12.4138Z" fill="#E09F2C"/>
<path d="M6.24741 12.606C7.37857 13.7372 8.09479 14.855 7.12522 15.8245C6.15565 16.7941 4.45264 16.6631 3.32143 15.5319C2.19022 14.4007 2.05936 12.6978 3.02888 11.7282C3.9984 10.7586 5.11626 11.4748 6.24741 12.606Z" fill="#F7B030"/>
<path d="M9.10352 8.27585H20.6897V24H9.10352V8.27585Z" fill="#F7B030"/>
<path d="M20.6897 8.27585H24V24H20.6897V8.27585Z" fill="#E09F2C"/>
<circle cx="14.8966" cy="16.9655" r="2.89655" fill="#D49073"/>
<circle cx="14.8965" cy="14.4828" r="0.413793" fill="#AD6643"/>
<circle cx="13.6552" cy="17.3793" r="0.413793" fill="#AD6643"/>
<circle cx="13.2414" cy="15.7241" r="0.413793" fill="#AD6643"/>
<circle cx="15.7241" cy="18.2069" r="0.413793" fill="#AD6643"/>
<circle cx="16.9656" cy="16.9655" r="0.413793" fill="#AD6643"/>
<circle cx="14.0688" cy="19.0345" r="0.413793" fill="#AD6643"/>
<circle cx="15.3103" cy="16.1379" r="0.413793" fill="#AD6643"/>
<path d="M11.5862 10.3448H18.2069V12H11.5862V10.3448Z" fill="#AD6643"/>
<path d="M16.5518 22.3448H13.2414C13.0129 22.3448 12.8276 22.1596 12.8276 21.931C12.8276 21.7025 13.0129 21.5172 13.2414 21.5172H16.5518C16.7803 21.5172 16.9656 21.7025 16.9656 21.931C16.9656 22.1596 16.7803 22.3448 16.5518 22.3448Z" fill="#AD6643"/>
<path d="M6.20688 20.2759H4.13791C3.90938 20.2759 3.72412 20.0906 3.72412 19.8621C3.72412 19.6335 3.90938 19.4483 4.13791 19.4483H6.20688C6.43541 19.4483 6.62067 19.6335 6.62067 19.8621C6.62067 20.0906 6.43541 20.2759 6.20688 20.2759Z" fill="#C7312E"/>
<circle cx="2.48264" cy="19.8621" r="0.413793" fill="#C7312E"/>
</svg>
