<svg width="22" height="14" viewBox="0 0 22 14" fill="none" xmlns="http://www.w3.org/2000/svg">
<path fill-rule="evenodd" clip-rule="evenodd" d="M10.4401 5.56102C10.3728 5.49844 10.2991 5.44087 10.2192 5.38928L2.80339 0.600482C2.54731 0.435114 2.24895 0.347153 1.94411 0.347153C1.06929 0.347153 0.360107 1.05633 0.360107 1.93115V11.5088C0.360107 11.8136 0.448069 12.112 0.613437 12.368C1.08801 13.103 2.06848 13.314 2.80339 12.8394L10.2192 8.05063C10.298 7.99975 10.3719 7.94213 10.4401 7.87853V11.5088C10.4401 11.8136 10.5281 12.112 10.6934 12.368C11.168 13.103 12.1485 13.314 12.8834 12.8394L20.2992 8.05063C20.488 7.92872 20.6487 7.76803 20.7706 7.57924C21.2452 6.84433 21.0341 5.86385 20.2992 5.38928L12.8834 0.600482C12.6273 0.435114 12.3289 0.347153 12.0241 0.347153C11.1493 0.347153 10.4401 1.05633 10.4401 1.93115V5.56102Z" fill="black"/>
</svg>
