<svg width="22" height="14" viewBox="0 0 22 14" fill="none" xmlns="http://www.w3.org/2000/svg">
<path fill-rule="evenodd" clip-rule="evenodd" d="M11.5599 5.56102C11.6272 5.49844 11.7009 5.44087 11.7808 5.38928L19.1966 0.600482C19.4527 0.435114 19.7511 0.347153 20.0559 0.347153C20.9307 0.347153 21.6399 1.05633 21.6399 1.93115V11.5088C21.6399 11.8136 21.5519 12.112 21.3866 12.368C20.912 13.103 19.9315 13.314 19.1966 12.8394L11.7808 8.05063C11.702 7.99975 11.6281 7.94213 11.5599 7.87853V11.5088C11.5599 11.8136 11.4719 12.112 11.3066 12.368C10.832 13.103 9.85152 13.314 9.11661 12.8394L1.70078 8.05063C1.51199 7.92872 1.3513 7.76803 1.22939 7.57924C0.754824 6.84433 0.965868 5.86385 1.70078 5.38928L9.11661 0.600482C9.37269 0.435114 9.67105 0.347153 9.97589 0.347153C10.8507 0.347153 11.5599 1.05633 11.5599 1.93115V5.56102Z" fill="black"/>
</svg>
