<svg width="25" height="24" viewBox="0 0 25 24" xmlns="http://www.w3.org/2000/svg">
    <path d="M10.889 18c.55 0 1 .45 1 1s-.45 1-1 1h-2c-.55 0-1-.45-1-1s.45-1 1-1zm7.305-13.72a1.002 1.002 0 0 1 1.402.013l3 3a1 1 0 0 1-1.414 1.414L19.89 7.414v9.23l1.305-1.26a1 1 0 0 1 1.39 1.439l-3 2.897a1.005 1.005 0 0 1-1.402-.013l-3-3a.999.999 0 1 1 1.414-1.414l1.293 1.293v-9.23l-1.305 1.26a1 1 0 0 1-1.39-1.44zM10.89 11c.55 0 1 .45 1 1s-.45 1-1 1h-4c-.55 0-1-.45-1-1s.45-1 1-1zm0-7c.55 0 1 .45 1 1s-.45 1-1 1h-7c-.55 0-1-.45-1-1s.45-1 1-1z" fill="#FF5921" fill-rule="evenodd"/>
</svg>
