<svg width="24" height="24" viewBox="0 0 24 24" fill="none" xmlns="http://www.w3.org/2000/svg">
<g id="27) Icon/star-fill">
<path id="&#240;&#159;&#142;&#168; Icon &#208;&#161;olor" fill-rule="evenodd" clip-rule="evenodd" d="M17.0054 21C16.8632 21 16.7201 20.9649 16.5887 20.8927L11.9995 18.3629L7.41129 20.8927C7.10709 21.0589 6.73989 21.0304 6.46448 20.8177C6.18728 20.605 6.04958 20.2451 6.10808 19.8889L6.98199 14.5445L3.27394 10.7603C3.02734 10.5086 2.93824 10.1307 3.04354 9.78502C3.14884 9.44126 3.43055 9.18961 3.77075 9.13833L8.90081 8.35204L11.194 3.4843C11.4982 2.83857 12.5018 2.83857 12.806 3.4843L15.0992 8.35204L20.2292 9.13833C20.5695 9.18961 20.8512 9.44126 20.9565 9.78502C21.0618 10.1307 20.9727 10.5086 20.7261 10.7603L17.018 14.5445L17.8919 19.8889C17.9504 20.2451 17.8118 20.605 17.5355 20.8177C17.3789 20.9392 17.1926 21 17.0054 21" fill="#222B45"/>
<mask id="mask0_0_61112" style="mask-type:alpha" maskUnits="userSpaceOnUse" x="3" y="3" width="18" height="18">
<path id="&#240;&#159;&#142;&#168; Icon &#208;&#161;olor_2" fill-rule="evenodd" clip-rule="evenodd" d="M17.0054 21C16.8632 21 16.7201 20.9649 16.5887 20.8927L11.9995 18.3629L7.41129 20.8927C7.10709 21.0589 6.73989 21.0304 6.46448 20.8177C6.18728 20.605 6.04958 20.2451 6.10808 19.8889L6.98199 14.5445L3.27394 10.7603C3.02734 10.5086 2.93824 10.1307 3.04354 9.78502C3.14884 9.44126 3.43055 9.18961 3.77075 9.13833L8.90081 8.35204L11.194 3.4843C11.4982 2.83857 12.5018 2.83857 12.806 3.4843L15.0992 8.35204L20.2292 9.13833C20.5695 9.18961 20.8512 9.44126 20.9565 9.78502C21.0618 10.1307 20.9727 10.5086 20.7261 10.7603L17.018 14.5445L17.8919 19.8889C17.9504 20.2451 17.8118 20.605 17.5355 20.8177C17.3789 20.9392 17.1926 21 17.0054 21" fill="white"/>
</mask>
<g mask="url(#mask0_0_61112)">
</g>
</g>
</svg>
