<svg width="24" height="24" viewBox="0 0 24 24" xmlns="http://www.w3.org/2000/svg">
    <path d="M17.005 21a.864.864 0 0 1-.416-.107l-4.59-2.53-4.588 2.53a.863.863 0 0 1-.947-.075.973.973 0 0 1-.356-.93l.874-5.343-3.708-3.785a.988.988 0 0 1-.23-.975.913.913 0 0 1 .727-.647l5.13-.786 2.293-4.868c.304-.645 1.308-.645 1.612 0l2.293 4.868 5.13.786c.34.052.622.303.727.647a.988.988 0 0 1-.23.975l-3.708 3.785.874 5.344a.974.974 0 0 1-.356.929.862.862 0 0 1-.53.182" fill="#BABBC2" fill-rule="nonzero"/>
</svg>
