<svg width="24" height="24" viewBox="0 0 24 24" fill="none" xmlns="http://www.w3.org/2000/svg">
<g id="27) Icon/store">
<g id="shop">
<path id="Path" d="M21.9382 8.75578L19.9846 2.40961C19.9097 2.16633 19.6819 2 19.4237 2H4.57631C4.3181 2 4.09028 2.16633 4.01544 2.40961L2.06183 8.75578C2.04512 8.81004 2.03663 8.86641 2.03663 8.92309C2.03663 10.0828 2.73579 11.0842 3.74067 11.542C3.75294 11.5475 3.76524 11.553 3.77758 11.5584C3.81147 11.5733 3.84563 11.5875 3.88016 11.6011C3.89599 11.6074 3.91179 11.6136 3.92774 11.6196C3.9481 11.6273 3.96849 11.6347 3.98905 11.6419C4.01528 11.6511 4.04167 11.6599 4.06825 11.6683C4.08948 11.6751 4.11083 11.6815 4.1323 11.6878C4.15563 11.6946 4.17913 11.7012 4.20266 11.7075C4.21821 11.7116 4.23369 11.716 4.24936 11.7198C4.28484 11.7287 4.32063 11.7367 4.35663 11.7443C4.37083 11.7472 4.38508 11.7501 4.39936 11.7529C4.43774 11.7603 4.47627 11.7673 4.51512 11.7732C4.52317 11.7745 4.53135 11.7754 4.5394 11.7766C4.57575 11.7819 4.6123 11.7864 4.64909 11.7904C4.65877 11.7915 4.66845 11.7926 4.67821 11.7936C4.72012 11.7976 4.76234 11.8007 4.80476 11.803C4.81405 11.8036 4.82337 11.8039 4.8327 11.8043C4.87722 11.8063 4.92194 11.8077 4.96702 11.8077C5.29615 11.8077 5.61282 11.754 5.90837 11.655C6.04274 11.61 6.17274 11.5557 6.29758 11.4929C6.32254 11.4803 6.3473 11.4673 6.37186 11.4541C6.47004 11.4011 6.56488 11.3427 6.65583 11.2793C6.67857 11.2634 6.70107 11.2473 6.72333 11.2308C6.94595 11.0662 7.14409 10.8712 7.31127 10.652C7.47849 10.8712 7.67663 11.0662 7.89925 11.2308C7.92151 11.2473 7.94401 11.2634 7.96675 11.2793C8.05774 11.3427 8.15254 11.4011 8.25071 11.4541C8.27524 11.4674 8.30004 11.4803 8.325 11.4929C8.44984 11.5557 8.57988 11.6101 8.71421 11.655C9.00988 11.754 9.32651 11.8077 9.65563 11.8077C9.98476 11.8077 10.3014 11.754 10.597 11.655C10.7313 11.61 10.8613 11.5557 10.9862 11.4929C11.0112 11.4803 11.0359 11.4673 11.0605 11.4541C11.1587 11.4011 11.2535 11.3427 11.3444 11.2793C11.3672 11.2634 11.3897 11.2473 11.4119 11.2308C11.6346 11.0662 11.8327 10.8712 11.9999 10.652C12.1671 10.8712 12.3652 11.0662 12.5878 11.2308C12.6101 11.2473 12.6326 11.2634 12.6553 11.2793C12.7463 11.3427 12.8411 11.4011 12.9393 11.4541C12.9638 11.4674 12.9886 11.4803 13.0136 11.4929C13.1384 11.5557 13.2685 11.6101 13.4028 11.655C13.6985 11.754 14.0151 11.8077 14.3442 11.8077C14.6733 11.8077 14.99 11.754 15.2856 11.655C15.4199 11.61 15.5499 11.5557 15.6748 11.4929C15.6997 11.4803 15.7245 11.4673 15.749 11.4541C15.8472 11.4011 15.9421 11.3427 16.033 11.2793C16.0558 11.2634 16.0783 11.2473 16.1005 11.2308C16.3231 11.0662 16.5213 10.8712 16.6885 10.652C16.8557 10.8712 17.0538 11.0662 17.2764 11.2308C17.2987 11.2473 17.3212 11.2634 17.3439 11.2793C17.4349 11.3427 17.5297 11.4011 17.6279 11.4541C17.6524 11.4674 17.6772 11.4803 17.7022 11.4929C17.827 11.5557 17.9571 11.6101 18.0914 11.655C18.3871 11.754 18.7037 11.8077 19.0328 11.8077C19.0779 11.8077 19.1227 11.8064 19.1672 11.8043C19.1765 11.8039 19.1858 11.8036 19.1951 11.803C19.2375 11.8007 19.2798 11.7976 19.3217 11.7936C19.3314 11.7926 19.3411 11.7915 19.3508 11.7904C19.3876 11.7865 19.4242 11.7819 19.4605 11.7767C19.4686 11.7755 19.4768 11.7746 19.4848 11.7733C19.5237 11.7673 19.5622 11.7604 19.6006 11.7529C19.6148 11.7501 19.6291 11.7473 19.6433 11.7443C19.6793 11.7368 19.7151 11.7287 19.7506 11.7199C19.7662 11.716 19.7817 11.7116 19.7973 11.7075C19.8208 11.7012 19.8443 11.6947 19.8676 11.6878C19.8891 11.6816 19.9104 11.6751 19.9317 11.6684C19.9583 11.6599 19.9846 11.6511 20.0109 11.642C20.0314 11.6348 20.0519 11.6273 20.0722 11.6197C20.0881 11.6137 20.1039 11.6075 20.1198 11.6012C20.1543 11.5875 20.1885 11.5733 20.2223 11.5584C20.2347 11.553 20.247 11.5475 20.2592 11.542C21.264 11.0841 21.9632 10.0828 21.9632 8.92309C21.9634 8.86637 21.9549 8.81004 21.9382 8.75578Z" fill="black"/>
<rect id="Rectangle" x="7.11599" y="16.4231" width="3.51647" height="5.57691" fill="black"/>
<rect id="Rectangle_2" x="14.149" y="14.1154" width="2.73504" height="1.92309" fill="black"/>
<path id="Path_2" d="M19.033 12.9615C18.3866 12.9615 17.7418 12.8088 17.1684 12.52C17.0023 12.4363 16.8419 12.3412 16.6887 12.2357C16.5354 12.3412 16.375 12.4364 16.2089 12.52C15.6355 12.8088 14.9908 12.9615 14.3443 12.9615H17.4701C17.7938 12.9615 18.0562 13.2198 18.0562 13.5384V16.6153C18.0562 16.934 17.7937 17.1923 17.4701 17.1923H13.5629C13.2392 17.1923 12.9768 16.9339 12.9768 16.6153V13.5384C12.9768 13.2198 13.2392 12.9615 13.5629 12.9615H14.3443C13.6979 12.9615 13.0531 12.8088 12.4797 12.52C12.3137 12.4363 12.1533 12.3412 12 12.2357C11.8467 12.3412 11.6863 12.4364 11.5203 12.52C10.9469 12.8088 10.3021 12.9615 9.65567 12.9615C9.00925 12.9615 8.36448 12.8088 7.79107 12.52C7.625 12.4363 7.4646 12.3412 7.31135 12.2357C7.15806 12.3412 6.9977 12.4364 6.83163 12.52C6.25821 12.8088 5.61345 12.9615 4.96702 12.9615C4.4877 12.9615 4.02746 12.8799 3.59948 12.7305V21.423C3.59948 21.7417 3.86191 22 4.18556 22H5.94381V15.8462C5.94381 15.5275 6.20623 15.2693 6.52988 15.2693H11.2185C11.5422 15.2693 11.8046 15.5276 11.8046 15.8462V22H19.8144C20.1381 22 20.4004 21.7417 20.4004 21.4231V12.7305C19.9725 12.8799 19.5123 12.9615 19.033 12.9615Z" fill="black"/>
</g>
</g>
</svg>
