<svg xmlns="http://www.w3.org/2000/svg" width="36" height="36" viewBox="0 0 36 36">
    <defs>
        <filter id="cjxx869k0a">
            <feColorMatrix in="SourceGraphic" values="0 0 0 0 0.949020 0 0 0 0 0.321569 0 0 0 0 0.407843 0 0 0 1.000000 0"/>
        </filter>
    </defs>
    <g fill="none" fill-rule="evenodd">
        <g filter="url(#cjxx869k0a)" transform="translate(-304 -790)">
            <g>
                <path d="M0 0H36V36H0z" transform="translate(304 790)"/>
                <path fill="#000" fill-rule="nonzero" d="M24.561 29.908l8.773-13.159c.345-.517.205-1.215-.312-1.56-.185-.123-.402-.189-.624-.189H25.5V6.716c0-.622-.504-1.125-1.125-1.125-.376 0-.727.188-.936.5l-8.773 13.16c-.345.517-.205 1.215.312 1.56.185.123.402.189.624.189H22.5v8.284c0 .622.504 1.125 1.125 1.125.376 0 .727-.188.936-.5z" transform="translate(304 790)"/>
                <path fill="#000" fill-rule="nonzero" d="M6.75 7.5h7.5c1.243 0 2.25 1.007 2.25 2.25S15.493 12 14.25 12h-7.5C5.507 12 4.5 10.993 4.5 9.75S5.507 7.5 6.75 7.5zm0 18h7.5c1.243 0 2.25 1.007 2.25 2.25S15.493 30 14.25 30h-7.5c-1.243 0-2.25-1.007-2.25-2.25s1.007-2.25 2.25-2.25zm-3-9h6c1.243 0 2.25 1.007 2.25 2.25S10.993 21 9.75 21h-6c-1.243 0-2.25-1.007-2.25-2.25s1.007-2.25 2.25-2.25z" opacity=".3" transform="translate(304 790)"/>
            </g>
        </g>
    </g>
</svg>
