<svg xmlns="http://www.w3.org/2000/svg" width="80" height="64" viewBox="0 0 80 64">
    <g fill="none" fill-rule="evenodd">
        <g fill-rule="nonzero">
            <g>
                <g transform="translate(-148 -661) translate(20 637) translate(128 24)">
                    <circle cx="3.801" cy="56.071" r="3.611" fill="#FF5921"/>
                    <circle cx="3.801" cy="31.742" r="3.611" fill="#FF5921"/>
                    <circle cx="3.801" cy="7.413" r="3.611" fill="#FF5921"/>
                    <path fill="#E6E6E6" d="M17.264 0c-.612 0-1.107.493-1.108 1.101v12.243c0 .608.496 1.1 1.108 1.101H76.25c.612 0 1.108-.493 1.108-1.101V1.101c0-.608-.496-1.1-1.108-1.101H17.264z"/>
                    <path fill="#FFF" d="M17.557.76c-.354 0-.64.29-.64.649v11.628c0 .358.286.648.64.648h58.02c.354 0 .64-.29.64-.648V1.409c0-.358-.286-.648-.64-.649h-58.02z"/>
                    <path fill="#E6E6E6" d="M72.131 10.264c.373 0 .719-.18.906-.475.187-.294.187-.657 0-.951-.187-.294-.533-.475-.906-.475h-49.23c-.576 0-1.043.426-1.043.95 0 .525.467.95 1.043.95h49.23z"/>
                    <path fill="#FF5921" d="M44.006 5.702c.575 0 1.04-.425 1.04-.95 0-.525-.465-.95-1.04-.95H22.899c-.575 0-1.041.425-1.041.95 0 .525.466.95 1.04.95h21.108z"/>
                    <path fill="#E6E6E6" d="M17.264 24.329c-.612 0-1.107.493-1.108 1.101v12.243c0 .608.496 1.1 1.108 1.101H76.25c.612 0 1.108-.493 1.108-1.101V25.43c0-.608-.496-1.1-1.108-1.101H17.264z"/>
                    <path fill="#FFF" d="M17.557 25.09c-.354 0-.64.29-.64.648v11.628c0 .357.286.648.64.648h58.02c.354 0 .64-.29.64-.648V25.738c0-.358-.286-.648-.64-.649h-58.02z"/>
                    <path fill="#E6E6E6" d="M72.131 34.593c.373 0 .719-.18.906-.475.187-.294.187-.657 0-.951-.187-.294-.533-.476-.906-.475h-49.23c-.576 0-1.043.426-1.043.95 0 .525.467.95 1.043.95h49.23z"/>
                    <path fill="#FF5921" d="M44.006 30.411c.575 0 1.04-.425 1.04-.95 0-.525-.465-.95-1.04-.95H22.899c-.372 0-.716.18-.902.475-.185.294-.185.656 0 .95.186.294.53.475.902.475h21.107z"/>
                    <path fill="#E6E6E6" d="M17.264 48.658c-.612 0-1.107.493-1.108 1.101v12.243c0 .608.496 1.1 1.108 1.101H76.25c.612 0 1.108-.493 1.108-1.101V49.759c0-.608-.496-1.1-1.108-1.101H17.264z"/>
                    <path fill="#FFF" d="M17.557 49.418c-.354 0-.64.29-.64.648v11.628c0 .358.286.648.64.649h58.02c.354 0 .64-.29.64-.649V50.066c0-.357-.286-.648-.64-.648h-58.02z"/>
                    <path fill="#E6E6E6" d="M72.131 59.302c.373 0 .719-.18.906-.475.187-.294.187-.657 0-.951-.187-.294-.533-.475-.906-.475h-49.23c-.576 0-1.043.426-1.043.95 0 .525.467.95 1.043.95h49.23z"/>
                    <path fill="#FF5921" d="M44.006 54.74c.575 0 1.04-.425 1.04-.95 0-.525-.465-.95-1.04-.95H22.899c-.575 0-1.041.425-1.041.95 0 .525.466.95 1.04.95h21.108z"/>
                </g>
            </g>
        </g>
    </g>
</svg>
