<svg xmlns="http://www.w3.org/2000/svg" width="24" height="24" viewBox="0 0 24 24">
    <g fill="none" fill-rule="evenodd">
        <g>
            <g>
                <g>
                    <path d="M0 0H24V24H0z" transform="translate(-322 -464) translate(316 458) translate(6 6)"/>
                    <g fill="#FF5921" fill-rule="nonzero" transform="translate(-322 -464) translate(316 458) translate(6 6) translate(3.75 3.75)">
                        <rect width="7" height="7" x=".25" y=".25" rx="1.5"/>
                        <path d="M1.75 9.25h4c.828 0 1.5.672 1.5 1.5v4c0 .828-.672 1.5-1.5 1.5h-4c-.828 0-1.5-.672-1.5-1.5v-4c0-.828.672-1.5 1.5-1.5zm9-9h4c.828 0 1.5.672 1.5 1.5v4c0 .828-.672 1.5-1.5 1.5h-4c-.828 0-1.5-.672-1.5-1.5v-4c0-.828.672-1.5 1.5-1.5zm0 9h4c.828 0 1.5.672 1.5 1.5v4c0 .828-.672 1.5-1.5 1.5h-4c-.828 0-1.5-.672-1.5-1.5v-4c0-.828.672-1.5 1.5-1.5z" opacity=".3"/>
                    </g>
                </g>
            </g>
        </g>
    </g>
</svg>
