<svg width="24" height="24" viewBox="0 0 24 24" fill="none" xmlns="http://www.w3.org/2000/svg">
<circle cx="12" cy="12" r="12" fill="#F7F0E6"/>
<circle cx="12.0001" cy="12" r="8.55234" fill="#EEE2D4"/>
<path d="M16.6336 8.62506L11.5042 20.4624C14.4636 20.8209 17.3908 19.292 18.5979 16.5063C19.8051 13.7206 18.919 10.5392 16.6336 8.62506Z" fill="#FFD29B"/>
<path d="M17.4809 11.9108C17.6334 14.0675 18.5079 14.7674 17.4588 16.0128C16.4318 17.2318 15.7462 17.3465 14.4759 18.6417C13.6374 19.4966 12.6523 19.5047 12.0249 19.2605L11.5042 20.4623C14.4636 20.8208 17.3908 19.292 18.5979 16.5062C19.8051 13.7205 18.9189 10.5392 16.6336 8.625L16.1114 9.83016C16.8251 10.0944 17.4205 11.0575 17.4809 11.9108Z" fill="#FFC173"/>
<path d="M18.7448 10.5927C19.7194 12.4611 19.8433 14.6734 18.9775 16.6709C17.7181 19.577 14.695 21.2659 11.4543 20.8729C11.2274 20.8455 11.0658 20.6389 11.0934 20.4126C11.1208 20.1855 11.3271 20.0241 11.5541 20.0516C14.4277 20.3999 17.1058 18.9087 18.2182 16.3419C19.3306 13.775 18.5879 10.8016 16.368 8.94237C16.1934 8.79645 16.1694 8.53456 16.3164 8.35943C16.4633 8.1844 16.7242 8.16129 16.8993 8.30787C17.682 8.96346 18.3014 9.74243 18.7448 10.5927Z" fill="#C89673"/>
<ellipse cx="15.8544" cy="14.3401" rx="1.07334" ry="0.853453" transform="rotate(-72.3261 15.8544 14.3401)" fill="#FFE2AB"/>
<path d="M6.83212 12.8363L17.81 6.05983C15.5874 4.07313 12.3118 3.65313 9.72834 5.24787C7.14487 6.8426 6.05226 9.95904 6.83212 12.8363Z" fill="#FFD29B"/>
<path d="M8.01639 9.65637C9.1247 7.79998 8.80759 6.72574 10.3805 6.30419C11.9202 5.89155 12.5481 6.18963 14.331 5.85373C15.5077 5.63201 16.3205 6.18879 16.6954 6.74787L17.81 6.05983C15.5875 4.07313 12.3118 3.65313 9.72836 5.24787C7.14489 6.8426 6.05224 9.95904 6.83214 12.8363L7.94978 12.1464C7.51544 11.5214 7.57788 10.3909 8.01639 9.65637Z" fill="#FFC173"/>
<path d="M6.22564 10.0149C6.49484 7.92474 7.65852 6.0391 9.51111 4.89573C12.2062 3.23213 15.6521 3.57573 18.0857 5.75157C18.2562 5.90392 18.2705 6.16571 18.1185 6.33559C17.9661 6.50621 17.7045 6.5206 17.5341 6.36831C15.3761 4.43903 12.3265 4.13059 9.94583 5.59998C7.56519 7.06937 6.47394 9.9332 7.23158 12.728C7.2913 12.9475 7.16122 13.1761 6.94048 13.2356C6.71994 13.2952 6.49264 13.1649 6.43283 12.9445C6.16573 11.9591 6.10316 10.9659 6.22564 10.0149Z" fill="#C89673"/>
<circle cx="10.4738" cy="8.37935" r="0.965531" fill="#FFE2AB"/>
<ellipse cx="11.9993" cy="12.4141" rx="0.8275" ry="0.689599" transform="rotate(-124.982 11.9993 12.4141)" fill="#FF6464"/>
<ellipse cx="13.2415" cy="8.68943" rx="0.827575" ry="0.689669" transform="rotate(-51.0234 13.2415 8.68943)" fill="#FF6464"/>
<ellipse cx="7.03452" cy="6.20667" rx="0.827578" ry="0.724125" transform="rotate(-128.178 7.03452 6.20667)" fill="#FF6464"/>
<ellipse cx="16.1372" cy="15.7227" rx="0.827493" ry="0.741294" transform="rotate(-10.1839 16.1372 15.7227)" fill="#FF6464"/>
<ellipse cx="6.54936" cy="17.793" rx="0.82756" ry="0.757015" transform="rotate(-59.9993 6.54936 17.793)" fill="#D75050"/>
<path d="M10.4739 8.37933C10.4088 8.37933 10.3425 8.36396 10.2807 8.33124C10.0787 8.22436 10.0014 7.97382 10.1086 7.77197L10.3413 7.33233C10.4484 7.13068 10.6977 7.05249 10.9006 7.16021C11.1026 7.26708 11.1798 7.51763 11.0727 7.71947L10.8399 8.15911C10.7656 8.29932 10.6221 8.37933 10.4739 8.37933Z" fill="#87CD6E"/>
<path d="M17.2505 13.4741C17.1067 13.4741 16.9673 13.3993 16.8909 13.2656L16.5805 12.7225C16.467 12.5241 16.5361 12.2713 16.7345 12.158C16.9325 12.0445 17.1855 12.1136 17.299 12.3119L17.6093 12.855C17.7229 13.0534 17.6538 13.3062 17.4554 13.4195C17.3907 13.4565 17.32 13.4741 17.2505 13.4741Z" fill="#87CD6E"/>
<path d="M19.1726 9.138C19.0412 9.138 18.9123 9.07575 18.8319 8.9596C18.7018 8.77167 18.7487 8.51386 18.9366 8.38397L19.3852 8.07361C19.5731 7.94311 19.8309 7.99036 19.961 8.17847C20.0911 8.36639 20.0442 8.62421 19.8563 8.7541L19.4078 9.06446C19.3358 9.11414 19.2538 9.138 19.1726 9.138Z" fill="#ADDF6E"/>
<path d="M3.24079 11.5516C3.17854 11.5516 3.11554 11.5377 3.05573 11.5078C2.85168 11.4054 2.76881 11.1568 2.87146 10.9526L3.00965 10.6766C3.11189 10.4723 3.3592 10.3896 3.56489 10.4921C3.76893 10.5945 3.85181 10.8431 3.74915 11.0473L3.61096 11.3233C3.53859 11.468 3.39234 11.5516 3.24079 11.5516Z" fill="#ADDF6E"/>
<path d="M12.5864 15.138C12.487 15.138 12.3872 15.1024 12.308 15.0305L11.9286 14.6856C11.7597 14.5318 11.7471 14.27 11.9007 14.1009C12.0546 13.9322 12.3169 13.9198 12.4854 14.073L12.8648 14.4179C13.0337 14.5716 13.0463 14.8335 12.8927 15.0026C12.8111 15.0923 12.6988 15.138 12.5864 15.138Z" fill="#ADDF6E"/>
<path d="M14.0351 11.3104C13.9151 11.3104 13.7962 11.2587 13.7146 11.1587C13.5695 10.9819 13.5958 10.7213 13.7724 10.5764L14.1515 10.266C14.3288 10.121 14.5891 10.1473 14.7337 10.3242C14.8788 10.501 14.8525 10.7617 14.6759 10.9065L14.2969 11.2169C14.2197 11.2797 14.1272 11.3104 14.0351 11.3104Z" fill="#ADDF6E"/>
<path d="M13.9651 6.44833C13.8928 6.44833 13.8193 6.42934 13.7526 6.38931L13.4079 6.18241C13.2119 6.0648 13.1485 5.81064 13.2661 5.61466C13.3837 5.41867 13.6378 5.35483 13.8338 5.47281L14.1785 5.67972C14.3745 5.79733 14.4379 6.05149 14.3203 6.24747C14.2428 6.3768 14.1058 6.44833 13.9651 6.44833Z" fill="#ADDF6E"/>
<path d="M9.03482 4.58629C8.91318 4.58629 8.79318 4.53314 8.71115 4.4309C8.56851 4.2525 8.59762 3.99206 8.77579 3.84942L8.94834 3.71142C9.12735 3.56817 9.38718 3.59765 9.53024 3.77606C9.67288 3.95447 9.64377 4.2149 9.4656 4.35754L9.29306 4.49554C9.2167 4.55657 9.12534 4.58629 9.03482 4.58629Z" fill="#ADDF6E"/>
<path d="M15.4142 18.6207C15.2675 18.6207 15.1257 18.5427 15.0505 18.4051L14.8436 18.0259C14.7341 17.8252 14.808 17.5739 15.0089 17.4644C15.2085 17.3547 15.4607 17.4288 15.5702 17.6295L15.7771 18.0087C15.8866 18.2094 15.8127 18.4607 15.6118 18.5702C15.5492 18.6046 15.4813 18.6207 15.4142 18.6207Z" fill="#ADDF6E"/>
<path d="M13.9603 18.4925L5.83702 8.47021C4.15051 10.9283 4.15238 14.2308 6.06408 16.5893C7.97579 18.9479 11.2062 19.6335 13.9603 18.4925Z" fill="#FFD29B"/>
<path d="M10.6551 17.7242C8.67235 16.8621 7.64743 17.3138 7.0284 15.8076C6.42249 14.3333 6.63788 13.6725 6.07697 11.9471C5.70676 10.8083 6.15516 9.93104 6.66179 9.48784L5.83702 8.47028C4.15051 10.9284 4.15238 14.2308 6.06408 16.5894C7.97579 18.948 11.2062 19.6336 13.9603 18.4925L13.1333 17.4722C12.5689 17.9828 11.4397 18.0653 10.6551 17.7242Z" fill="#FFC173"/>
<path d="M11.2396 19.4544C9.13223 19.4544 7.11337 18.5411 5.7427 16.8498C3.74849 14.3892 3.64907 10.9278 5.49618 8.23606C5.62551 8.04753 5.88332 7.99985 6.0712 8.12899C6.25991 8.25832 6.30759 8.5159 6.17826 8.70443C4.54045 11.0912 4.62412 14.1552 6.38554 16.3287C8.14696 18.5022 11.1268 19.2186 13.8019 18.1101C14.0121 18.0229 14.2553 18.1227 14.3426 18.334C14.4299 18.5451 14.3296 18.7872 14.1187 18.8747C13.1756 19.2655 12.1985 19.4544 11.2396 19.4544Z" fill="#C89673"/>
<ellipse cx="9.37488" cy="15.2977" rx="0.918094" ry="0.866391" fill="#FFE2AB"/>
<path d="M7.44824 14.4828C7.21953 14.4828 7.03442 14.2975 7.03442 14.069V13.2414C7.03442 13.0129 7.21949 12.8276 7.44824 12.8276C7.67694 12.8276 7.86205 13.0129 7.86205 13.2414V14.069C7.862 14.2975 7.67694 14.4828 7.44824 14.4828Z" fill="#ADDF6E"/>
<path d="M9.51732 16.5517H9.10351C8.87481 16.5517 8.6897 16.3664 8.6897 16.1379C8.6897 15.9094 8.87476 15.7241 9.10351 15.7241H9.51732C9.74603 15.7241 9.93113 15.9094 9.93113 16.1379C9.93113 16.3664 9.74607 16.5517 9.51732 16.5517Z" fill="#87CD6E"/>
<path d="M13.2099 8.3861C13.254 8.20803 13.327 8.05104 13.4151 7.91792C13.1671 7.90282 12.8958 8.02039 12.7053 8.25584C12.4178 8.61115 12.4247 9.09345 12.7209 9.33303C12.9 9.47796 13.1437 9.49906 13.3721 9.41585C13.1808 9.19695 13.1072 8.80132 13.2099 8.3861Z" fill="#D75050"/>
<path d="M7.13757 6.44758C6.88562 6.12714 6.88051 5.70264 7.105 5.43892C6.89996 5.39214 6.68814 5.42641 6.52286 5.5563C6.20846 5.80351 6.18259 6.29514 6.46511 6.65444C6.74757 7.01373 7.23146 7.10462 7.54586 6.85745C7.57989 6.83069 7.6089 6.79994 7.63614 6.76797C7.45117 6.72578 7.27159 6.61801 7.13757 6.44758Z" fill="#D75050"/>
<path d="M12.1419 12.7402C11.8925 12.3837 11.9203 11.9338 12.1924 11.7027C11.9674 11.5986 11.7176 11.6014 11.5256 11.7357C11.2135 11.9541 11.173 12.4347 11.435 12.8092C11.6971 13.1837 12.1625 13.3102 12.4745 13.0919C12.4896 13.0814 12.5009 13.0676 12.5147 13.0559C12.3739 12.9907 12.2428 12.8843 12.1419 12.7402Z" fill="#D75050"/>
<path d="M15.8664 15.5601C15.8296 15.355 15.8916 15.1531 16.0199 14.9932C16.0155 14.994 16.0112 14.9936 16.0068 14.9944C15.5569 15.0752 15.251 15.4674 15.3233 15.8704C15.3958 16.2735 15.8191 16.5346 16.269 16.4538C16.4899 16.4141 16.6753 16.2988 16.799 16.1446C16.3541 16.218 15.9382 15.9591 15.8664 15.5601Z" fill="#D75050"/>
</svg>
