<svg xmlns="http://www.w3.org/2000/svg" width="24" height="24" viewBox="0 0 24 24">
    <defs>
        <filter id="sohgd1bvya">
            <feColorMatrix in="SourceGraphic" values="0 0 0 0 0.729412 0 0 0 0 0.731503 0 0 0 0 0.760784 0 0 0 1.000000 0"/>
        </filter>
    </defs>
    <g fill="none" fill-rule="evenodd">
        <g>
            <g>
                <g>
                    <g filter="url(#sohgd1bvya)" transform="translate(-136 -272) translate(20 185) translate(116 83) translate(0 4)">
                        <g>
                            <path fill="#000" fill-rule="nonzero" d="M11.98 13.784v5.177H7.982v-5.177c0-.454.295-.823.657-.823h2.685c.363 0 .658.37.658.823zm6.524-3.769c-1.153.45-2.5.267-3.483-.521-.126-.1-.308-.101-.434 0-1.266 1.016-3.121 1.016-4.388 0-.127-.1-.31-.1-.436 0-1.268 1.017-3.124 1.016-4.39 0-.125-.102-.307-.102-.433 0-.984.789-2.33.97-3.483.521-.218-.085-.457.069-.457.293v7.073c0 .873.744 1.58 1.663 1.58H6.28v-5.964c0-.872.746-1.58 1.663-1.58h4.075c.917 0 1.663.708 1.663 1.58v5.964H17.3c.918 0 1.663-.707 1.663-1.58v-7.073c0-.224-.24-.378-.458-.293zM20 5.195L17.77.2C17.718.079 17.598 0 17.465 0H2.496c-.132 0-.252.077-.305.198L.03 5.124C-.01 5.211.002 4.08.002 6.292c.002 1.494 1.233 2.709 2.744 2.709.943 0 1.778-.474 2.272-1.194.067-.097.21-.097.278 0C6.388 9.4 8.75 9.396 9.842 7.81c.067-.098.21-.098.278 0 1.091 1.588 3.453 1.589 4.545 0 .066-.097.21-.1.276-.004.5.73 1.35 1.208 2.31 1.196C18.76 8.98 19.96 7.74 19.96 6.25L20 5.196z" transform="translate(2 3)"/>
                        </g>
                    </g>
                </g>
            </g>
        </g>
    </g>
</svg>
