<svg width="16" height="16" viewBox="0 0 16 16" fill="none" xmlns="http://www.w3.org/2000/svg">
<g clip-path="url(#clip0_1583_132379)">
<path d="M1.3335 5.58571C1.3335 5.35216 1.3335 5.23539 1.34324 5.13704C1.43723 4.18841 2.18767 3.43796 3.1363 3.34397C3.23466 3.33423 3.35773 3.33423 3.60389 3.33423C3.69873 3.33423 3.74616 3.33423 3.78642 3.33179C4.30057 3.30065 4.7508 2.97615 4.94293 2.49823C4.95797 2.4608 4.97204 2.41861 5.00016 2.33423C5.02829 2.24985 5.04235 2.20766 5.0574 2.17023C5.24953 1.69231 5.69976 1.36781 6.21391 1.33667C6.25417 1.33423 6.29864 1.33423 6.38759 1.33423H9.61274C9.70168 1.33423 9.74616 1.33423 9.78642 1.33667C10.3006 1.36781 10.7508 1.69231 10.9429 2.17023C10.958 2.20766 10.972 2.24985 11.0002 2.33423C11.0283 2.41861 11.0424 2.4608 11.0574 2.49823C11.2495 2.97615 11.6998 3.30065 12.2139 3.33179C12.2542 3.33423 12.3016 3.33423 12.3964 3.33423C12.6426 3.33423 12.7657 3.33423 12.864 3.34397C13.8127 3.43796 14.5631 4.18841 14.6571 5.13704C14.6668 5.23539 14.6668 5.35216 14.6668 5.58571V10.8009C14.6668 11.921 14.6668 12.4811 14.4488 12.9089C14.2571 13.2852 13.9511 13.5912 13.5748 13.7829C13.147 14.0009 12.5869 14.0009 11.4668 14.0009H4.5335C3.41339 14.0009 2.85334 14.0009 2.42552 13.7829C2.04919 13.5912 1.74323 13.2852 1.55148 12.9089C1.3335 12.4811 1.3335 11.921 1.3335 10.8009V5.58571Z" stroke="#1D2939" stroke-width="1.6" stroke-linecap="round" stroke-linejoin="round"/>
<path d="M8.00016 11.0009C9.47292 11.0009 10.6668 9.80699 10.6668 8.33423C10.6668 6.86147 9.47292 5.66756 8.00016 5.66756C6.5274 5.66756 5.3335 6.86147 5.3335 8.33423C5.3335 9.80699 6.5274 11.0009 8.00016 11.0009Z" stroke="#1D2939" stroke-width="1.6" stroke-linecap="round" stroke-linejoin="round"/>
</g>
<defs>
<clipPath id="clip0_1583_132379">
<rect width="16" height="16" fill="white" transform="translate(0 0.000976562)"/>
</clipPath>
</defs>
</svg>
