<svg width="16" height="16" viewBox="0 0 16 16" fill="none" xmlns="http://www.w3.org/2000/svg">
<path d="M7.52193 2.30327C7.67559 1.99198 7.75242 1.83633 7.85672 1.7866C7.94746 1.74333 8.05289 1.74333 8.14363 1.7866C8.24793 1.83633 8.32476 1.99198 8.47842 2.30327L9.9362 5.25658C9.98157 5.34848 10.0042 5.39443 10.0374 5.43011C10.0667 5.4617 10.1019 5.48729 10.141 5.50547C10.1852 5.52601 10.2359 5.53342 10.3373 5.54824L13.5982 6.02486C13.9415 6.07505 14.1132 6.10015 14.1927 6.18402C14.2618 6.25699 14.2943 6.35726 14.2812 6.45691C14.266 6.57144 14.1417 6.69251 13.8931 6.93465L11.5345 9.232C11.4609 9.30362 11.4242 9.33943 11.4004 9.38203C11.3794 9.41976 11.366 9.4612 11.3608 9.50406C11.3549 9.55247 11.3636 9.60305 11.3809 9.70422L11.9375 12.9491C11.9962 13.2914 12.0255 13.4625 11.9704 13.5641C11.9224 13.6524 11.8371 13.7144 11.7382 13.7327C11.6246 13.7538 11.4709 13.673 11.1636 13.5113L8.24841 11.9783C8.15758 11.9305 8.11217 11.9066 8.06432 11.8972C8.02196 11.8889 7.97839 11.8889 7.93602 11.8972C7.88818 11.9066 7.84276 11.9305 7.75193 11.9783L4.83678 13.5113C4.52944 13.673 4.37577 13.7538 4.26214 13.7327C4.16328 13.7144 4.07798 13.6524 4.02999 13.5641C3.97483 13.4625 4.00418 13.2914 4.06288 12.9491L4.61942 9.70422C4.63677 9.60305 4.64545 9.55247 4.63958 9.50406C4.63438 9.4612 4.6209 9.41976 4.5999 9.38203C4.57618 9.33943 4.53941 9.30362 4.46589 9.232L2.1072 6.93465C1.8586 6.69251 1.73431 6.57144 1.71918 6.45691C1.70602 6.35726 1.73853 6.25699 1.80766 6.18402C1.88712 6.10015 2.05881 6.07505 2.40219 6.02486L5.66304 5.54824C5.76445 5.53342 5.81515 5.52601 5.85931 5.50547C5.89841 5.48729 5.9336 5.4617 5.96295 5.43011C5.9961 5.39443 6.01878 5.34848 6.06415 5.25658L7.52193 2.30327Z" fill="#FAC515" stroke="#FAC515" stroke-linecap="round" stroke-linejoin="round"/>
</svg>
